<svg xmlns="http://www.w3.org/2000/svg" width="59" height="59" viewBox="0 0 59 59">
  <g id="com_bitcointalk" transform="translate(-6 -6)">
    <circle id="Ellipse_68" data-name="Ellipse 68" cx="29.5" cy="29.5" r="29.5" transform="translate(6 6)" fill="#f4f4f4"/>
    <g id="Group_8904" data-name="Group 8904" transform="translate(18.141 18.788)">
      <path id="Path_8109" data-name="Path 8109" d="M212.147,215.4H209.9v2.329h2.247a1.165,1.165,0,0,0,0-2.329Z" transform="translate(-198.053 -203.553)" fill="#9b1c2e"/>
      <path id="Path_8110" data-name="Path 8110" d="M212.059,178.3H209.8v2.329h2.259a1.165,1.165,0,0,0,0-2.329Z" transform="translate(-197.965 -170.818)" fill="#9b1c2e"/>
      <path id="Path_8111" data-name="Path 8111" d="M134.728,116.276a5.349,5.349,0,0,0-3.8-1.576H114.576a5.382,5.382,0,0,0-5.376,5.376V139.7a1.016,1.016,0,0,0,.624.941,1.149,1.149,0,0,0,.388.082,1.015,1.015,0,0,0,.718-.294l4.059-4.059h15.929a5.382,5.382,0,0,0,5.376-5.376V120.088A5.3,5.3,0,0,0,134.728,116.276Zm-8.235,11.435a3.129,3.129,0,0,1-.941,2.259,3.2,3.2,0,0,1-2.259.941h-.071v1.165a1.023,1.023,0,1,1-2.047,0v-1.165h-2.259a1.023,1.023,0,1,1,0-2.047h.071v-6.682h-.071a1.023,1.023,0,1,1,0-2.047h2.259V118.97a1.023,1.023,0,0,1,2.047,0v1.165h.071a3.129,3.129,0,0,1,2.259.941,3.184,3.184,0,0,1,.082,4.435A3.275,3.275,0,0,1,126.493,127.711Z" transform="translate(-109.2 -114.7)" fill="#9b1c2e"/>
      <path id="Path_8112" data-name="Path 8112" d="M195.74,198.1h-.212v6.47a7.418,7.418,0,0,1-7.411,7.411H174v1.306a5.382,5.382,0,0,0,5.376,5.376h15.929l4.059,4.059a1,1,0,0,0,.718.294.922.922,0,0,0,.388-.082,1.016,1.016,0,0,0,.624-.941V203.476A5.347,5.347,0,0,0,195.74,198.1Z" transform="translate(-166.377 -188.289)" fill="#9b1c2e"/>
    </g>
  </g>
</svg>
