<svg xmlns="http://www.w3.org/2000/svg" width="152.775" height="152.775" viewBox="0 0 152.775 152.775">
  <g id="com_discord" transform="translate(-6 -6)">
    <path id="Path_8103" data-name="Path 8103" d="M76.388,0A76.388,76.388,0,1,1,0,76.388,76.388,76.388,0,0,1,76.388,0Z" transform="translate(6 6)" fill="#f4f4f4"/>
    <path id="logo" d="M182.023,151.058s-9.908-7.774-21.646-8.658l-1.037,2.1c10.609,2.591,15.457,6.311,20.548,10.853-8.75-4.451-17.408-8.658-32.469-8.658s-23.719,4.207-32.469,8.658c5.091-4.543,10.853-8.689,20.548-10.853l-1.037-2.1c-12.286,1.159-21.646,8.658-21.646,8.658S101.69,167.125,99.8,198.679c11.158,12.9,28.139,12.987,28.139,12.987l3.536-4.725a43,43,0,0,1-18.689-12.591c6.982,5.3,17.591,10.823,34.664,10.823s27.621-5.518,34.664-10.823a43,43,0,0,1-18.689,12.591l3.536,4.725s16.981-.091,28.139-12.987C193.09,167.125,182.023,151.058,182.023,151.058Zm-48.749,38.962c-4.207,0-7.591-3.872-7.591-8.658s3.384-8.658,7.591-8.658,7.591,3.872,7.591,8.658S137.482,190.021,133.275,190.021Zm28.17,0c-4.207,0-7.591-3.872-7.591-8.658s3.384-8.658,7.591-8.658,7.591,3.872,7.591,8.658S165.621,190.021,161.445,190.021Z" transform="translate(-65.203 -94.816)" fill="#9b1c2e"/>
  </g>
</svg>
