<svg xmlns="http://www.w3.org/2000/svg" width="59" height="59" viewBox="0 0 59 59">
  <g id="com_instagram" transform="translate(-6 -6)">
    <circle id="Ellipse_77" data-name="Ellipse 77" cx="29.5" cy="29.5" r="29.5" transform="translate(6 6)" fill="#f4f4f4"/>
    <path id="Path_8125" data-name="Path 8125" d="M148.616,124a11.152,11.152,0,0,0-.7-3.751,6.683,6.683,0,0,0-3.835-3.835,11.131,11.131,0,0,0-3.751-.7c-2.132-.1-2.772-.118-8.167-.118s-6.035.022-8.167.118a11.152,11.152,0,0,0-3.751.7,6.674,6.674,0,0,0-3.835,3.835,11.131,11.131,0,0,0-.7,3.751c-.1,2.132-.118,2.772-.118,8.167s.022,6.035.118,8.167a11.152,11.152,0,0,0,.7,3.751,6.674,6.674,0,0,0,3.835,3.835,11.131,11.131,0,0,0,3.751.7c2.132.1,2.769.118,8.167.118s6.035-.022,8.167-.118a11.152,11.152,0,0,0,3.751-.7,6.684,6.684,0,0,0,3.835-3.835,11.131,11.131,0,0,0,.7-3.751c.1-2.132.118-2.772.118-8.167S148.712,126.133,148.616,124Zm-16.449,18.551h-.007a10.391,10.391,0,1,1,.005,0Zm10.954-18.507a2.456,2.456,0,1,1,2.454-2.455,2.456,2.456,0,0,1-2.454,2.455Z" transform="translate(-96.667 -96.667)" fill="#9b1c2e" fill-rule="evenodd"/>
    <path id="Path_8126" data-name="Path 8126" d="M212.345,205.6a6.743,6.743,0,1,1-6.743-6.743h0a6.742,6.742,0,0,1,6.743,6.744Z" transform="translate(-170.103 -170.103)" fill="#9b1c2e" fill-rule="evenodd"/>
  </g>
</svg>
