<svg xmlns="http://www.w3.org/2000/svg" width="59" height="59" viewBox="0 0 59 59">
  <g id="com_riot" transform="translate(-6 -6)">
    <circle id="Ellipse_70" data-name="Ellipse 70" cx="29.5" cy="29.5" r="29.5" transform="translate(6 6)" fill="#f4f4f4"/>
    <path id="Path_8113" data-name="Path 8113" d="M121.671,103.7a17.971,17.971,0,1,0,17.971,17.971A17.973,17.973,0,0,0,121.671,103.7Zm-1.971,7.056a8.916,8.916,0,0,1,8.921,8.9,1.322,1.322,0,0,1-2.643,0,6.285,6.285,0,0,0-6.289-6.278,1.317,1.317,0,0,1-1.322-1.31A1.351,1.351,0,0,1,119.7,110.756ZM112.078,125a1.317,1.317,0,0,1-1.322-1.31,8.9,8.9,0,0,1,8.921-8.9,1.31,1.31,0,1,1,0,2.62,6.285,6.285,0,0,0-6.289,6.278A1.307,1.307,0,0,1,112.078,125Zm11.588,7.587a8.916,8.916,0,0,1-8.921-8.9,1.322,1.322,0,0,1,2.643,0,6.285,6.285,0,0,0,6.289,6.278,1.317,1.317,0,0,1,1.322,1.31A1.351,1.351,0,0,1,123.666,132.586Zm0-4.024a1.31,1.31,0,1,1,0-2.62,6.285,6.285,0,0,0,6.289-6.278,1.322,1.322,0,0,1,2.643,0A8.934,8.934,0,0,1,123.666,128.563Z" transform="translate(-86.171 -86.171)" fill="#9b1c2e" fill-rule="evenodd"/>
  </g>
</svg>
