<svg xmlns="http://www.w3.org/2000/svg" width="59" height="59" viewBox="0 0 59 59">
  <g id="com_qq" transform="translate(-6 -6.224)">
    <circle id="Ellipse_73" data-name="Ellipse 73" cx="29.5" cy="29.5" r="29.5" transform="translate(6 6.224)" fill="#f4f4f4"/>
    <g id="_10-qq" transform="translate(18.53 15.448)">
      <path id="Path_8118" data-name="Path 8118" d="M154.827,395.247s-6.144,1.571-4.82,3.084c1,1.158,12,.508,12-.248S159.907,394.645,154.827,395.247Z" transform="translate(-145.358 -358.48)" fill="#9b1c2e"/>
      <path id="Path_8119" data-name="Path 8119" d="M266.183,395.247s6.144,1.571,4.82,3.084c-1,1.158-12,.508-12-.248S261.115,394.645,266.183,395.247Z" transform="translate(-241.639 -358.48)" fill="#9b1c2e"/>
      <path id="Path_8120" data-name="Path 8120" d="M129.063,124.779c12.866,0,13.079-11.118,13.079-11.118a12.183,12.183,0,0,0,3.261,3.769.288.288,0,0,0,.414-.047.479.479,0,0,0,.059-.106c1.288-4.041-4.159-15.572-4.159-15.572-.012-18.041-12.654-16.99-12.654-16.99s-12.642-1.052-12.642,17c0,0-5.482,11.543-4.159,15.56a.293.293,0,0,0,.366.2.242.242,0,0,0,.106-.059A12.34,12.34,0,0,0,116,113.649C116,113.661,117.815,124.779,129.063,124.779Z" transform="translate(-112.056 -84.703)" fill="#9b1c2e"/>
      <ellipse id="Ellipse_74" data-name="Ellipse 74" cx="2.115" cy="3.32" rx="2.115" ry="3.32" transform="translate(11.311 4.961) rotate(-3.34)" fill="#fff"/>
      <ellipse id="Ellipse_75" data-name="Ellipse 75" cx="3.32" cy="2.115" rx="3.32" ry="2.115" transform="translate(18.096 11.347) rotate(-86.66)" fill="#fff"/>
      <path id="Path_8121" data-name="Path 8121" d="M199.944,193.247a17.419,17.419,0,0,0,7.349-2.221.306.306,0,0,0,.118-.414.515.515,0,0,0-.071-.083c-.614-.5-2.434-1.43-7.4-1.43s-6.782.922-7.4,1.43a.3.3,0,0,0-.047.425.222.222,0,0,0,.083.071A17.039,17.039,0,0,0,199.944,193.247Z" transform="translate(-182.937 -176.766)" fill="#fff"/>
      <ellipse id="Ellipse_76" data-name="Ellipse 76" cx="0.78" cy="1.276" rx="0.78" ry="1.276" transform="translate(13.746 7.171)"/>
      <path id="Path_8122" data-name="Path 8122" d="M271.1,150.3a.426.426,0,0,1-.236-.071.445.445,0,0,1-.154-.614,2.341,2.341,0,0,1,1.512-1.087,1.778,1.778,0,0,1,1.512.579.451.451,0,1,1-.638.638h0a.925.925,0,0,0-.756-.331,1.476,1.476,0,0,0-.862.662A.536.536,0,0,1,271.1,150.3Z" transform="translate(-251.91 -140.978)"/>
      <path id="Path_8123" data-name="Path 8123" d="M183.1,280.957c12.713,0,9.369-17.557,9.369-17.557H173.735S170.391,280.957,183.1,280.957Z" transform="translate(-166.097 -242.287)" fill="#9b1c2e" stroke="#fff" stroke-linecap="round" stroke-linejoin="round" stroke-miterlimit="10" stroke-width="3"/>
      <path id="Path_8124" data-name="Path 8124" d="M139.887,239v-5.848c-2.694-.484-5.128-1.075-6.687-1.512.981-2.5,1.867-4.383,1.867-4.383V227.1c2.091.756,6.026,1.69,12.63,1.69s10.551-.945,12.63-1.69v.154c0,.047.886,1.879,1.867,4.383a63.355,63.355,0,0,1-14.509,2.257,20.475,20.475,0,0,1-2.257-.083v5.458C145.44,239.281,141.234,239.577,139.887,239Z" transform="translate(-130.702 -210.276)" fill="#9b1c2e" stroke="#fff" stroke-linecap="round" stroke-linejoin="round" stroke-miterlimit="10" stroke-width="3"/>
    </g>
  </g>
</svg>
