<svg xmlns="http://www.w3.org/2000/svg" width="59" height="59" viewBox="0 0 59 59">
  <g id="com_reddit" transform="translate(-6 -6)">
    <circle id="Ellipse_69" data-name="Ellipse 69" cx="29.5" cy="29.5" r="29.5" transform="translate(6 6)" fill="#f4f4f4"/>
    <path id="Fill-3" d="M134.828,148.457a2.725,2.725,0,1,1,2.725-2.725,2.73,2.73,0,0,1-2.725,2.725m.47,4.473c-1.857,1.857-5.426,2-6.475,2s-4.618-.145-6.475-2a.708.708,0,1,1,1-1c1.17,1.17,3.678,1.592,5.474,1.592s4.3-.422,5.474-1.592a.708.708,0,0,1,1,1m-15.192-7.2a2.725,2.725,0,1,1,2.725,2.725,2.73,2.73,0,0,1-2.725-2.725m26.153-2.725a3.812,3.812,0,0,0-6.463-2.737,18.708,18.708,0,0,0-10.2-3.243l1.736-8.175,5.679,1.206a2.723,2.723,0,1,0,.277-1.338l-6.342-1.35a.713.713,0,0,0-.518.1.644.644,0,0,0-.289.434l-1.905,8.971a.679.679,0,0,0,0,.157,18.741,18.741,0,0,0-10.381,3.231,3.812,3.812,0,0,0-6.451,2.749,3.839,3.839,0,0,0,2.255,3.485,7.266,7.266,0,0,0-.084,1.158c0,5.872,6.837,10.623,15.265,10.623s15.265-4.751,15.265-10.623a8.982,8.982,0,0,0-.084-1.145,3.866,3.866,0,0,0,2.243-3.5" transform="translate(-93.329 -107.236)" fill="#9b1c2e"/>
  </g>
</svg>
