<svg xmlns="http://www.w3.org/2000/svg" width="59" height="59" viewBox="0 0 59 59">
  <g id="com_wechat" transform="translate(-6 -5.695)">
    <circle id="Ellipse_71" data-name="Ellipse 71" cx="29.5" cy="29.5" r="29.5" transform="translate(6 5.695)" fill="#f4f4f4"/>
    <g id="_9-wechat" transform="translate(15.915 19.452)">
      <path id="Path_8114" data-name="Path 8114" d="M104.307,121.8c-7.784,0-14.107,5.264-14.107,11.752a11.1,11.1,0,0,0,5.028,9l-.506,3.721a.3.3,0,0,0,.259.342.259.259,0,0,0,.165-.024l4.487-1.943a11.023,11.023,0,0,0,5.276.659,8.981,8.981,0,0,1-.412-2.673c0-6.006,5.829-10.9,12.965-10.9h.765C117.214,126.157,111.361,121.8,104.307,121.8Zm-5.017,9.927a1.825,1.825,0,1,1,1.825-1.825h0a1.827,1.827,0,0,1-1.825,1.825Zm9.644,0a1.825,1.825,0,1,1,1.825-1.825,1.845,1.845,0,0,1-1.8,1.825Z" transform="translate(-90.2 -121.8)" fill="#9b1c2e"/>
      <path id="Path_8115" data-name="Path 8115" d="M245.352,226.18c0-5.334-5.276-9.68-11.776-9.68s-11.776,4.334-11.776,9.68,5.276,9.68,11.776,9.68a13.983,13.983,0,0,0,4.239-.659l3.121,1.719a.305.305,0,0,0,.412-.118.319.319,0,0,0,.035-.177l-.306-2.991A9.146,9.146,0,0,0,245.352,226.18Zm-15.709-1.919a1.378,1.378,0,1,1,1.378-1.378h0A1.38,1.38,0,0,1,229.643,224.26Zm7.937,0a1.378,1.378,0,1,1,1.378-1.378h0a1.375,1.375,0,0,1-1.354,1.378Z" transform="translate(-206.303 -205.348)" fill="#9b1c2e"/>
    </g>
  </g>
</svg>
