<svg xmlns="http://www.w3.org/2000/svg" width="59" height="59" viewBox="0 0 59 59">
  <g id="com_weibo" transform="translate(-6 -6.208)">
    <circle id="Ellipse_78" data-name="Ellipse 78" cx="29.5" cy="29.5" r="29.5" transform="translate(6 6.208)" fill="#f4f4f4"/>
    <g id="Group_8907" data-name="Group 8907" transform="translate(18.701 22.133)">
      <path id="Path_8127" data-name="Path 8127" d="M311.6,149.346c.142,1.878-.177,4.122-1.405,4.228-2.019.177-.968-2.043-.945-3.389a6.535,6.535,0,0,0-6.483-6.578c-.921,0-3.059.626-2.728-1.323.154-.85.874-.838,1.594-.945A8.591,8.591,0,0,1,311.6,149.346Z" transform="translate(-277.989 -141.251)" fill="#9b1c2e"/>
      <path id="Path_8128" data-name="Path 8128" d="M138.226,181.647c2.35,1.287,5.173,1.925,4.7,5.739a7.258,7.258,0,0,1-1.216,2.917c-3.968,5.551-15.943,7.889-23.418,3.673-2.5-1.417-5.1-3.484-4.7-7.617.342-3.555,2.728-6.306,5.078-8.645a16.4,16.4,0,0,1,7.806-4.795c3.484-.874,4.511,2.031,3.578,4.889,2.019-.13,6.295-2.386,8.184-.189C139.065,178.576,138.746,180.312,138.226,181.647Zm-2.539,9.023a5.59,5.59,0,0,0,1.5-3.661c-.012-4.677-5.893-6.4-10.534-6.023a13.2,13.2,0,0,0-6.023,1.783,6.951,6.951,0,0,0-3.578,4.322c-.957,4.688,4.157,6.9,7.9,7.145C129.3,194.543,133.633,193.008,135.687,190.669Z" transform="translate(-113.55 -169.04)" fill="#9b1c2e"/>
      <path id="Path_8129" data-name="Path 8129" d="M314.74,183.686c.2,1.429-.213,2.669-1.039,2.728-1.37.094-.862-.933-.945-2.161a2.514,2.514,0,0,0-1.228-1.878c-1.075-.5-2.728.366-2.728-1.134,0-1.11.957-.992,1.5-1.039A4.051,4.051,0,0,1,314.74,183.686Z" transform="translate(-285.742 -175.59)" fill="#9b1c2e"/>
      <path id="Path_8130" data-name="Path 8130" d="M186.536,267.409c2.008,6.058-8.432,8.869-10.345,3.673-1.275-3.484,1.8-6.247,4.984-6.578C183.9,264.209,185.934,265.6,186.536,267.409Zm-4.795,1.039a.7.7,0,0,0,1.311-.378C182.958,267.4,181.73,267.492,181.742,268.449Zm-1.7,3.189c1.76-.413,2-3.72-.661-3.106C177.16,269.063,177.6,272.228,180.041,271.637Z" transform="translate(-168.533 -249.914)" fill="#9b1c2e"/>
    </g>
  </g>
</svg>
