<svg id="checked" xmlns="http://www.w3.org/2000/svg" width="51.884" height="51.884" viewBox="0 0 51.884 51.884">
  <circle id="Ellipse_152" data-name="Ellipse 152" cx="25.942" cy="25.942" r="25.942" transform="translate(0 0)" fill="#d65265"/>
  <path id="Path_9697" data-name="Path 9697" d="M188.8,174.1l13.339,13.339a25.925,25.925,0,0,0,19.231-25.042v-.737L210.9,152Z" transform="translate(-169.487 -136.451)" fill="#9b1c2e"/>
  <g id="Group_9357" data-name="Group 9357" transform="translate(8.715 12.807)">
    <path id="Path_9698" data-name="Path 9698" d="M103.081,210.934a3.064,3.064,0,0,1,0,4.255l-2.373,2.373a3.064,3.064,0,0,1-4.255,0L86.059,207.088a3.064,3.064,0,0,1,0-4.255l2.373-2.373a3.064,3.064,0,0,1,4.255,0Z" transform="translate(-85.2 -191.989)" fill="#fff"/>
    <path id="Path_9699" data-name="Path 9699" d="M183.263,126.059a3.064,3.064,0,0,1,4.255,0l2.373,2.373a3.064,3.064,0,0,1,0,4.255l-18,17.922a3.064,3.064,0,0,1-4.255,0l-2.373-2.373a3.064,3.064,0,0,1,0-4.255Z" transform="translate(-156.298 -125.2)" fill="#fff"/>
  </g>
</svg>
