<svg id="Group_9364" data-name="Group 9364" xmlns="http://www.w3.org/2000/svg" width="51.973" height="51.884" viewBox="0 0 51.973 51.884">
  <circle id="Ellipse_153" data-name="Ellipse 153" cx="25.942" cy="25.942" r="25.942" transform="translate(0 0)" fill="#878787"/>
  <path id="Path_9700" data-name="Path 9700" d="M267.654,47.53l-.6,28.783c6.787,1.181,14.015,2.847,20.8,4.028a24.3,24.3,0,0,0,3.533-16.687c-1.082-7-3.98-11.177-5.509-12.843C280.271,49.819,273.265,48.523,267.654,47.53Z" transform="translate(-239.697 -41.043)" fill="#4a4949"/>
  <path id="Path_9701" data-name="Path 9701" d="M205.841,49.665a2.956,2.956,0,0,1,3.061-2.71l3.356.054a2.934,2.934,0,0,1,2.956,2.806l-.5,23.28a2.956,2.956,0,0,1-3.061,2.71l-3.356-.054a2.934,2.934,0,0,1-2.956-2.806Z" transform="translate(-184.3 -40.526)" fill="#fff"/>
  <path id="Path_9702" data-name="Path 9702" d="M269.348,365.64l-.778,9.262,12.062,2.72a32.841,32.841,0,0,0,4.729-3.45,26.62,26.62,0,0,0,3.946-4.7C282.836,368.257,275.819,366.854,269.348,365.64Z" transform="translate(-241.687 -329.237)" fill="#4a4949"/>
  <rect id="Rectangle_4504" data-name="Rectangle 4504" width="9.425" height="9.425" rx="3" transform="translate(21.04 36.403)" fill="#fff"/>
</svg>
