<svg id="Group_9074" data-name="Group 9074" xmlns="http://www.w3.org/2000/svg" xmlns:xlink="http://www.w3.org/1999/xlink" width="170.658" height="34.319" viewBox="0 0 170.658 34.319">
  <defs>
    <clipPath id="clip-path">
      <rect id="Rectangle_3777" data-name="Rectangle 3777" width="170.658" height="34.319" fill="none"/>
    </clipPath>
  </defs>
  <g id="Group_9073" data-name="Group 9073" clip-path="url(#clip-path)">
    <path id="Path_8713" data-name="Path 8713" d="M7.742,17.16,3.889,21.013,0,17.16l3.888-3.888ZM17.16,7.742l6.635,6.635,3.89-3.887L17.16,0,6.635,10.525l3.89,3.887Zm13.272,5.53L26.577,17.16l3.888,3.888,3.887-3.888ZM17.16,26.577l-6.635-6.669L6.635,23.8,17.16,34.319,27.684,23.795l-3.89-3.887Zm0-5.563,3.888-3.89L17.16,13.273,13.272,17.16l3.888,3.854Zm40.889.4v-.066c0-2.514-1.341-3.788-3.519-4.626a4.379,4.379,0,0,0,2.479-4.055V12.6c0-2.95-2.379-4.86-6.2-4.86H42.061v18.8H51.01c4.256.033,7.038-1.71,7.038-5.128Zm-5.162-8.042c0,1.407-1.14,1.976-2.983,1.976H46.084V11.361h4.088c1.743,0,2.714.7,2.714,1.945Zm1.04,7.507c0,1.407-1.105,2.045-2.917,2.045H46.084V18.8h4.792c2.112,0,3.05.772,3.05,2.045Zm12.8,5.7V7.742H62.573v18.8h4.156Zm22.255,0V7.742h-4.09v11.6l-8.814-11.6H72.258v18.8h4.09V14.613l9.116,11.965h3.519Zm22.922,0L103.83,7.642h-3.819L91.933,26.577H96.19L97.9,22.355h7.943l1.709,4.223h4.354Zm-7.54-7.876H99.372l2.514-6.1Zm27.282,7.876V7.742h-4.09v11.6l-8.814-11.6h-3.821v18.8h4.09V14.613l9.116,11.965h3.519ZM153,23.527l-2.647-2.647a6.794,6.794,0,0,1-4.961,2.211,5.59,5.59,0,0,1-5.463-5.9v-.1a5.58,5.58,0,0,1,5.463-5.864,7.06,7.06,0,0,1,4.826,2.111l2.647-3.05a9.709,9.709,0,0,0-7.406-2.916,9.582,9.582,0,0,0-9.82,9.719v.067A9.945,9.945,0,0,0,153,23.527Zm17.663,3.05V22.891H160.436V18.936h8.882V15.249h-8.882V11.428h10.088V7.742H156.347v18.8h14.311Z" fill="#040504"/>
  </g>
</svg>
