<svg xmlns="http://www.w3.org/2000/svg" width="132.69" height="30.961" viewBox="0 0 132.69 30.961">
  <path id="Path_8942" data-name="Path 8942" d="M22.526,14.594h0l-.043-.033a8.693,8.693,0,0,0,1.452-5.085,8.537,8.537,0,0,0-3.049-6.961Q17.836,0,12.493,0H3.622V1.24h8.711c3.027,0,5.728.674,7.441,2.07A7.087,7.087,0,0,1,22.419,7.4a6.671,6.671,0,0,0-2.283-3.087C18.921,3.3,17.413,2.582,13.3,2.582H6.463V3.792h6.689c3.506,0,4.793.432,5.973,1.306a5.225,5.225,0,0,1,2.446,4.384,4.45,4.45,0,0,1-1.633,3.632c-.12-.047-.24-.093-.363-.136l.116-.062a3.737,3.737,0,0,0,1.877-3.439A4.108,4.108,0,0,0,19.52,5.907c-.949-.6-1.853-1-5.709-1H8.893v.806h4.78c3.481,0,4.8.619,5.2.864a3.318,3.318,0,0,1,1.815,2.906,3.349,3.349,0,0,1-1.488,2.74,4.719,4.719,0,0,1-.907.385,17.489,17.489,0,0,0-4.027-.432H8.332v1.24H14.1c3.027,0,5.767.623,7.441,2.07a8.45,8.45,0,0,1,2.642,4.091A6.038,6.038,0,0,0,21.9,16.5c-1.27-.961-2.722-1.736-6.831-1.734h-9.3v1.209H14.92c3.506,0,4.791.432,5.973,1.306A5.111,5.111,0,0,1,20.871,26c-1.552,1.144-3.924,1.179-4.889,1.179H10.9v1.208h3.8c3.18,0,5.3-.272,7.141-1.634a6.038,6.038,0,0,0,2.641-5.085,7.52,7.52,0,0,1-2.835,5.993c-1.74,1.438-4.846,2.072-7.953,2.072h-10v1.233H13.764q5.626,0,8.782-2.444a8.2,8.2,0,0,0,3.16-6.868,8.56,8.56,0,0,0-3.062-6.963C22.605,14.654,22.565,14.624,22.526,14.594ZM22.7,9.479q0,.077,0,.154Q22.705,9.557,22.7,9.479Zm0,.154a7.529,7.529,0,0,1-1.3,4.2c-.107-.062-.216-.122-.325-.182A5.88,5.88,0,0,0,22.7,9.634ZM16.469,19.911H7.751v.675h8.718Zm-5.123,2.457h5.071v.579H11.346ZM6.263,19.911H3.681v.675H6.263ZM2.071,22.32H9.914V23H2.071Zm7.381,5.154H2.071v.809H9.451ZM4,5.1H7.06v.557H4ZM8.874,9.532h-7v.648h7ZM4.844,7.553h11.59V8.2H4.844Zm11.37,1.98H10.638v.648h5.575Zm7.1,12.118a3.605,3.605,0,0,1-1.864,3.318,11.29,11.29,0,0,1-5.326.924H0v-.768H16.05a11.153,11.153,0,0,0,4.9-.834,3.083,3.083,0,0,0-.325-5.45c-.4-.236-1.721-.834-5.2-.834H9.3v-.768h6.267c3.927,0,4.76.387,5.711.961A3.949,3.949,0,0,1,23.313,21.65ZM54.469,7.981a2,2,0,0,1-1.27-.412,1.272,1.272,0,0,1-.524-1.041A1.286,1.286,0,0,1,53.2,5.481a1.961,1.961,0,0,1,1.27-.418,2.027,2.027,0,0,1,1.294.418,1.272,1.272,0,0,1,0,2.076A2.01,2.01,0,0,1,54.469,7.981Zm1.354,17.59H53.048V11.542h2.775Zm-20.876,0V5.926h6.9a8.794,8.794,0,0,1,4.989,1.246,3.771,3.771,0,0,1,1.844,3.247,4.189,4.189,0,0,1-1.116,2.906,6.147,6.147,0,0,1-3.085,1.754v.055a6.837,6.837,0,0,1,3.924,1.5,4.14,4.14,0,0,1,1.472,3.294,4.773,4.773,0,0,1-2.232,4.082,9.6,9.6,0,0,1-5.626,1.562ZM37.789,8.009v6.343h2.9a6.452,6.452,0,0,0,3.67-.908,2.932,2.932,0,0,0,1.338-2.57q0-2.862-4.651-2.862Zm0,8.412v7.07h3.857a6.737,6.737,0,0,0,3.882-.959A3.038,3.038,0,0,0,46.906,19.9q0-3.478-5.853-3.479ZM65.5,25.873a6.382,6.382,0,0,0,2.588-.438l.005-1.918a3.4,3.4,0,0,1-1.815.465,2.673,2.673,0,0,1-1.964-.6,2.815,2.815,0,0,1-.592-2.014v-7.9h4.365V11.543H63.722V7.391l-2.773.726v3.425H57.971V13.46h2.978v8.3Q60.948,25.873,65.5,25.873Zm27.783-.3h-2.6V13.448A34.593,34.593,0,0,1,90.9,9.932H90.84a9.681,9.681,0,0,1-.67,1.751L82.548,25.571h-1.27l-7.61-13.787A9.346,9.346,0,0,1,73,9.932h-.062a34.755,34.755,0,0,1,.125,3.541v12.1H70.524V7.5h3.448L80.82,20.1a14.32,14.32,0,0,1,1.027,2.168h.094q.668-1.487,1.073-2.217L90,7.5h3.267Zm14.093,0h2.775V16.448q0-5.234-6.107-5.234a12.683,12.683,0,0,0-5.887,1.315v2.3a9.77,9.77,0,0,1,5.651-1.727q3.568,0,3.568,3.576l-5.192.59q-5.719.643-5.719,4.575a3.516,3.516,0,0,0,1.463,2.945,6.575,6.575,0,0,0,4.053,1.11,6.143,6.143,0,0,0,5.328-2.521h.067Zm-4.174-6.63,4.174-.465.011,1.4a3.762,3.762,0,0,1-1.345,2.966,5,5,0,0,1-3.408,1.171,4.054,4.054,0,0,1-2.41-.65,1.983,1.983,0,0,1-.907-1.678,2.085,2.085,0,0,1,.982-1.967A7.848,7.848,0,0,1,103.2,18.941Zm19.823-5.125a3.993,3.993,0,0,0-2.1-.452,3.793,3.793,0,0,0-2.969,1.357,5.407,5.407,0,0,0-1.192,3.7v7.151h-2.773V11.542h2.773v2.893h.069a4.9,4.9,0,0,1,1.815-2.308,4.735,4.735,0,0,1,2.722-.83,5.53,5.53,0,0,1,1.658.193v.053h2.519V8.118l2.773-.726v4.151h4.356V13.46H128.32v7.9a2.813,2.813,0,0,0,.592,2.014,2.675,2.675,0,0,0,1.964.6,3.4,3.4,0,0,0,1.815-.465l-.006,1.918a6.382,6.382,0,0,1-2.587.438q-4.553,0-4.55-4.11v-8.3h-2.522ZM.231,29.737H2.076v1.174H.231Z" fill="#1f2020" fill-rule="evenodd"/>
</svg>
