<svg xmlns="http://www.w3.org/2000/svg" xmlns:xlink="http://www.w3.org/1999/xlink" width="164.805" height="31.2" viewBox="0 0 164.805 31.2">
  <defs>
    <clipPath id="clip-path">
      <rect id="Rectangle_3776" data-name="Rectangle 3776" width="164.805" height="31.2" fill="#fff"/>
    </clipPath>
  </defs>
  <g id="bittrex-logo-global" clip-path="url(#clip-path)">
    <path id="Path_8687" data-name="Path 8687" d="M57.462,10.53a5.442,5.442,0,0,0-1.361-1,5.079,5.079,0,0,0-.772-.33l.17-.082a3.819,3.819,0,0,0,.89-.636,4.056,4.056,0,0,0,.958-1.6,6.288,6.288,0,0,0,.3-2,5.485,5.485,0,0,0-.325-1.924A3.911,3.911,0,0,0,56.384,1.5,6.384,6.384,0,0,0,51.865,0H41.016V19.272H52.647a7.535,7.535,0,0,0,2.668-.431,5.241,5.241,0,0,0,1.884-1.21,4.391,4.391,0,0,0,1-1.616,6.044,6.044,0,0,0,.356-2.077,6.729,6.729,0,0,0-.264-1.926A3.667,3.667,0,0,0,57.462,10.53ZM53.2,15a1.962,1.962,0,0,1-.707.327,4.081,4.081,0,0,1-1.029.118H45.537v-3.9h5.97a2.619,2.619,0,0,1,1.648.49,1.467,1.467,0,0,1,.454.657,2.743,2.743,0,0,1,.141.928,2.32,2.32,0,0,1-.134.822A1.315,1.315,0,0,1,53.2,15ZM52.7,4.871a2.438,2.438,0,0,1,.165.888,2.8,2.8,0,0,1-.165,1,1.72,1.72,0,0,1-.422.65,1.467,1.467,0,0,1-.546.327,2.065,2.065,0,0,1-.681.1h-5.51V3.809h5.115a3.892,3.892,0,0,1,.982.106,1.582,1.582,0,0,1,.657.33,1.648,1.648,0,0,1,.415.631Z" transform="translate(-1.025 6.865)" fill="#110202"/>
    <path id="Path_8688" data-name="Path 8688" d="M57.077,19.271h4.686V0H57.077Z" transform="translate(4.056 6.864)" fill="#110202"/>
    <path id="Path_8689" data-name="Path 8689" d="M62.8,3.973H68.9v15.3h4.686V3.973h6.127V0H62.8Z" transform="translate(5.865 6.864)" fill="#110202"/>
    <path id="Path_8690" data-name="Path 8690" d="M76.925,3.973h6.1v15.3h4.686V3.973h6.13V0H76.925Z" transform="translate(10.335 6.864)" fill="#110202"/>
    <path id="Path_8691" data-name="Path 8691" d="M107.658,9.263a6.89,6.89,0,0,0,.723-3.4,8.981,8.981,0,0,0-.207-2.063,4.8,4.8,0,0,0-.666-1.568A4.114,4.114,0,0,0,105.682.58,7.081,7.081,0,0,0,102.643,0H91.937V19.272h4.545v-7.3h4.531l3.66,7.3h5.18l-4.431-8.2a3.746,3.746,0,0,0,2.237-1.806ZM103.6,7.537a.856.856,0,0,1-.212.261,1.567,1.567,0,0,1-.582.28,3.35,3.35,0,0,1-.858.1H96.506V3.974h5.209a3.152,3.152,0,0,1,1.275.217,1.454,1.454,0,0,1,.395.257,1.245,1.245,0,0,1,.266.358,1.479,1.479,0,0,1,.076.235,5.457,5.457,0,0,1,.112,1.152,4.325,4.325,0,0,1-.066.725A2.591,2.591,0,0,1,103.6,7.537Z" transform="translate(15.085 6.863)" fill="#110202"/>
    <path id="Path_8692" data-name="Path 8692" d="M103.881,7.036h0Z" transform="translate(-2.596 -0.176)" fill="#020003"/>
    <path id="Path_8693" data-name="Path 8693" d="M112.284,11.669h9.928V7.6h-9.928V4.046h10.308V0h-14.83V19.271h14.949v-4.02H112.284Z" transform="translate(20.091 6.864)" fill="#110202"/>
    <path id="Path_8694" data-name="Path 8694" d="M41.1,32h0Z" transform="translate(-1.027 -0.8)" fill="#1c6fe8"/>
    <path id="Path_8701" data-name="Path 8701" d="M31.2,22.151V0H9.049V6.553H13.1V4.047H27.152V18.1h-5V9.051H0V31.2H22.151V24.651H18.1v2.5H4.047V13.1h5v9.054ZM18.1,18.1h-5V13.1h5Z" fill="#110202"/>
    <path id="Path_8702" data-name="Path 8702" d="M132.593,9.222l-2.042-2.911L126.312,0h-5.418l6.657,9.538-7.073,9.733h5.29l.1-.151,4.2-6.043,4.168,6.194h5.4Z" transform="translate(24.114 6.864)" fill="#110202"/>
    <path id="Path_8703" data-name="Path 8703" d="M130.463,3.325h2.685V5.946h3.328V0h-5.949V3.325Z" transform="translate(27.273 6.864)" fill="#110202"/>
  </g>
</svg>
