<svg id="coinEx" xmlns="http://www.w3.org/2000/svg" width="171.405" height="42" viewBox="0 0 171.405 42">
  <path id="Path_8843" data-name="Path 8843" d="M26.63,15.519a8.049,8.049,0,0,0-11.446,0A8.374,8.374,0,0,0,15.217,27.2a8.029,8.029,0,0,0,11.48.034q.081-.082.667-.746L23.548,22.6q-.588.7-.621.729a2.73,2.73,0,0,1-3.905,0,2.837,2.837,0,0,1-.034-3.94,2.72,2.72,0,0,1,3.871.034L33.064,29.8a15.245,15.245,0,0,1-12.528,6.718A15.353,15.353,0,0,1,5.387,21,15.353,15.353,0,0,1,20.536,5.481,15,15,0,0,1,32.69,11.75q-.675.8-3.45,4L33,19.574l6.25-7.173A20.438,20.438,0,0,0,20.536,0,20.782,20.782,0,0,0,0,21,20.782,20.782,0,0,0,20.536,42a19.669,19.669,0,0,0,13.6-5.276,22.557,22.557,0,0,0,5.592-7.849Z" fill="#110202"/>
  <path id="Path_8844" data-name="Path 8844" d="M120.952,23v11.51h-4.7V22.752a5.822,5.822,0,0,0-11.469.125V34.514h-4.7V13.626l3.6,2.286A10.488,10.488,0,0,1,120.963,23ZM71.644,10.974a14.549,14.549,0,0,0-4.117,3.2,9.549,9.549,0,1,0-3.043,13.892A14.414,14.414,0,0,0,66.9,32.687a14.757,14.757,0,1,1,4.747-21.713Zm6.989,23.539A10.417,10.417,0,1,1,89.071,24.1,10.427,10.427,0,0,1,78.633,34.514Zm0-4.63a5.787,5.787,0,1,0-5.8-5.787A5.793,5.793,0,0,0,78.633,29.884ZM91.97,13.68h4.639V34.514H91.97Zm50.45-3.689H129.149v7.573h12.885v4.7H129.149v7.545H142.42v4.7H124.153V5.289H142.42Zm9.754,14.061L145.032,13.68h5.907q.261.436.763,1.2l1.218,1.852,1.218,1.852q.584.887.831,1.314l.237.411,4.244-6.626h5.62l-7.016,10.2,7.271,10.635H159.49L155.012,27.7l-.242.359q-.3.439-.887,1.356t-1.258,1.937q-.674,1.025-1.262,1.941-.5.78-.762,1.216h-5.574Z" transform="translate(6.081 0.676)" fill="#110202"/>
  <path id="Path_8845" data-name="Path 8845" d="M86,8.371A3.413,3.413,0,0,1,89.394,5a3.293,3.293,0,0,1,2.417,1,3.217,3.217,0,0,1,1,2.394,3.293,3.293,0,0,1-1,2.418,3.217,3.217,0,0,1-2.394,1A3.413,3.413,0,0,1,86,8.371Z" transform="translate(11.622 0.676)" fill="#110202"/>
</svg>
