<svg id="Group_9349" data-name="Group 9349" xmlns="http://www.w3.org/2000/svg" xmlns:xlink="http://www.w3.org/1999/xlink" width="79.674" height="154" viewBox="0 0 79.674 154">
  <defs>
    <clipPath id="clip-path">
      <rect id="Rectangle_3614" data-name="Rectangle 3614" width="79.674" height="154" fill="none"/>
    </clipPath>
    <clipPath id="clip-path-3">
      <rect id="Rectangle_3611" data-name="Rectangle 3611" width="67.716" height="56.034" fill="none"/>
    </clipPath>
    <clipPath id="clip-path-4">
      <rect id="Rectangle_3612" data-name="Rectangle 3612" width="22.601" height="67.114" fill="none"/>
    </clipPath>
  </defs>
  <g id="Group_8849" data-name="Group 8849" clip-path="url(#clip-path)">
    <g id="Group_8848" data-name="Group 8848" transform="translate(0 0)">
      <g id="Group_8847" data-name="Group 8847" clip-path="url(#clip-path)">
        <path id="Path_7918" data-name="Path 7918" d="M69.626,26.249v56.87c0,5.08-3.363,10.162-10.062,14.031-13.428,7.736-35.171,7.736-48.6,0C4.269,93.281.906,88.2.906,83.119V26.249Z" transform="translate(1.762 51.046)" fill="#878787"/>
        <path id="Path_7919" data-name="Path 7919" d="M74.058,22.357v61.3c0,5.483-3.61,10.969-10.83,15.13-7.939,4.576-18.6,6.643-29.026,6.175-8.183-.33-16.2-2.262-22.6-5.76-.247-.112-.524-.277-.772-.415C3.61,94.625,0,89.139,0,83.656v-61.3Z" transform="translate(0 43.477)" fill="#cfcccc"/>
        <path id="Path_7920" data-name="Path 7920" d="M63.212,51.591c-14.461,8.348-37.9,8.348-52.365,0s-14.461-21.885,0-30.233,37.907-8.351,52.368,0,14.461,21.885,0,30.233" transform="translate(0.001 29.355)" fill="#878787"/>
        <path id="Path_7921" data-name="Path 7921" d="M64.83,18.379v8.407c0,4.656-3.083,9.308-9.22,12.851-12.294,7.088-32.209,7.088-44.509,0-6.134-3.542-9.214-8.2-9.214-12.851V18.379Z" transform="translate(3.672 35.741)" fill="#cfcccc"/>
        <path id="Path_7922" data-name="Path 7922" d="M55.6,43.219c-12.288,7.094-32.209,7.094-44.5,0s-12.288-18.6,0-25.692,32.209-7.094,44.5,0,12.288,18.6,0,25.689" transform="translate(3.676 23.738)" fill="#f4f4f4"/>
        <path id="Path_7923" data-name="Path 7923" d="M47.778,38.7c-10.053,5.8-26.352,5.8-36.4,0s-10.053-15.212,0-21.019,26.352-5.8,36.4,0,10.053,15.215,0,21.019" transform="translate(7.455 25.918)" fill="#cfcccc"/>
        <path id="Path_7924" data-name="Path 7924" d="M64.83,20.012v2.014c0,4.656-3.083,9.311-9.22,12.853-12.294,7.085-32.209,7.085-44.509,0-6.134-3.542-9.214-8.2-9.214-12.853V20.012c0,4.656,3.08,9.308,9.214,12.853,12.3,7.085,32.215,7.085,44.509,0,6.137-3.545,9.22-8.2,9.22-12.853" transform="translate(3.672 38.917)" fill="#f4f4f4"/>
        <path id="Path_7925" data-name="Path 7925" d="M64.83,18.917v2.014c0,4.656-3.083,9.311-9.22,12.853C43.317,40.87,23.4,40.87,11.1,33.785c-6.134-3.542-9.214-8.2-9.214-12.853V18.917c0,4.656,3.08,9.308,9.214,12.853,12.3,7.085,32.215,7.085,44.509,0,6.137-3.545,9.22-8.2,9.22-12.853" transform="translate(3.672 36.788)" fill="#f4f4f4"/>
        <g id="Group_8843" data-name="Group 8843" transform="translate(3.172 86.982)" opacity="0.8">
          <g id="Group_8842" data-name="Group 8842">
            <g id="Group_8841" data-name="Group 8841" clip-path="url(#clip-path-3)">
              <path id="Path_7926" data-name="Path 7926" d="M26.568,57.891c-6.6,2.161-16.149.174-21.34-4.446-2.453-2.2-3.5-4.614-3.192-6.758a2.172,2.172,0,0,1,.053-.333l.96-4.605,30.162,6.284-.851,4.081c-.247,2.456-2.229,4.608-5.792,5.777" transform="translate(0.687 -5.795)" fill="#f3ae00"/>
              <path id="Path_7927" data-name="Path 7927" d="M26.9,57.318c-6.6,2.173-16.154.183-21.34-4.446S1.522,42.724,8.124,40.551,24.279,40.366,29.464,45,33.5,55.145,26.9,57.318" transform="translate(1.321 -9.837)" fill="#f6d13a"/>
              <path id="Path_7928" data-name="Path 7928" d="M23.281,54.618c-5.374,1.77-13.148.15-17.368-3.619S2.63,42.742,8,40.972s13.148-.15,17.368,3.619,3.283,8.257-2.091,10.027" transform="translate(3.19 -8.698)" fill="#f3ae00"/>
              <path id="Path_7929" data-name="Path 7929" d="M21.318,53.153A17.173,17.173,0,0,1,6.106,49.981c-3.693-3.3-2.877-7.232,1.832-8.781a17.163,17.163,0,0,1,15.206,3.171c3.7,3.3,2.877,7.232-1.826,8.781" transform="translate(4.205 -8.08)" fill="#f6d13a"/>
              <path id="Path_7930" data-name="Path 7930" d="M37.686,54.473c-5.18,4.632-14.72,6.643-21.328,4.494-3.13-1.031-5.059-2.818-5.639-4.906a2.421,2.421,0,0,1-.085-.327l-.969-4.6,30.148-6.355.86,4.081c.76,2.347-.191,5.115-2.986,7.615" transform="translate(15.623 -3.794)" fill="#9b1c2e"/>
              <path id="Path_7931" data-name="Path 7931" d="M36.786,53.888c-5.174,4.641-14.723,6.655-21.331,4.494S7.687,50.711,12.86,46.067s14.723-6.652,21.331-4.494,7.768,7.674,2.594,12.315" transform="translate(15.552 -7.82)" fill="#d65265"/>
              <path id="Path_7932" data-name="Path 7932" d="M32.69,52.02c-4.211,3.778-11.982,5.415-17.359,3.657s-6.322-6.243-2.114-10.021S25.2,40.241,30.579,42,36.9,48.242,32.69,52.02" transform="translate(17.419 -6.682)" fill="#9b1c2e"/>
              <path id="Path_7933" data-name="Path 7933" d="M30.467,51.007a17.165,17.165,0,0,1-15.2,3.2c-4.709-1.54-5.539-5.468-1.849-8.778a17.165,17.165,0,0,1,15.2-3.2c4.709,1.54,5.536,5.468,1.849,8.778" transform="translate(18.434 -6.064)" fill="#d65265"/>
              <path id="Path_7934" data-name="Path 7934" d="M41.815,46.928c-3.033,6.252-11.093,11.735-18.021,12.259-3.289.236-5.751-.686-7.082-2.394a2.922,2.922,0,0,1-.2-.271l-2.647-3.893L39.338,35.3l2.344,3.448c1.6,1.879,1.767,4.8.133,8.177" transform="translate(23.789 -18.331)" fill="#f3ae00"/>
              <path id="Path_7935" data-name="Path 7935" d="M39.79,44.825C36.766,51.085,28.7,56.574,21.766,57.084s-10.1-4.146-7.079-10.4S25.779,34.931,32.711,34.418s10.1,4.146,7.079,10.406" transform="translate(23.163 -20.124)" fill="#f6d13a"/>
              <path id="Path_7936" data-name="Path 7936" d="M35.77,43.6c-2.459,5.094-9.028,9.561-14.667,9.977S12.881,50.2,15.34,45.106s9.028-9.558,14.67-9.977S38.229,38.5,35.77,43.6" transform="translate(24.848 -18.727)" fill="#f3ae00"/>
              <path id="Path_7937" data-name="Path 7937" d="M33.587,42.934a17.176,17.176,0,0,1-12.848,8.74c-4.941.365-7.2-2.956-5.044-7.418a17.171,17.171,0,0,1,12.848-8.74c4.941-.365,7.2,2.956,5.044,7.418" transform="translate(25.762 -17.968)" fill="#f6d13a"/>
              <path id="Path_7938" data-name="Path 7938" d="M42.209,43.452c-4.128,5.592-13.057,9.5-19.965,8.746-3.277-.371-5.527-1.729-6.519-3.654a2.041,2.041,0,0,1-.15-.3l-1.888-4.311L41.906,31.57l1.673,3.819c1.225,2.141.857,5.047-1.369,8.063" transform="translate(23.444 -25.588)" fill="#f3ae00"/>
              <path id="Path_7939" data-name="Path 7939" d="M40.612,41.816c-4.12,5.6-13.06,9.514-19.968,8.746s-9.17-5.928-5.05-11.528,13.06-9.514,19.968-8.746,9.17,5.931,5.05,11.528" transform="translate(23.151 -28.269)" fill="#f6d13a"/>
              <path id="Path_7940" data-name="Path 7940" d="M36.492,40.3c-3.354,4.555-10.627,7.744-16.252,7.117s-7.462-4.823-4.108-9.382,10.627-7.742,16.249-7.117,7.462,4.826,4.111,9.382" transform="translate(24.942 -27.011)" fill="#f3ae00"/>
              <path id="Path_7941" data-name="Path 7941" d="M34.256,39.475a17.172,17.172,0,0,1-14.232,6.234c-4.923-.548-6.537-4.226-3.6-8.216a17.174,17.174,0,0,1,14.235-6.234c4.923.548,6.534,4.226,3.6,8.216" transform="translate(25.915 -26.326)" fill="#f6d13a"/>
              <path id="Path_7942" data-name="Path 7942" d="M34.271,44.168c-4.729,5.091-14.04,7.977-20.822,6.452-3.213-.739-5.3-2.338-6.069-4.364a3.107,3.107,0,0,1-.115-.315l-1.39-4.5,29.429-9.117,1.234,3.981c.975,2.264.283,5.112-2.267,7.859" transform="translate(8.254 -24.116)" fill="#9b1c2e"/>
              <path id="Path_7943" data-name="Path 7943" d="M33.029,43.031c-4.72,5.1-14.043,7.989-20.822,6.452s-8.445-6.92-3.725-12.023S22.525,29.47,29.3,31.011s8.445,6.92,3.725,12.02" transform="translate(8.101 -27.482)" fill="#d65265"/>
              <path id="Path_7944" data-name="Path 7944" d="M28.9,41.326c-3.843,4.152-11.428,6.5-16.947,5.25s-6.873-5.633-3.03-9.782,11.428-6.5,16.947-5.25,6.873,5.63,3.03,9.782" transform="translate(9.94 -26.295)" fill="#9b1c2e"/>
              <path id="Path_7945" data-name="Path 7945" d="M26.667,40.4A17.172,17.172,0,0,1,11.826,45C6.994,43.9,5.8,40.066,9.17,36.432a17.175,17.175,0,0,1,14.841-4.6c4.832,1.1,6.022,4.932,2.656,8.569" transform="translate(10.938 -25.65)" fill="#d65265"/>
              <path id="Path_7946" data-name="Path 7946" d="M34.026,47.72c-5.171,4.644-14.706,6.673-21.319,4.541-3.133-1.028-5.065-2.809-5.648-4.894a2.228,2.228,0,0,1-.085-.327l-.981-4.6,30.133-6.416.869,4.078c.766,2.344-.18,5.115-2.968,7.621" transform="translate(8.482 -16.932)" fill="#f3ae00"/>
              <path id="Path_7947" data-name="Path 7947" d="M33.117,47.123c-5.165,4.653-14.709,6.684-21.319,4.541S4.012,44,9.174,39.352,23.886,32.667,30.5,34.814s7.786,7.656,2.621,12.309" transform="translate(8.41 -20.943)" fill="#f6d13a"/>
              <path id="Path_7948" data-name="Path 7948" d="M29.021,45.258c-4.2,3.787-11.97,5.442-17.353,3.7S5.334,42.72,9.536,38.933s11.97-5.439,17.353-3.693,6.334,6.231,2.132,10.018" transform="translate(10.277 -19.803)" fill="#f3ae00"/>
              <path id="Path_7949" data-name="Path 7949" d="M26.8,44.247a17.179,17.179,0,0,1-15.2,3.236c-4.711-1.531-5.548-5.459-1.867-8.775a17.177,17.177,0,0,1,15.2-3.236C29.641,37,30.478,40.931,26.8,44.247" transform="translate(11.291 -19.184)" fill="#f6d13a"/>
              <path id="Path_7950" data-name="Path 7950" d="M17.825,58.825C11.035,57.35,3.806,50.806,1.665,44.2c-1-3.139-.686-5.748.663-7.444a2.229,2.229,0,0,1,.215-.259L5.7,33,28.541,53.68l-2.8,3.089c-1.455,1.994-4.255,2.85-7.918,2.055" transform="translate(-1.077 -22.801)" fill="#9b1c2e"/>
              <path id="Path_7951" data-name="Path 7951" d="M18.9,56.6c-6.8-1.463-14.031-8.012-16.16-14.629s1.652-10.8,8.445-9.332,14.031,8.015,16.16,14.629S25.7,58.066,18.9,56.6" transform="translate(1.007 -24.072)" fill="#d65265"/>
              <path id="Path_7952" data-name="Path 7952" d="M16.6,52.862C11.069,51.673,5.18,46.34,3.448,40.957s1.343-8.784,6.873-7.594,11.416,6.522,13.151,11.905-1.343,8.784-6.873,7.594" transform="translate(2.593 -22.563)" fill="#9b1c2e"/>
              <path id="Path_7953" data-name="Path 7953" d="M15.35,50.833A17.175,17.175,0,0,1,3.83,40.406c-1.517-4.717,1.178-7.694,6.022-6.652a17.168,17.168,0,0,1,11.517,10.43c1.519,4.714-1.175,7.691-6.019,6.649" transform="translate(3.454 -21.745)" fill="#d65265"/>
              <path id="Path_7954" data-name="Path 7954" d="M19.031,39.751v.091a4.2,4.2,0,0,1-8.407.209v-.3l.486-10.212a60.851,60.851,0,0,0,7.689.186Z" transform="translate(17.488 -29.538)" fill="#d65265"/>
            </g>
          </g>
        </g>
        <path id="Path_7955" data-name="Path 7955" d="M26.252,5.794l-.068.138c-2.665,6.207-4.146,13.248-5.35,20.1-.118.695-.233,1.39-.324,2.085-.186,1.09-.347,2.2-.509,3.289-.742,5.141-1.275,10.3-1.646,15.515-.347,4.608-.554,9.217-.671,13.849a42.41,42.41,0,0,1-6.413-.118Q12,53.466,13.028,46.342,14.106,38.7,15.74,31.15c.23-1.087.462-2.176.739-3.263.186-.88.395-1.761.6-2.641,1.758-6.97,3.657-13.825,7.085-20.448a1.172,1.172,0,0,1,1.575-.486,1.134,1.134,0,0,1,.509,1.481" transform="translate(21.916 8.126)" fill="#d65265"/>
        <path id="Path_7956" data-name="Path 7956" d="M43.6,16.614c-9.729,5.615-28.378,3.955-28.378,3.955S12.342,9.8,22.071,4.184,50.449.23,50.449.23,53.329,11,43.6,16.614" transform="translate(28.827 0)" fill="#d65265"/>
        <path id="Path_7957" data-name="Path 7957" d="M33.61,10.847c-9.729,5.615-18.652,9.57-18.652,9.57A181.726,181.726,0,0,1,31.534,9.648C41.263,4.033,50.188.078,50.188.078A180.8,180.8,0,0,1,33.61,10.847" transform="translate(29.088 0.152)" fill="#9b1c2e"/>
        <path id="Path_7958" data-name="Path 7958" d="M18.661,31.564C10.725,27.783,3.525,15.021,3.525,15.021s5.666-6.628,13.6-2.847,15.136,16.54,15.136,16.54-5.666,6.631-13.6,2.85" transform="translate(6.855 21.408)" fill="#d65265"/>
        <path id="Path_7959" data-name="Path 7959" d="M17.967,20.152c-7.936-3.781-14.441-7.78-14.441-7.78a141.528,141.528,0,0,1,14.293,5.91c7.936,3.781,14.441,7.78,14.441,7.78a141.525,141.525,0,0,1-14.293-5.91" transform="translate(6.857 24.06)" fill="#9b1c2e"/>
        <g id="Group_8846" data-name="Group 8846" transform="translate(11.604 81.324)" opacity="0.4">
          <g id="Group_8845" data-name="Group 8845">
            <g id="Group_8844" data-name="Group 8844" clip-path="url(#clip-path-4)">
              <path id="Path_7960" data-name="Path 7960" d="M26.541,33.406V94.732c-8.186-.33-16.207-2.262-22.6-5.76V27.617c6.393,3.557,14.414,5.459,22.6,5.789" transform="translate(-3.94 -27.618)" fill="#fff"/>
            </g>
          </g>
        </g>
      </g>
    </g>
  </g>
</svg>
