<svg xmlns="http://www.w3.org/2000/svg" width="132.951" height="30.4" viewBox="0 0 132.951 30.4">
  <g id="gateio" transform="translate(-80 -131)">
    <path id="Path_8716" data-name="Path 8716" d="M1437.71,277.413h3.776V262.9h-3.776Z" transform="translate(-1247.643 -121.212)" fill-rule="evenodd"/>
    <path id="Path_8717" data-name="Path 8717" d="M1437.71,199.7h3.776v-3.771h-3.776Z" transform="translate(-1247.643 -59.67)" fill-rule="evenodd"/>
    <path id="Path_8718" data-name="Path 8718" d="M1366.58,399.106h3.776v-3.771h-3.776Z" transform="translate(-1182.28 -242.906)" fill-rule="evenodd"/>
    <path id="Path_8719" data-name="Path 8719" d="M1009.538,213.9a3.51,3.51,0,0,0,.956,1.4,3.637,3.637,0,0,0,1.442.8,6.976,6.976,0,0,0,1.871.223,7.1,7.1,0,0,0,1.831-.213,6.42,6.42,0,0,0,1.39-.551V212.9a5.66,5.66,0,0,1-2.077.442,2.012,2.012,0,0,1-1.625-.551,2.162,2.162,0,0,1-.615-1.717v-8.06h4.317V199.7h-4.317v-3.771H1009.2V199.7h-2.1v3.307h2.1v8.654A6.415,6.415,0,0,0,1009.538,213.9Z" transform="translate(-851.942 -59.67)" fill-rule="evenodd"/>
    <path id="Path_8720" data-name="Path 8720" d="M518.812,204.632h-9.4v3.9h5.279a6.292,6.292,0,0,1-1.6,2.91,6.367,6.367,0,0,1-4.6,1.866,6.725,6.725,0,1,1,5.085-11.135l3.023-2.467a10.631,10.631,0,1,0-8.107,17.5,10.2,10.2,0,0,0,7.393-2.984,10.44,10.44,0,0,0,2.884-6.235A23.647,23.647,0,0,0,518.812,204.632Z" transform="translate(-383.973 -59.691)" fill-rule="evenodd"/>
    <path id="Path_8721" data-name="Path 8721" d="M1151.411,239.815a5.062,5.062,0,0,1,4.735,3.271h-9.47A5.061,5.061,0,0,1,1151.411,239.815Zm8.474,6.353a8.687,8.687,0,0,0,.1-1.3,8.561,8.561,0,1,0-1.045,4.1l-3.167-1.535a5.063,5.063,0,0,1-9.253-1.27h9.784s0,0,0,.006Z" transform="translate(-976.678 -96.772)" fill-rule="evenodd"/>
    <path id="Path_8722" data-name="Path 8722" d="M780.582,250.092a5.054,5.054,0,1,1,5.061-5.054A5.058,5.058,0,0,1,780.582,250.092Zm0-13.6a8.559,8.559,0,1,0,8.57,8.559A8.564,8.564,0,0,0,780.582,236.492Z" transform="translate(-635.912 -96.94)" fill-rule="evenodd"/>
    <g id="Group_9075" data-name="Group 9075" transform="translate(80 131)">
      <path id="Path_8723" data-name="Path 8723" d="M940.153,258.461h3.508V242.282h-3.508Z" transform="translate(-870.422 -233.261)" fill-rule="evenodd"/>
      <path id="Path_8724" data-name="Path 8724" d="M1517.092,249.923a5.054,5.054,0,1,1,5.06-5.054A5.057,5.057,0,0,1,1517.092,249.923Zm0-13.614a8.56,8.56,0,1,0,8.572,8.56A8.566,8.566,0,0,0,1517.092,236.309Z" transform="translate(-1392.713 -227.772)" fill-rule="evenodd"/>
      <path id="Path_8725" data-name="Path 8725" d="M95.22,154.56a8.36,8.36,0,1,1,0-16.72V131a15.2,15.2,0,1,0,15.219,15.2H103.59A8.365,8.365,0,0,1,95.22,154.56Z" transform="translate(-80 -131)" fill="#110202" fill-rule="evenodd"/>
      <path id="Path_8726" data-name="Path 8726" d="M267.726,223.726H276.1v-8.36h-8.371Z" transform="translate(-252.507 -208.527)" fill="#110202" fill-rule="evenodd"/>
    </g>
  </g>
</svg>
