<svg id="c670d4c" xmlns="http://www.w3.org/2000/svg" width="110.423" height="32.511" viewBox="0 0 110.423 32.511">
  <path id="Path_8673" data-name="Path 8673" d="M14.705,10.685c-.4,4.574-4.974,8.713-6.518,11.326-1.522,2.576-2.025,5.006-.82,9.836a.107.107,0,0,1-.143.128C5.646,31.283,0,28.709,0,21.907,0,12.853,10.119,12.62,9.429.117a.108.108,0,0,1,.163-.1A11.377,11.377,0,0,1,14.705,10.685Z" transform="translate(0 0)" fill="#110202"/>
  <path id="Path_8674" data-name="Path 8674" d="M5.444,28.074a.106.106,0,0,1-.073-.095c-.165-3.046,1.455-5.024,3.274-6.486,4.161-3.344,6.655-7.914,5.31-13.2a.1.1,0,0,1,.173-.1,18.822,18.822,0,0,1,2.885,4.256c2.546,5.47,1.187,11.738-4.905,14.9A8.718,8.718,0,0,1,5.444,28.074Z" transform="translate(2.671 4.065)" fill="#110202"/>
  <path id="Path_8675" data-name="Path 8675" d="M31.626,5.539v9.445H22.559V6.754a1.2,1.2,0,0,0-1.183-1.215h-3.06V28.047A1.2,1.2,0,0,0,19.5,29.262h3.06V18.794h9.067v9.253a1.2,1.2,0,0,0,1.183,1.215h3.06V6.754a1.2,1.2,0,0,0-1.183-1.215Z" transform="translate(9.129 2.761)" fill="#110202" fill-rule="evenodd"/>
  <path id="Path_8676" data-name="Path 8676" d="M42.886,9.266V20.521a2.886,2.886,0,0,1-1.4,2.5A3.23,3.23,0,0,1,36.5,20.316V10.482A1.212,1.212,0,0,0,35.3,9.266H32.16V20.718a6.692,6.692,0,0,0,6.645,6.7h1.777a6.692,6.692,0,0,0,6.646-6.7V10.482a1.212,1.212,0,0,0-1.207-1.217H42.886Z" transform="translate(16.028 4.618)" fill="#110202" fill-rule="evenodd"/>
  <path id="Path_8677" data-name="Path 8677" d="M71.862,27.087h3.069V11.125a1.2,1.2,0,0,0-1.186-1.218H70.676V25.868A1.2,1.2,0,0,0,71.862,27.087Z" transform="translate(35.224 4.937)" fill="#110202" fill-rule="evenodd"/>
  <path id="Path_8678" data-name="Path 8678" d="M72.9,10.273a2.367,2.367,0,1,0-2.367-2.367A2.367,2.367,0,0,0,72.9,10.273Z" transform="translate(35.154 2.761)" fill="#110202" fill-rule="evenodd"/>
  <path id="Path_8679" data-name="Path 8679" d="M56.4,19.878a3.884,3.884,0,0,1-7.748,0V16.792a3.884,3.884,0,0,1,7.748,0ZM52.527,9.266a7.883,7.883,0,0,0-8.192,7.842v2.473A7.867,7.867,0,0,0,52.527,27.4a7.867,7.867,0,0,0,8.191-7.823V17.108A7.882,7.882,0,0,0,52.527,9.266Z" transform="translate(22.097 4.618)" fill="#110202" fill-rule="evenodd"/>
  <path id="Path_8680" data-name="Path 8680" d="M69.546,21.741a3.912,3.912,0,0,1-7.8,0V18.657a3.912,3.912,0,0,1,7.8,0Zm-3.9-10.6a8.821,8.821,0,0,0-3.922.9V6.753A1.21,1.21,0,0,0,60.52,5.539H57.4V21.444c0,4.569,3.71,7.818,8.245,7.818s8.244-3.249,8.244-7.818V18.973C73.892,14.4,70.181,11.136,65.647,11.136Z" transform="translate(28.609 2.761)" fill="#110202" fill-rule="evenodd"/>
</svg>
