<svg xmlns="http://www.w3.org/2000/svg" width="247.913" height="30.453" viewBox="0 0 247.913 30.453">
  <g id="Group_9128" data-name="Group 9128" transform="translate(-4716.948 11581)">
    <path id="Path_8882" data-name="Path 8882" d="M0,2.57H8.479V30.677H0ZM6.038,5.012h-3.6V28.236h3.6ZM3.021,27.172V6.371H5.476v20.8Z" transform="translate(4716.948 -11582.396)" fill="#110202" fill-rule="evenodd"/>
    <path id="Path_8883" data-name="Path 8883" d="M57.163,25.635h3.719V5.432H60.3V25.055H57.419L37.754,5.432H29.732V28.656h3.6V9.028h2.889L55.881,28.656H63.9V4.537h2.442V31.1H54.891L35.774,11.939V31.1H27.29V2.99H38.745L57.862,22.143V2.99h5.463V28.076H56.1L36.472,8.448H32.753v18.1H30.311V6.007h7.224L57.163,25.635Z" transform="translate(4702.112 -11582.626)" fill="#110202" fill-rule="evenodd"/>
    <path id="Path_8884" data-name="Path 8884" d="M147.809,10.32a3.587,3.587,0,0,0-.949-.1H129.207V24.372h19.167a10.446,10.446,0,0,0,1.511-.087.977.977,0,0,0,.954-.954,9.862,9.862,0,0,0,.087-1.515V9.759a9.893,9.893,0,0,0-.087-1.515,1.232,1.232,0,0,0-.283-.666,1.246,1.246,0,0,0-.671-.283,9.839,9.839,0,0,0-1.511-.091H126.186V29.853H120.71V1.745h27.642a17.077,17.077,0,0,1,3.824.351A5.13,5.13,0,0,1,154.7,3.411a5.2,5.2,0,0,1,1.314,2.524,17.055,17.055,0,0,1,.351,3.824V21.834a17.487,17.487,0,0,1-.351,3.843,5.18,5.18,0,0,1-1.314,2.546,5.02,5.02,0,0,1-2.533,1.3,18.117,18.117,0,0,1-3.815.333H127.9V27.416H148.37a14.534,14.534,0,0,0,2.921-.237,2.811,2.811,0,0,0,2.41-2.419,14.6,14.6,0,0,0,.237-2.925V9.759a14.6,14.6,0,0,0-.237-2.925,3.2,3.2,0,0,0-.794-1.616,3.2,3.2,0,0,0-1.616-.8,14.63,14.63,0,0,0-2.925-.233h-25.2V27.416h.575V4.762h24.643a12.879,12.879,0,0,1,2.369.178,3.08,3.08,0,0,1,1.638.808,3.062,3.062,0,0,1,.808,1.638,12.9,12.9,0,0,1,.178,2.373V21.834a12.779,12.779,0,0,1-.178,2.4,2.848,2.848,0,0,1-2.446,2.423,12.851,12.851,0,0,1-2.368.178H126.775V7.792h21.6a1.791,1.791,0,0,1,1.976,1.976V21.834a1.789,1.789,0,0,1-1.976,1.976h-17.46V21.369h15.936a6.229,6.229,0,0,0,.771-.032.2.2,0,0,0,.237-.237,6.239,6.239,0,0,0,.037-.771V11.27a3.788,3.788,0,0,0-.1-.949Z" transform="translate(4651.325 -11581.947)" fill="#110202" fill-rule="evenodd"/>
    <path id="Path_8885" data-name="Path 8885" d="M319.194,10.32a3.587,3.587,0,0,0-.949-.1H300.593V24.372H319.76a10.5,10.5,0,0,0,1.515-.087,1.2,1.2,0,0,0,.666-.288,1.219,1.219,0,0,0,.283-.666,9.865,9.865,0,0,0,.091-1.515V9.759a9.9,9.9,0,0,0-.091-1.515,1.218,1.218,0,0,0-.283-.666,1.2,1.2,0,0,0-.666-.283A9.9,9.9,0,0,0,319.76,7.2H297.576V29.853H292.1V1.745h27.655a17.054,17.054,0,0,1,3.824.351A5.129,5.129,0,0,1,326.1,3.411a5.107,5.107,0,0,1,1.314,2.524,17.055,17.055,0,0,1,.351,3.824V21.834a17.488,17.488,0,0,1-.351,3.843,5.143,5.143,0,0,1-1.314,2.546,5.02,5.02,0,0,1-2.528,1.3,18.186,18.186,0,0,1-3.82.333h-20.08V27.416h20.08a14.6,14.6,0,0,0,2.925-.237,2.811,2.811,0,0,0,2.414-2.414,14.6,14.6,0,0,0,.233-2.925V9.759a14.6,14.6,0,0,0-.233-2.925,3.222,3.222,0,0,0-.8-1.616,3.2,3.2,0,0,0-1.616-.8,14.6,14.6,0,0,0-2.925-.233h-25.2V27.416h.58V4.762h24.621a12.9,12.9,0,0,1,2.373.178,3.1,3.1,0,0,1,1.638.808,3.131,3.131,0,0,1,.808,1.638,12.9,12.9,0,0,1,.178,2.373V21.834a12.78,12.78,0,0,1-.183,2.4,2.839,2.839,0,0,1-2.442,2.423,12.9,12.9,0,0,1-2.373.178h-21.6V7.792h21.6a1.791,1.791,0,0,1,1.976,1.976V21.834a1.789,1.789,0,0,1-1.976,1.976H302.692V21.369h15.553a6.266,6.266,0,0,0,.776-.032.406.406,0,0,0,.178-.055.424.424,0,0,0,.055-.183,6.268,6.268,0,0,0,.036-.776V11.27A3.586,3.586,0,0,0,319.194,10.32Z" transform="translate(4558.15 -11581.947)" fill="#110202" fill-rule="evenodd"/>
    <path id="Path_8886" data-name="Path 8886" d="M405.226,11.152a3.8,3.8,0,0,0-.949-.091H387.661a6.229,6.229,0,0,0-.771.032.456.456,0,0,0-.183.055.456.456,0,0,0-.055.183,6.229,6.229,0,0,0-.032.771v5.577h21.714V10.6a9.854,9.854,0,0,0-.091-1.515,1.155,1.155,0,0,0-.283-.666,1.191,1.191,0,0,0-.666-.288,10.469,10.469,0,0,0-1.515-.087H386.155a10.47,10.47,0,0,0-1.515.087,1.191,1.191,0,0,0-.666.288,1.191,1.191,0,0,0-.288.666A10.47,10.47,0,0,0,383.6,10.6V26.4h-2.442V10.6a12.9,12.9,0,0,1,.178-2.373,3.1,3.1,0,0,1,.808-1.638,3.076,3.076,0,0,1,1.62-.808,12.677,12.677,0,0,1,2.391-.178h19.623a12.9,12.9,0,0,1,2.373.178,3.1,3.1,0,0,1,1.638.808,3.1,3.1,0,0,1,.808,1.638,12.9,12.9,0,0,1,.178,2.373v9.52H384.183V10.6a1.787,1.787,0,0,1,1.976-1.976h19.623a1.789,1.789,0,0,1,1.976,1.976v5.371h-2.442V12.1a3.8,3.8,0,0,0-.091-.949Zm3.112,11.984H386.625v7.548h-8.479V10.6a18.129,18.129,0,0,1,.329-3.82,5.088,5.088,0,0,1,1.3-2.533,5.18,5.18,0,0,1,2.547-1.314,17.488,17.488,0,0,1,3.843-.351h19.623a17.342,17.342,0,0,1,3.824.351,5.184,5.184,0,0,1,2.524,1.314,5.144,5.144,0,0,1,1.314,2.528A17.051,17.051,0,0,1,413.8,10.6v20.08h-8.484V26.157H388.573V23.716h19.167v4.527h3.6V10.6A14.6,14.6,0,0,0,411.1,7.67a3.131,3.131,0,0,0-.8-1.616,3.131,3.131,0,0,0-1.616-.8,14.6,14.6,0,0,0-2.925-.237H386.141a14.6,14.6,0,0,0-2.925.237,3.131,3.131,0,0,0-1.616.8,3.131,3.131,0,0,0-.785,1.616,14.6,14.6,0,0,0-.237,2.925V28.243h3.6V20.694h26.6v5.841h-2.442v-3.4Z" transform="translate(4511.375 -11582.404)" fill="#110202" fill-rule="evenodd"/>
    <path id="Path_8887" data-name="Path 8887" d="M494.955,5.978,492.4,3.432l-10.04,10h-9.93L466.46,7.452l1.711-1.711,5.326,5.248h7.909L492.4,0l5.974,5.978L486.969,17.387l5.663,5.663-1.716,1.716-7.361-7.425L494.964,5.978Zm-22.736,8.027h2.437L464.192,24.475l2.546,2.551,10-10h5.631l10.04,10,2.551-2.551L489.337,18.9l1.7-1.766,7.361,7.347-6,5.974-11-10.985h-3.692L466.738,30.453l-5.978-5.978L470,15.229l-9.237-9.25L466.738,0l7.722,7.722L472.7,9.428l-5.96-6-2.546,2.546Zm4.226,2.423-8.31,8.365-1.716-1.716,9.054-9.072h7.133l8.31-8.269,1.711,1.716-8.94,8.977Z" transform="translate(4466.46 -11581)" fill="#110202" fill-rule="evenodd"/>
    <path id="Path_8888" data-name="Path 8888" d="M239.34,21.571l.205-10.049-7.179-7.169-16.543-.018L209.056,11.3V21.444l6.7,6.248,15.982-.269,4.5-7.2.1-7.379-5.3-5.3-13.887-.014-4.92,5.317.3,7.425,4.7,4.24,12.573-.1,3.341-5.029v-5.2l-3.427-3.427-11.226-.014-2.9,3.423.155,4.819,2.82,2.647,9.542-.1-.059,2.277-10.515.091-4.221-3.879-.292-6.864,4.372-4.979,13.38.018,4.933,4.929v6.9l-4.386,6.914-15.224.037-6.2-5.654-.219-9.5,6.4-6.845,16.032.014,6.8,6.8v9.57l-5.86,8.653-18.327.237L206.5,22.516V10.24l8.26-8.47,18.674.018,8.671,8.675-.219,12.066-4.048,6.225-2.181-1.5,3.683-5.686Z" transform="translate(4604.686 -11581.963)" fill="#110202" fill-rule="evenodd"/>
    <path id="Path_8889" data-name="Path 8889" d="M7.333,8.56A1.643,1.643,0,1,1,5.69,10.2,1.643,1.643,0,0,1,7.333,8.56Z" transform="translate(4713.854 -11585.653)" fill="#110202" fill-rule="evenodd"/>
    <path id="Path_8890" data-name="Path 8890" d="M7.333,51A1.643,1.643,0,1,1,5.69,52.643,1.643,1.643,0,0,1,7.333,51Z" transform="translate(4713.854 -11608.726)" fill="#110202" fill-rule="evenodd"/>
    <path id="Path_8891" data-name="Path 8891" d="M34.634,51.39a1.223,1.223,0,1,0,.009,0Z" transform="translate(4699.007 -11608.938)" fill="#110202" fill-rule="evenodd"/>
    <path id="Path_8892" data-name="Path 8892" d="M108.233,3.18a1.643,1.643,0,1,1-1.643,1.643A1.643,1.643,0,0,1,108.233,3.18Z" transform="translate(4659.001 -11582.729)" fill="#110202" fill-rule="evenodd"/>
    <path id="Path_8893" data-name="Path 8893" d="M141.613,43.83a1.643,1.643,0,1,1-1.643,1.643A1.643,1.643,0,0,1,141.613,43.83Z" transform="translate(4640.854 -11604.827)" fill="#110202" fill-rule="evenodd"/>
    <path id="Path_8927" data-name="Path 8927" d="M135.043,57.06A1.643,1.643,0,1,1,133.4,58.7,1.643,1.643,0,0,1,135.043,57.06Z" transform="translate(4644.426 -11612.021)" fill="#110202" fill-rule="evenodd"/>
    <path id="Path_8928" data-name="Path 8928" d="M253.043,43.75a1.643,1.643,0,1,1-1.643,1.643A1.643,1.643,0,0,1,253.043,43.75Z" transform="translate(4580.277 -11604.784)" fill="#110202" fill-rule="evenodd"/>
    <path id="Path_8929" data-name="Path 8929" d="M270.643,56.06A1.643,1.643,0,1,1,269,57.7a1.643,1.643,0,0,1,1.643-1.643Z" transform="translate(4570.708 -11611.477)" fill="#110202" fill-rule="evenodd"/>
    <path id="Path_8930" data-name="Path 8930" d="M313.043,43.83a1.643,1.643,0,1,1-1.643,1.643,1.643,1.643,0,0,1,1.643-1.643Z" transform="translate(4547.658 -11604.827)" fill="#110202" fill-rule="evenodd"/>
    <path id="Path_8931" data-name="Path 8931" d="M306.373,57.06A1.643,1.643,0,1,1,304.73,58.7,1.643,1.643,0,0,1,306.373,57.06Z" transform="translate(4551.285 -11612.021)" fill="#110202" fill-rule="evenodd"/>
    <path id="Path_8932" data-name="Path 8932" d="M438.413,27.82a1.643,1.643,0,1,1-1.643,1.643,1.643,1.643,0,0,1,1.643-1.643Z" transform="translate(4479.502 -11596.124)" fill="#110202" fill-rule="evenodd"/>
    <path id="Path_8933" data-name="Path 8933" d="M385.483,51a1.643,1.643,0,1,1-1.643,1.643A1.643,1.643,0,0,1,385.483,51Z" transform="translate(4508.277 -11608.726)" fill="#110202" fill-rule="evenodd"/>
    <path id="Path_8934" data-name="Path 8934" d="M399.043,48a1.643,1.643,0,1,1-1.643,1.643A1.643,1.643,0,0,1,399.043,48Z" transform="translate(4500.905 -11607.095)" fill="#110202" fill-rule="evenodd"/>
    <path id="Path_8935" data-name="Path 8935" d="M445.043,51a1.643,1.643,0,1,1-1.643,1.643A1.643,1.643,0,0,1,445.043,51Z" transform="translate(4475.898 -11608.726)" fill="#110202" fill-rule="evenodd"/>
    <path id="Path_8936" data-name="Path 8936" d="M471.9,9.36A1.643,1.643,0,1,1,470.26,11,1.643,1.643,0,0,1,471.9,9.36Z" transform="translate(4461.296 -11586.089)" fill="#110202" fill-rule="evenodd"/>
    <path id="Path_8937" data-name="Path 8937" d="M487.953,16.39a1.643,1.643,0,1,1-1.643,1.643A1.643,1.643,0,0,1,487.953,16.39Z" transform="translate(4452.57 -11589.91)" fill="#110202" fill-rule="evenodd"/>
    <path id="Path_8938" data-name="Path 8938" d="M522.048,34.79a1.643,1.643,0,1,1-1.638,1.643A1.643,1.643,0,0,1,522.048,34.79Z" transform="translate(4434.032 -11599.913)" fill="#110202" fill-rule="evenodd"/>
    <path id="Path_8939" data-name="Path 8939" d="M527.9,9.65a1.643,1.643,0,1,1-1.643,1.643A1.643,1.643,0,0,1,527.9,9.65Z" transform="translate(4430.852 -11586.246)" fill="#110202" fill-rule="evenodd"/>
    <path id="Path_8940" data-name="Path 8940" d="M527.933,49.86A1.643,1.643,0,1,1,526.29,51.5,1.643,1.643,0,0,1,527.933,49.86Z" transform="translate(4430.835 -11608.106)" fill="#110202" fill-rule="evenodd"/>
    <path id="Path_8941" data-name="Path 8941" d="M471.923,49.84a1.643,1.643,0,1,1-1.643,1.643A1.643,1.643,0,0,1,471.923,49.84Z" transform="translate(4461.285 -11608.095)" fill="#110202" fill-rule="evenodd"/>
  </g>
</svg>
