<svg xmlns="http://www.w3.org/2000/svg" xmlns:xlink="http://www.w3.org/1999/xlink" width="128" height="27" viewBox="0 0 128 27">
  <defs>
    <clipPath id="clip-path">
      <rect id="Rectangle_3807" data-name="Rectangle 3807" width="128" height="27" transform="translate(0 -0.776)" fill="#110202"/>
    </clipPath>
  </defs>
  <g id="MEXC" transform="translate(0 0.776)" clip-path="url(#clip-path)">
    <path id="Path_8814" data-name="Path 8814" d="M38.01,17.851,29.1,2.393a4.971,4.971,0,0,0-8.6.137L11.139,18.605a4.424,4.424,0,0,0,3.907,6.649H33.794A4.921,4.921,0,0,0,38.01,17.851Z" transform="translate(2.537 0.155)" fill="#110202"/>
    <path id="Path_8815" data-name="Path 8815" d="M27.694,19.052l-.548-.96c-.514-.891-1.645-2.811-1.645-2.811L17.96,2.189A4.939,4.939,0,0,0,9.426,2.7L.651,17.887a4.921,4.921,0,0,0,4.284,7.369H36.263C31.43,25.29,29.888,22.788,27.694,19.052Z" transform="translate(0 0.154)" fill="#110202"/>
    <path id="Path_8816" data-name="Path 8816" d="M25.164,17.743l-.548-.96c-.514-.891-1.645-2.811-1.645-2.811L18.1,5.4,11.111,17.332a4.424,4.424,0,0,0,3.907,6.649H33.732C28.865,23.947,27.357,21.479,25.164,17.743Z" transform="translate(2.531 1.463)" fill="#fff"/>
    <path id="Path_8821" data-name="Path 8821" d="M57.04,22.708V4.851H71.881V5.982a1.609,1.609,0,0,1-1.611,1.611H60.742v4.8h9.528v2.742H60.742v4.8h9.528a1.609,1.609,0,0,1,1.611,1.611v1.131Z" transform="translate(13.758 1.329)" fill="#110202"/>
    <path id="Path_8822" data-name="Path 8822" d="M89.81,4.851h-3.5a2.062,2.062,0,0,0-1.645.788l-4.216,5.313L76.237,5.674a2.062,2.062,0,0,0-1.645-.788H71.1L78.191,13.8,71.1,22.708h3.5a2.062,2.062,0,0,0,1.645-.788l4.216-5.278,4.25,5.313a2.169,2.169,0,0,0,1.645.788h3.5l-7.095-8.911Z" transform="translate(17.149 1.329)" fill="#110202"/>
    <path id="Path_8823" data-name="Path 8823" d="M49.851,20.831l4.867-8.5V22.682h3.7V4.825h-2.3a1.963,1.963,0,0,0-1.748,1.028L48.548,16.478,42.721,5.853a1.963,1.963,0,0,0-1.748-1.028h-2.3V22.682h3.7V12.331l4.867,8.5Z" transform="translate(9.329 1.323)" fill="#110202"/>
    <path id="Path_8824" data-name="Path 8824" d="M95.779,22.961a9.166,9.166,0,0,1-9.357-9.117A9.281,9.281,0,0,1,88.89,7.092a9.379,9.379,0,0,1,6.718-2.434,9.544,9.544,0,0,1,7.677,3.325l-1.165.994a2.06,2.06,0,0,1-2.571.069,6.126,6.126,0,0,0-3.8-1.165c-3.633,0-5.792,2.194-5.792,5.9,0,3.736,2.228,6.032,5.792,6.032a6.276,6.276,0,0,0,3.8-1.165,2.063,2.063,0,0,1,2.571.069l1.165.994A9.342,9.342,0,0,1,95.779,22.961Z" transform="translate(20.845 1.283)" fill="#110202"/>
  </g>
</svg>
