<svg xmlns="http://www.w3.org/2000/svg" xmlns:xlink="http://www.w3.org/1999/xlink" width="84.068" height="138.452" viewBox="0 0 84.068 138.452">
  <defs>
    <clipPath id="clip-path">
      <rect id="Rectangle_3798" data-name="Rectangle 3798" width="84.068" height="138.452" fill="none"/>
    </clipPath>
  </defs>
  <g id="Group_9106" data-name="Group 9106" transform="translate(0 0)">
    <g id="Group_9105" data-name="Group 9105" transform="translate(0 0)" clip-path="url(#clip-path)">
      <path id="Path_8727" data-name="Path 8727" d="M82.6,8.24,17.229,45.981a14.6,14.6,0,0,1-7.136,1.707,14.593,14.593,0,0,1-7.136-1.707C.985,44.844,0,43.352,0,41.861s.986-2.982,2.958-4.119L68.326,0Z" transform="translate(-0.001 0)" fill="#d65265"/>
      <path id="Path_8728" data-name="Path 8728" d="M77.746,5.793l-7.965,4.6-56.8,32.794A8.157,8.157,0,0,1,9,44.134a8.959,8.959,0,0,1-2.782-.425,6.422,6.422,0,0,1-1.2-.526,4.276,4.276,0,0,1-.915-.693c-1.223-1.242-.918-2.849.915-3.906L69.781,1.194l2.925,1.689L74.821,4.1Z" transform="translate(1.726 0.612)" fill="#ba2a45"/>
      <path id="Path_8729" data-name="Path 8729" d="M82.6,5.449V96.213l-65.369,37.74a12.554,12.554,0,0,1-3.681,1.355,16.752,16.752,0,0,1-3.455.352,14.593,14.593,0,0,1-7.136-1.707C.985,132.816,0,131.324,0,129.832V39.07c0,1.491.986,2.984,2.958,4.121A14.593,14.593,0,0,0,10.093,44.9a16.858,16.858,0,0,0,3.455-.352,12.554,12.554,0,0,0,3.681-1.355Z" transform="translate(-0.001 2.791)" fill="#ba2a45"/>
      <path id="Path_8730" data-name="Path 8730" d="M78.009,5.449V96.213L12.64,133.953a12.554,12.554,0,0,1-3.681,1.355V44.545A12.554,12.554,0,0,0,12.64,43.19Z" transform="translate(4.589 2.791)" fill="#9b1c2e"/>
      <path id="Path_8731" data-name="Path 8731" d="M42.046,42.2l-1.4-.815L61.8,29.172l1.4.815Z" transform="translate(20.818 14.943)" fill="#d65265"/>
      <path id="Path_8732" data-name="Path 8732" d="M39.122,56.912l-1.4-.815c-1.429-.83-2.315-2.6-2.323-5.105-.014-5.054,3.539-11.205,7.935-13.743l1.4.814c-4.4,2.539-7.948,8.691-7.933,13.744.006,2.509.892,4.275,2.321,5.105" transform="translate(18.13 19.079)" fill="#d65265"/>
      <path id="Path_8733" data-name="Path 8733" d="M65.411,29.711l.051,18.295L44.31,60.218c-4.4,2.537-7.971.5-7.986-4.552s3.539-11.2,7.935-13.743Z" transform="translate(18.605 15.218)" fill="#ba2a45"/>
      <path id="Path_8734" data-name="Path 8734" d="M45.853,39.423l1.113.647c-1.034-.6-2.469-.517-4.051.4L41.8,39.819c1.583-.913,3.017-1,4.053-.4" transform="translate(21.41 19.996)" fill="#f3d35a"/>
      <path id="Path_8735" data-name="Path 8735" d="M40.821,53.688l-1.113-.647a3.983,3.983,0,0,1-1.662-3.653,12.511,12.511,0,0,1,5.677-9.832l1.113.647a12.515,12.515,0,0,0-5.677,9.832,3.989,3.989,0,0,0,1.662,3.653" transform="translate(19.487 20.26)" fill="#f3d35a"/>
      <path id="Path_8736" data-name="Path 8736" d="M44.459,40.248c3.145-1.816,5.7-.358,5.715,3.256A12.515,12.515,0,0,1,44.5,53.337c-3.145,1.816-5.7.357-5.713-3.257a12.511,12.511,0,0,1,5.677-9.832" transform="translate(19.864 20.215)" fill="#ebb12a"/>
      <path id="Path_8737" data-name="Path 8737" d="M74.572,3.533,5.97,43.139a6.426,6.426,0,0,1-1.2-.528,4.276,4.276,0,0,1-.915-.693l68.6-39.608Z" transform="translate(1.975 1.184)" fill="#9b1c2e"/>
    </g>
  </g>
</svg>
