<svg xmlns="http://www.w3.org/2000/svg" xmlns:xlink="http://www.w3.org/1999/xlink" width="205.34" height="29.904" viewBox="0 0 205.34 29.904">
  <defs>
    <clipPath id="clip-path">
      <rect id="Rectangle_3808" data-name="Rectangle 3808" width="205.34" height="29.904" fill="none"/>
    </clipPath>
  </defs>
  <g id="Group_9127" data-name="Group 9127" transform="translate(0 0)">
    <path id="Path_8943" data-name="Path 8943" d="M6.06,0,5.93,3.169H0V7.751L6.06,7.62V25.689h5.5L11.429,7.62H25.7V3.169H11.69V0Z" transform="translate(0)" fill="#231f20"/>
    <path id="Path_8944" data-name="Path 8944" d="M70.782,10.866h.655l4.452,7.463h-8.9Zm-.262-8.772L57.3,26.054h5.76l1.834-3.927,12.569.13,4.321,7.725H87.8L71.7,2.094Z" transform="translate(-9.992 -0.365)" fill="#231f20"/>
    <g id="Group_9126" data-name="Group 9126" transform="translate(0 0)">
      <g id="Group_9125" data-name="Group 9125" clip-path="url(#clip-path)">
        <path id="Path_8945" data-name="Path 8945" d="M54.216,11.75a7.723,7.723,0,0,0-7.2-7.594H32.874V26.414h4.32v-7.2h4.321l6.939,11.129h5.63l-7.07-10.867a7.724,7.724,0,0,0,7.2-7.725m-16.89,3.8V7.691h8.51a4.075,4.075,0,0,1,3.667,4.32,4.049,4.049,0,0,1-3.667,3.535Z" transform="translate(-5.733 -0.725)" fill="#231f20"/>
        <path id="Path_8946" data-name="Path 8946" d="M223.061,12.1a7.723,7.723,0,0,0-7.2-7.594H201.719V26.762h4.32v-7.2h4.321L217.3,30.69h5.631l-7.07-10.867a7.724,7.724,0,0,0,7.2-7.725m-16.89,3.8V8.039h8.51a4.075,4.075,0,0,1,3.667,4.32,4.049,4.049,0,0,1-3.667,3.535Z" transform="translate(-35.179 -0.786)" fill="#231f20"/>
        <path id="Path_8947" data-name="Path 8947" d="M113.415,14.33a12.088,12.088,0,0,0-7.667-10.175H91.869V26.413h13.878a12.159,12.159,0,0,0,7.667-12.084m-9.762,8.025H96.321V7.69h7.332a7.964,7.964,0,0,1,5.106,6.416,8.057,8.057,0,0,1-5.106,8.249" transform="translate(-16.022 -0.725)" fill="#231f20"/>
        <path id="Path_8948" data-name="Path 8948" d="M119.146,4.155h13.748V8.214h-8.773v3.4h8.773v3.666l-8.773.262-.13,6.809H135.12v4.059H119.146Z" transform="translate(-20.779 -0.725)" fill="#231f20"/>
        <path id="Path_8949" data-name="Path 8949" d="M229.367,4.473h13.748V8.531h-8.773v3.4h8.773V15.6l-8.773.262-.13,6.809H245.34v4.059H229.367Z" transform="translate(-40.001 -0.78)" fill="#231f20"/>
        <path id="Path_8950" data-name="Path 8950" d="M152.337,3.878c-6.994,0-12.663,5.034-12.663,11.244s5.669,11.244,12.663,11.244S165,21.331,165,15.122,159.331,3.878,152.337,3.878m-.247,18.113c-4.338,0-7.854-3.122-7.854-6.974s3.516-6.974,7.854-6.974,7.854,3.122,7.854,6.974-3.516,6.974-7.854,6.974" transform="translate(-24.359 -0.676)" fill="#231f20"/>
        <path id="Path_8951" data-name="Path 8951" d="M188.078,8.512l2.793-3.579a15.723,15.723,0,0,0-13.7,0,11.151,11.151,0,0,0,0,19.9,12.675,12.675,0,0,0,7.507,1.833,12.477,12.477,0,0,0,5.586-1.833q-.043,2.684-.088,5.368h4.714V15.146h-9.863l.087,4.539h5.063a8.65,8.65,0,0,1-2.881,2.095,9.382,9.382,0,0,1-6.9.121,7.134,7.134,0,0,1-.088-13.389,8.295,8.295,0,0,1,7.769,0" transform="translate(-29.83 -0.586)" fill="#231f20"/>
      </g>
    </g>
  </g>
</svg>
