<svg id="Group_9195" data-name="Group 9195" xmlns="http://www.w3.org/2000/svg" width="58.032" height="58.032" viewBox="0 0 58.032 58.032">
  <rect id="Rectangle_3093" data-name="Rectangle 3093" width="58.032" height="58.032" rx="10" transform="translate(0 0)" fill="#fff"/>
  <g id="Group_8584" data-name="Group 8584" transform="translate(9.757 9.758)">
    <path id="Path_4" data-name="Path 4" d="M68.405,83.994a1.191,1.191,0,0,0,1.064-.643L72.3,77.97H67.923a1.2,1.2,0,0,1-1.2-1.2V74.359a1.2,1.2,0,0,1,1.2-1.2h6.927l5.38-10.192a1.205,1.205,0,0,1,1.064-.643H90.36A19.27,19.27,0,0,0,59.042,84.006h9.363v-.012Z" transform="translate(-57.1 -56.3)" fill="#9b1c2e"/>
    <path id="Path_5" data-name="Path 5" d="M121.555,143.712a1.191,1.191,0,0,0-1.064.643l-2.832,5.38h4.379a1.2,1.2,0,0,1,1.2,1.2v2.412a1.2,1.2,0,0,1-1.2,1.2h-6.927l-5.38,10.192a1.205,1.205,0,0,1-1.064.643H99.6A19.27,19.27,0,0,0,130.918,143.7h-9.363Z" transform="translate(-94.343 -132.89)" fill="#9b1c2e"/>
  </g>
</svg>
