<svg id="Group_9183" data-name="Group 9183" xmlns="http://www.w3.org/2000/svg" xmlns:xlink="http://www.w3.org/1999/xlink" width="58.252" height="50" viewBox="0 0 58.252 50">
  <defs>
    <clipPath id="clip-path">
      <rect id="Rectangle_3355" data-name="Rectangle 3355" width="58.252" height="50" fill="#9b1c2e"/>
    </clipPath>
  </defs>
  <g id="Group_8813" data-name="Group 8813" clip-path="url(#clip-path)">
    <path id="Path_7808" data-name="Path 7808" d="M0,132.7l.113-.006a4.638,4.638,0,0,1,1.447.638c3.065,1.622,6.141,3.223,9.214,4.83,3.257,1.7,6.5,3.427,9.773,5.11.29.15.569.314.641.675a4.724,4.724,0,0,1,.04.851q0,8.97,0,17.939a1.416,1.416,0,0,1-.189,1.033c-1.613-.7-3.133-1.588-4.691-2.4Q8.165,157.117,0,152.834Z" transform="translate(0 -113.783)" fill="#ba2a45"/>
    <path id="Path_7809" data-name="Path 7809" d="M147.606,115.589q.005-8.962.011-17.924,0-1.049,0-2.1a2.28,2.28,0,0,1,.924-.634c2.467-1.2,4.894-2.489,7.337-3.741q6.393-3.276,12.783-6.558,4.145-2.123,8.282-4.26c2.355-1.216,4.723-2.405,7.072-3.632.236-.123.47-.344.781-.175q.005,9.8.022,19.609c0,.405-.222.506-.5.647Q173.061,102.6,161.8,108.387q-6.817,3.5-13.636,7c-.174.089-.327.263-.559.2" transform="translate(-126.569 -65.602)" fill="#9b1c2e"/>
    <path id="Path_7810" data-name="Path 7810" d="M58.911,10.965a17.718,17.718,0,0,0-2.447,1.181q-6.277,3.2-12.539,6.433Q35.332,22.992,26.738,27.4q-2.5,1.284-5.006,2.561c-.963-.521-1.92-1.053-2.89-1.56q-5.625-2.94-11.257-5.868-3.265-1.705-6.52-3.428a2.247,2.247,0,0,1-.269-.2c.9-.484,1.788-.983,2.695-1.448q5.891-3.02,11.789-6.024,6.4-3.276,12.789-6.563L36.255.67a1.855,1.855,0,0,0,.4-.209c.826-.739,1.575-.484,2.441.019,1.669.968,3.4,1.824,5.115,2.718,3.76,1.963,7.533,3.9,11.278,5.892a27.173,27.173,0,0,1,3.42,1.874" transform="translate(-0.682 0)" fill="#ffe0e0"/>
    <path id="Path_7811" data-name="Path 7811" d="M251.1,53.109a6.441,6.441,0,0,1-3.509-1.12,1.5,1.5,0,0,1-.233-2.527,5.135,5.135,0,0,1,2.872-1.231,8.7,8.7,0,0,1,4.625.418,4.292,4.292,0,0,1,1.436.892c.808.738.558,1.9-.5,2.561a8.3,8.3,0,0,1-4.695,1.005" transform="translate(-211.596 -41.235)" fill="#ba2a45"/>
    <path id="Path_7812" data-name="Path 7812" d="M103.8,130.687a6.93,6.93,0,0,1-4.024-1c-1.3-.861-1.33-1.976-.09-2.914a5.483,5.483,0,0,1,2.522-.953,8.823,8.823,0,0,1,4.94.532,3.336,3.336,0,0,1,1.08.712,1.5,1.5,0,0,1-.2,2.467,6.887,6.887,0,0,1-4.224,1.152" transform="translate(-84.702 -107.778)" fill="#ba2a45"/>
    <path id="Path_7813" data-name="Path 7813" d="M177.83,92.159a8.2,8.2,0,0,1-3.973-1.019c-1.385-.91-1.371-2.23.054-3.078a6.807,6.807,0,0,1,3.236-.914,8.261,8.261,0,0,1,4.4.8,3.209,3.209,0,0,1,1.018.889,1.465,1.465,0,0,1-.383,2.014,5.927,5.927,0,0,1-3.078,1.183c-.429.06-.862.084-1.278.123" transform="translate(-148.198 -74.714)" fill="#ba2a45"/>
  </g>
</svg>
