<svg xmlns="http://www.w3.org/2000/svg" xmlns:xlink="http://www.w3.org/1999/xlink" width="40.085" height="61.923" viewBox="0 0 40.085 61.923">
  <defs>
    <clipPath id="clip-path">
      <rect id="Rectangle_3359" data-name="Rectangle 3359" width="40.085" height="61.923" fill="none"/>
    </clipPath>
    <clipPath id="clip-path-2">
      <path id="Path_7827" data-name="Path 7827" d="M0,73.2,25.27,87.787l.093-32.853L.093,40.345Z" transform="translate(0 -40.345)" fill="#d93554"/>
    </clipPath>
    <clipPath id="clip-path-3">
      <rect id="Rectangle_3361" data-name="Rectangle 3361" width="40.085" height="61.923" fill="#9b1c2e"/>
    </clipPath>
    <clipPath id="clip-path-4">
      <path id="Path_7830" data-name="Path 7830" d="M70.408,155.015l14.723-8.556L74.09,145.21Z" transform="translate(-70.408 -145.21)" fill="#d93554"/>
    </clipPath>
  </defs>
  <g id="Group_9187" data-name="Group 9187" transform="translate(-14181 10816.323)">
    <g id="Group_8822" data-name="Group 8822" transform="translate(14181 -10816.323)" clip-path="url(#clip-path)">
      <path id="Path_7822" data-name="Path 7822" d="M62.811.931c-3.75-2.165-6.806-.419-6.819,3.886l-.02,7.461a1.838,1.838,0,0,0,.836,1.45c.466.269.842.056.843-.48l.021-7.461c.009-3.238,2.31-4.55,5.132-2.92a11.242,11.242,0,0,1,5.1,8.825l-.02,7.462a1.841,1.841,0,0,0,.837,1.451c.465.268.841.055.843-.481l.021-7.461A14.945,14.945,0,0,0,62.811.931" transform="translate(-35.883 -0.001)" fill="#cfcccc"/>
      <path id="Path_7823" data-name="Path 7823" d="M36.73,20.037,36.637,52.89l-3.264,5.675.093-32.853Z" transform="translate(-21.395 -12.845)" fill="#730e00"/>
      <path id="Path_7824" data-name="Path 7824" d="M15.981,35.851,15.888,68.7,6.1,70.614l.093-32.853Z" transform="translate(-3.911 -22.984)" fill="#ba2a45"/>
      <path id="Path_7825" data-name="Path 7825" d="M65.121,33.063l-.093,32.853L42.467,52.89l.093-32.854Z" transform="translate(-27.225 -12.845)" fill="#ba2a45"/>
      <path id="Path_7826" data-name="Path 7826" d="M91.8,57.156l-.093,32.853-11.04,2.154.094-32.853Z" transform="translate(-51.715 -36.642)" fill="#ba2a45"/>
    </g>
    <g id="Group_8824" data-name="Group 8824" transform="translate(14181 -10801.844)" clip-path="url(#clip-path-2)">
      <rect id="Rectangle_3360" data-name="Rectangle 3360" width="25.363" height="47.442" transform="translate(0 0)" fill="#d93554"/>
    </g>
    <g id="Group_8826" data-name="Group 8826" transform="translate(14181 -10816.323)" clip-path="url(#clip-path-3)">
      <path id="Path_7828" data-name="Path 7828" d="M74.185,63.158l-.094,32.853-3.682,6.4L70.5,69.559Z" transform="translate(-45.138 -40.49)" fill="#9b1c2e"/>
      <path id="Path_7829" data-name="Path 7829" d="M40.251,31.1,29.212,33.251l-3.684,6.4L.258,25.064,11.3,22.909l3.682-6.4ZM25.009,38.386l3.264-5.676,9.789-1.91L15.5,17.775l-3.265,5.676L2.448,25.36,25.009,38.386" transform="translate(-0.165 -10.583)" fill="#9b1c2e"/>
    </g>
    <g id="Group_8828" data-name="Group 8828" transform="translate(14206.27 -10764.207)" clip-path="url(#clip-path-4)">
      <rect id="Rectangle_3362" data-name="Rectangle 3362" width="14.723" height="9.805" transform="translate(0 0)" fill="#d93554"/>
    </g>
    <g id="Group_8830" data-name="Group 8830" transform="translate(14181 -10816.323)" clip-path="url(#clip-path)">
      <path id="Path_7834" data-name="Path 7834" d="M21.509,24.2c-3.749-2.165-6.806-.419-6.818,3.885l-.021,7.461a1.84,1.84,0,0,0,.837,1.45c.466.269.842.056.843-.48l.022-7.461c.009-3.238,2.31-4.55,5.132-2.92a11.244,11.244,0,0,1,5.1,8.825l-.021,7.462a1.84,1.84,0,0,0,.837,1.45c.466.269.842.055.843-.48l.021-7.462A14.947,14.947,0,0,0,21.509,24.2" transform="translate(-9.405 -14.917)" fill="#cfcccc"/>
    </g>
  </g>
</svg>
