<svg id="Group_8982" data-name="Group 8982" xmlns="http://www.w3.org/2000/svg" xmlns:xlink="http://www.w3.org/1999/xlink" width="93.126" height="127.322" viewBox="0 0 93.126 127.322">
  <defs>
    <clipPath id="clip-path">
      <rect id="Rectangle_3763" data-name="Rectangle 3763" width="93.126" height="127.322" fill="none"/>
    </clipPath>
  </defs>
  <path id="Path_8479" data-name="Path 8479" d="M13.923,30.124l-5.4-3.137v-.026Z" transform="translate(64.629 19.137)" fill="#5d7280"/>
  <path id="Path_8480" data-name="Path 8480" d="M59.379,75.378,11.708,102.9l-.116-40.975L59.263,34.4Z" transform="translate(13.927 24.42)" fill="#fff"/>
  <path id="Path_8481" data-name="Path 8481" d="M44.987,51.831,45.1,92.806l-5.514-3.2-.116-40.975Z" transform="translate(-19.467 34.515)" fill="#cfcccc"/>
  <g id="Group_8981" data-name="Group 8981">
    <g id="Group_8980" data-name="Group 8980" clip-path="url(#clip-path)">
      <path id="Path_8482" data-name="Path 8482" d="M18.694,4.086c-.009.043-.017.084-.024.127.007-.043.015-.084.024-.127" transform="translate(42.51 2.9)" fill="#5d7280"/>
      <path id="Path_8483" data-name="Path 8483" d="M25.149,7.828c-.123-.043-.244-.089-.373-.125-.221-.062-.451-.106-.682-.149-.113-.021-.221-.05-.335-.065a8.214,8.214,0,0,0-1.079-.079c-.327,0-.665-.007-1.009-.012-.07,0-.144,0-.215,0-.272,0-.547-.007-.828-.012-.125,0-.253-.007-.378-.009l-.708-.015-.434-.014c-.221-.005-.443-.012-.665-.019l-.472-.017c-.214-.007-.427-.015-.641-.024l-.508-.022-.592-.029c-.178-.009-.354-.019-.528-.029-.19-.01-.378-.021-.564-.032s-.345-.022-.516-.034L14.071,7.1l-.491-.041c-.183-.015-.362-.031-.54-.048-.152-.014-.3-.029-.453-.044-.174-.019-.347-.036-.515-.056-.147-.015-.289-.034-.431-.053-.161-.021-.32-.041-.474-.063l-.392-.058c-.147-.024-.291-.048-.431-.074L9.99,6.6q-.195-.041-.374-.082c-.108-.024-.21-.05-.309-.075s-.217-.06-.318-.092-.176-.055-.256-.084-.173-.067-.251-.1-.14-.062-.2-.094a1.615,1.615,0,0,1-.286-.18A5.2,5.2,0,0,1,6.495,3.7c3.134.366,7.4.48,10.673.508a7.382,7.382,0,0,1,3.705.963l5.512,3.2c-.092-.053-.195-.092-.289-.142-.121-.063-.243-.125-.368-.181-.188-.084-.383-.156-.58-.222" transform="translate(55.636 2.626)" fill="#d65265"/>
      <path id="Path_8484" data-name="Path 8484" d="M45.019,43.058l.036,12.726-5.512-3.2,0-.149.127,0Z" transform="translate(-19.537 30.563)" fill="#8b1a2a"/>
      <path id="Path_8485" data-name="Path 8485" d="M20.554,9.015" transform="translate(37.429 6.399)" fill="#5d7280"/>
      <path id="Path_8486" data-name="Path 8486" d="M23.555,6.986c-.009.043-.017.084-.024.127a25.343,25.343,0,0,1-1.067,3.772l-.014.036a29.675,29.675,0,0,1-1.636,3.6c-.159.3-.313.6-.48.889A25.176,25.176,0,0,0,23.94,3.225l-5.5-3.2V0l5.514,3.2a19.639,19.639,0,0,1-.4,3.782" transform="translate(37.649)" fill="#5d7280"/>
      <path id="Path_8487" data-name="Path 8487" d="M18.442,14.332l5.514,3.208,12.418-7.157L48.792,3.2,43.278.018,30.86,7.175Z" transform="translate(12.802 0.013)" fill="#cfcccc"/>
      <path id="Path_8488" data-name="Path 8488" d="M32.97,8.491h0l5.512,3.2Z" transform="translate(-1.728 6.027)" fill="#d7daff"/>
      <path id="Path_8489" data-name="Path 8489" d="M38.483,11.766l-5.512-3.2,0-.173,5.514,3.2Z" transform="translate(-1.729 5.955)" fill="#d7daff"/>
      <path id="Path_8490" data-name="Path 8490" d="M7.79,54.907A34.243,34.243,0,0,1,14.62,42.3c5.285-6.155,13.212-15.59,14.629-18.449a17.308,17.308,0,0,0,1.992-7.46c.1,7.763,5.647,10.881,12.464,6.945.427-.246.851-.516,1.269-.805A23.7,23.7,0,0,0,49.617,18.2c.029-.036.055-.072.082-.106a29.725,29.725,0,0,0,2.772-4.006c.169-.292.321-.592.48-.889a29.675,29.675,0,0,0,1.636-3.6l.014-.036a25.344,25.344,0,0,0,1.067-3.772c.009-.043.015-.084.024-.127a19.639,19.639,0,0,0,.4-3.782,8.556,8.556,0,0,0,.528,3.12,5.223,5.223,0,0,0,1.5,2.189,1.7,1.7,0,0,0,.287.18c.06.032.128.063.2.094s.162.068.253.1.168.056.256.084.205.063.318.092.2.051.309.075.245.055.374.082l.356.067c.14.026.282.05.431.074.128.021.258.039.392.058.154.022.313.044.474.065l.431.051c.168.021.34.038.515.056.15.015.3.031.453.044.178.017.357.032.539.048l.491.041.552.039c.171.012.342.024.516.034s.374.022.563.032.352.021.53.029l.592.029.508.022c.214.009.427.017.641.024.157.007.315.012.472.017.222.007.443.014.663.019.145.005.291.01.436.014l.706.015.38.009c.28.005.556.009.828.012.07,0,.144,0,.215,0,.344.005.682.009,1.009.012a8.235,8.235,0,0,1,1.079.079c.115.015.222.044.335.065.231.043.46.087.682.149.127.036.25.082.373.125.2.067.392.138.58.222.125.056.246.118.366.181a7.6,7.6,0,0,1,3.452,3.866L87.614,31.6,73.039,47.931l-5.4-3.163v.026l.152,53.676-.116-40.975L20.006,85.017,19.97,72.29l-5.352,9.37-.127,0L0,82.182Z" transform="translate(5.512 1.33)" fill="#9b1c2e"/>
      <path id="Path_8491" data-name="Path 8491" d="M30.868,9.052,43.28,1.886a25.176,25.176,0,0,1-3.606,12.189A29.724,29.724,0,0,1,36.9,18.081c-.027.034-.055.07-.082.106a23.705,23.705,0,0,1-4.642,4.334q-.626.433-1.269.805c-6.819,3.936-12.367.817-12.464-6.945v-.173Z" transform="translate(18.309 1.339)" fill="#fffdfd"/>
      <path id="Path_8492" data-name="Path 8492" d="M52.2,61.5l-5.512-3.2,7.788-27.275,5.514,3.2Z" transform="translate(-46.685 22.016)" fill="#d65265"/>
      <path id="Path_8493" data-name="Path 8493" d="M59.944,19.153C58.526,22.012,50.6,31.447,45.313,37.6A34.291,34.291,0,0,0,38.484,50.21l-5.514-3.2A34.3,34.3,0,0,1,39.8,34.4c5.285-6.155,13.212-15.59,14.631-18.449a17.336,17.336,0,0,0,1.992-7.458l5.512,3.2a17.336,17.336,0,0,1-1.992,7.46" transform="translate(-25.182 6.027)" fill="#d65265"/>
      <path id="Path_8494" data-name="Path 8494" d="M30.531,39.372l10.24-5.912V29.328l-10.24,5.912Z" transform="translate(0.154 20.817)" fill="#fff"/>
      <path id="Path_8495" data-name="Path 8495" d="M27.673,31.481c0,1.14.8,1.6,1.788,1.033a3.954,3.954,0,0,0,1.788-3.1c0-1.14-.8-1.6-1.788-1.033a3.954,3.954,0,0,0-1.788,3.1" transform="translate(14.561 19.973)" fill="#fff"/>
    </g>
  </g>
</svg>
