<svg xmlns="http://www.w3.org/2000/svg" width="59.061" height="133.857" viewBox="0 0 59.061 133.857">
  <g id="Group_8976" data-name="Group 8976" transform="translate(-36.133 -5.652)">
    <g id="Group_8975" data-name="Group 8975" transform="translate(36.133 0.001)">
      <g id="Group_8977" data-name="Group 8977" transform="translate(0 0)">
        <path id="Path_8446" data-name="Path 8446" d="M41.849,22.154l-5.388-3.132C31.582,16.188,24.818,16.59,17.35,20.9l5.392,3.132c7.468-4.309,14.228-4.711,19.107-1.877" transform="translate(9.409 50.086)" fill="#878787"/>
        <path id="Path_8447" data-name="Path 8447" d="M30.065,81.737l5.388,3.132c-4.817-2.8-7.8-8.758-7.827-17.23-.047-17.05,11.921-37.784,26.762-46.35L49,18.157c-14.838,8.566-26.805,29.3-26.758,46.35.023,8.472,3.011,14.431,7.827,17.23" transform="translate(-22.237 52.832)" fill="#878787"/>
        <path id="Path_8448" data-name="Path 8448" d="M15.354,68.032c.078,8.1,2.752,13.84,7.186,16.82,4.9,3.288,11.929,3.061,19.729-1.451,7.569-4.359,14.372-11.929,19.189-20.491C66.2,54.653,69.028,45.4,69.028,37.067c0-17.05-12.081-23.932-26.915-15.369S15.276,50.982,15.354,68.032" transform="translate(-9.967 52.423)" fill="#4a4949"/>
        <path id="Path_8449" data-name="Path 8449" d="M19.927,38.528c0,5.88,4.129,8.265,9.223,5.325s9.223-10.091,9.223-15.975-4.129-8.265-9.223-5.325-9.223,10.095-9.223,15.975" transform="translate(2.808 61.96)" fill="#fff"/>
        <path id="Path_8450" data-name="Path 8450" d="M17.29,57.715c4.9,3.288,11.929,3.057,19.725-1.454C44.584,51.9,51.391,44.335,56.208,35.773c-2.448-8.336-10.248-11.01-19.5-5.661-9.1,5.278-16.82,16.593-19.42,27.6" transform="translate(-4.716 79.561)" fill="#fff"/>
        <path id="Path_8451" data-name="Path 8451" d="M20.171,21.772l9,5.09,8.938-15.444Z" transform="translate(2.172 38.876)" fill="#9b1c2e"/>
        <path id="Path_8452" data-name="Path 8452" d="M41.46,12.87l-3.355-1.951L20.172,21.276l3.355,1.947Z" transform="translate(-1.234 31.772)" fill="#ed484f"/>
        <path id="Path_8453" data-name="Path 8453" d="M24.315,2.377,20.961.426c-1.146-.665-2.729-.575-4.473.434l3.355,1.951c1.744-1.009,3.327-1.1,4.473-.434" transform="translate(30.363 5.651)" fill="#d65265"/>
        <path id="Path_8454" data-name="Path 8454" d="M30.306,18.159,33.66,20.11c-1.13-.657-1.834-2.053-1.838-4.031l-3.355-1.951c0,1.978.708,3.374,1.838,4.031" transform="translate(-25.821 46.76)" fill="#d65265"/>
        <path id="Path_8455" data-name="Path 8455" d="M32.292,10.559,28.938,8.608,29,30.194l3.355,1.951Z" transform="translate(-26.353 30.698)" fill="#d65265"/>
        <path id="Path_8456" data-name="Path 8456" d="M58.982,2.17,55.627.219l-38,21.938L20.987,24.1Z" transform="translate(-8.777 6.289)" fill="#d65265"/>
        <path id="Path_8457" data-name="Path 8457" d="M36.976,7.781,33.621,5.83A13.861,13.861,0,0,0,27.35,16.7L30.7,18.642A13.86,13.86,0,0,1,36.976,7.781" transform="translate(-24.766 22.615)" fill="#d65265"/>
        <path id="Path_8458" data-name="Path 8458" d="M22.273,23.292A13.86,13.86,0,0,0,16,34.154l.063,21.586c.012,3.98,2.846,5.6,6.31,3.6l10.032-5.79,17.93-10.353L60.37,37.4a13.848,13.848,0,0,0,6.271-10.861L66.579,4.956c-.012-3.984-2.846-5.6-6.31-3.6Z" transform="translate(-10.063 7.104)" fill="#9b1c2e"/>
        <path id="Path_8459" data-name="Path 8459" d="M19.23,23.891c0,4.488,12.066,6.862,12.066,6.862s12.066-16.308,12.066-20.8c0-4.453-3.132-6.295-7.018-4.051A14.336,14.336,0,0,0,31.3,11.3c-1.275-.8-3.073-.7-5.048.438A15.523,15.523,0,0,0,19.23,23.891" transform="translate(0.597 20.049)" fill="#fff"/>
      </g>
    </g>
  </g>
</svg>
