<svg xmlns="http://www.w3.org/2000/svg" width="96.946" height="120.646" viewBox="0 0 96.946 120.646">
  <g id="Group_8960" data-name="Group 8960" transform="translate(-72.353 55.276)">
    <g id="Group_8962" data-name="Group 8962">
      <g id="Group_8958" data-name="Group 8958" transform="translate(48.933 -55.276)">
        <g id="Group_8961" data-name="Group 8961" transform="translate(23.42 0)">
          <path id="Path_8337" data-name="Path 8337" d="M100.076,2.644C91.938-1.678,80.887-.84,68.715,6.187,43.7,20.629,23.42,55.754,23.42,84.64c0,13.046,4.137,22.589,10.978,27.8,3.907,2.977,12.62,6.977,12.62,6.977s14.433-4.431,21.7-8.626c25.015-14.443,45.3-49.568,45.3-78.453,0-10.515-5.5-24.762-5.5-24.762s-5.938-3.606-8.438-4.932" transform="translate(-23.42 0)" fill="#9b1c2e"/>
          <path id="Path_8338" data-name="Path 8338" d="M72.974,8.645c-25.015,14.443-45.3,49.568-45.3,78.454s20.28,40.593,45.3,26.151,45.3-49.568,45.3-78.454S97.989-5.8,72.974,8.645" transform="translate(-21.323 1.21)" fill="#ba2a45"/>
          <path id="Path_8339" data-name="Path 8339" d="M70.877,13.278C49.371,25.694,31.939,55.888,31.939,80.72s17.432,34.9,38.938,22.481,38.938-42.61,38.938-67.442S92.382.861,70.877,13.278" transform="translate(-19.225 3.919)" fill="#fafafa"/>
          <path id="Path_8340" data-name="Path 8340" d="M58.03,49.584,80.28,36.737V31.412L58.03,44.257Z" transform="translate(-6.379 15.466)" fill="#1d1d1d"/>
          <path id="Path_8341" data-name="Path 8341" d="M40.225,42.878l25.852,2.3,1.437-3.706-25.852-2.3Z" transform="translate(-15.146 19.288)" fill="#1d1d1d"/>
          <path id="Path_8342" data-name="Path 8342" d="M57.18,20.61l2.537-1.464V12.608L57.18,14.072Z" transform="translate(-6.797 6.207)" fill="#1d1d1d"/>
          <path id="Path_8343" data-name="Path 8343" d="M33.037,59.414,38.7,56.146v-2.93l-5.662,3.268Z" transform="translate(-18.685 26.202)" fill="#1d1d1d"/>
          <path id="Path_8344" data-name="Path 8344" d="M57.18,73.948l2.537-1.464V65.946L57.18,67.41Z" transform="translate(-6.797 32.47)" fill="#1d1d1d"/>
          <path id="Path_8345" data-name="Path 8345" d="M79.229,32.745l5.662-3.268v-2.93l-5.662,3.268Z" transform="translate(4.059 13.071)" fill="#1d1d1d"/>
          <path id="Path_8346" data-name="Path 8346" d="M45.274,24.82,48.1,28.848l.775-.964-2.831-4.026Z" transform="translate(-12.66 11.746)" fill="#9b1c2e"/>
          <path id="Path_8347" data-name="Path 8347" d="M36.235,40.791l4.9.437.446-1.152-4.9-.437Z" transform="translate(-17.11 19.517)" fill="#9b1c2e"/>
          <path id="Path_8348" data-name="Path 8348" d="M36.235,70.683l.446.636,4.9-6.1-.446-.636Z" transform="translate(-17.11 31.799)" fill="#9b1c2e"/>
          <path id="Path_8349" data-name="Path 8349" d="M45.274,76.55l.775.069,2.831-7.3-.775-.069Z" transform="translate(-12.66 34.098)" fill="#9b1c2e"/>
          <path id="Path_8350" data-name="Path 8350" d="M68.37,57.678,71.2,61.706l.775-.964-2.831-4.026Z" transform="translate(-1.288 27.925)" fill="#9b1c2e"/>
          <path id="Path_8351" data-name="Path 8351" d="M76.239,44.364l4.9.437.446-1.152-4.9-.437Z" transform="translate(2.587 21.276)" fill="#9b1c2e"/>
          <path id="Path_8352" data-name="Path 8352" d="M76.239,20.918l.448.636,4.9-6.1-.446-.636Z" transform="translate(2.587 7.296)" fill="#9b1c2e"/>
          <path id="Path_8353" data-name="Path 8353" d="M68.37,17.023l.775.069,2.831-7.3L71.2,9.727Z" transform="translate(-1.288 4.789)" fill="#9b1c2e"/>
          <path id="Path_8354" data-name="Path 8354" d="M58.313,41.843a1.893,1.893,0,0,0-.857,1.483V76.275c0,.546.384.769.857.5a1.9,1.9,0,0,0,.857-1.485V42.337c0-.546-.384-.767-.857-.494" transform="translate(-6.661 20.544)" fill="#9b1c2e"/>
          <path id="Path_8355" data-name="Path 8355" d="M59.21,39.045a7.9,7.9,0,0,0-3.576,6.193c0,2.28,1.6,3.206,3.576,2.065a7.907,7.907,0,0,0,3.576-6.195c0-2.28-1.6-3.2-3.576-2.064" transform="translate(-7.559 18.984)" fill="#9b1c2e"/>
        </g>
      </g>
    </g>
  </g>
</svg>
