<svg id="Group_8949" data-name="Group 8949" xmlns="http://www.w3.org/2000/svg" xmlns:xlink="http://www.w3.org/1999/xlink" width="122.812" height="108.406" viewBox="0 0 122.812 108.406">
  <defs>
    <clipPath id="clip-path">
      <rect id="Rectangle_3754" data-name="Rectangle 3754" width="122.812" height="108.406" fill="none"/>
    </clipPath>
  </defs>
  <g id="Group_8948" data-name="Group 8948" clip-path="url(#clip-path)">
    <path id="Path_8239" data-name="Path 8239" d="M86.6,39.144h8.43V13.25a4.252,4.252,0,0,1,8.462,0v3.7h8.43v-3.7c0-6.319-5.68-11.46-12.661-11.46S86.6,6.931,86.6,13.25Z" transform="translate(-44.991 -0.745)" fill="#878787"/>
    <path id="Path_8240" data-name="Path 8240" d="M98.311,14.855a4.05,4.05,0,0,1,4.231,3.829v3.7h-1.291v-3.7a3.975,3.975,0,0,0-3.586-3.78,4.674,4.674,0,0,1,.645-.049" transform="translate(-42.75 -6.179)" fill="#222526"/>
    <path id="Path_8241" data-name="Path 8241" d="M117.884,1.79c.218,0,.43.02.645.03-6.681.307-12.015,5.309-12.015,11.43V39.144h-1.291V13.25c0-6.319,5.68-11.46,12.661-11.46" transform="translate(-63.613 -0.745)" fill="#222526"/>
    <path id="Path_8243" data-name="Path 8243" d="M55.425,88.976a6.16,6.16,0,0,1-1.251-.856,40.137,40.137,0,0,0,8.683,6.416,30.229,30.229,0,0,1-6.009-4.574,6.822,6.822,0,0,0-1.423-.986" transform="translate(24.999 -36.652)" fill="#bcbcbc"/>
    <path id="Path_8244" data-name="Path 8244" d="M53.245,90.475l-1.691-.89a6.788,6.788,0,0,1,1.423.986,30.274,30.274,0,0,0,6.009,4.574c.565.295,1.126.592,1.691.89a30.255,30.255,0,0,1-6.009-4.574,6.712,6.712,0,0,0-1.423-.986" transform="translate(28.868 -37.262)" fill="#bcbcbc"/>
    <path id="Path_8245" data-name="Path 8245" d="M9.581,59.327a1.043,1.043,0,0,0,.594-1c5.282-2.732,11.091-1.971,14.08.738,3.919,3.556,8.574,7.5,14.127,4.512a18.751,18.751,0,0,0,4.72-3.76C56.2,46.9,36.166,15.711,35,14.113c.818-.864.695-2.094-.164-3.351a96.551,96.551,0,0,1,5.351,9.207c1.348,2.719,1.852,3.736,2.62,5.529,1.458,3.4,2.231,5.652,2.433,6.262.894,2.689,3.614,10.878,2.662,18.329a24.955,24.955,0,0,1-.585,2.981c-.208.774-.627,1.771-.9,2.528a17.6,17.6,0,0,1-1.39,2.5,18.318,18.318,0,0,1-1.84,2.22c-.175.205-.379.384-.567.578a28.241,28.241,0,0,1-2.19,1.953,14.557,14.557,0,0,1-5.9,2.932,15.943,15.943,0,0,1-6.735-.053,25.942,25.942,0,0,1-6.782-2.476,30.254,30.254,0,0,1-6.009-4.574,6.712,6.712,0,0,0-1.423-.986,5.4,5.4,0,0,0,1.09.44,7.688,7.688,0,0,0-2.635.246,11.984,11.984,0,0,0-2.459.951" transform="translate(68.529 -4.476)" fill="#9b1c2e"/>
    <path id="Path_8246" data-name="Path 8246" d="M68.358,97.077,75.779,93.2a1.046,1.046,0,0,0,.588-1l-7.421,3.879a1.043,1.043,0,0,1-.588.994" transform="translate(2.337 -38.351)" fill="#ba2a45"/>
    <path id="Path_8247" data-name="Path 8247" d="M81.309,11.023c.015.046.036.1.05.148,0-.005.106-.083.33-.253-.2-.262-.243-.428-.136-.508-.21.159-.338.253-.245.613" transform="translate(-11.323 -4.33)" fill="#bcbcbc"/>
    <path id="Path_8248" data-name="Path 8248" d="M79.858,106.12q3.005-1.571,6.01-3.139t6.005-3.141a1.043,1.043,0,0,0,.588-.994l-12.014,6.278a1.051,1.051,0,0,1-.59,1" transform="translate(-21.179 -41.114)" fill="#ba2a45"/>
    <path id="Path_8249" data-name="Path 8249" d="M76.782,10.413q-.658,1.137-1.318,2.273l-.363.621c-.274.474-.551.947-.827,1.423q-.484.832-.969,1.669c.306-.53,2.455.1,5.469,1.684L82.1,12.358c-3.016-1.587-5.1-2.323-5.32-1.945" transform="translate(-6.591 -4.291)" fill="#d65265"/>
    <path id="Path_8250" data-name="Path 8250" d="M64.039,1.249a25.272,25.272,0,0,0-3.73-.93,23.274,23.274,0,0,0-2.9-.3,24.1,24.1,0,0,0-2.6.054,25.188,25.188,0,0,0-3.133.46A33.853,33.853,0,0,0,45.312,2.6c-.472.2-1.734.752-3.333,1.611-.392.208-1,.54-1.667.936-.55.325-1.085.669-1.625,1l-.007,0c.195-.086.652-.281,2.862.692.729.319,1.572.729,2.506,1.221a38.6,38.6,0,0,1,4.485-2.7C53.074,3,60.272.216,66.391,2.247a15.5,15.5,0,0,0-2.352-1" transform="translate(31.463 0)" fill="#d65265"/>
    <path id="Path_8251" data-name="Path 8251" d="M75.7,14.7l-1.691-.888-3.326,5.726,1.692.888Z" transform="translate(1.499 -5.746)" fill="#d65265"/>
    <path id="Path_8252" data-name="Path 8252" d="M60.094,4.235,58.4,3.346C52.283,1.314,45.086,4.1,40.545,6.47a38.8,38.8,0,0,0-4.485,2.7l1.691.889a39.074,39.074,0,0,1,4.486-2.7C46.777,4.988,53.976,2.2,60.094,4.235" transform="translate(39.451 -1.099)" fill="#d65265"/>
    <path id="Path_8253" data-name="Path 8253" d="M31.788,12.238c3.117,1.881,4.9,3.344,5.3,4.347.005.019,1.3-.846,3.2-1.842,4.11-2.148,10.545-4.625,15.064-3.372,1.536-1.624-.248-4.536-3.986-6.5-6.118-2.031-13.317.753-17.857,3.125a39.026,39.026,0,0,0-4.485,2.7c.933.493,1.867,1.017,2.76,1.548" transform="translate(48.174 -1.733)" fill="#d65265"/>
    <path id="Path_8254" data-name="Path 8254" d="M69.4,20.975c-.9-1.148-4.654-3.674-8.39-5.64l-3.325,5.726c3.736,1.965,7.4,4.66,8.172,6.019Z" transform="translate(16.195 -6.378)" fill="#d65265"/>
    <path id="Path_8255" data-name="Path 8255" d="M88.753,20.489Q83.6,23.179,78.46,25.865c1.055-.551,3.422-.077,6.169,1.367L94.1,22.286c-2.748-1.447-4.774-2.1-5.345-1.8" transform="translate(-21.913 -8.492)" fill="#9b1c2e"/>
    <path id="Path_8256" data-name="Path 8256" d="M87,24.505l-1.693-.888-9.468,4.946,1.693.891Z" transform="translate(-13.122 -9.823)" fill="#9b1c2e"/>
    <path id="Path_8257" data-name="Path 8257" d="M80.814,31.158c-.776-1.359-4.436-4.055-8.172-6.02l-9.468,4.949c3.735,1.965,6.773,4.987,6.775,6.747Z" transform="translate(1.234 -10.456)" fill="#9b1c2e"/>
    <path id="Path_8258" data-name="Path 8258" d="M108.018,29.586q-3.934,2.059-7.87,4.115l-7.013,3.666c1.541-.807,4.243-.513,6.99.935l14.064-7.35c-2.748-1.444-5.115-1.918-6.17-1.367" transform="translate(-51.471 -12.213)" fill="#9b1c2e"/>
    <path id="Path_8259" data-name="Path 8259" d="M106.268,32.977l-1.692-.891-14.064,7.35,1.691.89Z" transform="translate(-41.859 -13.346)" fill="#9b1c2e"/>
    <path id="Path_8260" data-name="Path 8260" d="M100.851,40.359c0-1.76-3.039-4.782-6.775-6.747L80.012,40.96c3.739,1.965,6.15,5.314,5.383,7.477Z" transform="translate(-29.668 -13.98)" fill="#9b1c2e"/>
    <path id="Path_8261" data-name="Path 8261" d="M127.935,38.718a7.332,7.332,0,0,0-3.775-.1,2.59,2.59,0,0,0-1.755,1.422,2.351,2.351,0,0,1,.33-.092,1.7,1.7,0,0,1,1.025-1.173,39.323,39.323,0,0,0-3.639,1.684c1.056-.551,3.419-.079,6.166,1.367a31.586,31.586,0,0,1,4.49-2,13.205,13.205,0,0,0-2.842-1.109" transform="translate(-85.473 -15.975)" fill="#d65265"/>
    <path id="Path_8262" data-name="Path 8262" d="M123.68,41.728l-1.69-.891a31.466,31.466,0,0,0-4.49,2l1.691.89a31.213,31.213,0,0,1,4.489-1.994" transform="translate(-76.686 -16.986)" fill="#d65265"/>
    <path id="Path_8263" data-name="Path 8263" d="M107.1,45.915q-1.676-1.121-3.356-2.241c2.963,1.977,4.652,4.733,3.872,6.561l3.573,2.386c.673-1.9-1.109-4.717-4.088-6.707" transform="translate(-55.462 -18.166)" fill="#d65265"/>
    <path id="Path_8264" data-name="Path 8264" d="M118.846,49.6a2.655,2.655,0,0,0,.057-.953,5,5,0,0,0-.473-1.475A10.161,10.161,0,0,0,115.9,44.08a13.9,13.9,0,0,0-2.551-1.717,31.251,31.251,0,0,0-4.489,1.994c3.738,1.965,6.773,4.987,6.779,6.748,1.907-1,3.2-1.48,3.2-1.506" transform="translate(-66.36 -17.62)" fill="#d65265"/>
    <path id="Path_8265" data-name="Path 8265" d="M166.445,66.764c-.761,2.129-1.542,4.251-2.284,6.388-.406,1.161-1.16,3.326-2.107,6.23C160.766,83.322,159.346,88,158.6,90.76c-1.393,5.158-1.82,6.878-2.826,11.937a68.94,68.94,0,0,0-1,7.3,33.444,33.444,0,0,0,.043,5.535,12.028,12.028,0,0,0,1.087,3.874,13.647,13.647,0,0,0,2.509,3.619,16.312,16.312,0,0,0,4.211,3.142c-11.063-5.818,7.817-54.326,8.874-57.033-3.033-1.6-5.014-2.511-5.059-2.365" transform="translate(-148.506 -27.763)" fill="#9b1c2e"/>
    <path id="Path_8266" data-name="Path 8266" d="M143.783,41.753a47.925,47.925,0,0,0-4.518,2.7,47.067,47.067,0,0,0-4.308,3.27,48.331,48.331,0,0,0-4.442,4.3,47.785,47.785,0,0,0-3.437,4.25c.088-.125,2.058.789,5.059,2.368a51.943,51.943,0,0,1,17.816-15.52c-2.748-1.446-5.112-1.918-6.169-1.367" transform="translate(-109.139 -17.273)" fill="#d65265"/>
    <path id="Path_8267" data-name="Path 8267" d="M143.963,45.143l-1.691-.89a51.939,51.939,0,0,0-17.815,15.519l1.691.89a51.926,51.926,0,0,1,17.815-15.519" transform="translate(-101.458 -18.406)" fill="#d65265"/>
    <path id="Path_8268" data-name="Path 8268" d="M155.532,127.857q.843.447,1.691.891c-11.064-5.818,7.819-54.326,8.874-57.034l-1.691-.89c-1.056,2.707-19.94,51.218-8.874,57.033" transform="translate(-141.408 -29.458)" fill="#9b1c2e"/>
    <path id="Path_8269" data-name="Path 8269" d="M138.545,52.525c-.006-1.761-3.041-4.782-6.779-6.748A51.931,51.931,0,0,0,113.951,61.3c3.737,1.965,7.66,4.219,8.764,5.035a45.609,45.609,0,0,1,15.83-13.806" transform="translate(-89.261 -19.04)" fill="#d65265"/>
    <path id="Path_8270" data-name="Path 8270" d="M101.941,129.382a18.965,18.965,0,0,0,3.7,1.481,15.054,15.054,0,0,0,3.135.539,16.976,16.976,0,0,0,4.2-.307,14.252,14.252,0,0,0,3.475-1.2,18.516,18.516,0,0,0,5.682-4.566,52.891,52.891,0,0,0,5.892-8.655,8.888,8.888,0,0,1,1.318-2.394c.005-.006.11-.191,1.258-2.4.554-1.064,1.072-2.137,1.646-3.189.141-.255.323-.6.479-.845h0c.317-.515,1.065-1.124,1.065-1.714,0-.048,1.175-1.694,1.185-1.71.435-.558.826-1.144,1.289-1.682.21-.241.474-.571.676-.818.353-.426.451-.535,1.4-1.575.006-.009.648-.7,1.448-1.469A23.158,23.158,0,0,1,144.81,95.1a1.052,1.052,0,0,0,.585-.993c-5.286,2.789-11.069,9.608-14.028,15.426-3.886,7.635-8.5,16.424-14.054,19.239a10.1,10.1,0,0,1-4.729,1.176c-13.14.793,6.635-51.2,6.995-52.561-1.1-.815-5.027-3.069-8.764-5.035-1.055,2.708-19.937,51.216-8.874,57.034" transform="translate(-86.126 -30.092)" fill="#9b1c2e"/>
    <path id="Path_8271" data-name="Path 8271" d="M37.795,40.106a45.609,45.609,0,0,0-15.83,13.806c-.359,1.36-20.135,53.354-6.995,52.561A10.1,10.1,0,0,0,19.7,105.3c5.553-2.815,10.168-11.6,14.053-19.239,2.959-5.818,8.743-12.637,14.029-15.426l12.014-6.278q3.708-1.936,7.421-3.879c5.281-2.732,11.091-1.971,14.08.738,3.919,3.556,8.574,7.5,14.127,4.512a18.764,18.764,0,0,0,4.721-3.76c13.1-12.921-6.936-44.108-8.1-45.706-4.519-1.252-10.955,1.225-15.064,3.372-2.456,1.285-3.889,2.346-2.873,1.589-.418.716-1.525,2.625-3.544,6.1C66.008,29.7,62.852,31.352,59.694,33L44.238,41.079c-2.036-1.362-3.153-2.106-3.573-2.386,1.02-.3-.416.132-2.871,1.414" transform="translate(11.489 -6.622)" fill="#d65265"/>
    <path id="Path_8272" data-name="Path 8272" d="M66.182,84.8l-1.576-.829a.664.664,0,0,0-.614.054l1.577.829a.661.661,0,0,1,.613-.054" transform="translate(15.339 -34.904)" fill="#110202"/>
    <path id="Path_8273" data-name="Path 8273" d="M73.527,84.928,71.95,84.1l-7.008,3.663,1.577.829Z" transform="translate(7.381 -34.98)" fill="#110202"/>
    <path id="Path_8274" data-name="Path 8274" d="M76.054,92.216l1.577.829a.531.531,0,0,1-.252-.5,1.69,1.69,0,0,1,.859-1.346l-1.576-.829a1.688,1.688,0,0,0-.859,1.346.529.529,0,0,0,.251.5" transform="translate(-4.339 -37.588)" fill="#110202"/>
    <path id="Path_8275" data-name="Path 8275" d="M85.32,95.873l-1.576-.829a.661.661,0,0,0-.613.054l1.576.829a.663.663,0,0,1,.613-.054" transform="translate(-16.149 -39.51)" fill="#110202"/>
    <path id="Path_8276" data-name="Path 8276" d="M92.664,96l-1.576-.829-7.007,3.663,1.576.829Z" transform="translate(-24.106 -39.586)" fill="#110202"/>
    <path id="Path_8277" data-name="Path 8277" d="M95.191,103.291l1.577.829a.529.529,0,0,1-.251-.5,1.688,1.688,0,0,1,.859-1.346l-1.576-.829a1.689,1.689,0,0,0-.859,1.346.531.531,0,0,0,.251.5" transform="translate(-35.825 -42.194)" fill="#110202"/>
    <path id="Path_8278" data-name="Path 8278" d="M64.462,89.1a1.69,1.69,0,0,0-.859,1.347c0,.495.388.694.865.446l7.008-3.662a1.691,1.691,0,0,0,.859-1.347c0-.5-.388-.694-.865-.446Z" transform="translate(9.438 -35.494)" fill="#878787"/>
    <path id="Path_8279" data-name="Path 8279" d="M83.6,100.18a1.689,1.689,0,0,0-.859,1.346c0,.495.389.694.865.446l7.008-3.662a1.69,1.69,0,0,0,.859-1.346c0-.5-.388-.694-.865-.446Z" transform="translate(-22.048 -40.101)" fill="#878787"/>
    <path id="Path_8280" data-name="Path 8280" d="M102.153,80.164l-2.274-1.2a3.5,3.5,0,0,0-3.239.289l2.274,1.2a3.5,3.5,0,0,1,3.239-.287" transform="translate(-41.699 -32.73)" fill="#878787"/>
    <path id="Path_8281" data-name="Path 8281" d="M102.988,89.415l2.275,1.2a2.8,2.8,0,0,1-1.328-2.643,8.925,8.925,0,0,1,4.537-7.113l-2.273-1.2a8.928,8.928,0,0,0-4.539,7.114,2.8,2.8,0,0,0,1.328,2.642" transform="translate(-51.257 -33.133)" fill="#878787"/>
    <path id="Path_8282" data-name="Path 8282" d="M99.118,81.3a8.924,8.924,0,0,0-4.537,7.114c.007,2.614,2.054,3.67,4.567,2.356a8.922,8.922,0,0,0,4.537-7.114c-.008-2.613-2.051-3.671-4.568-2.356" transform="translate(-41.903 -33.582)" fill="#cfcccc"/>
    <path id="Path_8283" data-name="Path 8283" d="M116.88,71.774l-2.273-1.2a3.5,3.5,0,0,0-3.239.286l2.273,1.2a3.5,3.5,0,0,1,3.239-.286" transform="translate(-65.929 -29.24)" fill="#878787"/>
    <path id="Path_8284" data-name="Path 8284" d="M117.716,81.023l2.273,1.2a2.8,2.8,0,0,1-1.328-2.643,8.928,8.928,0,0,1,4.537-7.113l-2.273-1.2a8.926,8.926,0,0,0-4.537,7.114,2.792,2.792,0,0,0,1.329,2.642" transform="translate(-75.486 -29.643)" fill="#878787"/>
    <path id="Path_8285" data-name="Path 8285" d="M113.846,72.912a8.925,8.925,0,0,0-4.537,7.114c.008,2.614,2.054,3.669,4.567,2.356a8.924,8.924,0,0,0,4.537-7.114c-.008-2.613-2.054-3.669-4.567-2.356" transform="translate(-66.134 -30.092)" fill="#cfcccc"/>
    <path id="Path_8286" data-name="Path 8286" d="M116.784,105.507l-2.273-1.2a3.5,3.5,0,0,0-3.239.286l2.273,1.2a3.5,3.5,0,0,1,3.239-.287" transform="translate(-65.772 -43.271)" fill="#110202"/>
    <path id="Path_8287" data-name="Path 8287" d="M117.618,114.757l2.273,1.2a2.8,2.8,0,0,1-1.327-2.643A8.923,8.923,0,0,1,123.1,106.2l-2.273-1.2a8.926,8.926,0,0,0-4.537,7.114,2.8,2.8,0,0,0,1.327,2.644" transform="translate(-75.328 -43.673)" fill="#110202"/>
    <path id="Path_8288" data-name="Path 8288" d="M113.75,106.646a8.922,8.922,0,0,0-4.537,7.114c.007,2.618,2.054,3.669,4.567,2.356A8.917,8.917,0,0,0,118.317,109c-.008-2.613-2.054-3.669-4.567-2.356" transform="translate(-65.976 -44.123)" fill="#878787"/>
    <path id="Path_8289" data-name="Path 8289" d="M131.51,97.115l-2.273-1.2a3.5,3.5,0,0,0-3.239.286l2.275,1.2a3.5,3.5,0,0,1,3.238-.286" transform="translate(-90 -39.78)" fill="#110202"/>
    <path id="Path_8290" data-name="Path 8290" d="M132.345,106.363l2.273,1.2a2.8,2.8,0,0,1-1.328-2.643,8.927,8.927,0,0,1,4.538-7.113l-2.275-1.2a8.926,8.926,0,0,0-4.538,7.114,2.794,2.794,0,0,0,1.329,2.642" transform="translate(-99.556 -40.182)" fill="#110202"/>
    <path id="Path_8291" data-name="Path 8291" d="M128.478,98.253a8.927,8.927,0,0,0-4.538,7.114c.008,2.614,2.054,3.67,4.567,2.356a8.924,8.924,0,0,0,4.537-7.114c-.008-2.613-2.053-3.669-4.566-2.356" transform="translate(-90.206 -40.632)" fill="#878787"/>
    <path id="Path_8292" data-name="Path 8292" d="M36.447,27.871C28.4,32.075,21.9,42.273,21.92,50.65S28.493,62.4,36.541,58.2,51.1,43.786,51.074,35.415,44.5,23.66,36.447,27.871" transform="translate(57.595 -10.839)" fill="#9b1c2e"/>
    <path id="Path_8293" data-name="Path 8293" d="M36.418,72.276l.246-.22a3.078,3.078,0,0,1-.618.434l-.428.348a4.076,4.076,0,0,0,.8-.562" transform="translate(63.165 -29.971)" fill="#3f3f3f"/>
    <path id="Path_8294" data-name="Path 8294" d="M33.516,68.177c.03-.1.059-.2.088-.3a3.267,3.267,0,0,0,.142-.931l-.121.517a2.556,2.556,0,0,1-.109.718" transform="translate(67.439 -27.844)" fill="#3f3f3f"/>
    <path id="Path_8295" data-name="Path 8295" d="M26.1,54.432l.248-.22a3.018,3.018,0,0,1-.6.418l-.431.348a3.963,3.963,0,0,0,.779-.546" transform="translate(80.125 -22.549)" fill="#3f3f3f"/>
    <path id="Path_8296" data-name="Path 8296" d="M23.188,50.263c.029-.1.059-.2.088-.3a3.352,3.352,0,0,0,.143-.941l-.121.517a2.565,2.565,0,0,1-.11.727" transform="translate(84.43 -20.389)" fill="#3f3f3f"/>
    <path id="Path_8297" data-name="Path 8297" d="M37,74.88l-.428.347,3.95-2.08.428-.348Z" transform="translate(58.256 -30.28)" fill="#3f3f3f"/>
    <path id="Path_8298" data-name="Path 8298" d="M23.2,46.609l.121-.517-.012-4.109-.121.517Z" transform="translate(84.527 -17.462)" fill="#cfcccc"/>
    <path id="Path_8299" data-name="Path 8299" d="M26.246,57.45l.123.06,4.274-2.235.43-.348Z" transform="translate(74.803 -22.847)" fill="#3f3f3f"/>
    <path id="Path_8300" data-name="Path 8300" d="M33.531,64.258l.121-.517-.014-4.435-.123-.06Z" transform="translate(67.533 -24.643)" fill="#3f3f3f"/>
    <path id="Path_8301" data-name="Path 8301" d="M46.721,73.353l3.308,1.682a1.472,1.472,0,0,1-.7-1.391l-3.308-1.682a1.471,1.471,0,0,0,.7,1.391" transform="translate(43.088 -29.932)" fill="#1e1e1e"/>
    <path id="Path_8302" data-name="Path 8302" d="M43.685,74.735,42.7,74.8c0,1.384,1.089,1.932,2.415,1.235l.428-.347c-1.018.537-1.853.114-1.856-.95" transform="translate(49.719 -31.085)" fill="#878787"/>
    <path id="Path_8303" data-name="Path 8303" d="M29.308,38.333,26,36.651a1.869,1.869,0,0,0-1.728.163L27.581,38.5a1.864,1.864,0,0,1,1.727-.164" transform="translate(77.842 -15.184)" fill="#1e1e1e"/>
    <path id="Path_8304" data-name="Path 8304" d="M25.5,41.42l.121-.517c0-1.378-1.084-1.909-2.415-1.208l.436.8c1.028-.54,1.854-.133,1.857.923" transform="translate(82.215 -16.382)" fill="#878787"/>
    <path id="Path_8305" data-name="Path 8305" d="M50.413,66l-3.308-1.682.014,4.467,3.307,1.682Z" transform="translate(41.991 -26.751)" fill="#1e1e1e"/>
    <path id="Path_8306" data-name="Path 8306" d="M34.537,38.716l-3.308-1.682L26.95,39.27l3.308,1.682Z" transform="translate(70.886 -15.404)" fill="#1e1e1e"/>
    <path id="Path_8307" data-name="Path 8307" d="M46.561,66.1l-.984.638.014,4.467.986-.062Z" transform="translate(46.827 -27.494)" fill="#878787"/>
    <path id="Path_8308" data-name="Path 8308" d="M31.109,40.715l-.436-.8-4.28,2.236-.119,1.093Z" transform="translate(74.75 -16.601)" fill="#878787"/>
    <path id="Path_8309" data-name="Path 8309" d="M46.03,68.629l-.428.348,4.279-2.236.984-.638Z" transform="translate(42.522 -27.494)" fill="#3f3f3f"/>
    <path id="Path_8310" data-name="Path 8310" d="M33.6,41.658l.119-1.093L33.7,36.1l-.121.516Z" transform="translate(67.426 -15.017)" fill="#3f3f3f"/>
    <path id="Path_8311" data-name="Path 8311" d="M54.08,68.847l-.985.061c0,1.388,1.078,1.913,2.414,1.21l.428-.348c-1.032.543-1.853.141-1.856-.923" transform="translate(32.615 -28.636)" fill="#878787"/>
    <path id="Path_8312" data-name="Path 8312" d="M57.124,67.45l3.308,1.683a1.455,1.455,0,0,1-.684-1.378L56.44,66.074a1.453,1.453,0,0,0,.684,1.376" transform="translate(25.962 -27.483)" fill="#1e1e1e"/>
    <path id="Path_8313" data-name="Path 8313" d="M39.713,32.419l-3.307-1.682a1.858,1.858,0,0,0-1.722.16l3.308,1.681a1.858,1.858,0,0,1,1.722-.159" transform="translate(60.719 -12.724)" fill="#1e1e1e"/>
    <path id="Path_8314" data-name="Path 8314" d="M35.9,35.525l.121-.516c0-1.384-1.084-1.936-2.419-1.233l.436.8c1.029-.541,1.858-.117,1.862.947" transform="translate(65.108 -13.922)" fill="#878787"/>
    <path id="Path_8315" data-name="Path 8315" d="M61.608,53.465c-.2.175-.244.215-.248.221a3.987,3.987,0,0,0-1.146,1.791l-.089.305a5.159,5.159,0,0,1,1.483-2.318" transform="translate(22.407 -22.238)" fill="#3f3f3f"/>
    <path id="Path_8316" data-name="Path 8316" d="M51.292,35.616l-.246.219A3.941,3.941,0,0,0,49.911,37.6l-.088.3a5.1,5.1,0,0,1,1.469-2.285" transform="translate(39.372 -14.814)" fill="#3f3f3f"/>
    <path id="Path_8317" data-name="Path 8317" d="M56.957,61.811l-.985.062.013,4.109.985-.062Z" transform="translate(29.725 -25.71)" fill="#878787"/>
    <path id="Path_8318" data-name="Path 8318" d="M60.807,60.72,57.5,59.038l.013,4.109,3.308,1.682Z" transform="translate(24.89 -24.556)" fill="#1e1e1e"/>
    <path id="Path_8319" data-name="Path 8319" d="M50.907,52.1l-.988-.514-4.279,2.236.434.8Z" transform="translate(42.456 -21.457)" fill="#878787"/>
    <path id="Path_8320" data-name="Path 8320" d="M54.758,50.39,51.45,48.709l-4.279,2.236,3.308,1.682Z" transform="translate(37.617 -20.26)" fill="#1e1e1e"/>
    <path id="Path_8321" data-name="Path 8321" d="M46.625,43.887l-.985.062.014,4.435.988.515Z" transform="translate(46.722 -18.254)" fill="#878787"/>
    <path id="Path_8322" data-name="Path 8322" d="M50.478,42.8l-3.308-1.682.014,4.436,3.308,1.682Z" transform="translate(41.883 -17.101)" fill="#1e1e1e"/>
    <path id="Path_8323" data-name="Path 8323" d="M41.063,34.8l-.436-.8-3.95,2.075.436.8Z" transform="translate(58.083 -14.139)" fill="#878787"/>
    <path id="Path_8324" data-name="Path 8324" d="M44.61,32.8,41.3,31.115l-3.95,2.075,3.308,1.682Z" transform="translate(54.1 -12.942)" fill="#1e1e1e"/>
    <path id="Path_8325" data-name="Path 8325" d="M35.839,35.2l-3.951,2.075a3.661,3.661,0,0,0-1.849,2.9l.016,5.011-4.834,2.525a3.7,3.7,0,0,0-1.846,2.931l.013,4.109c0,1.065.825,1.466,1.856.924l4.835-2.527.016,5.042c0,1.064.838,1.486,1.856.95l3.951-2.08a3.646,3.646,0,0,0,1.854-2.9l-.015-5.011,4.828-2.523a3.7,3.7,0,0,0,1.852-2.934l-.013-4.109c0-1.056-.829-1.464-1.857-.923l-4.835,2.527L37.7,36.146c0-1.064-.832-1.488-1.862-.947" transform="translate(63.307 -14.543)" fill="#cfcccc"/>
    <path id="Path_8326" data-name="Path 8326" d="M59.509,54.22,56.2,52.538a4.788,4.788,0,0,0-2.4,3.8l3.308,1.682a4.787,4.787,0,0,1,2.4-3.8" transform="translate(28.586 -21.852)" fill="#1e1e1e"/>
    <path id="Path_8327" data-name="Path 8327" d="M55.962,56.22l-.434-.8a4.789,4.789,0,0,0-2.4,3.8l.985-.062a3.7,3.7,0,0,1,1.847-2.931" transform="translate(32.568 -23.05)" fill="#878787"/>
    <path id="Path_8328" data-name="Path 8328" d="M49.18,36.349l-3.308-1.682a4.742,4.742,0,0,0-2.4,3.765l3.308,1.682a4.742,4.742,0,0,1,2.4-3.765" transform="translate(45.58 -14.419)" fill="#1e1e1e"/>
    <path id="Path_8329" data-name="Path 8329" d="M45.634,38.348l-.436-.8a4.744,4.744,0,0,0-2.4,3.765l.985-.062a3.66,3.66,0,0,1,1.849-2.9" transform="translate(49.561 -15.617)" fill="#878787"/>
    <path id="Path_8330" data-name="Path 8330" d="M86.137,32.257a9.551,9.551,0,0,0,7.924-.072,2.513,2.513,0,0,0,1.587-2.055l.013,4.039a2.516,2.516,0,0,1-1.587,2.056,9.547,9.547,0,0,1-7.924.072c-1.129-.572-1.7-1.335-1.7-2.1l-.013-4.04c0,.765.57,1.526,1.7,2.1" transform="translate(-27.333 -12.532)" fill="#d65265"/>
    <path id="Path_8331" data-name="Path 8331" d="M100.877,32.277l.013,4.039c-1.129-.572-1.7-1.335-1.7-2.1l-.013-4.04c0,.765.57,1.526,1.7,2.1" transform="translate(-42.073 -12.552)" fill="#9b1c2e"/>
    <path id="Path_8332" data-name="Path 8332" d="M86.157,30.174a9.551,9.551,0,0,0,7.924-.072c2.158-1.168,2.107-3.028-.112-4.155a9.552,9.552,0,0,0-7.926.072c-2.158,1.167-2.105,3.028.114,4.155" transform="translate(-27.354 -10.449)" fill="#9b1c2e"/>
    <path id="Path_8333" data-name="Path 8333" d="M87.878,18.139a7.176,7.176,0,0,0,5.954-.054,1.886,1.886,0,0,0,1.191-1.544l.01,7.511A1.89,1.89,0,0,1,93.841,25.6a7.176,7.176,0,0,1-5.954.054c-.847-.43-1.273-1-1.276-1.576L86.6,16.562c0,.574.428,1.147,1.276,1.577" transform="translate(-28.101 -6.88)" fill="#cfcccc"/>
    <path id="Path_8334" data-name="Path 8334" d="M98.952,18.154l.009,7.51c-.847-.43-1.273-1-1.276-1.576l-.009-7.512c0,.574.428,1.147,1.276,1.577" transform="translate(-39.175 -6.895)" fill="#222526"/>
  </g>
</svg>
