<svg xmlns="http://www.w3.org/2000/svg" xmlns:xlink="http://www.w3.org/1999/xlink" width="73.928" height="122.089" viewBox="0 0 73.928 122.089">
  <defs>
    <clipPath id="clip-path">
      <rect id="Rectangle_3762" data-name="Rectangle 3762" width="73.928" height="122.089" transform="translate(0 0)" fill="none"/>
    </clipPath>
  </defs>
  <g id="Group_8979" data-name="Group 8979" transform="translate(0 0)">
    <g id="Group_8978" data-name="Group 8978" transform="translate(0 0)" clip-path="url(#clip-path)">
      <path id="Path_8460" data-name="Path 8460" d="M0,24.507V91.1c.141,1.941,1.621,3.958,4.376,5.549l22.965,13.261a20.672,20.672,0,0,0,9.61,2.528,16.249,16.249,0,0,0,8.322-1.785L70.812,95.908c2.21-1.275,3.223-3.01,3.089-4.806V24.507Z" transform="translate(0.015 9.644)" fill="#ba2a45"/>
      <path id="Path_8461" data-name="Path 8461" d="M26.524,24.507V91.1c.141,1.941,1.621,3.958,4.376,5.549l22.965,13.261a20.672,20.672,0,0,0,9.61,2.528V24.507Z" transform="translate(-26.509 9.644)" fill="#9b1c2e"/>
      <path id="Path_8462" data-name="Path 8462" d="M45.284,50.086,70.825,35.339c4.6-2.653,4.019-7.288-1.288-10.351L46.573,11.729c-5.307-3.063-13.335-3.4-17.931-.743L3.1,25.732c-4.6,2.653-4.019,7.288,1.288,10.351l22.964,13.26c5.307,3.063,13.335,3.4,17.931.743" transform="translate(0.001 3.618)" fill="#d65265"/>
      <path id="Path_8463" data-name="Path 8463" d="M10.846,16.114v5.408c0,3.227,2.136,6.459,6.4,8.921,8.53,4.925,22.366,4.925,30.9,0,4.268-2.465,6.394-5.7,6.394-8.921h0V16.114Z" transform="translate(4.268 6.341)" fill="#9b1c2e"/>
      <path id="Path_8464" data-name="Path 8464" d="M9.1,10.064v6.013c0,3.588,2.375,7.18,7.117,9.916,9.483,5.475,24.863,5.475,34.351,0,4.745-2.74,7.108-6.332,7.108-9.916h0V10.064Z" transform="translate(3.579 3.961)" fill="#cfcccc"/>
      <path id="Path_8465" data-name="Path 8465" d="M16.208,23.941c9.486,5.477,24.866,5.477,34.352,0s9.486-14.358,0-19.834S25.7-1.37,16.208,4.108s-9.486,14.356,0,19.833" transform="translate(3.581 0)" fill="#f4f4f4"/>
      <path id="Path_8466" data-name="Path 8466" d="M18.678,20.618c7.214,4.165,18.912,4.165,26.127,0s7.214-10.92,0-15.085-18.912-4.165-26.127,0-7.214,10.918,0,15.084" transform="translate(5.224 0.948)" fill="#cfcccc"/>
      <path id="Path_8467" data-name="Path 8467" d="M19.874,19.011c6.116,3.531,16.033,3.531,22.149,0s6.116-9.256,0-12.787-16.033-3.531-22.149,0-6.116,9.256,0,12.787" transform="translate(6.017 1.407)" fill="#f4f4f4"/>
      <path id="Path_8468" data-name="Path 8468" d="M2.317,62.5V77.1c0,1.077.757,1.515,1.69.975l.645-.372c.934-.539,1.69-.1,1.69.977s.757,1.515,1.692.975L25.427,69.612a3.738,3.738,0,0,0,1.69-2.929,3.738,3.738,0,0,1,1.69-2.928l.645-.372a3.738,3.738,0,0,0,1.69-2.929v-14.6c0-1.079-.757-1.516-1.69-.977l-.645.372c-.934.539-1.69.1-1.69-.975s-.757-1.516-1.69-.977L8.035,53.341A3.736,3.736,0,0,0,6.343,56.27,3.738,3.738,0,0,1,4.653,59.2l-.645.371A3.738,3.738,0,0,0,2.317,62.5" transform="translate(39.556 16.949)" fill="#fff"/>
      <path id="Path_8469" data-name="Path 8469" d="M8.527,58.578,21.1,51.32a3.194,3.194,0,0,0,1.334-2.547c0-.982-.6-1.434-1.334-1.009L8.527,55.022a3.2,3.2,0,0,0-1.334,2.547c0,.982.6,1.434,1.334,1.009" transform="translate(41.475 18.734)" fill="#c74141"/>
      <path id="Path_8470" data-name="Path 8470" d="M8.428,60.209,20.223,53.4v-.846L8.428,59.363Z" transform="translate(41.96 20.682)" fill="#5f5f54"/>
      <path id="Path_8471" data-name="Path 8471" d="M8.428,61.828l11.795-6.81v-.846L8.428,60.982Z" transform="translate(41.96 21.319)" fill="#5f5f54"/>
      <path id="Path_8472" data-name="Path 8472" d="M8.428,63.448l11.795-6.81v-.846L8.428,62.6Z" transform="translate(41.96 21.956)" fill="#5f5f54"/>
      <path id="Path_8473" data-name="Path 8473" d="M9.277,66.764l10.1-5.831a2.029,2.029,0,0,0,.849-1.621c0-.626-.379-.913-.849-.642L9.277,64.5a2.033,2.033,0,0,0-.849,1.622c0,.624.38.911.849.641" transform="translate(41.961 23.049)" fill="#dadada"/>
      <path id="Path_8474" data-name="Path 8474" d="M34.749,53.633,52.818,64.065c.432.249.783-.015.783-.591a1.874,1.874,0,0,0-.783-1.5L34.749,51.547c-.432-.249-.783.015-.783.591a1.874,1.874,0,0,0,.783,1.5" transform="translate(-27.005 20.249)" fill="#f4f4f4"/>
      <path id="Path_8475" data-name="Path 8475" d="M34.749,56.621,52.818,67.053c.432.249.783-.015.783-.591a1.874,1.874,0,0,0-.783-1.5L34.749,54.535c-.432-.249-.783.015-.783.591a1.874,1.874,0,0,0,.783,1.5" transform="translate(-27.005 21.425)" fill="#f4f4f4"/>
      <path id="Path_8476" data-name="Path 8476" d="M34.749,59.61,52.818,70.042c.432.249.783-.015.783-.591a1.874,1.874,0,0,0-.783-1.5L34.749,57.524c-.432-.249-.783.015-.783.591a1.874,1.874,0,0,0,.783,1.5" transform="translate(-27.005 22.601)" fill="#f4f4f4"/>
      <path id="Path_8477" data-name="Path 8477" d="M36.8,63.782l12.358,7.135c.432.249.783-.015.783-.591a1.874,1.874,0,0,0-.783-1.5L36.8,61.7c-.432-.249-.783.015-.783.591a1.874,1.874,0,0,0,.783,1.5" transform="translate(-26.199 24.243)" fill="#f4f4f4"/>
      <path id="Path_8478" data-name="Path 8478" d="M34.869,50.355,52.7,60.648c.5.287.906-.018.906-.683V58.189a2.159,2.159,0,0,0-.906-1.725L34.869,46.171c-.5-.288-.9.018-.9.683v1.775a2.167,2.167,0,0,0,.9,1.727" transform="translate(-27.005 18.127)" fill="#f4f4f4"/>
    </g>
  </g>
</svg>
