<svg xmlns="http://www.w3.org/2000/svg" xmlns:xlink="http://www.w3.org/1999/xlink" width="79.069" height="125.321" viewBox="0 0 79.069 125.321">
  <defs>
    <clipPath id="clip-path">
      <rect id="Rectangle_3761" data-name="Rectangle 3761" width="79.069" height="125.321" fill="none"/>
    </clipPath>
  </defs>
  <g id="Group_8967" data-name="Group 8967" transform="translate(0)">
    <path id="Path_8386" data-name="Path 8386" d="M7.615,19.832l.049,17.333-1.8-1.043L5.822,18.789Z" transform="translate(58.883 21.621)" fill="#4a4949"/>
    <path id="Path_8387" data-name="Path 8387" d="M20.97,27.543l.049,17.333-1.8-1.043L19.176,26.5Z" transform="translate(16.807 30.494)" fill="#4a4949"/>
    <path id="Path_8388" data-name="Path 8388" d="M34.688,16.927l-1.794-1.043L4.173,32.466,5.966,33.51Z" transform="translate(35.407 18.278)" fill="#4a4949"/>
    <path id="Path_8389" data-name="Path 8389" d="M21.017,30.84l-1.783-1.045-.026-8.758,1.783-1.017Z" transform="translate(16.741 23.037)" fill="#4a4949"/>
    <path id="Path_8390" data-name="Path 8390" d="M49.72,25.606l-1.794-1.043L19.2,41.145,21,42.188Z" transform="translate(-11.955 28.265)" fill="#4a4949"/>
    <path id="Path_8391" data-name="Path 8391" d="M34.324,33.314l.06,21.5L32.591,53.77l-.06-21.5Z" transform="translate(-25.281 37.138)" fill="#4a4949"/>
    <path id="Path_8392" data-name="Path 8392" d="M4.14,51.608,4.215,73.12,7.8,71.031,7.755,53.7,31.074,40.228l1.809-1.043.049,17.337,3.592-2.088-.052-17.312L59.791,23.654,61.6,22.611l.049,17.337,3.615-2.088L65.19,16.374,36.472,32.948V30.885l-.026-8.758-3.615,2.088.026,10.818Z" transform="translate(4.9 18.842)" fill="#110202"/>
    <g id="Group_8966" data-name="Group 8966" transform="translate(0 0)">
      <g id="Group_8965" data-name="Group 8965" clip-path="url(#clip-path)">
        <path id="Path_8393" data-name="Path 8393" d="M1.777,43.408a1.193,1.193,0,0,0,.342.28L5.2,45.475a2.867,2.867,0,0,0,2.549.108l6.917-3.994a.72.72,0,0,0,.172-.129,1.551,1.551,0,0,0-.353-.277L11.4,39.4A2.832,2.832,0,0,0,8.855,39.3L1.938,43.29a.627.627,0,0,0-.161.118" transform="translate(60.406 44.927)" fill="#3b4951"/>
        <path id="Path_8394" data-name="Path 8394" d="M1.652,43.436a.74.74,0,0,0,.277.546,1.139,1.139,0,0,0,.344.277l3.084,1.789a2.859,2.859,0,0,0,2.549.105l6.917-3.992a.666.666,0,0,0,.17-.129.637.637,0,0,0,.269-.514,1.059,1.059,0,0,0-.622-.837l-3.084-1.777A2.832,2.832,0,0,0,9.008,38.8L2.091,42.793a.746.746,0,0,0-.439.643" transform="translate(60.254 44.355)" fill="#4a4949"/>
        <path id="Path_8395" data-name="Path 8395" d="M1.652,41.844V42.9a1.057,1.057,0,0,0,.622.835l3.084,1.779a2.825,2.825,0,0,0,2.549.105l6.917-3.994a.741.741,0,0,0,.439-.63V39.928a.637.637,0,0,1-.269.514.666.666,0,0,1-.17.129L7.906,44.563a2.859,2.859,0,0,1-2.549-.105L2.274,42.668a1.139,1.139,0,0,1-.344-.277.74.74,0,0,1-.277-.546" transform="translate(60.254 45.947)" fill="#110202"/>
        <path id="Path_8396" data-name="Path 8396" d="M5.96,43.065V39.5l.8.462v3.564Z" transform="translate(59.489 45.455)" fill="#2c353b"/>
        <path id="Path_8397" data-name="Path 8397" d="M3.192,41.558l5.956-3.437v3.557L3.192,45.115Z" transform="translate(63.057 43.867)" fill="#110202"/>
        <path id="Path_8398" data-name="Path 8398" d="M0,56.713,20.178,45.062V28.648L0,40.3Z" transform="translate(58.892 32.966)" fill="#110202"/>
        <path id="Path_8399" data-name="Path 8399" d="M.536,53.729,18.407,43.411V29.552L.536,39.869Z" transform="translate(59.508 34.006)" fill="#fff"/>
        <path id="Path_8400" data-name="Path 8400" d="M0,40.082,20.179,28.431l.8.462L.8,40.544Z" transform="translate(58.091 32.717)" fill="#4a4949"/>
        <path id="Path_8401" data-name="Path 8401" d="M9.381,50.265V33.85l.8.46V50.727Z" transform="translate(48.71 38.952)" fill="#4a4949"/>
        <path id="Path_8402" data-name="Path 8402" d="M15.282,51.2a1.193,1.193,0,0,0,.342.28l3.084,1.787a2.867,2.867,0,0,0,2.549.108l6.917-3.994a.72.72,0,0,0,.172-.129,1.55,1.55,0,0,0-.353-.277l-3.084-1.779a2.832,2.832,0,0,0-2.549-.108l-6.917,3.994a.626.626,0,0,0-.161.118" transform="translate(17.855 53.889)" fill="#3b4951"/>
        <path id="Path_8403" data-name="Path 8403" d="M15.157,51.223a.74.74,0,0,0,.277.546,1.139,1.139,0,0,0,.344.277l3.084,1.789a2.867,2.867,0,0,0,2.549.108l6.917-3.994a.72.72,0,0,0,.172-.129.64.64,0,0,0,.267-.514,1.06,1.06,0,0,0-.622-.837l-3.084-1.777a2.832,2.832,0,0,0-2.549-.108L15.6,50.58a.746.746,0,0,0-.439.643" transform="translate(17.703 53.316)" fill="#4a4949"/>
        <path id="Path_8404" data-name="Path 8404" d="M15.157,49.631v1.06a1.057,1.057,0,0,0,.622.835L18.863,53.3a2.825,2.825,0,0,0,2.549.105l6.917-3.994a.741.741,0,0,0,.439-.63V47.715a.64.64,0,0,1-.267.514.72.72,0,0,1-.172.129l-6.917,3.994a2.867,2.867,0,0,1-2.549-.108l-3.084-1.789a1.139,1.139,0,0,1-.344-.277.74.74,0,0,1-.277-.546" transform="translate(17.703 54.908)" fill="#110202"/>
        <path id="Path_8405" data-name="Path 8405" d="M19.465,50.852V47.288l.8.462v3.564Z" transform="translate(16.938 54.417)" fill="#110202"/>
        <path id="Path_8406" data-name="Path 8406" d="M16.7,49.345l5.956-3.437v3.557L16.7,52.9Z" transform="translate(20.506 52.828)" fill="#110202"/>
        <path id="Path_8407" data-name="Path 8407" d="M13.5,64.5,33.683,52.85V36.435L13.5,48.086Z" transform="translate(16.34 41.927)" fill="#110202"/>
        <path id="Path_8408" data-name="Path 8408" d="M14.041,61.516,31.912,51.2V37.339L14.041,47.656Z" transform="translate(16.957 42.967)" fill="#fff"/>
        <path id="Path_8409" data-name="Path 8409" d="M13.505,47.869,33.684,36.219l.8.462L14.305,48.332Z" transform="translate(15.54 41.678)" fill="#4a4949"/>
        <path id="Path_8410" data-name="Path 8410" d="M22.886,58.052V41.637l.8.46V58.514Z" transform="translate(6.159 47.914)" fill="#4a4949"/>
        <path id="Path_8411" data-name="Path 8411" d="M28.787,58.983a1.193,1.193,0,0,0,.342.28l3.084,1.787a2.867,2.867,0,0,0,2.549.108l6.917-3.994a.72.72,0,0,0,.172-.129,1.55,1.55,0,0,0-.353-.277l-3.084-1.779a2.832,2.832,0,0,0-2.549-.108l-6.917,3.994a.626.626,0,0,0-.161.118" transform="translate(-24.696 62.85)" fill="#3b4951"/>
        <path id="Path_8412" data-name="Path 8412" d="M28.662,59.01a.74.74,0,0,0,.277.546,1.139,1.139,0,0,0,.344.277l3.084,1.789a2.867,2.867,0,0,0,2.549.108l6.917-3.994a.72.72,0,0,0,.172-.129.64.64,0,0,0,.267-.514,1.06,1.06,0,0,0-.622-.837L38.566,54.48a2.832,2.832,0,0,0-2.549-.108L29.1,58.367a.746.746,0,0,0-.439.643" transform="translate(-24.849 62.277)" fill="#4a4949"/>
        <path id="Path_8413" data-name="Path 8413" d="M28.662,57.418v1.06a1.057,1.057,0,0,0,.622.834l3.084,1.779a2.825,2.825,0,0,0,2.549.105L41.833,57.2a.741.741,0,0,0,.439-.63V55.5a.64.64,0,0,1-.267.514.72.72,0,0,1-.172.129l-6.917,3.994a2.867,2.867,0,0,1-2.549-.108l-3.084-1.789a1.139,1.139,0,0,1-.344-.277.74.74,0,0,1-.277-.546" transform="translate(-24.849 63.869)" fill="#110202"/>
        <path id="Path_8414" data-name="Path 8414" d="M32.971,58.639V55.076l.8.462V59.1Z" transform="translate(-25.614 63.378)" fill="#110202"/>
        <path id="Path_8415" data-name="Path 8415" d="M30.2,57.132,36.157,53.7v3.557L30.2,60.689Z" transform="translate(-22.045 61.789)" fill="#110202"/>
        <path id="Path_8416" data-name="Path 8416" d="M27.01,72.287,47.188,60.639V44.222L27.01,55.873Z" transform="translate(-26.211 50.888)" fill="#110202"/>
        <path id="Path_8417" data-name="Path 8417" d="M27.546,69.3,45.417,58.986V45.126L27.546,55.444Z" transform="translate(-25.594 51.929)" fill="#fff"/>
        <path id="Path_8418" data-name="Path 8418" d="M27.01,55.656,47.189,44.006l.8.462L27.81,56.119Z" transform="translate(-27.011 50.639)" fill="#4a4949"/>
        <path id="Path_8419" data-name="Path 8419" d="M36.391,65.839V49.424l.8.46V66.3Z" transform="translate(-36.392 56.875)" fill="#2c353b"/>
        <path id="Path_8420" data-name="Path 8420" d="M21,3.051,16.91.674c-1.815-1.056-4.332-.905-7.11.7a16.359,16.359,0,0,0-3,2.265L10.89,6.017a16.47,16.47,0,0,1,3-2.267c2.779-1.6,5.3-1.755,7.11-.7" transform="translate(43.445 0)" fill="#d65265"/>
        <path id="Path_8421" data-name="Path 8421" d="M24.156,19.845l4.091,2.377a7.693,7.693,0,0,1-1.465-1.1L22.689,18.74a7.718,7.718,0,0,0,1.467,1.105" transform="translate(2.023 21.564)" fill="#d7daff"/>
        <path id="Path_8422" data-name="Path 8422" d="M27.612,4.123,23.521,1.745c-2.9-1.682-6.9-1.43-11.337,1.129l4.093,2.379c4.435-2.559,8.438-2.813,11.335-1.129" transform="translate(25.252 0.777)" fill="#d65265"/>
        <path id="Path_8423" data-name="Path 8423" d="M34.313,4.076,30.222,1.7c-5.263,3.037-9.889,8.588-12.767,14.75l4.091,2.377c2.88-6.162,7.5-11.711,12.767-14.75" transform="translate(7.214 1.954)" fill="#d65265"/>
        <path id="Path_8424" data-name="Path 8424" d="M26.308,33.409,30.4,35.786c-1.794-1.043-2.906-3.261-2.916-6.4-.017-6.345,4.435-14.055,9.958-17.245a10.532,10.532,0,0,1,3-1.2L36.352,8.557a10.577,10.577,0,0,0-3,1.2c-5.521,3.187-9.973,10.9-9.956,17.245.009,3.144,1.121,5.362,2.916,6.4" transform="translate(-11.682 9.846)" fill="#d65265"/>
        <path id="Path_8425" data-name="Path 8425" d="M31.17,4.759C25.908,7.8,21.283,13.347,18.4,19.509a10.541,10.541,0,0,0-3,1.2C9.878,23.9,5.426,31.609,5.445,37.956c.017,6.323,4.5,8.9,10.02,5.71a16.381,16.381,0,0,0,2.983-2.254c2.921,2.792,7.562,3.033,12.825,0,5.246-3.028,9.87-8.62,12.786-14.782a10.325,10.325,0,0,0,2.983-1.192C52.566,22.246,57.019,14.514,57,8.189c-.019-6.345-4.5-8.9-10.023-5.71a16.359,16.359,0,0,0-3,2.265C41.055,1.93,36.414,1.73,31.17,4.759" transform="translate(10.357 1.271)" fill="#9b1c2e"/>
      </g>
    </g>
  </g>
</svg>
