<svg id="Group_8964" data-name="Group 8964" xmlns="http://www.w3.org/2000/svg" xmlns:xlink="http://www.w3.org/1999/xlink" width="107.211" height="122.259" viewBox="0 0 107.211 122.259">
  <defs>
    <clipPath id="clip-path">
      <rect id="Rectangle_3760" data-name="Rectangle 3760" width="107.211" height="122.259" fill="#9b1c2e"/>
    </clipPath>
  </defs>
  <g id="Group_8963" data-name="Group 8963" transform="translate(0 0)" clip-path="url(#clip-path)">
    <path id="Path_8356" data-name="Path 8356" d="M0,21.816V26.3c0,2.52,1.664,5.045,5,6.964,6.662,3.848,17.466,3.848,24.135,0,3.328-1.926,4.992-4.444,4.992-6.964V21.816Z" transform="translate(73.081 14.812)" fill="#9b1c2e"/>
    <path id="Path_8357" data-name="Path 8357" d="M5,32.766c6.664,3.847,17.468,3.847,24.132,0s6.664-10.086,0-13.932S11.661,14.987,5,18.834-1.666,28.919,5,32.766" transform="translate(73.086 10.829)" fill="#ba2a45"/>
    <path id="Path_8358" data-name="Path 8358" d="M2.486,26.876a8.131,8.131,0,0,0,3.571,3.643c5.294,3.051,13.883,3.051,19.177,0a8.131,8.131,0,0,0,3.571-3.643c1.1-2.579-.086-5.42-3.571-7.431-5.294-3.057-13.883-3.052-19.177,0C2.572,21.456,1.382,24.3,2.486,26.876" transform="translate(74.502 11.647)" fill="#9b1c2e"/>
    <path id="Path_8359" data-name="Path 8359" d="M2.965,24.86a7.465,7.465,0,0,0,3.279,3.346c4.862,2.8,12.75,2.8,17.612,0a7.465,7.465,0,0,0,3.279-3.346,7.465,7.465,0,0,0-3.279-3.346c-4.862-2.809-12.75-2.809-17.612,0A7.465,7.465,0,0,0,2.965,24.86" transform="translate(75.098 13.177)" fill="#ba2a45"/>
    <path id="Path_8360" data-name="Path 8360" d="M19.222,40.993a.334.334,0,0,0,.114-.02.33.33,0,0,0,.195-.423L5.378,2.375a.328.328,0,0,0-.633.069l-3.2,23a.329.329,0,1,0,.651.091l3.022-21.7,13.7,36.951a.33.33,0,0,0,.309.215" transform="translate(85.078 1.467)" fill="#d65265"/>
    <path id="Path_8361" data-name="Path 8361" d="M10.3,39.517a.328.328,0,0,0,.3-.2l15.572-36.7a.328.328,0,1,0-.6-.257L9.994,39.061a.327.327,0,0,0,.173.43.319.319,0,0,0,.129.027" transform="translate(64.279 1.466)" fill="#d65265"/>
    <path id="Path_8362" data-name="Path 8362" d="M7.807,3.956A3.956,3.956,0,1,0,11.763,0,3.956,3.956,0,0,0,7.807,3.956" transform="translate(78.385 0)" fill="#9b1c2e"/>
    <path id="Path_8363" data-name="Path 8363" d="M46.79,5.3A1.793,1.793,0,0,1,46.1,6.9l-.008.005-.065.037-33.3,19.227-.277-.468a2.714,2.714,0,0,1-.557-.248,5.547,5.547,0,0,1-2.51-4.347A2.81,2.81,0,0,1,9.42,20.6L9.1,20.068,42.465.806A1.734,1.734,0,0,1,44.28.957,5.545,5.545,0,0,1,46.79,5.3" transform="translate(45.137 0.417)" fill="#ba2a45"/>
    <path id="Path_8364" data-name="Path 8364" d="M34,16.781c0,1.6-1.123,2.25-2.51,1.449a5.547,5.547,0,0,1-2.51-4.347c0-1.6,1.123-2.25,2.51-1.449A5.545,5.545,0,0,1,34,16.781" transform="translate(24.555 8.209)" fill="#ffb347"/>
    <path id="Path_8365" data-name="Path 8365" d="M21.209,64.28v4.485c0,2.52,1.664,5.045,5,6.964,6.662,3.848,17.466,3.848,24.135,0,3.328-1.926,4.992-4.444,4.992-6.964V64.28Z" transform="translate(16.269 43.644)" fill="#9b1c2e"/>
    <path id="Path_8366" data-name="Path 8366" d="M26.2,75.23c6.664,3.847,17.468,3.847,24.13,0S57,65.144,50.337,61.3s-17.468-3.847-24.132,0-6.664,10.086,0,13.932" transform="translate(16.273 39.66)" fill="#ba2a45"/>
    <path id="Path_8367" data-name="Path 8367" d="M22.627,61.463v3.858c0,2.168,1.432,4.34,4.3,5.992,5.732,3.311,15.028,3.311,20.765,0,2.863-1.657,4.295-3.825,4.295-5.992V61.463Z" transform="translate(17.235 41.731)" fill="#9b1c2e"/>
    <path id="Path_8368" data-name="Path 8368" d="M26.926,70.884c5.734,3.309,15.028,3.309,20.76,0s5.734-8.677,0-11.986-15.028-3.311-20.762,0-5.732,8.677,0,11.986" transform="translate(17.236 38.304)" fill="#ba2a45"/>
    <path id="Path_8369" data-name="Path 8369" d="M27.733,9.254V97.193a3.032,3.032,0,0,0,1.79,2.493,9.553,9.553,0,0,0,8.64,0,3.035,3.035,0,0,0,1.786-2.493V9.254Z" transform="translate(20.7 6.283)" fill="#9b1c2e"/>
    <path id="Path_8370" data-name="Path 8370" d="M29.522,13.174a9.55,9.55,0,0,0,8.638,0c2.386-1.377,2.386-3.61,0-4.988a9.549,9.549,0,0,0-8.638,0c-2.386,1.378-2.386,3.611,0,4.988" transform="translate(20.701 4.857)" fill="#ffc16a"/>
    <path id="Path_8371" data-name="Path 8371" d="M26.479,7.04v3.826c0,1.214.8,2.429,2.406,3.353a12.843,12.843,0,0,0,11.618,0c1.6-.927,2.4-2.139,2.4-3.353V7.04Z" transform="translate(19.848 4.78)" fill="#9b1c2e"/>
    <path id="Path_8372" data-name="Path 8372" d="M28.883,12.311a12.839,12.839,0,0,0,11.617,0c3.207-1.852,3.207-4.856,0-6.707a12.839,12.839,0,0,0-11.617,0c-3.207,1.854-3.207,4.856,0,6.707" transform="translate(19.852 2.862)" fill="#ba2a45"/>
    <path id="Path_8373" data-name="Path 8373" d="M28.337,4.921V7.293a2.531,2.531,0,0,0,1.493,2.08,7.963,7.963,0,0,0,7.2,0,2.536,2.536,0,0,0,1.489-2.08V4.921Z" transform="translate(21.112 3.341)" fill="#9b1c2e"/>
    <path id="Path_8374" data-name="Path 8374" d="M29.828,8.19a7.96,7.96,0,0,0,7.2,0c1.99-1.148,1.99-3.01,0-4.159a7.96,7.96,0,0,0-7.2,0c-1.99,1.148-1.99,3.01,0,4.159" transform="translate(21.113 2.152)" fill="#ba2a45"/>
    <path id="Path_8375" data-name="Path 8375" d="M29.447,1.439V6.961a1.6,1.6,0,0,0,.947,1.318,5.047,5.047,0,0,0,4.568,0,1.6,1.6,0,0,0,.945-1.318V1.439Z" transform="translate(21.864 0.977)" fill="#9b1c2e"/>
    <path id="Path_8376" data-name="Path 8376" d="M30.392,3.513a5.047,5.047,0,0,0,4.568,0c1.263-.729,1.263-1.909,0-2.638a5.047,5.047,0,0,0-4.568,0,1.392,1.392,0,0,0,0,2.638" transform="translate(21.866 0.223)" fill="#ba2a45"/>
    <path id="Path_8377" data-name="Path 8377" d="M43.531,45.828v4.485c0,2.52,1.664,5.045,5,6.964,6.662,3.848,17.466,3.848,24.135,0,3.328-1.926,4.992-4.444,4.992-6.964V45.828Z" transform="translate(-43.531 31.116)" fill="#9b1c2e"/>
    <path id="Path_8378" data-name="Path 8378" d="M48.527,56.778c6.664,3.847,17.468,3.847,24.13,0s6.664-10.086,0-13.932-17.468-3.847-24.132,0-6.664,10.086,0,13.932" transform="translate(-43.527 27.132)" fill="#ba2a45"/>
    <path id="Path_8379" data-name="Path 8379" d="M46.015,50.888a8.131,8.131,0,0,0,3.571,3.643c5.294,3.051,13.883,3.051,19.177,0a8.131,8.131,0,0,0,3.571-3.643c1.1-2.577-.086-5.42-3.571-7.431-5.294-3.057-13.883-3.052-19.177,0-3.486,2.011-4.676,4.854-3.571,7.431" transform="translate(-42.11 27.95)" fill="#9b1c2e"/>
    <path id="Path_8380" data-name="Path 8380" d="M46.494,48.872a7.465,7.465,0,0,0,3.279,3.346c4.862,2.8,12.75,2.8,17.612,0a7.465,7.465,0,0,0,3.279-3.346,7.465,7.465,0,0,0-3.279-3.346c-4.862-2.809-12.75-2.809-17.612,0a7.465,7.465,0,0,0-3.279,3.346" transform="translate(-41.514 29.48)" fill="#ba2a45"/>
    <path id="Path_8381" data-name="Path 8381" d="M70.007,17.651a1.789,1.789,0,0,1-.7,1.6l-.007.005-.065.037L35.94,38.52l-.277-.468a2.714,2.714,0,0,1-.557-.248,5.547,5.547,0,0,1-2.51-4.347,2.81,2.81,0,0,1,.042-.505l-.317-.536L65.682,13.153A1.734,1.734,0,0,1,67.5,13.3a5.547,5.547,0,0,1,2.51,4.347" transform="translate(-17.06 8.8)" fill="#ba2a45"/>
    <path id="Path_8382" data-name="Path 8382" d="M57.217,29.128c0,1.6-1.123,2.25-2.51,1.449A5.547,5.547,0,0,1,52.2,26.23c0-1.6,1.123-2.25,2.51-1.449a5.545,5.545,0,0,1,2.51,4.347" transform="translate(-37.642 16.592)" fill="#ffb347"/>
    <path id="Path_8383" data-name="Path 8383" d="M62.751,65a.334.334,0,0,0,.114-.02.33.33,0,0,0,.195-.423L48.907,26.387a.333.333,0,0,0-.343-.213.328.328,0,0,0-.29.282l-3.2,23a.329.329,0,1,0,.651.091l3.022-21.7,13.7,36.951a.33.33,0,0,0,.309.215" transform="translate(-31.534 17.77)" fill="#d65265"/>
    <path id="Path_8384" data-name="Path 8384" d="M53.825,63.529a.328.328,0,0,0,.3-.2L69.7,26.629a.328.328,0,1,0-.6-.257l-15.572,36.7a.326.326,0,0,0,.175.43.306.306,0,0,0,.128.027" transform="translate(-52.333 17.77)" fill="#d65265"/>
    <path id="Path_8385" data-name="Path 8385" d="M51.336,27.968a3.956,3.956,0,1,0,3.956-3.956,3.956,3.956,0,0,0-3.956,3.956" transform="translate(-38.227 16.303)" fill="#9b1c2e"/>
  </g>
</svg>
