<svg xmlns="http://www.w3.org/2000/svg" width="79.54" height="130.231" viewBox="0 0 79.54 130.231">
  <g id="Group_9055" data-name="Group 9055" transform="translate(-12.583 0)">
    <g id="Group_9057" data-name="Group 9057" transform="translate(0)">
      <g id="Group_9053" data-name="Group 9053" transform="translate(0)">
        <g id="Group_9056" data-name="Group 9056">
          <path id="Path_8496" data-name="Path 8496" d="M32.6,38.072l3.068-1.26c.013-.284,1.376-28.32,13-33.547,2.492-1.12,4.366-1.194,5.732-.224,4.509,3.2,2.412,17.908,1.307,22.957l2.574-.944c.174-.794,4.192-19.5-2.183-24.036-1.973-1.4-4.66-1.358-7.976.134C34.722,7.179,32.658,36.847,32.6,38.072" transform="translate(-1.368 0)" fill="#9b1c2e"/>
          <path id="Path_8519" data-name="Path 8519" d="M23.91,119.069,82.823,85.054,62.2,73.145,3.283,107.159Z" transform="translate(9.299 11.161)" fill="#9b1c2e"/>
          <path id="Path_8520" data-name="Path 8520" d="M21.5,43.008,80.415,8.993,77.977,82.934,19.064,116.949Z" transform="translate(-6.481 1.372)" fill="#9b1c2e"/>
          <path id="Path_8521" data-name="Path 8521" d="M13.6,128.389,72.51,94.374,62.2,12.064,3.283,46.078Z" transform="translate(19.613 1.841)" fill="#ba2a45"/>
          <path id="Path_8522" data-name="Path 8522" d="M54.4,40.119l6.818,64.348,7.234,19.642L58.135,41.8Z" transform="translate(-35.238 6.122)" fill="#d65265"/>
          <path id="Path_8523" data-name="Path 8523" d="M67.248,40.365l-4.138-1.859-2.438,73.94,13.393-7.733Z" transform="translate(-48.09 5.875)" fill="#ba2a45"/>
          <path id="Path_8524" data-name="Path 8524" d="M20.379,12.532H14.46L12.5,8.994l-.272,8.242Z" transform="translate(61.431 1.372)" fill="#9b1c2e"/>
          <path id="Path_8525" data-name="Path 8525" d="M27.987,43.618c.494,2.112,3.586.8,3.171-1.435-.063-.322-6.169-32.248,5.719-38.2,2.548-1.276,4.675-1.36,6.5-.255,6.041,3.648,7.661,20.392,7.775,26.142-.031,1.671,2.69,1.143,2.69-1.075-.018-.9-.532-22.208-9.072-27.369-2.645-1.6-5.71-1.547-9.1.151-13.707,6.864-7.96,40.647-7.687,42.042" transform="translate(11.445 0.04)" fill="#d65265"/>
          <path id="Path_8526" data-name="Path 8526" d="M14.011,69.708a3.3,3.3,0,0,1,1.328-2.316L46.383,49.959c.917-.515,1.792.257,1.952,1.723a3.879,3.879,0,0,1-1.372,3.59L19.278,70.819l2.7,3.366,24.3-13.649c.919-.515,1.792.256,1.952,1.723a3.874,3.874,0,0,1-1.372,3.589L25.093,78.074l2.075,2.589L45.621,70.3c.917-.515,1.792.256,1.952,1.723A3.876,3.876,0,0,1,46.2,75.611L30.284,84.55l1.543,1.926,17.018-9.557L50.624,42.47a3.59,3.59,0,0,1,1.39-2.879L58.592,35.9c.917-.516,1.792.256,1.952,1.723a3.877,3.877,0,0,1-1.372,3.589l-5.3,2.976L52.1,78.635a3.594,3.594,0,0,1-1.39,2.879L31.586,92.251a1.062,1.062,0,0,1-1.436-.3L14.484,72.4a3.545,3.545,0,0,1-.474-2.694" transform="translate(19.267 5.453)" fill="#fff"/>
          <path id="Path_8527" data-name="Path 8527" d="M21.914,76.6c1.177-.662,2.288.319,2.492,2.184.205,1.884-.575,3.925-1.752,4.585s-2.288-.317-2.493-2.2c-.205-1.866.586-3.913,1.753-4.569" transform="translate(48.268 11.656)" fill="#fff"/>
          <path id="Path_8528" data-name="Path 8528" d="M38.489,85.906c1.177-.662,2.288.319,2.492,2.184.205,1.884-.575,3.925-1.752,4.585s-2.288-.317-2.493-2.2c-.2-1.866.584-3.913,1.753-4.569" transform="translate(12.589 13.077)" fill="#fff"/>
        </g>
      </g>
    </g>
  </g>
</svg>
