<svg xmlns="http://www.w3.org/2000/svg" xmlns:xlink="http://www.w3.org/1999/xlink" width="116.578" height="78.867" viewBox="0 0 116.578 78.867">
  <defs>
    <clipPath id="clip-path">
      <rect id="Rectangle_3765" data-name="Rectangle 3765" width="116.578" height="78.867" fill="none"/>
    </clipPath>
  </defs>
  <g id="Group_9061" data-name="Group 9061" transform="translate(0 0)">
    <g id="Group_9060" data-name="Group 9060" transform="translate(0 0)" clip-path="url(#clip-path)">
      <path id="Path_8571" data-name="Path 8571" d="M35.18,2.989a4.564,4.564,0,0,1-1.463,1.275l-.005,1.944,1.965-1.14.008-3.553-.008.023A2.541,2.541,0,0,1,35.2,2.974l-.016.016" transform="translate(54.042 2.43)" fill="#e88e71"/>
      <path id="Path_8572" data-name="Path 8572" d="M42.729,3.6a4.452,4.452,0,0,1-1.46,1.283l-.008,2.442A10.763,10.763,0,0,1,43.2,7.1l.01-4.946a2.517,2.517,0,0,1-.318.95c-.07.164-.055.333-.164.492" transform="translate(66.144 3.454)" fill="#e88e71"/>
      <path id="Path_8573" data-name="Path 8573" d="M45.514,6.994a4.575,4.575,0,0,1-1.468,1.283l-.021,7.252A3.336,3.336,0,0,0,45.98,12.8L46,5.549a2.5,2.5,0,0,1-.328.958c-.07.161-.055.331-.161.487" transform="translate(70.575 8.895)" fill="#e88e71"/>
      <path id="Path_8574" data-name="Path 8574" d="M22.639,19.326l1.676.968L51.465,4.518l.005-1.944Z" transform="translate(36.291 4.124)" fill="#e88e71"/>
      <path id="Path_8575" data-name="Path 8575" d="M26.969,24.827l1.676.966L61.819,6.514a8.256,8.256,0,0,1,2.353-.872L64.177,3.2Z" transform="translate(43.233 5.134)" fill="#e88e71"/>
      <path id="Path_8576" data-name="Path 8576" d="M45.234,12.185a4.614,4.614,0,0,1-1.484,1.3l-.021,7.25a3.365,3.365,0,0,0,1.978-2.751l.021-7.25a2.535,2.535,0,0,1-.318.937c-.075.172-.06.351-.177.518" transform="translate(70.1 17.2)" fill="#e88e71"/>
      <path id="Path_8577" data-name="Path 8577" d="M31.289,25.875l1.7.984L54.12,14.581a10.47,10.47,0,0,1,9.269-.12l1.054-.614.021-7.25Z" transform="translate(50.158 10.575)" fill="#e88e71"/>
      <path id="Path_8578" data-name="Path 8578" d="M35.632,24.065l-.021,7.25L56.741,19.039l.021-7.252Z" transform="translate(57.087 18.894)" fill="#e88e71"/>
      <path id="Path_8579" data-name="Path 8579" d="M16.687,45.161l-.018,7.252,49.31-28.66L66,16.5Z" transform="translate(26.72 26.456)" fill="#e88e71"/>
      <path id="Path_8580" data-name="Path 8580" d="M.021,17.89,0,25.142,43.388,50.191l.018-7.252Z" transform="translate(0 28.677)" fill="#e88e71"/>
      <path id="Path_8581" data-name="Path 8581" d="M104.27,25.157,83.141,37.435l-1.7-.984,33.173-19.278a4.51,4.51,0,0,0,1.466-1.286c.109-.156.091-.325.164-.484.58-1.3.091-2.725-1.692-3.756a9.881,9.881,0,0,0-5.217-1.091,11,11,0,0,0-1.939.219,8.256,8.256,0,0,0-2.353.872L71.87,30.928l-1.676-.968L107.4,8.336a4.482,4.482,0,0,0,1.46-1.283c.109-.159.094-.328.164-.492.573-1.3.075-2.731-1.687-3.748A10.448,10.448,0,0,0,97.8,2.8l-8.1,4.7L87.743,8.64,60.6,24.417l-1.676-.966L87.751,6.7A4.6,4.6,0,0,0,89.214,5.42l.016-.018a2.542,2.542,0,0,0,.479-1.432,3.363,3.363,0,0,0-1.991-2.814,10.462,10.462,0,0,0-9.564,0L49.322,17.91,36.741,25.222,33.966,15.057A3.3,3.3,0,0,0,32.329,13.2a8.756,8.756,0,0,0-5.256-.908c-2.121.247-3.842,1.179-4.4,2.395L10.789,40.3.007,46.567,43.4,71.616l49.31-28.657L113.836,30.68a4.582,4.582,0,0,0,1.484-1.294,2.448,2.448,0,0,0,.18-.518c.565-1.294.073-2.707-1.695-3.73-.078-.044-.185-.06-.271-.1a10.467,10.467,0,0,0-9.264.122" transform="translate(0.011 -0.001)" fill="#ebab94"/>
      <path id="Path_8582" data-name="Path 8582" d="M35.128,13.026V16.8c0,1.843-1.229,3.655-3.623,5.037-4.792,2.8-12.625,2.8-17.446,0-2.395-1.382-3.592-3.225-3.561-5.037h-.031V13.026Z" transform="translate(16.779 20.881)" fill="#9b1c2e"/>
      <path id="Path_8583" data-name="Path 8583" d="M31.526,22.456c-4.818,2.783-12.633,2.783-17.451,0s-4.818-7.294,0-10.074,12.633-2.783,17.451,0,4.818,7.291,0,10.074" transform="translate(16.771 16.503)" fill="#ba2a45"/>
      <path id="Path_8584" data-name="Path 8584" d="M28.791,20.878a16.052,16.052,0,0,1-14.528,0c-4.011-2.317-4.011-6.07,0-8.387a16.052,16.052,0,0,1,14.528,0c4.011,2.317,4.011,6.07,0,8.387" transform="translate(18.043 17.238)" fill="#fff"/>
      <path id="Path_8585" data-name="Path 8585" d="M25.249,18.833a11.867,11.867,0,0,1-10.74,0c-2.965-1.713-2.965-4.488,0-6.2a11.867,11.867,0,0,1,10.74,0c2.965,1.713,2.965,4.488,0,6.2" transform="translate(19.693 18.19)" fill="#ba2a45"/>
      <path id="Path_8586" data-name="Path 8586" d="M13.907,16.961h0c-.627-.362-.549-1,.177-1.416l5.474-3.16a2.728,2.728,0,0,1,2.452-.1c.627.362.549,1-.177,1.416l-5.474,3.16a2.728,2.728,0,0,1-2.452.1" transform="translate(21.614 19.299)" fill="#fff"/>
      <path id="Path_8587" data-name="Path 8587" d="M41.587,11.365v3.777c0,1.843-1.229,3.655-3.623,5.037-4.792,2.8-12.622,2.8-17.446,0-2.395-1.382-3.592-3.225-3.561-5.037h-.031V11.365Z" transform="translate(27.133 18.218)" fill="#9b1c2e"/>
      <path id="Path_8588" data-name="Path 8588" d="M37.985,20.8c-4.818,2.783-12.63,2.783-17.451,0s-4.818-7.294,0-10.074,12.633-2.783,17.451,0,4.818,7.291,0,10.074" transform="translate(27.125 13.841)" fill="#ba2a45"/>
      <path id="Path_8589" data-name="Path 8589" d="M35.251,19.217a16.052,16.052,0,0,1-14.528,0c-4.011-2.317-4.011-6.07,0-8.387a16.052,16.052,0,0,1,14.528,0c4.011,2.317,4.011,6.07,0,8.387" transform="translate(28.399 14.575)" fill="#fff"/>
      <path id="Path_8590" data-name="Path 8590" d="M31.708,17.172a11.867,11.867,0,0,1-10.74,0c-2.965-1.713-2.965-4.488,0-6.2a11.867,11.867,0,0,1,10.74,0c2.965,1.713,2.965,4.488,0,6.2" transform="translate(30.047 15.527)" fill="#ba2a45"/>
      <path id="Path_8591" data-name="Path 8591" d="M20.366,15.3h0c-.627-.362-.549-1,.177-1.416l5.474-3.16a2.728,2.728,0,0,1,2.452-.1c.627.362.549,1-.177,1.416L22.815,15.2a2.723,2.723,0,0,1-2.449.1" transform="translate(31.969 16.636)" fill="#fff"/>
      <path id="Path_8592" data-name="Path 8592" d="M39.868,17.853V21.63c0,1.843-1.229,3.655-3.623,5.037-4.792,2.8-12.622,2.8-17.446,0-2.395-1.382-3.592-3.225-3.561-5.037h-.031V17.853Z" transform="translate(24.378 28.619)" fill="#9b1c2e"/>
      <path id="Path_8593" data-name="Path 8593" d="M36.266,27.283c-4.818,2.783-12.633,2.783-17.451,0s-4.818-7.294,0-10.074,12.633-2.783,17.451,0,4.818,7.291,0,10.074" transform="translate(24.369 24.241)" fill="#ba2a45"/>
      <path id="Path_8594" data-name="Path 8594" d="M33.534,25.705a16.058,16.058,0,0,1-14.53,0c-4.011-2.317-4.011-6.07,0-8.387a16.058,16.058,0,0,1,14.53,0c4.009,2.317,4.009,6.07,0,8.387" transform="translate(25.641 24.976)" fill="#fff"/>
      <path id="Path_8595" data-name="Path 8595" d="M29.989,23.66a11.867,11.867,0,0,1-10.74,0c-2.965-1.713-2.965-4.488,0-6.2a11.867,11.867,0,0,1,10.74,0c2.965,1.713,2.965,4.488,0,6.2" transform="translate(27.292 25.928)" fill="#ba2a45"/>
      <path id="Path_8596" data-name="Path 8596" d="M18.647,21.788h0c-.627-.362-.549-1,.177-1.416l5.474-3.16a2.728,2.728,0,0,1,2.452-.1c.627.362.549,1-.177,1.416L21.1,21.687a2.728,2.728,0,0,1-2.452.1" transform="translate(29.213 27.037)" fill="#fff"/>
      <path id="Path_8597" data-name="Path 8597" d="M33,15.076v3.777c0,1.843-1.229,3.655-3.623,5.037-4.792,2.8-12.625,2.8-17.446,0-2.395-1.382-3.592-3.225-3.561-5.037H8.343V15.076Z" transform="translate(13.374 24.167)" fill="#9b1c2e"/>
      <path id="Path_8598" data-name="Path 8598" d="M29.4,24.506c-4.818,2.783-12.633,2.783-17.451,0s-4.818-7.294,0-10.074,12.633-2.783,17.451,0,4.818,7.291,0,10.074" transform="translate(13.366 19.79)" fill="#ba2a45"/>
      <path id="Path_8599" data-name="Path 8599" d="M26.667,22.928a16.052,16.052,0,0,1-14.528,0c-4.011-2.317-4.011-6.07,0-8.387a16.052,16.052,0,0,1,14.528,0c4.011,2.317,4.011,6.07,0,8.387" transform="translate(14.638 20.524)" fill="#fff"/>
      <path id="Path_8600" data-name="Path 8600" d="M23.125,20.883a11.867,11.867,0,0,1-10.74,0c-2.965-1.713-2.965-4.488,0-6.2a11.867,11.867,0,0,1,10.74,0c2.965,1.713,2.965,4.488,0,6.2" transform="translate(16.288 21.476)" fill="#ba2a45"/>
      <path id="Path_8601" data-name="Path 8601" d="M11.783,19.011h0c-.627-.362-.549-1,.177-1.416l5.474-3.16a2.728,2.728,0,0,1,2.452-.1c.627.362.549,1-.177,1.416l-5.474,3.16a2.728,2.728,0,0,1-2.452.1" transform="translate(18.21 22.585)" fill="#fff"/>
    </g>
  </g>
</svg>
