<svg id="Group_9064" data-name="Group 9064" xmlns="http://www.w3.org/2000/svg" xmlns:xlink="http://www.w3.org/1999/xlink" width="117.615" height="84.06" viewBox="0 0 117.615 84.06">
  <defs>
    <clipPath id="clip-path">
      <rect id="Rectangle_3766" data-name="Rectangle 3766" width="117.615" height="84.06" fill="#9b1c2e"/>
    </clipPath>
  </defs>
  <path id="Path_8602" data-name="Path 8602" d="M50.135,4.458l-.016,5.312L32.731,19.875l.016-5.312Z" transform="translate(55.385 7.543)" fill="#9b1c2e"/>
  <path id="Path_8603" data-name="Path 8603" d="M32.328,11.42l-.016,5.312-3.548-2.049.013-5.312Z" transform="translate(48.672 15.858)" fill="#9b1c2e"/>
  <path id="Path_8604" data-name="Path 8604" d="M41.713,18.7,41.7,24.014l5.339-11.649.016-5.314Z" transform="translate(70.562 11.931)" fill="#9b1c2e"/>
  <path id="Path_8605" data-name="Path 8605" d="M54.328,11.379l-.016,5.312L34.244,19.805l.013-5.312Z" transform="translate(57.947 19.255)" fill="#9b1c2e"/>
  <path id="Path_8606" data-name="Path 8606" d="M36.49,13.824l-.016,5.312-3.548-2.049.013-5.312Z" transform="translate(55.716 19.925)" fill="#9b1c2e"/>
  <path id="Path_8607" data-name="Path 8607" d="M11.5,24.24l-.016,5.312-6.154-.568.016-5.312Z" transform="translate(9.011 40.057)" fill="#ba2a45"/>
  <path id="Path_8608" data-name="Path 8608" d="M8.845,23.672l-.013,5.312-5.578,1.65.016-5.312Z" transform="translate(5.506 40.057)" fill="#ba2a45"/>
  <path id="Path_8609" data-name="Path 8609" d="M69.593,11.775l-.016,5.312L11.265,50.975l.016-5.312Z" transform="translate(19.062 19.924)" fill="#9b1c2e"/>
  <path id="Path_8610" data-name="Path 8610" d="M12.051,26.438l-.016,5.312L7.611,29.195l.016-5.312Z" transform="translate(12.88 40.414)" fill="#ba2a45"/>
  <path id="Path_8611" data-name="Path 8611" d="M5.021,24.285,5.005,29.6,2.219,32.808,2.232,27.5Z" transform="translate(3.754 41.094)" fill="#ba2a45"/>
  <path id="Path_8612" data-name="Path 8612" d="M9.255,30.144l1.015,3.572.016-5.312L9.268,24.832Z" transform="translate(15.66 42.02)" fill="#ba2a45"/>
  <g id="Group_9063" data-name="Group 9063" transform="translate(0 0)">
    <g id="Group_9062" data-name="Group 9062" clip-path="url(#clip-path)">
      <path id="Path_8613" data-name="Path 8613" d="M31.881,25.9l-.016,5.312c-.005,2.345-1.545,4.684-4.631,6.477-6.2,3.6-16.29,3.6-22.52.008C1.567,35.882-.005,33.5,0,31.117L.016,25.8c-.008,2.38,1.564,4.762,4.714,6.582,6.227,3.594,16.32,3.594,22.52-.008,3.085-1.793,4.622-4.135,4.631-6.477" transform="translate(0 43.666)" fill="#9b1c2e"/>
      <path id="Path_8614" data-name="Path 8614" d="M30.333,59.011c2.8,3.419,1.785,7.624-3.093,10.459-6.2,3.6-16.293,3.6-22.52.008-6.254-3.613-6.289-9.458-.086-13.062,4.878-2.832,12.131-3.435,18.043-1.825L80.992,20.7l-3.551-2.051L82.752,7.017l20.1-3.131,2.663,1.537L88.123,15.53l9.417,5.438,17.389-10.106,2.676,1.545-5.339,11.652L92.2,27.173l-3.551-2.051Zm-12.761,9.7,5.535-1.626,2.829-3.233-1.015-3.572L20.5,57.721l-6.154-.568L8.767,58.8,5.977,62.015l.975,3.578,4.423,2.555Z" transform="translate(0.01 6.575)" fill="#d65265"/>
    </g>
  </g>
  <path id="Path_8615" data-name="Path 8615" d="M20.874,12.131l2.477,1.44L23.337,8.9,20.861,7.463Z" transform="translate(35.299 12.628)" fill="#4a4949"/>
  <path id="Path_8616" data-name="Path 8616" d="M23.338,16.471l-2.477-1.44L33.035,2.989l2.479,1.44Z" transform="translate(35.3 5.058)" fill="#4a4949"/>
  <path id="Path_8617" data-name="Path 8617" d="M21.765,4,38.893,1.684l.013,4.256L21.819,23.35l-.013-4.671L33.982,6.637,21.779,8.7Z" transform="translate(36.83 2.849)" fill="#110202"/>
  <path id="Path_8618" data-name="Path 8618" d="M23.324,4.907l-2.479-1.44,17.13-2.318,2.477,1.44Z" transform="translate(35.272 1.944)" fill="#4a4949"/>
  <path id="Path_8619" data-name="Path 8619" d="M20.858,6.7l2.479,1.443-.013-4.7L20.844,2.01Z" transform="translate(35.272 3.402)" fill="#4a4949"/>
  <path id="Path_8620" data-name="Path 8620" d="M28.284.535l-8.3,30.349-3.433,1.981L24.827,2.53Z" transform="translate(28.003 0.905)" fill="#110202"/>
  <path id="Path_8621" data-name="Path 8621" d="M18.107,32.517l-2.479-1.44L23.908.741l2.477,1.44Z" transform="translate(26.444 1.254)" fill="#4a4949"/>
  <path id="Path_8622" data-name="Path 8622" d="M22.16,0,18.7,2l2.477,1.44,3.459-1.995Z" transform="translate(31.649 0.001)" fill="#4a4949"/>
  <path id="Path_8623" data-name="Path 8623" d="M12.743,14.427l-2.479-1.44,12.182-2.019,2.479,1.44Z" transform="translate(17.368 18.559)" fill="#4a4949"/>
  <path id="Path_8624" data-name="Path 8624" d="M26.419,6.05l.013,4.7-12.152,12,12.182-2.022.011,4.671L9.367,27.727,9.356,23.42Z" transform="translate(15.833 10.237)" fill="#110202"/>
  <path id="Path_8625" data-name="Path 8625" d="M8.449,16.274l2.479,1.443-.013-4.31-2.479-1.44Z" transform="translate(14.274 20.25)" fill="#4a4949"/>
  <path id="Path_8626" data-name="Path 8626" d="M10.915,24.325l-2.479-1.44L25.5,5.515l2.477,1.44Z" transform="translate(14.274 9.332)" fill="#4a4949"/>
</svg>
