<svg xmlns="http://www.w3.org/2000/svg" width="57.28" height="145.143" viewBox="0 0 57.28 145.143">
  <g id="Group_9069" data-name="Group 9069" transform="translate(-0.034 -7.861)">
    <g id="Group_9068" data-name="Group 9068" transform="translate(0 0.001)">
      <g id="Group_9070" data-name="Group 9070" transform="translate(0 0)">
        <path id="Path_8630" data-name="Path 8630" d="M23.043,78.608l-2.767,1.608a2.821,2.821,0,0,1,2.844.274l2.767-1.608a2.816,2.816,0,0,0-2.844-.274" transform="translate(-5.07 62.684)" fill="#5d7280"/>
        <path id="Path_8631" data-name="Path 8631" d="M20.887,89.8,23.654,88.2a2.828,2.828,0,0,0,1.177-2.59,8.858,8.858,0,0,0-4.023-6.967l-2.767,1.608a8.858,8.858,0,0,1,4.023,6.967,2.828,2.828,0,0,1-1.177,2.59" transform="translate(0.01 62.926)" fill="#5d7280"/>
        <path id="Path_8632" data-name="Path 8632" d="M23.6,79.774C21.4,78.5,19.585,79.533,19.578,82.1a8.849,8.849,0,0,0,4,6.952c2.232,1.289,4.043.257,4.05-2.308A8.864,8.864,0,0,0,23.6,79.774" transform="translate(-5.551 63.399)" fill="#2c353b"/>
        <path id="Path_8633" data-name="Path 8633" d="M22.792,80.832c-1.208-.7-2.2-.133-2.2,1.271a4.84,4.84,0,0,0,2.187,3.8c1.221.706,2.212.14,2.216-1.262a4.852,4.852,0,0,0-2.2-3.813" transform="translate(-4.741 64.442)" fill="#3b4951"/>
        <path id="Path_8634" data-name="Path 8634" d="M5,68.144,2.237,69.751a2.821,2.821,0,0,1,2.844.274l2.767-1.608A2.816,2.816,0,0,0,5,68.144" transform="translate(45.443 54.31)" fill="#5d7280"/>
        <path id="Path_8635" data-name="Path 8635" d="M2.848,79.341l2.767-1.608a2.828,2.828,0,0,0,1.177-2.59,8.858,8.858,0,0,0-4.023-6.967L0,69.784A8.858,8.858,0,0,1,4.025,76.75a2.828,2.828,0,0,1-1.177,2.59" transform="translate(50.522 54.554)" fill="#5d7280"/>
        <path id="Path_8636" data-name="Path 8636" d="M5.562,69.31c-2.205-1.273-4.016-.241-4.023,2.322a8.849,8.849,0,0,0,4,6.952c2.232,1.289,4.043.257,4.05-2.308A8.864,8.864,0,0,0,5.562,69.31" transform="translate(44.962 55.025)" fill="#2c353b"/>
        <path id="Path_8637" data-name="Path 8637" d="M4.753,70.369c-1.208-.7-2.2-.133-2.2,1.271a4.846,4.846,0,0,0,2.187,3.806c1.221.7,2.212.139,2.216-1.264a4.852,4.852,0,0,0-2.2-3.813" transform="translate(45.772 56.069)" fill="#3b4951"/>
        <path id="Path_8638" data-name="Path 8638" d="M30.816,74.149l-2.767,1.608a2.821,2.821,0,0,1,2.844.274l2.767-1.608a2.816,2.816,0,0,0-2.844-.274" transform="translate(-26.836 59.116)" fill="#5d7280"/>
        <path id="Path_8639" data-name="Path 8639" d="M28.66,85.346l2.767-1.608a2.83,2.83,0,0,0,1.177-2.59,8.858,8.858,0,0,0-4.023-6.967l-2.767,1.608a8.858,8.858,0,0,1,4.023,6.967,2.828,2.828,0,0,1-1.177,2.59" transform="translate(-21.756 59.359)" fill="#5d7280"/>
        <path id="Path_8640" data-name="Path 8640" d="M31.374,75.315c-2.205-1.275-4.016-.241-4.023,2.322a8.849,8.849,0,0,0,4,6.952c2.232,1.289,4.043.256,4.05-2.308a8.858,8.858,0,0,0-4.023-6.967" transform="translate(-27.317 59.83)" fill="#2c353b"/>
        <path id="Path_8641" data-name="Path 8641" d="M30.565,76.373c-1.208-.7-2.2-.131-2.2,1.271A4.846,4.846,0,0,0,30.55,81.45c1.221.7,2.212.139,2.216-1.264a4.852,4.852,0,0,0-2.2-3.813" transform="translate(-26.507 60.875)" fill="#3b4951"/>
        <path id="Path_8642" data-name="Path 8642" d="M12.777,63.686,10.01,65.293a2.821,2.821,0,0,1,2.844.274l2.767-1.608a2.816,2.816,0,0,0-2.844-.274" transform="translate(23.677 50.743)" fill="#5d7280"/>
        <path id="Path_8643" data-name="Path 8643" d="M10.621,74.882l2.767-1.608a2.83,2.83,0,0,0,1.177-2.59,8.858,8.858,0,0,0-4.023-6.967L7.775,65.325A8.858,8.858,0,0,1,11.8,72.291a2.828,2.828,0,0,1-1.177,2.59" transform="translate(28.756 50.986)" fill="#5d7280"/>
        <path id="Path_8644" data-name="Path 8644" d="M13.335,64.852c-2.205-1.275-4.016-.241-4.023,2.322a8.849,8.849,0,0,0,4,6.952c2.232,1.289,4.043.256,4.05-2.308a8.858,8.858,0,0,0-4.023-6.967" transform="translate(23.196 51.458)" fill="#2c353b"/>
        <path id="Path_8645" data-name="Path 8645" d="M12.526,65.91c-1.208-.7-2.2-.131-2.2,1.271a4.851,4.851,0,0,0,2.187,3.806c1.221.7,2.212.139,2.216-1.264a4.852,4.852,0,0,0-2.2-3.813" transform="translate(24.006 52.502)" fill="#3b4951"/>
      </g>
    </g>
    <path id="Path_8646" data-name="Path 8646" d="M38.909,100.684.292,122.979V50.629L38.909,28.336Z" transform="translate(17.883 22.675)" fill="#ba2a45"/>
    <path id="Path_8647" data-name="Path 8647" d="M2.984,97.865l2.832-1.635V32.2L2.984,33.834Z" transform="translate(46.13 25.767)" fill="#f4f4f4"/>
    <path id="Path_8648" data-name="Path 8648" d="M6.609,99.957l2.83-1.635V34.292l-2.83,1.635Z" transform="translate(35.982 27.441)" fill="#f4f4f4"/>
    <path id="Path_8649" data-name="Path 8649" d="M10.232,102.05l2.83-1.635V36.384l-2.83,1.635Z" transform="translate(25.836 29.115)" fill="#f4f4f4"/>
    <path id="Path_8650" data-name="Path 8650" d="M13.856,104.142l2.83-1.635V38.476l-2.83,1.635Z" transform="translate(15.689 30.789)" fill="#f4f4f4"/>
    <path id="Path_8651" data-name="Path 8651" d="M17.478,106.234,20.31,104.6V40.568L17.478,42.2Z" transform="translate(5.543 32.463)" fill="#f4f4f4"/>
    <path id="Path_8652" data-name="Path 8652" d="M39.362,45.241v72.348L21.743,107.416V35.07Z" transform="translate(-21.185 28.064)" fill="#9b1c2e"/>
    <path id="Path_8653" data-name="Path 8653" d="M25.634,109.68l3.609,2.085V39.393L25.634,37.31Z" transform="translate(-18.072 29.857)" fill="#2c353b"/>
    <path id="Path_8654" data-name="Path 8654" d="M27.773,38.544v72.369l-1.573-.907V37.637Z" transform="translate(-17.62 30.118)" fill="#3b4951"/>
    <path id="Path_8655" data-name="Path 8655" d="M56.522,32.856l-38.6,22.286L.3,44.971,38.9,22.683Z" transform="translate(0.257 18.152)" fill="#d65265"/>
    <path id="Path_8656" data-name="Path 8656" d="M4.188,47.222,7.8,49.307l38.614-22.3L42.8,24.929Z" transform="translate(3.368 19.949)" fill="#3b4951"/>
    <path id="Path_8657" data-name="Path 8657" d="M4.753,47.549l1.573.907L44.94,26.163l-1.572-.907Z" transform="translate(3.821 20.21)" fill="#5d7280"/>
    <path id="Path_8658" data-name="Path 8658" d="M17.152,8.893l-2.789-1.62.1,36.933,2.789,1.62Z" transform="translate(14.205 5.821)" fill="#2c353b"/>
    <path id="Path_8659" data-name="Path 8659" d="M24.493,13.131,21.7,11.511l.1,36.933,2.789,1.62Z" transform="translate(-6.351 9.212)" fill="#2c353b"/>
    <path id="Path_8660" data-name="Path 8660" d="M13.212,14.092l.011,4.036.1,36.933,2.1-1.21L15.32,16.917,26.44,10.5l.1,36.933,2.072-1.2L28.512,9.3,28.5,5.266Z" transform="translate(4.918 4.215)" fill="#3b4951"/>
    <path id="Path_8661" data-name="Path 8661" d="M24.553,10.889l-2.79-1.62.013,4.036,2.789,1.62Z" transform="translate(-6.423 7.418)" fill="#2c353b"/>
    <path id="Path_8662" data-name="Path 8662" d="M31.354,5.986l-2.789-1.62L13.276,13.192l2.79,1.62Z" transform="translate(2.064 3.495)" fill="#5d7280"/>
    <path id="Path_8663" data-name="Path 8663" d="M12.123,29.782l-2.789-1.62.016,5.806,2.789,1.622Z" transform="translate(28.375 22.536)" fill="#2c353b"/>
    <path id="Path_8664" data-name="Path 8664" d="M19.466,34.02l-2.79-1.62.018,5.806,2.789,1.622Z" transform="translate(7.816 25.928)" fill="#2c353b"/>
    <path id="Path_8665" data-name="Path 8665" d="M8.183,34.982l.011,4.036.018,5.807,2.1-1.212-.016-5.807,11.12-6.418.016,5.806L23.5,36l-.016-5.807-.013-4.036Z" transform="translate(19.088 20.93)" fill="#3b4951"/>
    <path id="Path_8666" data-name="Path 8666" d="M19.474,31.778l-2.789-1.62.011,4.036,2.789,1.62Z" transform="translate(7.797 24.133)" fill="#2c353b"/>
    <path id="Path_8667" data-name="Path 8667" d="M26.276,26.875l-2.788-1.62L8.2,34.082l2.79,1.62Z" transform="translate(16.282 20.21)" fill="#5d7280"/>
  </g>
</svg>
