<svg xmlns="http://www.w3.org/2000/svg" xmlns:xlink="http://www.w3.org/1999/xlink" width="98.384" height="118.961" viewBox="0 0 98.384 118.961">
  <defs>
    <clipPath id="clip-path">
      <rect id="Rectangle_3767" data-name="Rectangle 3767" width="98.384" height="118.961" fill="none"/>
    </clipPath>
  </defs>
  <g id="Group_9066" data-name="Group 9066" transform="translate(0 0)">
    <g id="Group_9065" data-name="Group 9065" transform="translate(0 0)" clip-path="url(#clip-path)">
      <path id="Path_8627" data-name="Path 8627" d="M0,81.346c0,12.463,3.934,21.6,10.43,26.624l.03.021a20.36,20.36,0,0,0,4.387,2.587l7.911,4.663,1.745-2.829L84.426,15.338l2.939-4.773L75.9,3.912l-.047-.03c-7.961-5.59-19.5-5.349-32.324,2.062C19.489,19.823,0,53.583,0,81.346" transform="translate(0 0.001)" fill="#ba2a45"/>
      <path id="Path_8628" data-name="Path 8628" d="M2.673,82.887c0,27.759,19.489,39.011,43.53,25.134s43.534-47.638,43.534-75.4S70.248-6.392,46.2,7.49s-43.53,47.638-43.53,75.4" transform="translate(8.647 4.995)" fill="#9b1c2e"/>
      <path id="Path_8629" data-name="Path 8629" d="M4.679,69.589c0,22.3,15.715,31.376,35.035,20.226S74.749,51.439,74.749,29.134,59.029-2.242,39.714,8.908,4.679,47.284,4.679,69.589m5.277-5.806C11.315,59.065,15.5,52.845,21.75,46.657a97.5,97.5,0,0,0-.932,10.854ZM26.908,41.969a90.562,90.562,0,0,1,10.413-7.521v13.53L25.6,54.75a90.814,90.814,0,0,1,1.309-12.781m1.482-6.814c2.236-8.5,5.531-15.237,8.931-18.777V28.922a98.95,98.95,0,0,0-8.931,6.234M51.038,22.083a71.572,71.572,0,0,0-8.931,4.078V13.617c3.4-.39,6.7,2.541,8.931,8.465m1.482,5.1A62.324,62.324,0,0,1,53.828,38.45L42.106,45.218V31.687A62.011,62.011,0,0,1,52.52,27.181m5.158-1.266c6.246-1.025,10.435.36,11.794,3.5L58.61,35.689a71.358,71.358,0,0,0-.932-9.774M69.472,34.94c-1.359,4.718-5.548,10.939-11.794,17.126a97.5,97.5,0,0,0,.932-10.854ZM52.52,56.758a91.076,91.076,0,0,1-10.413,7.521V50.744l11.722-6.767A90.811,90.811,0,0,1,52.52,56.758m-1.482,6.81c-2.236,8.5-5.531,15.237-8.931,18.777V69.8a97.262,97.262,0,0,0,8.931-6.234M28.39,76.64a70.906,70.906,0,0,0,8.931-4.074V85.105c-3.4.39-6.7-2.541-8.931-8.465m-1.482-5.095A62.422,62.422,0,0,1,25.6,60.272l11.722-6.767V67.04a62.362,62.362,0,0,1-10.413,4.506M21.75,72.808c-6.246,1.029-10.435-.36-11.794-3.5l10.862-6.272a71.356,71.356,0,0,0,.932,9.774m6.416-49.056a79.888,79.888,0,0,0-5.171,15.957A79.71,79.71,0,0,0,11.76,52.171a72.6,72.6,0,0,1,16.406-28.42m39.5-3.862c-2.994-.733-6.818-.572-11.235.512-1.27-4.366-3.036-7.758-5.171-9.986,7.407-.728,13.335,2.693,16.406,9.473M51.262,74.972a79.888,79.888,0,0,0,5.171-15.957A80.093,80.093,0,0,0,67.668,46.556,72.665,72.665,0,0,1,51.262,74.972m-39.5,3.862c2.994.737,6.818.572,11.235-.512,1.27,4.366,3.036,7.758,5.171,9.986-7.407.728-13.335-2.693-16.406-9.473" transform="translate(15.136 13.389)" fill="#fff"/>
    </g>
  </g>
</svg>
