<svg id="android" xmlns="http://www.w3.org/2000/svg" width="29.264" height="34.826" viewBox="0 0 29.264 34.826">
  <path id="Path_8139" data-name="Path 8139" d="M130.876,161.9H113.212a.708.708,0,0,0-.712.712v14.815a.708.708,0,0,0,.712.712h3.15v4.992a2.1,2.1,0,0,0,2.1,2.1h0a2.1,2.1,0,0,0,2.1-2.1V178.14H123.5v4.992a2.1,2.1,0,0,0,2.1,2.1h0a2.1,2.1,0,0,0,2.1-2.1V178.14h3.194a.708.708,0,0,0,.712-.712V162.612A.735.735,0,0,0,130.876,161.9Z" transform="translate(-107.412 -150.406)" fill="#110202"/>
  <path id="Path_8140" data-name="Path 8140" d="M45.3,161.9h0a2.1,2.1,0,0,0-2.1,2.1v8.516a2.1,2.1,0,0,0,2.1,2.1h0a2.1,2.1,0,0,0,2.1-2.1V164A2.1,2.1,0,0,0,45.3,161.9Z" transform="translate(-43.2 -150.406)" fill="#110202"/>
  <path id="Path_8141" data-name="Path 8141" d="M386.7,161.9h0a2.1,2.1,0,0,0-2.1,2.1v8.516a2.1,2.1,0,0,0,2.1,2.1h0a2.1,2.1,0,0,0,2.1-2.1V164A2.1,2.1,0,0,0,386.7,161.9Z" transform="translate(-359.536 -150.406)" fill="#110202"/>
  <path id="Path_8142" data-name="Path 8142" d="M115.185,15.8h17.334a.711.711,0,0,0,.7-.859,9.571,9.571,0,0,0-4.677-6.365L130.023,5.9a.373.373,0,0,0-.653-.36l-1.49,2.687a9.627,9.627,0,0,0-8.046,0l-1.49-2.694a.373.373,0,0,0-.653.36l1.483,2.672a9.571,9.571,0,0,0-4.677,6.365A.713.713,0,0,0,115.185,15.8Zm13.846-3.987a.808.808,0,1,1-.808-.808A.805.805,0,0,1,129.032,11.812ZM119.487,11a.808.808,0,1,1-.808.808A.815.815,0,0,1,119.487,11Z" transform="translate(-109.246 -5.34)" fill="#110202"/>
</svg>
