<svg xmlns="http://www.w3.org/2000/svg" xmlns:xlink="http://www.w3.org/1999/xlink" width="80" height="80" viewBox="0 0 80 80">
  <defs>
    <clipPath id="clip-path">
      <rect id="Rectangle_3749" data-name="Rectangle 3749" width="56.579" height="73.758" fill="none"/>
    </clipPath>
  </defs>
  <g id="Group_9321" data-name="Group 9321" transform="translate(-54.859 -1355)">
    <rect id="Rectangle_4471" data-name="Rectangle 4471" width="80" height="80" rx="40" transform="translate(54.859 1355)" fill="#f4f4f4"/>
    <g id="Group_9317" data-name="Group 9317" transform="translate(66.57 1358.121)">
      <path id="Path_8146" data-name="Path 8146" d="M46.353,0,15.4,17.868l1.419.823L47.771.824Z" transform="translate(4.009 0)" fill="#9b1c2e"/>
      <path id="Path_8147" data-name="Path 8147" d="M.129,65.193l1.419.824L1.417,20.2,0,19.377Z" transform="translate(0 5.043)" fill="#9b1c2e"/>
      <path id="Path_8148" data-name="Path 8148" d="M0,21.45l1.418.824L18.794,12.242l-1.419-.825Z" transform="translate(0 2.971)" fill="#9b1c2e"/>
      <path id="Path_8149" data-name="Path 8149" d="M18.5,15.043l2.039,3.477L51.487.654,51.6,41.822,1.256,70.89,1.125,25.075Z" transform="translate(0.293 0.17)" fill="#9b1c2e"/>
      <path id="Path_8150" data-name="Path 8150" d="M5.8,65.156l-3.783-2.2-.107-37.7,3.785,2.2Z" transform="translate(0.497 6.574)" fill="#d65265"/>
      <path id="Path_8151" data-name="Path 8151" d="M5.692,33.2,1.907,31,50.036,3.217l3.785,2.2Z" transform="translate(0.496 0.837)" fill="#d65265"/>
      <path id="Path_8152" data-name="Path 8152" d="M53.039,4.962l.106,37.7L5.017,70.439l-.107-37.7Z" transform="translate(1.278 1.291)" fill="#b5b3c4"/>
      <path id="Path_8153" data-name="Path 8153" d="M1.51,53.969l-.024.6H.1v.891l6.1,3.521.009-3.641L1.51,52.52Z" transform="translate(0.027 13.669)" fill="#ba2a45"/>
      <path id="Path_8154" data-name="Path 8154" d="M3.841,65.78,5.26,66.6,5.152,28.311l-1.42-.824Z" transform="translate(0.971 7.154)" fill="#9b1c2e"/>
      <path id="Path_8155" data-name="Path 8155" d="M3.731,33.49l1.42.824L55.5,5.245l-1.419-.824Z" transform="translate(0.971 1.151)" fill="#9b1c2e"/>
      <path id="Path_8156" data-name="Path 8156" d="M4.858,34.144l.108,38.293L55.315,43.368,55.207,5.075Z" transform="translate(1.264 1.321)" fill="#9b1c2e"/>
      <path id="Path_8157" data-name="Path 8157" d="M.1,56.512l6.1,3.521.009-3.641L.1,52.731Z" transform="translate(0.027 13.724)" fill="#9b1c2e"/>
      <g id="Group_8935" data-name="Group 8935" transform="translate(0 0)">
        <g id="Group_8934" data-name="Group 8934" clip-path="url(#clip-path)">
          <path id="Path_8158" data-name="Path 8158" d="M36.057,27.38a2.334,2.334,0,0,0,.445-.342,2.782,2.782,0,0,0,.878-2.549c-1.127-3.214-3.835-4.57-7.246-3.627-4.992,1.379-10.11,7.2-12.17,13.84-.308.993.015,1.757.722,1.705a2.613,2.613,0,0,0,1.837-1.894c1.507-4.857,5.253-9.115,8.906-10.125a4.031,4.031,0,0,1,5.3,2.657c.2.561.741.672,1.323.335" transform="translate(4.645 5.353)" fill="#ecf5fe"/>
          <path id="Path_8159" data-name="Path 8159" d="M36.255,22.34,32.687,31.3,29.3,26.24Z" transform="translate(7.624 5.814)" fill="#ecf5fe"/>
          <path id="Path_8160" data-name="Path 8160" d="M27.311,44.744c3.832-2.212,7.5-6.79,9.3-11.884.352-.994.082-1.81-.6-1.821s-1.527.788-1.879,1.782c-1.616,4.563-5.275,8.562-8.7,9.51a4.035,4.035,0,0,1-5.342-2.766c-.234-.712-1.02-.727-1.754-.032a2.805,2.805,0,0,0-.9,2.548c1.093,3.325,3.821,4.736,7.3,3.776a11.186,11.186,0,0,0,2.59-1.113" transform="translate(4.518 8.078)" fill="#ecf5fe"/>
          <path id="Path_8161" data-name="Path 8161" d="M15.951,43.256l3.038-8.983,3.9,4.4Z" transform="translate(4.151 8.92)" fill="#ecf5fe"/>
        </g>
      </g>
    </g>
  </g>
</svg>
