<svg xmlns="http://www.w3.org/2000/svg" xmlns:xlink="http://www.w3.org/1999/xlink" width="116.421" height="120" viewBox="0 0 116.421 120">
  <defs>
    <linearGradient id="linear-gradient" x1="-0.098" y1="0.666" x2="4.061" y2="-0.343" gradientUnits="objectBoundingBox">
      <stop offset="0.349" stop-color="#bb76db"/>
      <stop offset="1" stop-color="#727cf5"/>
    </linearGradient>
  </defs>
  <path id="Path_8144" data-name="Path 8144" d="M109.835,41.986c-13.013-24.21-42.367-31.775-58.1-35.709-3.631-.908-7.263-1.513-12.1-2.421-1.513-.3-3.026-.605-4.842-.908h-.3C16.325-.078,8.76-1.288,3.918,3.856c-9.987,11.2,7.868,34.8,9.987,37.525v.3a4.178,4.178,0,0,1,.908,1.21A69.016,69.016,0,0,0,32.969,58.025h0a22634.65,22634.65,0,0,0-.605.605,38.024,38.024,0,0,0-6.355,29.052A38.995,38.995,0,0,0,42.048,112.8c11.2,7.868,26.025,9.381,39.643,5.447,9.987-3.026,19.065-8.473,25.42-16.947C121.638,83.143,118.914,58.328,109.835,41.986ZM97.428,93.432c-11.5,14.526-33.591,18.763-47.814,9.079A27.134,27.134,0,0,1,38.719,85.867,26.83,26.83,0,0,1,42.956,66.2a18.816,18.816,0,0,1,10.592-7.566c5.447-1.513,11.8-.908,16.644,3.026A13.94,13.94,0,0,1,73.823,81.63,10.819,10.819,0,0,1,59.3,84.051a6.322,6.322,0,0,0-9.079,2.421c-1.816,2.724-.3,6.658,2.421,8.473a22.783,22.783,0,0,0,31.473-6.052,27.4,27.4,0,0,0-6.658-37.828,32.249,32.249,0,0,0-34.8-1.21h0c-5.145-3.026-13.618-8.776-18.763-15.434a18.37,18.37,0,0,1-2.118-3.026c-1.513-2.421-3.026-4.842-4.237-7.263-2.421-5.145,1.513-10.592,6.658-9.684l8.473,1.21c1.816.3,3.329.605,4.842.908,4.539.908,7.868,1.513,10.894,2.118h.3c14.828,3.631,39.341,9.987,49.63,29.052C103.48,57.118,109.533,78,97.428,93.432Z" transform="translate(-0.904 -0.337)" fill-rule="evenodd" fill="url(#linear-gradient)"/>
</svg>
