<svg xmlns="http://www.w3.org/2000/svg" width="44.057" height="42.971" viewBox="0 0 44.057 42.971">
  <path id="iconmonstr-github-1" d="M22.029,0a22.031,22.031,0,0,0-6.963,42.932c1.1.2,1.456-.479,1.456-1.059v-4.1c-6.128,1.333-7.4-2.6-7.4-2.6a5.834,5.834,0,0,0-2.447-3.224c-2-1.368.152-1.338.152-1.338A4.624,4.624,0,0,1,10.2,32.881c1.964,3.367,5.153,2.394,6.41,1.83a4.674,4.674,0,0,1,1.4-2.944c-4.892-.56-10.036-2.449-10.036-10.888a8.526,8.526,0,0,1,2.269-5.913,7.923,7.923,0,0,1,.215-5.83s1.85-.591,6.06,2.258a20.88,20.88,0,0,1,11.031,0C31.752,8.545,33.6,9.136,33.6,9.136a7.916,7.916,0,0,1,.217,5.83,8.5,8.5,0,0,1,2.267,5.913c0,8.461-5.153,10.324-10.058,10.869a5.265,5.265,0,0,1,1.511,4.079v6.045c0,.586.352,1.274,1.47,1.057A22.033,22.033,0,0,0,22.029,0Z" fill="#878787"/>
</svg>
