<svg xmlns="http://www.w3.org/2000/svg" xmlns:xlink="http://www.w3.org/1999/xlink" width="80" height="80" viewBox="0 0 80 80">
  <defs>
    <clipPath id="clip-path">
      <rect id="Rectangle_3750" data-name="Rectangle 3750" width="47.559" height="79.152" fill="#fffdfd"/>
    </clipPath>
  </defs>
  <g id="Group_9323" data-name="Group 9323" transform="translate(-153 -1884.5)">
    <rect id="Rectangle_4472" data-name="Rectangle 4472" width="80" height="80" rx="40" transform="translate(153 1884.5)" fill="#f4f4f4"/>
    <g id="Group_9318" data-name="Group 9318" transform="translate(177 1884.501)">
      <path id="Path_8162" data-name="Path 8162" d="M0,83.88,5.229,86.9V29.532L0,26.513Z" transform="translate(0 -7.747)" fill="#ba2a45"/>
      <path id="Path_8163" data-name="Path 8163" d="M32.506,0,0,18.766l5.229,3.02L37.735,3.019Z" transform="translate(0 0)" fill="#d65265"/>
      <path id="Path_8164" data-name="Path 8164" d="M2.2,18.879l3.775,2.179L37.652,2.771,33.877.593Z" transform="translate(-0.644 -0.173)" fill="#ffe0e0"/>
      <path id="Path_8165" data-name="Path 8165" d="M7.388,23.031V80.4L39.893,61.631V4.264Z" transform="translate(-2.159 -1.246)" fill="#9b1c2e"/>
      <path id="Path_8166" data-name="Path 8166" d="M36.636,23.171,15.226,35.532V30.9L36.636,18.542Z" transform="translate(-4.449 -5.418)" fill="#fff"/>
      <path id="Path_8167" data-name="Path 8167" d="M38.514,31.619,10.707,47.674V43.043L38.514,26.988Z" transform="translate(-3.128 -7.886)" fill="#fff"/>
      <path id="Path_8168" data-name="Path 8168" d="M34.024,82.272,21.509,89.5v-.82l12.515-7.226Z" transform="translate(-6.285 -23.799)" fill="#ffe0e0"/>
      <path id="Path_8169" data-name="Path 8169" d="M34.024,84.783,21.509,92.008v-.82l12.515-7.226Z" transform="translate(-6.285 -24.532)" fill="#ffe0e0"/>
      <path id="Path_8170" data-name="Path 8170" d="M30.083,90.508l-8.575,4.951v-.82l8.575-4.95Z" transform="translate(-6.284 -26.205)" fill="#ffe0e0"/>
      <path id="Path_8171" data-name="Path 8171" d="M63.2,74.18,60.49,72.6l1.186.678,2.715,1.578Z" transform="translate(-17.674 -21.213)" fill="#d9ddfd"/>
      <path id="Path_8172" data-name="Path 8172" d="M51.778,88.161l-2.715-1.578-.006-1.925,2.715,1.578Z" transform="translate(-14.333 -24.736)" fill="#fffdfd"/>
      <path id="Path_8173" data-name="Path 8173" d="M60.97,63.625,63.686,65.2l1.674-.966-2.715-1.578Z" transform="translate(-17.814 -18.308)" fill="#fffdfd"/>
      <g id="Group_8938" data-name="Group 8938" transform="translate(0 0)">
        <g id="Group_8937" data-name="Group 8937" clip-path="url(#clip-path)">
          <path id="Path_8174" data-name="Path 8174" d="M54.536,66.546l2.715,1.578a2.479,2.479,0,0,1,1.032,2.27A7.77,7.77,0,0,1,54.757,76.5l-2.716-1.578a7.77,7.77,0,0,0,3.527-6.109,2.477,2.477,0,0,0-1.032-2.269" transform="translate(-15.205 -19.443)" fill="#fffdfd"/>
          <path id="Path_8175" data-name="Path 8175" d="M51.2,80.207l-2.715-1.578A2.5,2.5,0,0,0,51,78.382l2.715,1.578a2.5,2.5,0,0,1-2.52.247" transform="translate(-14.165 -22.902)" fill="#fffdfd"/>
          <path id="Path_8176" data-name="Path 8176" d="M44.635,85.983,41.92,84.405,43.1,82.36l2.715,1.578Z" transform="translate(-12.248 -24.064)" fill="#fffdfd"/>
          <path id="Path_8177" data-name="Path 8177" d="M58.927,61.233l-2.715-1.578L57.39,57.61l2.716,1.578Z" transform="translate(-16.424 -16.832)" fill="#fffdfd"/>
          <path id="Path_8178" data-name="Path 8178" d="M60.592,59.189l-2.715-1.578,3.008,1.712L63.6,60.9Z" transform="translate(-16.91 -16.833)" fill="#d9ddfd"/>
          <path id="Path_8179" data-name="Path 8179" d="M46.156,83.613,43.44,82.035a4.313,4.313,0,0,1-.357-.787L45.8,82.826a4.292,4.292,0,0,0,.357.787" transform="translate(-12.588 -23.739)" fill="#fffdfd"/>
          <path id="Path_8180" data-name="Path 8180" d="M57.705,62.165,54.99,60.587a4.172,4.172,0,0,1,.864-.088l2.715,1.578a4.172,4.172,0,0,0-.864.088" transform="translate(-16.067 -17.676)" fill="#fffdfd"/>
          <path id="Path_8181" data-name="Path 8181" d="M45.779,75.448,43.064,73.87c.1-.395.215-.795.352-1.194l2.715,1.578c-.137.4-.256.8-.352,1.194" transform="translate(-12.582 -21.234)" fill="#fffdfd"/>
          <path id="Path_8182" data-name="Path 8182" d="M50.5,66.568,47.784,64.99c.276-.32.565-.626.859-.907l2.716,1.578c-.3.281-.584.587-.86.907" transform="translate(-13.961 -18.724)" fill="#fffdfd"/>
          <path id="Path_8183" data-name="Path 8183" d="M43.41,76.909l-2.715-1.578,1.677-.968,2.715,1.578Z" transform="translate(-11.89 -21.727)" fill="#fffdfd"/>
          <path id="Path_8184" data-name="Path 8184" d="M43.424,82.182,40.709,80.6l-.014-4.873,2.715,1.578Z" transform="translate(-11.89 -22.127)" fill="#fffdfd"/>
          <path id="Path_8185" data-name="Path 8185" d="M51.712,64.867,49,63.289l-.006-1.925,2.715,1.578Z" transform="translate(-14.314 -17.929)" fill="#fffdfd"/>
          <path id="Path_8186" data-name="Path 8186" d="M51.706,61.931l-2.715-1.578L53.232,57.9l2.715,1.578Z" transform="translate(-14.314 -16.918)" fill="#fffdfd"/>
          <path id="Path_8187" data-name="Path 8187" d="M48.823,65.984l-2.715-1.578,1.186.678,2.715,1.578Z" transform="translate(-13.472 -18.818)" fill="#d9ddfd"/>
          <path id="Path_8188" data-name="Path 8188" d="M44.6,71.16l-2.715-1.578,2.991-5.176,2.715,1.578Z" transform="translate(-12.237 -18.818)" fill="#fffdfd"/>
          <path id="Path_8189" data-name="Path 8189" d="M60.57,68.286l-1.675.967q-.15.6-.354,1.2l1.186.679L56.739,76.3l-1.186-.678c-.276.32-.563.622-.862.91l.006,1.925L50.454,80.91l0-1.925a4.66,4.66,0,0,1-.862.085l-1.179,2.044L45.4,79.4l1.181-2.046a4.291,4.291,0,0,1-.357-.787l-1.677.968-.014-4.873,1.677-.968c.1-.394.216-.794.352-1.194l-1.188-.677,2.991-5.176,1.186.679c.277-.32.565-.626.86-.907L50.4,62.5l4.241-2.448.006,1.924a4.219,4.219,0,0,1,.864-.088l1.179-2.045L59.7,61.552,58.522,63.6a4.963,4.963,0,0,1,.359.784l1.675-.967Zm-8.008,6.256a7.77,7.77,0,0,0,3.526-6.108c-.006-2.247-1.6-3.151-3.55-2.022a7.775,7.775,0,0,0-3.528,6.109c.006,2.247,1.6,3.149,3.552,2.022" transform="translate(-13.011 -17.484)" fill="#cfcccc"/>
        </g>
      </g>
      <path id="Path_8190" data-name="Path 8190" d="M43.857,58.958l-1.334-.776.583.334,1.334.775Z" transform="translate(-12.424 -17)" fill="#d9ddfd"/>
      <path id="Path_8191" data-name="Path 8191" d="M38.241,65.829l-1.334-.776,0-.946,1.334.776Z" transform="translate(-10.783 -18.731)" fill="#fffdfd"/>
      <path id="Path_8192" data-name="Path 8192" d="M44.093,54.547l-1.334-.776.822-.475,1.335.776Z" transform="translate(-12.493 -15.572)" fill="#fffdfd"/>
      <g id="Group_8940" data-name="Group 8940" transform="translate(0 0)">
        <g id="Group_8939" data-name="Group 8939" clip-path="url(#clip-path)">
          <path id="Path_8193" data-name="Path 8193" d="M39.6,55.206l1.334.776a1.218,1.218,0,0,1,.508,1.116,3.819,3.819,0,0,1-1.733,3l-1.334-.776a3.818,3.818,0,0,0,1.733-3,1.216,1.216,0,0,0-.507-1.116" transform="translate(-11.211 -16.13)" fill="#fffdfd"/>
          <path id="Path_8194" data-name="Path 8194" d="M37.956,61.921l-1.335-.776a1.227,1.227,0,0,0,1.238-.121l1.336.776a1.229,1.229,0,0,1-1.239.121" transform="translate(-10.7 -17.83)" fill="#fffdfd"/>
          <path id="Path_8195" data-name="Path 8195" d="M34.731,64.759,33.4,63.983l.58-1.005,1.334.776Z" transform="translate(-9.758 -18.401)" fill="#fffdfd"/>
          <path id="Path_8196" data-name="Path 8196" d="M41.755,52.6l-1.334-.776.579-1,1.335.776Z" transform="translate(-11.81 -14.847)" fill="#fffdfd"/>
          <path id="Path_8197" data-name="Path 8197" d="M42.573,51.59l-1.334-.776,1.479.842,1.334.776Z" transform="translate(-12.049 -14.847)" fill="#d9ddfd"/>
          <path id="Path_8198" data-name="Path 8198" d="M35.478,63.594l-1.334-.776a2.128,2.128,0,0,1-.176-.386l1.335.776a2.1,2.1,0,0,0,.176.386" transform="translate(-9.925 -18.241)" fill="#fffdfd"/>
          <path id="Path_8199" data-name="Path 8199" d="M41.154,53.053l-1.334-.775a2.035,2.035,0,0,1,.425-.043l1.334.776a2.038,2.038,0,0,0-.425.042" transform="translate(-11.635 -15.262)" fill="#fffdfd"/>
          <path id="Path_8200" data-name="Path 8200" d="M35.293,59.582l-1.334-.776c.047-.194.105-.39.173-.587l1.334.776c-.067.2-.126.393-.173.587" transform="translate(-9.922 -17.01)" fill="#fffdfd"/>
          <path id="Path_8201" data-name="Path 8201" d="M37.613,55.217l-1.334-.776c.135-.157.277-.307.423-.446l1.334.776c-.145.138-.287.289-.423.446" transform="translate(-10.6 -15.776)" fill="#fffdfd"/>
          <path id="Path_8202" data-name="Path 8202" d="M34.129,60.3l-1.334-.776.824-.476,1.334.776Z" transform="translate(-9.582 -17.253)" fill="#fffdfd"/>
          <path id="Path_8203" data-name="Path 8203" d="M34.136,62.891,32.8,62.115l-.007-2.395,1.334.775Z" transform="translate(-9.582 -17.449)" fill="#fffdfd"/>
          <path id="Path_8204" data-name="Path 8204" d="M38.209,54.381l-1.334-.776,0-.946,1.334.776Z" transform="translate(-10.773 -15.386)" fill="#fffdfd"/>
          <path id="Path_8205" data-name="Path 8205" d="M38.206,52.939l-1.334-.776,2.084-1.2,1.335.776Z" transform="translate(-10.773 -14.889)" fill="#fffdfd"/>
          <path id="Path_8206" data-name="Path 8206" d="M36.789,54.93l-1.334-.776.583.334,1.334.775Z" transform="translate(-10.359 -15.823)" fill="#d9ddfd"/>
          <path id="Path_8207" data-name="Path 8207" d="M34.712,57.474,33.378,56.7l1.47-2.544,1.334.776Z" transform="translate(-9.752 -15.823)" fill="#fffdfd"/>
          <path id="Path_8208" data-name="Path 8208" d="M42.562,56.061l-.822.475c-.05.2-.107.394-.174.589l.583.333L40.679,60l-.583-.333q-.2.236-.423.447l0,.946-2.085,1.2,0-.946a2.271,2.271,0,0,1-.423.041l-.58,1.005-1.479-.841.58-1.005a2.157,2.157,0,0,1-.176-.387l-.824.476-.007-2.395.825-.476c.047-.194.105-.39.173-.587l-.584-.333,1.47-2.544.583.333c.135-.157.277-.307.423-.446l0-.946,2.085-1.2,0,.946a2.089,2.089,0,0,1,.425-.043l.58-1.005,1.479.842-.58,1.005a2.371,2.371,0,0,1,.177.385l.823-.476Zm-3.935,3.075a3.821,3.821,0,0,0,1.733-3c0-1.1-.785-1.549-1.745-.994a3.823,3.823,0,0,0-1.734,3c0,1.1.786,1.548,1.745.994" transform="translate(-10.132 -15.167)" fill="#cfcccc"/>
        </g>
      </g>
    </g>
  </g>
</svg>
