<svg xmlns="http://www.w3.org/2000/svg" width="39.609" height="46.489" viewBox="0 0 39.609 46.489">
  <path id="linux" d="M44.794,48.976c2.457.294,5.207,1.879,7.517,2.163a2.754,2.754,0,0,0,3.034-1.576,30.635,30.635,0,0,1,5.354-.646,22.531,22.531,0,0,1,5.344.568,3.366,3.366,0,0,0,5.716.871c1.3-1.38,4.767-3.112,6.714-4.2s1.605-2.741.372-3.25-2.241-1.3-2.163-2.819A3.428,3.428,0,0,0,75.6,37.573a11.468,11.468,0,0,0,.069-6.078c-.94-2.741-4.042-7.155-6.431-10.473S68.872,13.857,66.7,8.953s-7.811-4.63-10.845-2.535-2.1,7.292-1.958,9.758a14.173,14.173,0,0,1-.215,4.835c-.284.636-2.241,2.966-3.543,4.913s-2.241,6-3.191,7.674a3.82,3.82,0,0,0-.284,3.171,2.341,2.341,0,0,0-1.155,1.3c-.5,1.077-1.507,1.586-3.328,1.938-1.8.372-1.8,1.527-1.37,2.829s0,2.026-.5,3.68S42.328,48.692,44.794,48.976Zm25.487-7.556a4.008,4.008,0,0,0,3.7-.783,5.882,5.882,0,0,0,.959-1.4,1.164,1.164,0,0,1,.509,1.175,3.005,3.005,0,0,0,1.233,2.643c.842.44,2.134,1.067,1.468,1.683s-4.444,2.134-5.569,3.318-2.574,2.134-3.465,1.85-1.683-1.507-1.3-3.318A22.032,22.032,0,0,0,68.49,41.7c-.059-1.126-.284-2.643,0-2.858a.95.95,0,0,1,.724-.117S68.99,40.862,70.282,41.419ZM61.923,11.048a2.529,2.529,0,0,1,2.241,2.741,2.838,2.838,0,0,1-1.243,2.457c-.186-.078-.382-.166-.6-.254a1.573,1.573,0,0,0,.754-1.439,1.4,1.4,0,0,0-1.184-1.546,1.41,1.41,0,0,0-1.175,1.546,1.9,1.9,0,0,0,.206.861c-.392-.157-.734-.294-1.018-.4a3.334,3.334,0,0,1-.235-1.233A2.54,2.54,0,0,1,61.923,11.048Zm-3.073,4.727a29.811,29.811,0,0,1,2.907,1.057c.617.215,1.312.607,1.243,1.008s-.4.411-1.243.92a17.188,17.188,0,0,1-3.24,1.7c-.577.078-.91-.254-1.527-.646-.617-.411-1.781-1.36-1.488-1.86,0,0,.91-.695,1.312-1.057C57.2,16.529,58.223,15.658,58.849,15.776Zm-2.682-4.3c.979,0,1.772,1.165,1.772,2.594a3.685,3.685,0,0,1-.078.744,2.019,2.019,0,0,0-.724.411,3.019,3.019,0,0,0-.313.284,1.872,1.872,0,0,0,.147-1.145c-.137-.773-.656-1.351-1.175-1.272s-.822.793-.7,1.586c.137.793.646,1.37,1.175,1.282l.088-.029a5.785,5.785,0,0,1-.724.626A2.722,2.722,0,0,1,54.4,14.072C54.406,12.634,55.189,11.479,56.168,11.479ZM50.726,30.261c1.008-1.586,1.654-5.06,2.662-6.215s1.8-3.6,1.449-4.688c0,0,2.173,2.594,3.68,2.173,1.517-.44,4.913-2.966,5.422-2.535s4.835,9.964,5.276,13a13.182,13.182,0,0,1-.294,5.354s-1.654-.44-1.869.568a42.775,42.775,0,0,0-.215,4.708,9.675,9.675,0,0,1-5.706,3.612,16.745,16.745,0,0,1-5.207.137L53.975,44.14a1.513,1.513,0,0,0,1.3-1.742c-.215-1.507-4.63-3.6-5.422-5.491S49.708,31.847,50.726,30.261ZM42.142,41.645c.176-.744,2.418-.744,3.289-1.272s1.038-2.026,1.732-2.427,1.958,1.038,2.486,1.85a58.862,58.862,0,0,0,3.289,5.129c.812.871,1.556,2.026,1.331,3.064a3.46,3.46,0,0,1-1.449,1.791c-1.1.333-4.15-.979-5.53-1.556s-4.913-.754-5.373-1.272.225-1.674.411-2.77C42.484,43.074,41.966,42.388,42.142,41.645Z" transform="translate(-40.248 -4.988)" fill="#110202"/>
</svg>
