<svg xmlns="http://www.w3.org/2000/svg" width="41.581" height="48.689" viewBox="0 0 41.581 48.689">
  <g id="apple" transform="translate(-31.478 -7.5)">
    <g id="Group_8923" data-name="Group 8923" transform="translate(51.492 7.5)">
      <g id="Group_8922" data-name="Group 8922" transform="translate(0 0)">
        <path id="Path_8135" data-name="Path 8135" d="M177.058,7.5a11.4,11.4,0,0,0-7.392,4c-1.608,1.962-2.936,4.884-2.42,7.716a9.646,9.646,0,0,0,7.466-3.807A10.808,10.808,0,0,0,177.058,7.5Z" transform="translate(-167.133 -7.5)" fill="#110202"/>
      </g>
    </g>
    <g id="Group_8925" data-name="Group 8925" transform="translate(31.478 18.89)">
      <g id="Group_8924" data-name="Group 8924" transform="translate(0)">
        <path id="Path_8136" data-name="Path 8136" d="M71.671,89.643a12.318,12.318,0,0,0-9.31-4.943c-4.367,0-6.212,2.1-9.251,2.1-3.128,0-5.5-2.08-9.28-2.08-3.7,0-7.657,2.272-10.166,6.138-3.526,5.459-2.921,15.728,2.789,24.462,2.036,3.128,4.766,6.639,8.336,6.684,3.172.03,4.072-2.036,8.366-2.051s5.12,2.08,8.277,2.051c3.571-.03,6.448-3.925,8.484-7.052a35.7,35.7,0,0,0,3.143-5.9C64.825,105.887,63.5,94.157,71.671,89.643Z" transform="translate(-31.478 -84.7)" fill="#110202"/>
      </g>
    </g>
  </g>
</svg>
