<svg xmlns="http://www.w3.org/2000/svg" width="49.017" height="42.971" viewBox="0 0 49.017 42.971">
  <g id="Sourceforge_logo" transform="translate(-0.05 -0.4)">
    <g id="Group_8926" data-name="Group 8926" transform="translate(0.05 0.4)">
      <path id="Path_8137" data-name="Path 8137" d="M52.36,36.662c0-7.992-2.845-11.632-4.352-13.013a.429.429,0,0,0-.711.377c.293,4.519-5.4,5.649-5.4,12.72v.042a7.577,7.577,0,0,0,7.28,7.824,7.577,7.577,0,0,0,7.28-7.824v-.042a11.815,11.815,0,0,0-1.506-5.356c-.167-.293-.586-.167-.544.084,1.381,6.109-2.05,9.875-2.05,5.188Z" transform="translate(-24.389 -13.858)" fill="#878787"/>
      <path id="Path_8138" data-name="Path 8138" d="M19.36,40.066a.772.772,0,0,1-.5-.209L.238,21.237a.763.763,0,0,1,0-1L19.9.567A.877.877,0,0,1,20.364.4h5.649a.66.66,0,0,1,.628.418.678.678,0,0,1-.167.753L8.021,20.065a.935.935,0,0,0,0,1.339l14.6,14.644a.763.763,0,0,1,0,1L19.82,39.9a.877.877,0,0,1-.46.167Zm3.724,3.264a.66.66,0,0,1-.628-.418.678.678,0,0,1,.167-.753L41.117,23.664a.987.987,0,0,0,.293-.669.833.833,0,0,0-.293-.669L26.473,7.68a.763.763,0,0,1,0-1l2.845-2.845a.693.693,0,0,1,.5-.209.638.638,0,0,1,.46.251L48.858,22.492a.707.707,0,0,1,0,1L29.193,43.162a.693.693,0,0,1-.5.209H23.084Z" transform="translate(-0.05 -0.4)" fill="#878787"/>
    </g>
  </g>
</svg>
