<svg xmlns="http://www.w3.org/2000/svg" xmlns:xlink="http://www.w3.org/1999/xlink" width="80" height="80" viewBox="0 0 80 80">
  <defs>
    <clipPath id="clip-path">
      <rect id="Rectangle_3616" data-name="Rectangle 3616" width="52.97" height="71.743" fill="none"/>
    </clipPath>
  </defs>
  <g id="Group_9322" data-name="Group 9322" transform="translate(-153 -1631.5)">
    <rect id="Rectangle_3606" data-name="Rectangle 3606" width="80" height="80" rx="40" transform="translate(153 1631.5)" fill="#f4f4f4"/>
    <g id="Group_8855" data-name="Group 8855" transform="translate(169.369 1634.39)">
      <path id="Path_7970" data-name="Path 7970" d="M2.5,31.212l.107,37.645L50.94,40.952,50.834,3.307Z" transform="translate(-1.235 1.013)" fill="#d65265"/>
      <path id="Path_7971" data-name="Path 7971" d="M40.763,24.841l.107,37.645L39.6,61.75l-.1-37.644Z" transform="translate(-39.499 7.384)" fill="#9b1c2e"/>
      <path id="Path_7972" data-name="Path 7972" d="M52.179,3.478,3.844,31.384l-1.263-.734L50.914,2.744Z" transform="translate(-2.58 0.841)" fill="#ba2a45"/>
      <path id="Path_7973" data-name="Path 7973" d="M45.726,42.025l-1.264-.735-25.29,14.6,1.984,1.153Z" transform="translate(-17.799 12.648)" fill="#ffe0e0"/>
      <path id="Path_7974" data-name="Path 7974" d="M19.53,9.912l-1.264-.735-2.277,6.774,1.264.735Z" transform="translate(12.555 2.811)" fill="#ba2a45"/>
      <path id="Path_7975" data-name="Path 7975" d="M20.858,0l1.264.735L1.36,12.723.094,11.988Z" transform="translate(30.725 0)" fill="#ba2a45"/>
      <path id="Path_7976" data-name="Path 7976" d="M48.452,43.658.107,71.571,0,33.926l25.29-14.6,2.277-6.774L48.329.563Z" transform="translate(4.518 0.173)" fill="#9b1c2e"/>
      <path id="Path_7977" data-name="Path 7977" d="M44.285,15.1l-1.264-.735-25.29,14.6L19,29.7Z" transform="translate(-14.477 4.4)" fill="#ba2a45"/>
      <path id="Path_7978" data-name="Path 7978" d="M38.273,26.275,38.38,63.92l-1.264-.735-.107-37.644Z" transform="translate(-33.755 7.824)" fill="#9b1c2e"/>
      <path id="Path_7979" data-name="Path 7979" d="M41.53,54.52v1.323l-4.521-2.61V51.91Z" transform="translate(-36.904 15.901)" fill="#9b1c2e"/>
      <g id="Group_8854" data-name="Group 8854" transform="translate(0 0.001)">
        <g id="Group_8853" data-name="Group 8853" clip-path="url(#clip-path)">
          <path id="Path_7980" data-name="Path 7980" d="M19.39,27.384l8.447,22.769a1.045,1.045,0,0,0,.884.6,3.3,3.3,0,0,0,2.807-1.041A1.045,1.045,0,0,0,31.8,48.68h.005L23.362,25.91Z" transform="translate(-4.21 7.936)" fill="#110202"/>
          <path id="Path_7981" data-name="Path 7981" d="M26.78,28.125a3.315,3.315,0,0,0,2.811-1.042c.61-.737.341-1.463-.6-1.624A3.316,3.316,0,0,0,26.178,26.5c-.61.735-.34,1.462.6,1.622" transform="translate(-10.718 7.788)" fill="#c99666"/>
          <path id="Path_7982" data-name="Path 7982" d="M27.957,7.206a4.036,4.036,0,0,1,1.217.4c.009-.02.016-.005.016-.005a4.082,4.082,0,0,1,.643-.021,3.908,3.908,0,0,1,.641.063,2.576,2.576,0,0,0-.408-.065Z" transform="translate(-14.024 2.207)" fill="#3b4951"/>
          <path id="Path_7983" data-name="Path 7983" d="M31.334,27.708l2.517.436a.784.784,0,0,0,.223.017,2.877,2.877,0,0,1-.353-.052c-.166-.039-.345-.073-.515-.127-.136-.05-.272-.1-.413-.165a.463.463,0,0,1-.161-.074l-.014.007a5.068,5.068,0,0,1-1.285-.042" transform="translate(-22.036 8.487)" fill="#3b4951"/>
          <path id="Path_7984" data-name="Path 7984" d="M27.957,10.24l.692.111,1.825.325c.138-.169.291-.342.435-.5a6.933,6.933,0,0,1,.883-.862,7.578,7.578,0,0,1,2.287-1.4,4.651,4.651,0,0,1,.648-.191,4.178,4.178,0,0,1,.645-.106c.009-.02.016-.005.016-.005a4.808,4.808,0,0,1,1.284.042,2.735,2.735,0,0,0-.408-.067l-2.11-.37a5.29,5.29,0,0,0-3.628.76,7,7,0,0,0-1.1.776,10.125,10.125,0,0,0-1.472,1.481" transform="translate(-20.222 2.191)" fill="#d7daff"/>
          <path id="Path_7985" data-name="Path 7985" d="M37.47,5.819l-2.516-.435c-2.357-.408-4.982.747-7.311,3.557l2.517.435c2.328-2.81,4.953-3.965,7.31-3.557" transform="translate(-20.61 1.624)" fill="#cfcccc"/>
          <path id="Path_7986" data-name="Path 7986" d="M32.494,28.459a9.406,9.406,0,0,0,1.638,2.884c.005.014.005.014.026.024a5.212,5.212,0,0,0,3.131,1.912l2.517.436a.494.494,0,0,1-.129-.035c-.165-.039-.345-.073-.515-.127a2.74,2.74,0,0,1-.413-.165.485.485,0,0,1-.161-.073l-.014.005a1.9,1.9,0,0,1-.379-.21,5.427,5.427,0,0,1-.507-.33,4.838,4.838,0,0,1-.592-.516.668.668,0,0,1-.082-.086,5.36,5.36,0,0,1-.541-.6,5.725,5.725,0,0,1-.464-.664,6.253,6.253,0,0,1-.41-.7c-.1-.18-.185-.366-.276-.566-.108-.244-.216-.489-.314-.752-2.14-5.723-.694-14.211,3.232-18.943l-1.825-.325-.692-.111c-3.925,4.731-5.371,13.22-3.232,18.943" transform="translate(-27.991 2.915)" fill="#d7daff"/>
          <path id="Path_7987" data-name="Path 7987" d="M38.639,36.115l2.516.435c-2.326-.4-4.39-2.327-5.648-5.686C32.978,24.1,34.678,14.1,39.3,8.523l-2.516-.435c-4.62,5.575-6.321,15.58-3.791,22.34,1.257,3.359,3.322,5.284,5.648,5.686" transform="translate(-29.748 2.477)" fill="#cfcccc"/>
          <path id="Path_7988" data-name="Path 7988" d="M26.264,10.816a16.072,16.072,0,0,1,1.118-1.535,9.992,9.992,0,0,1,.76-.833,9.31,9.31,0,0,1,3.483-2.411,6.284,6.284,0,0,1,.735-.223.8.8,0,0,1,.188-.035,3.383,3.383,0,0,1,.581-.1.5.5,0,0,1,.148-.005,2.121,2.121,0,0,1,.44-.029,1.842,1.842,0,0,1,.442.02.56.56,0,0,1,.189.013c2.468.255,4.679,2.208,6,5.727,2.521,6.751.824,16.77-3.807,22.347-2.368,2.85-5.05,4-7.435,3.511a5.256,5.256,0,0,1-.61-.158,4.179,4.179,0,0,1-.6-.229,6.83,6.83,0,0,1-1.133-.665s.014-.007-.007-.016c-.183-.132-.357-.285-.529-.438a4.671,4.671,0,0,1-.375-.379,1.75,1.75,0,0,1-.226-.251,5.893,5.893,0,0,1-.393-.473,7.731,7.731,0,0,1-.611-.926,4.024,4.024,0,0,1-.422-.779,2.024,2.024,0,0,1-.2-.395c-.02-.009-.02-.009-.025-.024-.124-.289-.253-.592-.372-.914-2.329-6.187-1.1-15.08,2.658-20.8m3.906,24.13a1.8,1.8,0,0,0,.436.005,3.689,3.689,0,0,0,.46-.021,1.123,1.123,0,0,0,.231-.052,3.68,3.68,0,0,0,.4-.082,7,7,0,0,0,2.833-1.552,11.9,11.9,0,0,0,1.317-1.359A13.945,13.945,0,0,0,37.2,29.946c.206-.344.4-.717.583-1.084s.362-.737.517-1.127a9.032,9.032,0,0,0,.342-.879c.106-.257.191-.523.277-.788.121-.346.223-.7.311-1.052a19.453,19.453,0,0,0,.432-1.9,20.353,20.353,0,0,0,.358-2.907c.026-.427.037-.848.042-1.284a7.224,7.224,0,0,0-.026-.793,6.3,6.3,0,0,0-.031-.758c-.051-.632-.131-1.254-.235-1.85-.038-.238-.09-.469-.137-.685a4.483,4.483,0,0,0-.1-.462c-.044-.167-.09-.334-.136-.5-.1-.328-.205-.643-.319-.951-.1-.264-.205-.508-.314-.752-.09-.2-.176-.385-.27-.551a6.948,6.948,0,0,0-.415-.715,6.53,6.53,0,0,0-.464-.664,5.362,5.362,0,0,0-.541-.6.163.163,0,0,0-.082-.086,5.189,5.189,0,0,0-1.072-.822c-.007-.014-.012-.03-.04-.018a1.753,1.753,0,0,0-.3-.174,3.948,3.948,0,0,0-.459-.2,4.53,4.53,0,0,0-.835-.225,2.752,2.752,0,0,0-.409-.065,1.374,1.374,0,0,0-.233,0A2.555,2.555,0,0,0,33,8.082s-.005-.014-.014.005a2.918,2.918,0,0,0-.647.106,4.7,4.7,0,0,0-.648.191,7.631,7.631,0,0,0-2.287,1.4,7.122,7.122,0,0,0-.883.863c-.144.153-.3.327-.434.5-3.925,4.73-5.371,13.22-3.232,18.943.1.264.205.508.312.752.091.2.178.385.277.566a6.171,6.171,0,0,0,.41.7,6.528,6.528,0,0,0,.464.664,7.928,7.928,0,0,0,.541.6.589.589,0,0,0,.082.086,4.742,4.742,0,0,0,.592.516,5.506,5.506,0,0,0,.507.329c.125.071.252.141.379.21l.014-.005a.463.463,0,0,0,.161.074c.141.064.277.115.413.165.17.054.349.088.515.127a3.488,3.488,0,0,0,.353.052,1.006,1.006,0,0,0,.294.025" transform="translate(-17.837 1.727)" fill="#878787"/>
          <path id="Path_7989" data-name="Path 7989" d="M23.533,33.936a.488.488,0,0,0,.161.074c.141.064.277.114.413.165.17.054.349.088.515.125a3.162,3.162,0,0,0,.353.054.855.855,0,0,0,.294.025,1.872,1.872,0,0,0,.436.005,3.69,3.69,0,0,0,.46-.021,1.123,1.123,0,0,0,.231-.052,3.68,3.68,0,0,0,.4-.082,7,7,0,0,0,2.833-1.553,11.882,11.882,0,0,0,1.317-1.357A13.945,13.945,0,0,0,32.3,29.38c.206-.344.4-.717.583-1.086s.362-.735.517-1.127a8.9,8.9,0,0,0,.342-.879c.1-.27.191-.521.277-.786.121-.346.223-.7.311-1.052.172-.615.32-1.255.432-1.9a20.351,20.351,0,0,0,.358-2.907c.026-.427.037-.849.042-1.285a7.185,7.185,0,0,0-.026-.792,6.3,6.3,0,0,0-.031-.758c-.051-.632-.131-1.254-.235-1.851-.031-.222-.085-.453-.137-.685a4.535,4.535,0,0,0-.1-.461c-.044-.167-.09-.334-.136-.5-.1-.329-.205-.643-.319-.951-.1-.264-.205-.508-.314-.752-.09-.2-.176-.385-.27-.551a6.811,6.811,0,0,0-.415-.715c-.152-.229-.3-.456-.464-.664a7.931,7.931,0,0,0-.541-.6.165.165,0,0,0-.082-.088,5.684,5.684,0,0,0-1.072-.822c-.007-.014-.012-.029-.04-.018a1.837,1.837,0,0,0-.3-.172,3.948,3.948,0,0,0-.459-.2,4.53,4.53,0,0,0-.835-.225,3.908,3.908,0,0,0-.641-.063,3.948,3.948,0,0,0-.644.022,7.61,7.61,0,0,1,3.558,4.41c1.611,4.3,1.191,10.151-.759,14.8a16.915,16.915,0,0,1-2.468,4.157,7.642,7.642,0,0,1-4.9,3.054" transform="translate(-12.935 2.294)" fill="#fff"/>
          <path id="Path_7990" data-name="Path 7990" d="M26.96,8.832a5.277,5.277,0,0,0-1.074-.822,5.679,5.679,0,0,1,1.074.822" transform="translate(-7.804 2.453)" fill="#d7daff"/>
          <path id="Path_7991" data-name="Path 7991" d="M27.957,7.494a3.908,3.908,0,0,1,.641.063,2.592,2.592,0,0,0-.409-.065,1.148,1.148,0,0,0-.233,0" transform="translate(-12.148 2.293)" fill="#d7daff"/>
          <path id="Path_7992" data-name="Path 7992" d="M26.447,29.511c.1.264.205.508.312.752.091.2.178.387.277.566a6.058,6.058,0,0,0,.41.7,5.725,5.725,0,0,0,.464.664,5.362,5.362,0,0,0,.541.6.762.762,0,0,0,.082.086,4.84,4.84,0,0,0,.592.515,5.261,5.261,0,0,0,.507.33l.379.21.014-.005a7.642,7.642,0,0,0,4.9-3.054,16.956,16.956,0,0,0,2.468-4.157c1.95-4.65,2.37-10.5.759-14.8a7.618,7.618,0,0,0-3.558-4.411s-.005-.014-.014.005a4.363,4.363,0,0,0-.647.107,4.7,4.7,0,0,0-.648.189A7.61,7.61,0,0,0,31,9.211a7.2,7.2,0,0,0-.883.862c-.144.153-.3.327-.434.5-3.925,4.731-5.371,13.22-3.232,18.943" transform="translate(-19.427 2.298)" fill="#cfcccc" opacity="0.509"/>
          <path id="Path_7993" data-name="Path 7993" d="M3.978,8.548c0,.694.487.975,1.088.628A2.407,2.407,0,0,0,6.154,7.291c0-.694-.487-.975-1.088-.628A2.407,2.407,0,0,0,3.978,8.548" transform="translate(41.619 1.995)" fill="#f4f4f4"/>
          <path id="Path_7994" data-name="Path 7994" d="M6.726,10.135c0,.694.487.975,1.088.628A2.407,2.407,0,0,0,8.9,8.878c0-.694-.487-.975-1.088-.628a2.407,2.407,0,0,0-1.088,1.885" transform="translate(35.282 2.481)" fill="#f4f4f4"/>
          <path id="Path_7995" data-name="Path 7995" d="M9.475,11.722c0,.694.487.975,1.088.628a2.407,2.407,0,0,0,1.088-1.885c0-.694-.487-.975-1.088-.628a2.407,2.407,0,0,0-1.088,1.885" transform="translate(28.942 2.967)" fill="#f4f4f4"/>
        </g>
      </g>
    </g>
  </g>
</svg>
