<svg xmlns="http://www.w3.org/2000/svg" width="47.022" height="47.022" viewBox="0 0 47.022 47.022">
  <path id="Path_8143" data-name="Path 8143" d="M23.011,0A23.011,23.011,0,1,0,46.022,23.011,23.037,23.037,0,0,0,23.011,0ZM41.35,32.452H33.292a43.153,43.153,0,0,0,.953-8.26h9.38A19.951,19.951,0,0,1,41.35,32.452ZM2.4,24.191h9.38a43.138,43.138,0,0,0,.953,8.26H4.672A19.949,19.949,0,0,1,2.4,24.191ZM4.623,13.571H12.71a45.569,45.569,0,0,0-.936,8.26H2.392A20.971,20.971,0,0,1,4.623,13.571Zm19.568-2.36V2.575c1.77.618,3.489,2.521,4.849,5.47a30.811,30.811,0,0,1,1.228,3.165H24.191Zm6.707,2.36a43.177,43.177,0,0,1,.989,8.26h-7.7v-8.26ZM21.831,2.55v8.66H15.754a30.649,30.649,0,0,1,1.189-3.165C18.323,5.053,20.061,3.138,21.831,2.55Zm0,11.02v8.26h-7.7a43.177,43.177,0,0,1,.989-8.26ZM14.137,24.191h7.694v8.26h-6.7A40.774,40.774,0,0,1,14.137,24.191Zm7.694,10.621V43.47c-2.242-.775-4.585-3.82-6.064-8.658Zm2.36,8.632V34.812h6.064C28.793,39.532,26.551,42.626,24.191,43.444Zm0-10.992v-8.26h7.694a40.775,40.775,0,0,1-.994,8.26ZM34.248,21.831a45.56,45.56,0,0,0-.936-8.26H41.4a20.971,20.971,0,0,1,2.231,8.26Zm5.733-10.621H32.728A32.461,32.461,0,0,0,31.2,7.057,14.424,14.424,0,0,0,28.64,3.1,21.233,21.233,0,0,1,39.981,11.211ZM17.462,3.095a13.6,13.6,0,0,0-2.643,3.95,32.62,32.62,0,0,0-1.525,4.166H6.041A20.727,20.727,0,0,1,17.462,3.095ZM6.106,34.812h7.215a26.1,26.1,0,0,0,1.5,4.107,14.212,14.212,0,0,0,2.6,3.939A20.5,20.5,0,0,1,6.106,34.812Zm22.621,8.022A15.608,15.608,0,0,0,31.2,38.907a25.943,25.943,0,0,0,1.5-4.1h7.215A20.346,20.346,0,0,1,28.727,42.834Z" transform="translate(0.5 0.5)" fill="#f4f4f4" stroke="#f4f4f4" stroke-width="1"/>
</svg>
