<svg xmlns="http://www.w3.org/2000/svg" xmlns:xlink="http://www.w3.org/1999/xlink" width="90.402" height="112.359" viewBox="0 0 90.402 112.359">
  <defs>
    <clipPath id="clip-path">
      <rect id="Rectangle_3627" data-name="Rectangle 3627" width="56.748" height="95.263" fill="none"/>
    </clipPath>
  </defs>
  <g id="Group_9215" data-name="Group 9215" transform="translate(-896.417 -1691.404)">
    <g id="Group_8896" data-name="Group 8896" transform="translate(918.223 1708.5)">
      <g id="Group_8895" data-name="Group 8895" transform="translate(0 0)" clip-path="url(#clip-path)">
        <path id="Path_8090" data-name="Path 8090" d="M20.262,34.7c7.248-4.182,13.8-11.414,18.465-19.683l8.958,5.206c-4.665,8.269-11.219,15.5-18.465,19.683-7.137,4.12-13.607,4.5-18.286,1.778l-8.958-5.2C6.658,39.2,13.128,38.82,20.262,34.7" transform="translate(3.724 25.552)" fill="#9b1c2e"/>
        <path id="Path_8091" data-name="Path 8091" d="M14.3,41.987c8.82-5.092,15.952-17.438,15.923-27.582-.014-5.03-1.791-8.572-4.657-10.236l8.958,5.2c2.866,1.667,4.641,5.206,4.657,10.239.03,10.144-7.1,22.49-15.925,27.582-4.441,2.564-8.464,2.8-11.368,1.116L2.928,43.1c2.9,1.688,6.927,1.448,11.368-1.116" transform="translate(9.661 7.094)" fill="#9b1c2e"/>
        <path id="Path_8092" data-name="Path 8092" d="M1.975,37.438a56.3,56.3,0,0,0,19.67,29C25.132,58.92,34.863,37.1,40.155,16.944c-4.665,8.269-11.222,15.5-18.467,19.683-7.894,4.557-14.972,4.536-19.713.81" transform="translate(11.257 28.83)" fill="#ffe0e0"/>
        <path id="Path_8093" data-name="Path 8093" d="M17.782,27.809a56.3,56.3,0,0,0,19.67,29l-8.958-5.2a56.294,56.294,0,0,1-19.667-29Z" transform="translate(-4.551 38.459)" fill="#9b1c2e"/>
        <path id="Path_8094" data-name="Path 8094" d="M16.5,7.843c2.891-1.67,5.511-1.824,7.4-.721l8.955,5.2c-1.894-1.1-4.514-.946-7.4.724-5.751,3.32-10.4,11.376-10.382,17.984.008,3.28,1.167,5.587,3.036,6.673L9.153,32.5c-1.869-1.089-3.028-3.4-3.039-6.673C6.1,19.219,10.747,11.163,16.5,7.843" transform="translate(7.372 10.919)" fill="#9b1c2e"/>
        <path id="Path_8095" data-name="Path 8095" d="M15.374,9.77C9.622,13.09,4.97,21.146,4.989,27.756s4.7,9.269,10.452,5.946,10.4-11.371,10.376-17.97-4.7-9.28-10.444-5.962" transform="translate(17.452 14.198)" fill="#d65265"/>
        <path id="Path_8096" data-name="Path 8096" d="M23.825,5.2C10.622,12.825-.043,31.293,0,46.451S10.779,67.728,23.981,60.107c12.77-7.372,23.187-24.937,23.787-39.815.016-.475.022-.948.022-1.432C47.746,3.7,37.019-2.414,23.825,5.2m.13,45.8c-8.828,5.1-16,1.01-16.028-9.134S15.023,19.4,23.852,14.3s16-1.01,16.025,9.123-7.1,22.49-15.923,27.582" transform="translate(8.958 3.279)" fill="#ffe0e0"/>
        <path id="Path_8097" data-name="Path 8097" d="M26.4,3.277c6.64-3.833,12.654-4.19,17-1.664l8.955,5.2C48.013,4.293,42,4.65,35.359,8.483,22.16,16.1,11.491,34.571,11.535,49.729c.022,7.534,2.68,12.832,6.97,15.326L9.546,59.849C5.259,57.356,2.6,52.058,2.579,44.524,2.536,29.365,13.2,10.9,26.4,3.277" transform="translate(-2.576 0)" fill="#9b1c2e"/>
      </g>
    </g>
    <path id="Path_8098" data-name="Path 8098" d="M-7722.657-11273.066l1.86-5.789,1.922,5.789,4.448,2.327-4.448,1.675-1.922,5.274-1.86-5.274-3.991-1.675Z" transform="translate(8701.247 13021.355)" fill="#ffe0e0"/>
    <path id="Path_8101" data-name="Path 8101" d="M-7723.3-11274l1.559-4.852,1.61,4.852,3.728,1.951-3.728,1.4-1.61,4.42-1.559-4.42-3.345-1.4Z" transform="translate(8647.757 12974.729)" fill="#ffe0e0"/>
    <path id="Path_8102" data-name="Path 8102" d="M-7723.3-11274l1.559-4.852,1.61,4.852,3.728,1.951-3.728,1.4-1.61,4.42-1.559-4.42-3.345-1.4Z" transform="translate(8635.438 13051.543)" fill="#ffe0e0"/>
    <path id="Path_8099" data-name="Path 8099" d="M-7720.936-11270.568l2.662-8.288,2.751,8.288,6.367,3.331-6.367,2.4-2.751,7.549-2.662-7.549-5.713-2.4Z" transform="translate(8623.065 13007.291)" fill="#ba2a45"/>
    <path id="Path_8100" data-name="Path 8100" d="M-7720.936-11270.568l2.662-8.288,2.751,8.288,6.367,3.331-6.367,2.4-2.751,7.549-2.662-7.549-5.713-2.4Z" transform="translate(8692.501 12970.261)" fill="#ba2a45"/>
  </g>
</svg>
