<svg id="Group_9113" data-name="Group 9113" xmlns="http://www.w3.org/2000/svg" xmlns:xlink="http://www.w3.org/1999/xlink" width="114.956" height="75.258" viewBox="0 0 114.956 75.258">
  <defs>
    <clipPath id="clip-path">
      <rect id="Rectangle_3800" data-name="Rectangle 3800" width="114.956" height="75.258" fill="none"/>
    </clipPath>
  </defs>
  <path id="Path_8738" data-name="Path 8738" d="M10.029,9.806l.01,3.359L82.847,24.477l-.008-3.359Z" transform="translate(11.818 10.034)" fill="#ba2a45"/>
  <path id="Path_8739" data-name="Path 8739" d="M8.063,8.973l21.115,46.2L87.759,21.349Zm2.9,1.685L83.773,21.971,30.267,52.862Z" transform="translate(10.883 9.182)" fill="#d65265"/>
  <path id="Path_8740" data-name="Path 8740" d="M37.011,8.973l.01,3.359,21.115,46.2-.008-3.357Z" transform="translate(-18.065 9.182)" fill="#ba2a45"/>
  <path id="Path_8741" data-name="Path 8741" d="M8.057,48.911l.01,3.359L66.648,18.446l-.01-3.357Z" transform="translate(32.005 15.441)" fill="#ba2a45"/>
  <g id="Group_9112" data-name="Group 9112">
    <g id="Group_9111" data-name="Group 9111" clip-path="url(#clip-path)">
      <path id="Path_8742" data-name="Path 8742" d="M35.221,7.4v6.74c0,3.227,2.137,6.454,6.4,8.919,8.536,4.929,22.358,4.929,30.894,0,4.275-2.464,6.4-5.691,6.4-8.919V7.4Z" transform="translate(-35.221 7.567)" fill="#9b1c2e"/>
      <path id="Path_8743" data-name="Path 8743" d="M35.221,6.234v6.74c0,3.227,2.137,6.454,6.4,8.919,8.536,4.929,22.358,4.929,30.894,0,4.275-2.464,6.4-5.691,6.4-8.919V6.234Z" transform="translate(-35.221 6.379)" fill="#ba2a45"/>
      <path id="Path_8744" data-name="Path 8744" d="M41.62,21.533c8.532,4.927,22.364,4.927,30.9,0s8.532-12.913,0-17.837-22.364-4.927-30.9,0-8.532,12.913,0,17.837" transform="translate(-35.223 0.001)" fill="#69c3fa"/>
      <path id="Path_8745" data-name="Path 8745" d="M42.185,19.566c7.436,4.293,19.488,4.293,26.924,0s7.436-11.251,0-15.545-19.488-4.291-26.924,0-7.436,11.251,0,15.545" transform="translate(-33.8 0.821)" fill="#69c3fa"/>
      <path id="Path_8746" data-name="Path 8746" d="M41.62,21.532c8.532,4.925,22.364,4.925,30.9,0s8.532-12.913,0-17.837-22.364-4.927-30.9,0-8.532,12.911,0,17.837" transform="translate(-35.223 0)" fill="#d65265"/>
      <path id="Path_8747" data-name="Path 8747" d="M42.185,19.564c7.436,4.291,19.488,4.291,26.924,0s7.436-11.251,0-15.543-19.488-4.293-26.924,0-7.436,11.249,0,15.543" transform="translate(-33.8 0.82)" fill="#ba2a45"/>
      <path id="Path_8748" data-name="Path 8748" d="M42.657,17.921c6.517,3.763,17.085,3.763,23.6,0s6.517-9.866,0-13.627-17.085-3.763-23.6,0-6.517,9.863,0,13.627" transform="translate(-32.611 1.506)" fill="#ffe0e0"/>
      <path id="Path_8750" data-name="Path 8750" d="M25.2,27.63v6.74c0,3.227,2.137,6.454,6.4,8.919,8.536,4.929,22.358,4.929,30.894,0,4.275-2.464,6.4-5.691,6.4-8.919V27.63Z" transform="translate(-4.927 28.273)" fill="#9b1c2e"/>
      <path id="Path_8751" data-name="Path 8751" d="M25.2,26.469v6.74c0,3.227,2.137,6.454,6.4,8.919,8.536,4.929,22.358,4.929,30.894,0,4.275-2.464,6.4-5.691,6.4-8.919v-6.74Z" transform="translate(-4.927 27.085)" fill="#ba2a45"/>
      <path id="Path_8752" data-name="Path 8752" d="M31.6,41.768c8.532,4.925,22.364,4.925,30.9,0s8.532-12.913,0-17.837-22.364-4.927-30.9,0-8.532,12.911,0,17.837" transform="translate(-4.926 20.707)" fill="#69c3fa"/>
      <path id="Path_8753" data-name="Path 8753" d="M32.164,39.8c7.436,4.291,19.488,4.291,26.924,0s7.436-11.251,0-15.545-19.488-4.291-26.924,0-7.436,11.251,0,15.545" transform="translate(-3.504 21.527)" fill="#69c3fa"/>
      <path id="Path_8754" data-name="Path 8754" d="M31.6,41.767c8.532,4.927,22.364,4.925,30.9,0s8.532-12.913,0-17.837S40.132,19,31.6,23.93s-8.532,12.913,0,17.837" transform="translate(-4.926 20.706)" fill="#d65265"/>
      <path id="Path_8755" data-name="Path 8755" d="M32.164,39.8c7.436,4.293,19.488,4.291,26.924,0s7.436-11.251,0-15.545-19.488-4.291-26.924,0-7.436,11.251,0,15.545" transform="translate(-3.504 21.527)" fill="#ba2a45"/>
      <path id="Path_8756" data-name="Path 8756" d="M32.637,38.156c6.517,3.763,17.085,3.763,23.6,0s6.517-9.866,0-13.627-17.085-3.763-23.6,0-6.517,9.863,0,13.627" transform="translate(-2.318 22.212)" fill="#ffe0e0"/>
      <path id="Path_8758" data-name="Path 8758" d="M0,12.94v6.74C0,22.907,2.14,26.134,6.4,28.6c8.536,4.929,22.358,4.929,30.894,0,4.275-2.464,6.4-5.691,6.4-8.919V12.94Z" transform="translate(71.26 13.241)" fill="#9b1c2e"/>
      <path id="Path_8759" data-name="Path 8759" d="M0,11.779v6.74c0,3.227,2.139,6.454,6.4,8.919,8.536,4.929,22.358,4.929,30.894,0,4.275-2.464,6.4-5.691,6.4-8.919v-6.74Z" transform="translate(71.26 12.053)" fill="#ba2a45"/>
      <path id="Path_8760" data-name="Path 8760" d="M6.4,27.078C14.932,32,28.763,32,37.3,27.078s8.532-12.913,0-17.837-22.364-4.927-30.9,0-8.532,12.913,0,17.837" transform="translate(71.261 5.675)" fill="#69c3fa"/>
      <path id="Path_8761" data-name="Path 8761" d="M6.963,25.111c7.436,4.293,19.488,4.291,26.924,0s7.436-11.251,0-15.545S14.4,5.274,6.963,9.566s-7.434,11.251,0,15.545" transform="translate(72.684 6.495)" fill="#69c3fa"/>
      <path id="Path_8762" data-name="Path 8762" d="M6.4,27.077C14.932,32,28.763,32,37.3,27.077s8.532-12.913,0-17.837-22.364-4.927-30.9,0-8.532,12.913,0,17.837" transform="translate(71.261 5.674)" fill="#d65265"/>
      <path id="Path_8763" data-name="Path 8763" d="M6.963,25.109c7.436,4.3,19.488,4.3,26.924,0s7.436-11.251,0-15.543S14.4,5.273,6.963,9.567s-7.434,11.253,0,15.543" transform="translate(72.684 6.494)" fill="#ba2a45"/>
      <path id="Path_8764" data-name="Path 8764" d="M7.436,23.466c6.517,3.763,17.085,3.763,23.6,0s6.517-9.863,0-13.627-17.085-3.763-23.6,0S.92,19.7,7.436,23.466" transform="translate(73.871 7.18)" fill="#ffe0e0"/>
    </g>
  </g>
</svg>
