<svg xmlns="http://www.w3.org/2000/svg" width="30" height="30" viewBox="0 0 30 30">
  <g id="Group_9231" data-name="Group 9231" transform="translate(-63.993 -3689.993)">
    <rect id="Rectangle_4392" data-name="Rectangle 4392" width="30" height="30" rx="15" transform="translate(63.993 3689.993)" fill="#f4f4f4"/>
    <g id="Group_9220" data-name="Group 9220" transform="translate(71.543 3691.38)">
      <path id="Path_7847" data-name="Path 7847" d="M18.164,17.245l1.8,1.046,5.456-3.151-1.8-1.046Z" transform="translate(-10.335 -8.02)" fill="#d65265"/>
      <path id="Path_7848" data-name="Path 7848" d="M6.061,44.748l1.8,1.046,1.98-12.115-1.8-1.046Z" transform="translate(-3.449 -18.568)" fill="#d65265"/>
      <path id="Path_7849" data-name="Path 7849" d="M16.955,0,9.713,4.182l1.8,1.046,7.242-4.182Z" transform="translate(-5.527 0)" fill="#d65265"/>
      <path id="Path_7850" data-name="Path 7850" d="M0,22.236l1.8,1.046L5.986,10.747,4.186,9.7Z" transform="translate(0 -5.52)" fill="#d65265"/>
      <path id="Path_7851" data-name="Path 7851" d="M8.362,6.608,4.176,19.143l4.592-2.651L6.789,28.607,17.461,8.5,12,11.652l3.6-9.225Z" transform="translate(-2.376 -1.381)" fill="#9b1c2e"/>
    </g>
  </g>
</svg>
