<svg xmlns="http://www.w3.org/2000/svg" xmlns:xlink="http://www.w3.org/1999/xlink" width="125.939" height="81.446" viewBox="0 0 125.939 81.446">
  <defs>
    <clipPath id="clip-path">
      <rect id="Rectangle_3801" data-name="Rectangle 3801" width="125.938" height="81.445" fill="none"/>
    </clipPath>
  </defs>
  <g id="Group_9116" data-name="Group 9116" transform="translate(0 0)">
    <path id="Path_8765" data-name="Path 8765" d="M20.657,54.781V81.445L115.542,0Z" transform="translate(10.397 0)" fill="#9b1c2e"/>
    <path id="Path_8766" data-name="Path 8766" d="M125.938,0,0,36.849l31.056,17.93Z" transform="translate(0 0)" fill="#d65265"/>
    <path id="Path_8767" data-name="Path 8767" d="M117.923,0l-102,50.671,7.117,4.109Z" transform="translate(8.015 0)" fill="#ba2a45"/>
    <g id="Group_9115" data-name="Group 9115" transform="translate(0 0)">
      <g id="Group_9114" data-name="Group 9114" clip-path="url(#clip-path)">
        <path id="Path_8768" data-name="Path 8768" d="M56.449,14.621l-1.257,2.208L40.956,41.5,39.7,43.705l-4.247-2.446v-.035a4.1,4.1,0,0,1-1.019-.68,7.974,7.974,0,0,1-2.65-5.708c0-.475-.033-.917-.033-1.392s.033-.986.033-1.428a24.066,24.066,0,0,1,2.65-8.766,23.653,23.653,0,0,1,1.7-2.956,24.373,24.373,0,0,1,6.252-6.627c.374-.272.815-.544,1.224-.782s.815-.44,1.222-.645a8.052,8.052,0,0,1,6.287-.577,3.231,3.231,0,0,1,.713.305V12a.252.252,0,0,1,.17.068Z" transform="translate(15.979 5.668)" fill="#ffe0e0"/>
        <path id="Path_8769" data-name="Path 8769" d="M58.478,21.442c0,.475-.029.968-.059,1.461A24.173,24.173,0,0,1,55.8,31.653a28.545,28.545,0,0,1-1.706,2.956,24.169,24.169,0,0,1-6.269,6.643c-.412.271-.824.543-1.236.782s-.824.44-1.206.628a8.1,8.1,0,0,1-6.269.594,4.944,4.944,0,0,1-1.706-.985,8.1,8.1,0,0,1-2.619-5.725c-.029-.46-.059-.919-.059-1.394s.03-.968.059-1.427a24.164,24.164,0,0,1,2.619-8.749,25.467,25.467,0,0,1,1.706-2.956,24.148,24.148,0,0,1,6.269-6.643c.382-.256.794-.526,1.206-.765s.824-.442,1.236-.645a8.11,8.11,0,0,1,6.269-.6,5.537,5.537,0,0,1,1.706.986,8.1,8.1,0,0,1,2.619,5.725c.03.425.059.884.059,1.359" transform="translate(17.481 6.534)" fill="#9b1c2e"/>
        <path id="Path_8770" data-name="Path 8770" d="M58.478,19.065c0,.475-.029.968-.059,1.461L34.791,34.169c-.029-.46-.059-.919-.059-1.394s.03-.968.059-1.427L58.42,17.706c.03.425.059.884.059,1.359" transform="translate(17.481 8.911)" fill="#ffe0e0"/>
        <path id="Path_8771" data-name="Path 8771" d="M54.9,14.226,48.637,25.082,47.43,27.206l-.5.831-.737,1.275-.471.849-1.236,2.108L38.221,43.125a4.94,4.94,0,0,1-1.708-.986l6.269-10.855,1.236-2.106.471-.848.735-1.276.5-.833L46.931,24.1,53.2,13.243a5.529,5.529,0,0,1,1.706.983" transform="translate(18.378 6.665)" fill="#ffe0e0"/>
        <path id="Path_8772" data-name="Path 8772" d="M44.261,13.638V40.922c-.413.272-.824.543-1.237.782s-.824.44-1.206.628V15.048c.382-.256.8-.526,1.206-.765s.824-.44,1.237-.645" transform="translate(21.048 6.864)" fill="#ffe0e0"/>
        <path id="Path_8773" data-name="Path 8773" d="M54.9,28.627A28.546,28.546,0,0,1,53.2,31.582L42.782,25.569l-6.269-3.618a25.267,25.267,0,0,1,1.708-2.956l7.5,4.331.471.272.737.424.5.29,1.207.7Z" transform="translate(18.378 9.56)" fill="#ffe0e0"/>
        <path id="Path_8774" data-name="Path 8774" d="M54.568,21.885c0,5.705-4,12.643-8.946,15.495s-8.946.541-8.946-5.164,4-12.643,8.946-15.5,8.946-.54,8.946,5.165" transform="translate(18.459 7.8)" fill="#ffe0e0"/>
        <path id="Path_8775" data-name="Path 8775" d="M52.593,22.1a16.507,16.507,0,0,1-7.467,12.935c-4.125,2.38-7.468.449-7.468-4.312a16.5,16.5,0,0,1,7.468-12.935c4.124-2.38,7.467-.451,7.467,4.312" transform="translate(18.954 8.44)" fill="#9b1c2e"/>
        <path id="Path_8776" data-name="Path 8776" d="M45.275,11.835a.258.258,0,0,0-.17-.068v-.035Z" transform="translate(22.702 5.905)" fill="#f6d13a"/>
        <path id="Path_8777" data-name="Path 8777" d="M115.539,0,20.659,54.78,51.714,72.71Z" transform="translate(10.398 0)" fill="#d65265"/>
        <path id="Path_8778" data-name="Path 8778" d="M115.539,0,20.659,54.78l7.117,4.109Z" transform="translate(10.398 0)" fill="#ba2a45"/>
      </g>
    </g>
  </g>
</svg>
