<svg xmlns="http://www.w3.org/2000/svg" xmlns:xlink="http://www.w3.org/1999/xlink" width="91.84" height="92.507" viewBox="0 0 91.84 92.507">
  <defs>
    <clipPath id="clip-path">
      <rect id="Rectangle_3618" data-name="Rectangle 3618" width="91.84" height="84.507" fill="none"/>
    </clipPath>
    <clipPath id="clip-path-2">
      <path id="Path_8001" data-name="Path 8001" d="M44.435,39.115l-1.2.7a.339.339,0,0,0,.125-.134l1.2-.7a.324.324,0,0,1-.124.134" transform="translate(-43.232 -38.981)" fill="none"/>
    </clipPath>
    <clipPath id="clip-path-4">
      <path id="Path_8005" data-name="Path 8005" d="M42.6,36.391l-1.2.7a1.6,1.6,0,0,1,.616-.678l1.2-.7a1.6,1.6,0,0,0-.618.678" transform="translate(-41.395 -35.713)" fill="none"/>
    </clipPath>
    <clipPath id="clip-path-6">
      <path id="Path_8017" data-name="Path 8017" d="M44.371,35.272l-1.2.7a3.026,3.026,0,0,0-3.04-.292l1.2-.7a2.226,2.226,0,0,1,1.127-.288,3.887,3.887,0,0,1,1.911.582" transform="translate(-40.13 -34.69)" fill="#878787"/>
    </clipPath>
    <clipPath id="clip-path-8">
      <path id="Path_8035" data-name="Path 8035" d="M26.16,44.975a.428.428,0,0,1-.178.393l-1.2.7a.426.426,0,0,0,.177-.393,1.306,1.306,0,0,0-.607-1.038l1.2-.7a1.32,1.32,0,0,1,.607,1.04" transform="translate(-24.35 -43.935)" fill="none"/>
    </clipPath>
    <clipPath id="clip-path-10">
      <path id="Path_8039" data-name="Path 8039" d="M19.967,26.4l.01-.007-.01.007m1.2-.7-1.192.691a.311.311,0,0,0,.113-.125l1.2-.7a.358.358,0,0,1-.125.132" transform="translate(-19.967 -25.574)" fill="none"/>
    </clipPath>
    <clipPath id="clip-path-12">
      <path id="Path_8043" data-name="Path 8043" d="M19.334,22.983l-1.2.7A1.591,1.591,0,0,1,18.747,23l1.2-.7a1.6,1.6,0,0,0-.616.678" transform="translate(-18.131 -22.305)" fill="none"/>
    </clipPath>
    <clipPath id="clip-path-14">
      <path id="Path_8055" data-name="Path 8055" d="M21.107,21.863l-1.2.7a3.023,3.023,0,0,0-3.038-.292l1.2-.7a2.19,2.19,0,0,1,1.125-.288,3.889,3.889,0,0,1,1.913.58" transform="translate(-16.866 -21.283)" fill="none"/>
    </clipPath>
    <clipPath id="clip-path-16">
      <path id="Path_8073" data-name="Path 8073" d="M2.9,31.568a.423.423,0,0,1-.178.391l-1.2.7a.433.433,0,0,0,.18-.393,1.328,1.328,0,0,0-.609-1.041l1.2-.7a1.308,1.308,0,0,1,.609,1.04" transform="translate(-1.086 -30.528)" fill="none"/>
    </clipPath>
    <clipPath id="clip-path-17">
      <rect id="Rectangle_3626" data-name="Rectangle 3626" width="91.84" height="92.507" transform="translate(0 -8)" fill="none"/>
    </clipPath>
  </defs>
  <g id="Group_8894" data-name="Group 8894" transform="translate(0 8)">
    <g id="Group_8861" data-name="Group 8861" transform="translate(0 0)">
      <g id="Group_8860" data-name="Group 8860" clip-path="url(#clip-path)">
        <path id="Path_7999" data-name="Path 7999" d="M43.231,39.813l1.2-.7a.339.339,0,0,0,.125-.134l-1.2.7a.345.345,0,0,1-.125.132" transform="translate(-26.881 27.89)" fill="#5d7280"/>
      </g>
    </g>
    <g id="Group_8863" data-name="Group 8863" transform="translate(16.35 66.871)">
      <g id="Group_8862" data-name="Group 8862" transform="translate(0)" clip-path="url(#clip-path-2)">
        <path id="Path_8000" data-name="Path 8000" d="M43.231,39.813l1.2-.7a.339.339,0,0,0,.125-.134l-1.2.7a.345.345,0,0,1-.125.132" transform="translate(-43.231 -38.981)" fill="#5d7280"/>
      </g>
    </g>
    <path id="Path_8002" data-name="Path 8002" d="M41.754,41.736l1.2-.7,2.534-4.93-1.2.7Z" transform="translate(-25.278 25.834)" fill="#878787"/>
    <g id="Group_8865" data-name="Group 8865" transform="translate(0 0)">
      <g id="Group_8864" data-name="Group 8864" clip-path="url(#clip-path)">
        <path id="Path_8003" data-name="Path 8003" d="M43.213,35.713l-1.2.7a1.6,1.6,0,0,0-.616.678l1.2-.7a1.575,1.575,0,0,1,.616-.678" transform="translate(-22.386 25.552)" fill="#5d7280"/>
      </g>
    </g>
    <g id="Group_8867" data-name="Group 8867" transform="translate(19.009 61.265)">
      <g id="Group_8866" data-name="Group 8866" transform="translate(0)" clip-path="url(#clip-path-4)">
        <path id="Path_8004" data-name="Path 8004" d="M41.395,37.089l1.2-.7a1.585,1.585,0,0,1,.616-.678l-1.2.7a1.6,1.6,0,0,0-.616.678" transform="translate(-41.395 -35.713)" fill="#5d7280"/>
      </g>
    </g>
    <g id="Group_8869" data-name="Group 8869" transform="translate(0 0)">
      <g id="Group_8868" data-name="Group 8868" clip-path="url(#clip-path)">
        <path id="Path_8006" data-name="Path 8006" d="M41.333,34.979l-1.2.7a3.031,3.031,0,0,1,3.04.293l1.2-.7a3.02,3.02,0,0,0-3.038-.293" transform="translate(-21.373 24.82)" fill="#5d7280"/>
      </g>
    </g>
    <g id="Group_8871" data-name="Group 8871" transform="translate(18.757 59.51)">
      <g id="Group_8870" data-name="Group 8870" transform="translate(0)" clip-path="url(#clip-path-6)">
        <path id="Path_8007" data-name="Path 8007" d="M40.722,35.85l1.2-.7a4.751,4.751,0,0,0-.592-.3l-1.2.7a5.114,5.114,0,0,1,.592.293" transform="translate(-37.684 -34.571)" fill="#878787"/>
        <path id="Path_8008" data-name="Path 8008" d="M40.974,35.628l1.2-.7a3.918,3.918,0,0,0-.5-.172l-1.2.7a4.1,4.1,0,0,1,.5.172" transform="translate(-38.528 -34.641)" fill="#878787"/>
        <path id="Path_8009" data-name="Path 8009" d="M41.145,35.489l1.2-.7a3.146,3.146,0,0,0-.381-.081l-1.2.7a3.57,3.57,0,0,1,.379.081" transform="translate(-39.198 -34.676)" fill="#878787"/>
        <path id="Path_8010" data-name="Path 8010" d="M41.306,35.422l1.2-.7a2.958,2.958,0,0,0-.319-.033l-1.2.7a2.572,2.572,0,0,1,.319.031" transform="translate(-39.738 -34.689)" fill="#878787"/>
        <path id="Path_8011" data-name="Path 8011" d="M41.458,35.391l1.2-.7a2.618,2.618,0,0,0-.285,0l-1.2.7a2.624,2.624,0,0,1,.285,0" transform="translate(-40.209 -34.69)" fill="#878787"/>
        <path id="Path_8012" data-name="Path 8012" d="M41.6,35.391l1.2-.7a2.49,2.49,0,0,0-.259.029l-1.2.7a2.139,2.139,0,0,1,.259-.031" transform="translate(-40.634 -34.688)" fill="#878787"/>
        <path id="Path_8013" data-name="Path 8013" d="M41.73,35.409l1.2-.7a2.13,2.13,0,0,0-.24.055l-1.2.7a2.217,2.217,0,0,1,.24-.055" transform="translate(-41.025 -34.675)" fill="#878787"/>
        <path id="Path_8014" data-name="Path 8014" d="M41.857,35.441l1.2-.7a2.366,2.366,0,0,0-.226.079l-1.2.7c.075-.029.151-.057.226-.079" transform="translate(-41.394 -34.652)" fill="#878787"/>
        <path id="Path_8015" data-name="Path 8015" d="M41.976,35.488l1.2-.7a1.906,1.906,0,0,0-.214.1l-1.2.7a1.908,1.908,0,0,1,.214-.1" transform="translate(-41.738 -34.618)" fill="#878787"/>
        <path id="Path_8016" data-name="Path 8016" d="M41.912,35.549l1.2-.7-.024.012-1.2.7.024-.014" transform="translate(-41.89 -34.575)" fill="#878787"/>
      </g>
    </g>
    <path id="Path_8018" data-name="Path 8018" d="M51.165,51.005l1.2-.7L25.9,35.029l-1.2.7Z" transform="translate(-2.908 25.063)" fill="#878787"/>
    <g id="Group_8873" data-name="Group 8873" transform="translate(0 0)">
      <g id="Group_8872" data-name="Group 8872" clip-path="url(#clip-path)">
        <path id="Path_8019" data-name="Path 8019" d="M24.781,46.066l1.2-.7a.428.428,0,0,0,.177-.391,1.312,1.312,0,0,0-.607-1.041l-1.2.7a1.321,1.321,0,0,1,.609,1.041.429.429,0,0,1-.178.391" transform="translate(23.908 31.434)" fill="#5d7280"/>
      </g>
    </g>
    <g id="Group_8875" data-name="Group 8875" transform="translate(48.258 75.369)">
      <g id="Group_8874" data-name="Group 8874" transform="translate(0)" clip-path="url(#clip-path-8)">
        <path id="Path_8020" data-name="Path 8020" d="M24.35,45.681l1.2-.7a.428.428,0,0,0,.177-.391.94.94,0,0,0-.007-.12l-1.2.7a.965.965,0,0,1,.009.12.429.429,0,0,1-.178.391" transform="translate(-23.919 -43.551)" fill="#5d7280"/>
        <path id="Path_8021" data-name="Path 8021" d="M24.368,45.205l1.2-.7a.794.794,0,0,0-.015-.084l-1.2.7c.005.027.01.055.014.082" transform="translate(-23.767 -43.586)" fill="#5d7280"/>
        <path id="Path_8022" data-name="Path 8022" d="M24.379,45.151l1.2-.7c-.005-.024-.01-.046-.017-.069l-1.2.7c.007.024.012.046.017.069" transform="translate(-23.792 -43.614)" fill="#5d7280"/>
        <path id="Path_8023" data-name="Path 8023" d="M24.391,45.107l1.2-.7-.019-.06-1.2.7c.007.021.014.039.019.06" transform="translate(-23.821 -43.639)" fill="#5d7280"/>
        <path id="Path_8024" data-name="Path 8024" d="M24.4,45.071l1.2-.7-.021-.057-1.2.7a.519.519,0,0,1,.021.055" transform="translate(-23.853 -43.662)" fill="#5d7280"/>
        <path id="Path_8025" data-name="Path 8025" d="M24.416,45.037l1.2-.7-.021-.053-1.2.7.021.053" transform="translate(-23.885 -43.684)" fill="#5d7280"/>
        <path id="Path_8026" data-name="Path 8026" d="M24.431,45.006l1.2-.7-.024-.051-1.2.7c.009.017.017.034.024.051" transform="translate(-23.922 -43.705)" fill="#5d7280"/>
        <path id="Path_8027" data-name="Path 8027" d="M24.447,44.975l1.2-.7-.026-.05-1.2.7.026.05" transform="translate(-23.961 -43.726)" fill="#5d7280"/>
        <path id="Path_8028" data-name="Path 8028" d="M24.462,44.946l1.2-.7-.027-.05-1.2.7.027.05" transform="translate(-24.001 -43.747)" fill="#5d7280"/>
        <path id="Path_8029" data-name="Path 8029" d="M24.483,44.918l1.2-.7-.031-.051-1.2.7.031.05" transform="translate(-24.051 -43.768)" fill="#5d7280"/>
        <path id="Path_8030" data-name="Path 8030" d="M24.5,44.889l1.2-.7c-.012-.017-.024-.034-.034-.051l-1.2.7.034.051" transform="translate(-24.103 -43.789)" fill="#5d7280"/>
        <path id="Path_8031" data-name="Path 8031" d="M24.529,44.859l1.2-.7-.041-.055-1.2.7.039.055" transform="translate(-24.162 -43.813)" fill="#5d7280"/>
        <path id="Path_8032" data-name="Path 8032" d="M24.561,44.83l1.2-.7-.05-.06-1.2.7c.015.021.033.039.048.06" transform="translate(-24.233 -43.837)" fill="#5d7280"/>
        <path id="Path_8033" data-name="Path 8033" d="M24.611,44.8l1.2-.7c-.022-.026-.045-.05-.069-.074l-1.2.7a.915.915,0,0,1,.069.072" transform="translate(-24.333 -43.868)" fill="#5d7280"/>
        <path id="Path_8034" data-name="Path 8034" d="M24.792,44.8l1.2-.7a1.039,1.039,0,0,0-.211-.163l-1.2.7a1.039,1.039,0,0,1,.211.163" transform="translate(-24.581 -43.935)" fill="#5d7280"/>
      </g>
    </g>
    <g id="Group_8877" data-name="Group 8877" transform="translate(0 0)">
      <g id="Group_8876" data-name="Group 8876" clip-path="url(#clip-path)">
        <path id="Path_8036" data-name="Path 8036" d="M31.53,35.678c-1.664-.962-3.194-.715-3.9.633L25.1,41.254a1.116,1.116,0,0,0,.3,1.089l.25.208c.23.132.449.108.559-.093l2.534-4.929c.492-.981,1.583-1.153,2.781-.461L57.988,52.346c.338.194.611.038.612-.35a1.318,1.318,0,0,0-.609-1.04Z" transform="translate(-9.735 25.111)" fill="#110202"/>
        <path id="Path_8037" data-name="Path 8037" d="M19.967,26.405l1.2-.7a.339.339,0,0,0,.125-.134l-1.2.7a.339.339,0,0,1-.125.134" transform="translate(36.292 18.297)" fill="#5d7280"/>
      </g>
    </g>
    <g id="Group_8879" data-name="Group 8879" transform="translate(56.259 43.872)">
      <g id="Group_8878" data-name="Group 8878" transform="translate(0)" clip-path="url(#clip-path-10)">
        <path id="Path_8038" data-name="Path 8038" d="M19.967,26.405l1.2-.7a.339.339,0,0,0,.125-.134l-1.2.7a.339.339,0,0,1-.125.134" transform="translate(-19.967 -25.575)" fill="#5d7280"/>
      </g>
    </g>
    <path id="Path_8040" data-name="Path 8040" d="M18.49,28.328l1.2-.7,2.534-4.93-1.2.7Z" transform="translate(37.894 16.241)" fill="#5d7280"/>
    <g id="Group_8881" data-name="Group 8881" transform="translate(0 0)">
      <g id="Group_8880" data-name="Group 8880" clip-path="url(#clip-path)">
        <path id="Path_8041" data-name="Path 8041" d="M19.949,22.3l-1.2.7a1.6,1.6,0,0,0-.616.678l1.2-.7a1.6,1.6,0,0,1,.616-.678" transform="translate(40.787 15.959)" fill="#5d7280"/>
      </g>
    </g>
    <g id="Group_8883" data-name="Group 8883" transform="translate(58.918 38.264)">
      <g id="Group_8882" data-name="Group 8882" transform="translate(0)" clip-path="url(#clip-path-12)">
        <path id="Path_8042" data-name="Path 8042" d="M18.131,23.681l1.2-.7a1.585,1.585,0,0,1,.616-.678l-1.2.7a1.6,1.6,0,0,0-.616.678" transform="translate(-18.131 -22.305)" fill="#5d7280"/>
      </g>
    </g>
    <g id="Group_8885" data-name="Group 8885" transform="translate(0 0)">
      <g id="Group_8884" data-name="Group 8884" clip-path="url(#clip-path)">
        <path id="Path_8044" data-name="Path 8044" d="M18.067,21.572l-1.2.7a3.023,3.023,0,0,1,3.04.293l1.2-.7a3.026,3.026,0,0,0-3.04-.292" transform="translate(41.8 15.227)" fill="#5d7280"/>
      </g>
    </g>
    <g id="Group_8887" data-name="Group 8887" transform="translate(58.666 36.511)">
      <g id="Group_8886" data-name="Group 8886" transform="translate(0)" clip-path="url(#clip-path-14)">
        <path id="Path_8045" data-name="Path 8045" d="M17.46,22.443l1.2-.7a4.89,4.89,0,0,0-.594-.3l-1.2.7a5.134,5.134,0,0,1,.594.293" transform="translate(-14.421 -21.163)" fill="#5d7280"/>
        <path id="Path_8046" data-name="Path 8046" d="M17.71,22.22l1.2-.7a3.916,3.916,0,0,0-.5-.172l-1.2.7a4.1,4.1,0,0,1,.5.172" transform="translate(-15.264 -21.235)" fill="#5d7280"/>
        <path id="Path_8047" data-name="Path 8047" d="M17.883,22.082l1.2-.7A3.145,3.145,0,0,0,18.7,21.3l-1.2.7a3.512,3.512,0,0,1,.381.081" transform="translate(-15.936 -21.269)" fill="#5d7280"/>
        <path id="Path_8048" data-name="Path 8048" d="M18.043,22.015l1.2-.7a2.958,2.958,0,0,0-.319-.033l-1.2.7a2.96,2.96,0,0,1,.319.033" transform="translate(-16.477 -21.282)" fill="#5d7280"/>
        <path id="Path_8049" data-name="Path 8049" d="M18.195,21.983l1.2-.7a2.619,2.619,0,0,0-.285,0l-1.2.7c.093-.005.189-.005.285,0" transform="translate(-16.948 -21.284)" fill="#5d7280"/>
        <path id="Path_8050" data-name="Path 8050" d="M18.335,21.984l1.2-.7a2.1,2.1,0,0,0-.259.031l-1.2.7a2.136,2.136,0,0,1,.259-.031" transform="translate(-17.373 -21.281)" fill="#5d7280"/>
        <path id="Path_8051" data-name="Path 8051" d="M18.467,22l1.2-.7a2.13,2.13,0,0,0-.24.055l-1.2.7a2.219,2.219,0,0,1,.24-.055" transform="translate(-17.764 -21.269)" fill="#5d7280"/>
        <path id="Path_8052" data-name="Path 8052" d="M18.593,22.034l1.2-.7a2.078,2.078,0,0,0-.226.079l-1.2.7c.074-.029.149-.057.226-.079" transform="translate(-18.13 -21.245)" fill="#5d7280"/>
        <path id="Path_8053" data-name="Path 8053" d="M18.712,22.08l1.2-.7a1.906,1.906,0,0,0-.214.1l-1.2.7a1.906,1.906,0,0,1,.214-.1" transform="translate(-18.474 -21.212)" fill="#5d7280"/>
        <path id="Path_8054" data-name="Path 8054" d="M18.646,22.141l1.2-.7-.024.014-1.2.7.022-.014" transform="translate(-18.624 -21.169)" fill="#5d7280"/>
      </g>
    </g>
    <path id="Path_8056" data-name="Path 8056" d="M27.9,37.6l1.2-.7L2.641,21.621l-1.2.7Z" transform="translate(60.265 15.47)" fill="#878787"/>
    <g id="Group_8889" data-name="Group 8889" transform="translate(0 0)">
      <g id="Group_8888" data-name="Group 8888" clip-path="url(#clip-path)">
        <path id="Path_8057" data-name="Path 8057" d="M1.517,32.658l1.2-.7a.429.429,0,0,0,.177-.393,1.311,1.311,0,0,0-.607-1.04l-1.2.7a1.321,1.321,0,0,1,.609,1.041.429.429,0,0,1-.178.391" transform="translate(87.081 21.841)" fill="#5d7280"/>
      </g>
    </g>
    <g id="Group_8891" data-name="Group 8891" transform="translate(88.167 52.37)">
      <g id="Group_8890" data-name="Group 8890" transform="translate(0)" clip-path="url(#clip-path-16)">
        <path id="Path_8058" data-name="Path 8058" d="M1.086,32.273l1.2-.7a.429.429,0,0,0,.177-.393.931.931,0,0,0-.007-.118l-1.2.7a.965.965,0,0,1,.009.12.429.429,0,0,1-.178.391" transform="translate(-0.655 -30.145)" fill="#5d7280"/>
        <path id="Path_8059" data-name="Path 8059" d="M1.1,31.8l1.2-.7c0-.027-.009-.055-.014-.084l-1.2.7c.005.027.01.055.014.082" transform="translate(-0.503 -30.179)" fill="#5d7280"/>
        <path id="Path_8060" data-name="Path 8060" d="M1.116,31.743l1.2-.7c-.005-.022-.01-.046-.017-.069l-1.2.7.017.069" transform="translate(-0.531 -30.207)" fill="#5d7280"/>
        <path id="Path_8061" data-name="Path 8061" d="M1.128,31.7l1.2-.7a.345.345,0,0,0-.017-.06l-1.2.7c.007.021.014.039.019.06" transform="translate(-0.558 -30.232)" fill="#5d7280"/>
        <path id="Path_8062" data-name="Path 8062" d="M1.14,31.664l1.2-.7-.021-.057-1.2.7a.519.519,0,0,1,.021.055" transform="translate(-0.589 -30.255)" fill="#5d7280"/>
        <path id="Path_8063" data-name="Path 8063" d="M1.152,31.629l1.2-.7c-.007-.017-.014-.036-.022-.053l-1.2.7.021.053" transform="translate(-0.622 -30.278)" fill="#5d7280"/>
        <path id="Path_8064" data-name="Path 8064" d="M1.167,31.6l1.2-.7-.024-.051-1.2.7.024.051" transform="translate(-0.658 -30.299)" fill="#5d7280"/>
        <path id="Path_8065" data-name="Path 8065" d="M1.183,31.568l1.2-.7-.026-.05-1.2.7.026.05" transform="translate(-0.697 -30.319)" fill="#5d7280"/>
        <path id="Path_8066" data-name="Path 8066" d="M1.2,31.539l1.2-.7c-.01-.017-.019-.034-.029-.05l-1.2.7.027.05" transform="translate(-0.74 -30.34)" fill="#5d7280"/>
        <path id="Path_8067" data-name="Path 8067" d="M1.219,31.511l1.2-.7-.031-.051-1.2.7.031.05" transform="translate(-0.787 -30.361)" fill="#5d7280"/>
        <path id="Path_8068" data-name="Path 8068" d="M1.24,31.481l1.2-.7c-.012-.017-.024-.036-.036-.051l-1.2.7.034.051" transform="translate(-0.839 -30.383)" fill="#5d7280"/>
        <path id="Path_8069" data-name="Path 8069" d="M1.265,31.452l1.2-.7L2.427,30.7l-1.2.7.039.055" transform="translate(-0.898 -30.406)" fill="#5d7280"/>
        <path id="Path_8070" data-name="Path 8070" d="M1.3,31.422l1.2-.7a.526.526,0,0,0-.048-.06l-1.2.7a.736.736,0,0,1,.048.06" transform="translate(-0.972 -30.431)" fill="#5d7280"/>
        <path id="Path_8071" data-name="Path 8071" d="M1.347,31.394l1.2-.7c-.022-.026-.045-.05-.069-.074l-1.2.7a.914.914,0,0,1,.069.072" transform="translate(-1.069 -30.461)" fill="#5d7280"/>
        <path id="Path_8072" data-name="Path 8072" d="M1.529,31.388l1.2-.7a1.039,1.039,0,0,0-.211-.163l-1.2.7a.994.994,0,0,1,.211.163" transform="translate(-1.32 -30.529)" fill="#5d7280"/>
      </g>
    </g>
    <g id="Group_8893" data-name="Group 8893" transform="translate(0 0)">
      <g id="Group_8892" data-name="Group 8892" clip-path="url(#clip-path-17)">
        <path id="Path_8074" data-name="Path 8074" d="M8.268,22.271c-1.666-.962-3.194-.715-3.9.633L1.838,27.847a1.114,1.114,0,0,0,.3,1.089l.25.208c.228.132.448.108.558-.093l2.534-4.929c.492-.981,1.583-1.153,2.783-.461L34.726,38.939c.338.194.611.039.612-.35a1.318,1.318,0,0,0-.609-1.04Z" transform="translate(53.436 15.519)" fill="#2c353b"/>
        <path id="Path_8075" data-name="Path 8075" d="M8.795,29.629l-1.2-.7c-1.625-.944-3.935-.8-6.28.556l1.2.7c2.343-1.354,4.656-1.5,6.28-.556" transform="translate(80.794 20.268)" fill="#cfcccc"/>
        <path id="Path_8076" data-name="Path 8076" d="M8.439,46.692l1.2.7a6.5,6.5,0,0,1-3.467-5.5,6.6,6.6,0,0,1,.472-2.4,9.783,9.783,0,0,1,.755-1.52c2.069-3.422,6.334-6.447,9.483-8.265l-1.2-.7c-3.148,1.817-7.414,4.841-9.483,8.265a9.621,9.621,0,0,0-.753,1.52,6.6,6.6,0,0,0-.473,2.4,6.5,6.5,0,0,0,3.467,5.5" transform="translate(66.426 20.75)" fill="#cfcccc"/>
        <path id="Path_8077" data-name="Path 8077" d="M10.709,29.893c-3.148,1.818-7.414,4.843-9.483,8.265a9.476,9.476,0,0,0-.753,1.52A6.607,6.607,0,0,0,0,42.08c.014,4.956,6.449,8.246,10.761,5.757s8.493-8.927,8.48-13.882-4.218-6.551-8.531-4.062" transform="translate(72.602 20.559)" fill="#878787"/>
        <path id="Path_8078" data-name="Path 8078" d="M10.057,30.487C7.31,32.072,3.587,34.712,1.783,37.7a8.278,8.278,0,0,0-.657,1.326,5.733,5.733,0,0,0-.412,2.095c.012,4.325,5.627,7.2,9.387,5.025s7.413-7.79,7.4-12.113-3.683-5.716-7.445-3.544" transform="translate(73.113 21.089)" fill="#110202"/>
        <path id="Path_8079" data-name="Path 8079" d="M13.97,33.855a4.772,4.772,0,0,0-3.47.793l1.2.7a4.775,4.775,0,0,1,3.472-.793,10.683,10.683,0,0,0-1.2-.7" transform="translate(58.655 24.165)" fill="#cfcccc"/>
        <path id="Path_8080" data-name="Path 8080" d="M14.093,36.192a1.987,1.987,0,0,1,.631.578l1.2.7a1.987,1.987,0,0,0-.631-.578l-1.2-.7" transform="translate(51.737 25.895)" fill="#5d7280"/>
        <path id="Path_8081" data-name="Path 8081" d="M13.958,35.054a11.2,11.2,0,0,0-3.457,3.2,1.992,1.992,0,0,1,.765.648,8.9,8.9,0,0,1,2.7-2.463,3.924,3.924,0,0,1,2.714-.662,9.771,9.771,0,0,1,.753-1.52,4.764,4.764,0,0,0-3.47.793" transform="translate(56.398 24.456)" fill="#878787"/>
        <path id="Path_8082" data-name="Path 8082" d="M15.981,34.283a11.2,11.2,0,0,0-3.457,3.2l1.2.7a11.177,11.177,0,0,1,3.457-3.2l-1.2-.7" transform="translate(53.172 24.529)" fill="#cfcccc"/>
        <path id="Path_8083" data-name="Path 8083" d="M25.293,37.04l-1.2-.7c-.043-.026-.087-.05-.132-.072-2.083-1.024-6.349.878-9.5,2.695l1.2.7c3.148-1.817,7.414-3.719,9.5-2.693.045.022.089.045.132.07" transform="translate(41.74 25.745)" fill="#cfcccc"/>
        <path id="Path_8084" data-name="Path 8084" d="M22.325,56.215l1.2.7A5.021,5.021,0,0,1,21.275,52.3c-.014-4.956,4.167-11.392,8.469-13.876l-1.2-.7c-4.3,2.484-8.483,8.92-8.468,13.875a5.018,5.018,0,0,0,2.251,4.62" transform="translate(27.659 26.989)" fill="#cfcccc"/>
        <path id="Path_8085" data-name="Path 8085" d="M22.28,39.373c-4.3,2.484-8.483,8.92-8.469,13.876s4.218,6.551,8.521,4.067S33.038,44.128,33.024,39.174a3.169,3.169,0,0,0-.484-1.848,2.015,2.015,0,0,0-.763-.648c-2.083-1.024-6.351.878-9.5,2.7" transform="translate(35.123 26.037)" fill="#878787"/>
        <path id="Path_8086" data-name="Path 8086" d="M21.915,39.813c-3.753,2.167-7.4,7.783-7.389,12.106s3.68,5.718,7.433,3.549S31.3,43.962,31.288,39.639a2.761,2.761,0,0,0-.422-1.613,1.75,1.75,0,0,0-.666-.566c-1.817-.894-5.541.767-8.286,2.352" transform="translate(35.633 26.623)" fill="#110202"/>
        <path id="Path_8087" data-name="Path 8087" d="M2.469,19.655v3.614c0,6.469,4.292,12.938,12.832,17.885,17.1,9.871,44.838,9.871,61.941,0,8.56-4.947,12.81-11.416,12.81-17.885h.022V19.655Z" transform="translate(-2.469 12.205)" fill="#9b1c2e"/>
        <path id="Path_8088" data-name="Path 8088" d="M15.294,48.087c17.105,9.876,44.839,9.876,61.946,0s17.107-25.89,0-35.764S32.4,2.447,15.3,12.323s-17.107,25.888,0,35.764" transform="translate(-2.461 1.66)" fill="#ffe0e0"/>
        <path id="Path_8089" data-name="Path 8089" d="M11.28,31.843q-.033.813,0,1.626c.338,3.975,3.139,7.883,8.4,10.909,11.2,6.481,29.383,6.481,40.585,0,5.241-3.026,8.04-6.934,8.38-10.909a9.9,9.9,0,0,0,0-1.626C68.217,16.35,55.547,0,39.963,0S11.709,16.35,11.28,31.843" transform="translate(3.838 -1.857)" fill="#9b1c2e"/>
      </g>
    </g>
  </g>
</svg>
