<svg xmlns="http://www.w3.org/2000/svg" xmlns:xlink="http://www.w3.org/1999/xlink" width="30" height="32.67" viewBox="0 0 30 32.67">
  <defs>
    <clipPath id="clip-path">
      <rect id="Rectangle_3614" data-name="Rectangle 3614" width="16.214" height="31.34" fill="none"/>
    </clipPath>
    <clipPath id="clip-path-3">
      <rect id="Rectangle_3611" data-name="Rectangle 3611" width="13.781" height="11.403" fill="none"/>
    </clipPath>
    <clipPath id="clip-path-4">
      <rect id="Rectangle_3612" data-name="Rectangle 3612" width="4.599" height="13.658" fill="none"/>
    </clipPath>
  </defs>
  <g id="Group_9235" data-name="Group 9235" transform="translate(-64 -3876.33)">
    <rect id="Rectangle_4396" data-name="Rectangle 4396" width="30" height="30" rx="15" transform="translate(64 3879)" fill="#f4f4f4"/>
    <g id="Group_9223" data-name="Group 9223" transform="translate(70.867 3876.33)">
      <g id="Group_8849" data-name="Group 8849" clip-path="url(#clip-path)">
        <g id="Group_8848" data-name="Group 8848" transform="translate(0 0)">
          <g id="Group_8847" data-name="Group 8847" clip-path="url(#clip-path)">
            <path id="Path_7918" data-name="Path 7918" d="M14.891,26.249V37.822a3.478,3.478,0,0,1-2.048,2.855,10.945,10.945,0,0,1-9.89,0A3.478,3.478,0,0,1,.906,37.822V26.249Z" transform="translate(-0.363 -10.519)" fill="#878787"/>
            <path id="Path_7919" data-name="Path 7919" d="M15.071,22.357V34.832a3.741,3.741,0,0,1-2.2,3.079A11.155,11.155,0,0,1,6.96,39.167,10.632,10.632,0,0,1,2.361,38c-.05-.023-.107-.056-.157-.084A3.741,3.741,0,0,1,0,34.832V22.357Z" transform="translate(0 -8.959)" fill="#cfcccc"/>
            <path id="Path_7920" data-name="Path 7920" d="M12.865,22.522a11.778,11.778,0,0,1-10.657,0c-2.943-1.7-2.943-4.454,0-6.153a11.776,11.776,0,0,1,10.657,0c2.943,1.7,2.943,4.454,0,6.153" transform="translate(0 -6.049)" fill="#878787"/>
            <path id="Path_7921" data-name="Path 7921" d="M14.7,18.379V20.09a3.184,3.184,0,0,1-1.876,2.615,10.021,10.021,0,0,1-9.058,0A3.184,3.184,0,0,1,1.888,20.09V18.379Z" transform="translate(-0.757 -7.365)" fill="#cfcccc"/>
            <path id="Path_7922" data-name="Path 7922" d="M12.821,18.518a10.008,10.008,0,0,1-9.055,0c-2.5-1.444-2.5-3.784,0-5.229a10.007,10.007,0,0,1,9.055,0c2.5,1.444,2.5,3.784,0,5.228" transform="translate(-0.757 -4.892)" fill="#f4f4f4"/>
            <path id="Path_7923" data-name="Path 7923" d="M12.777,18.491a8.188,8.188,0,0,1-7.409,0c-2.046-1.181-2.046-3.1,0-4.278a8.188,8.188,0,0,1,7.409,0c2.046,1.182,2.046,3.1,0,4.278" transform="translate(-1.536 -5.341)" fill="#cfcccc"/>
            <path id="Path_7924" data-name="Path 7924" d="M14.7,20.012v.41a3.185,3.185,0,0,1-1.876,2.616,10.025,10.025,0,0,1-9.058,0,3.185,3.185,0,0,1-1.875-2.616v-.41a3.186,3.186,0,0,0,1.875,2.616,10.025,10.025,0,0,0,9.058,0A3.186,3.186,0,0,0,14.7,20.012" transform="translate(-0.757 -8.02)" fill="#f4f4f4"/>
            <path id="Path_7925" data-name="Path 7925" d="M14.7,18.917v.41a3.185,3.185,0,0,1-1.876,2.616,10.025,10.025,0,0,1-9.058,0,3.185,3.185,0,0,1-1.875-2.616v-.41a3.186,3.186,0,0,0,1.875,2.616,10.025,10.025,0,0,0,9.058,0A3.186,3.186,0,0,0,14.7,18.917" transform="translate(-0.757 -7.581)" fill="#f4f4f4"/>
            <g id="Group_8843" data-name="Group 8843" transform="translate(0.646 17.701)" opacity="0.8">
              <g id="Group_8842" data-name="Group 8842">
                <g id="Group_8841" data-name="Group 8841" clip-path="url(#clip-path-3)">
                  <path id="Path_7926" data-name="Path 7926" d="M6.987,45.033a4.917,4.917,0,0,1-4.343-.9,1.608,1.608,0,0,1-.65-1.375.442.442,0,0,1,.011-.068l.2-.937,6.138,1.279-.173.831c-.05.5-.454.938-1.179,1.176" transform="translate(-1.441 -34.431)" fill="#f3ae00"/>
                  <path id="Path_7927" data-name="Path 7927" d="M7.314,43.261a4.9,4.9,0,0,1-4.343-.9,1.352,1.352,0,0,1,.523-2.507,4.9,4.9,0,0,1,4.343.9,1.352,1.352,0,0,1-.523,2.507" transform="translate(-1.572 -33.598)" fill="#f6d13a"/>
                  <path id="Path_7928" data-name="Path 7928" d="M7.344,43.178a3.989,3.989,0,0,1-3.534-.736,1.1,1.1,0,0,1,.425-2.04,3.99,3.99,0,0,1,3.534.736,1.1,1.1,0,0,1-.425,2.04" transform="translate(-1.957 -33.833)" fill="#f3ae00"/>
                  <path id="Path_7929" data-name="Path 7929" d="M7.36,43.133a3.5,3.5,0,0,1-3.1-.645A.963.963,0,0,1,4.637,40.7a3.493,3.493,0,0,1,3.095.645.963.963,0,0,1-.372,1.787" transform="translate(-2.166 -33.961)" fill="#f6d13a"/>
                  <path id="Path_7930" data-name="Path 7930" d="M15.368,45.157a4.915,4.915,0,0,1-4.34.914,1.607,1.607,0,0,1-1.148-1,.493.493,0,0,1-.017-.067l-.2-.937L15.8,42.777l.175.831a1.5,1.5,0,0,1-.608,1.55" transform="translate(-4.519 -34.844)" fill="#9b1c2e"/>
                  <path id="Path_7931" data-name="Path 7931" d="M15.155,43.389a4.9,4.9,0,0,1-4.341.914,1.352,1.352,0,0,1-.528-2.506,4.9,4.9,0,0,1,4.341-.914,1.352,1.352,0,0,1,.528,2.506" transform="translate(-4.504 -34.014)" fill="#d65265"/>
                  <path id="Path_7932" data-name="Path 7932" d="M15.086,43.475a3.989,3.989,0,0,1-3.533.744,1.1,1.1,0,0,1-.43-2.039,3.993,3.993,0,0,1,3.533-.745,1.1,1.1,0,0,1,.43,2.04" transform="translate(-4.889 -34.249)" fill="#9b1c2e"/>
                  <path id="Path_7933" data-name="Path 7933" d="M15.05,43.522a3.493,3.493,0,0,1-3.094.652.964.964,0,0,1-.376-1.786,3.493,3.493,0,0,1,3.094-.652.964.964,0,0,1,.376,1.786" transform="translate(-5.098 -34.376)" fill="#d65265"/>
                  <path id="Path_7934" data-name="Path 7934" d="M19.552,37.668a4.917,4.917,0,0,1-3.667,2.495,1.609,1.609,0,0,1-1.441-.487.6.6,0,0,1-.041-.055l-.539-.792L19.048,35.3l.477.7a1.5,1.5,0,0,1,.027,1.664" transform="translate(-6.201 -31.848)" fill="#f3ae00"/>
                  <path id="Path_7935" data-name="Path 7935" d="M18.884,36.506A4.9,4.9,0,0,1,15.216,39c-1.411.1-2.055-.844-1.441-2.117a4.9,4.9,0,0,1,3.668-2.5c1.411-.1,2.055.844,1.441,2.118" transform="translate(-6.073 -31.479)" fill="#f6d13a"/>
                  <path id="Path_7936" data-name="Path 7936" d="M18.756,36.828a3.989,3.989,0,0,1-2.985,2.03c-1.148.085-1.673-.687-1.173-1.723a3.993,3.993,0,0,1,2.986-2.03c1.148-.084,1.673.687,1.172,1.723" transform="translate(-6.42 -31.767)" fill="#f3ae00"/>
                  <path id="Path_7937" data-name="Path 7937" d="M18.686,37a3.5,3.5,0,0,1-2.615,1.779c-1.006.074-1.465-.6-1.027-1.51a3.494,3.494,0,0,1,2.615-1.779c1.006-.074,1.465.6,1.027,1.51" transform="translate(-6.608 -31.923)" fill="#f6d13a"/>
                  <path id="Path_7938" data-name="Path 7938" d="M19.491,33.988a4.914,4.914,0,0,1-4.063,1.78,1.606,1.606,0,0,1-1.327-.744.415.415,0,0,1-.031-.061l-.384-.877L19.43,31.57l.34.777a1.5,1.5,0,0,1-.279,1.641" transform="translate(-6.131 -30.353)" fill="#f3ae00"/>
                  <path id="Path_7939" data-name="Path 7939" d="M19.046,32.557a4.9,4.9,0,0,1-4.064,1.78c-1.406-.156-1.866-1.206-1.028-2.346a4.9,4.9,0,0,1,4.064-1.78c1.406.156,1.866,1.207,1.028,2.346" transform="translate(-6.07 -29.8)" fill="#f6d13a"/>
                  <path id="Path_7940" data-name="Path 7940" d="M18.941,32.764a3.99,3.99,0,0,1-3.307,1.448c-1.144-.127-1.519-.982-.836-1.909A3.99,3.99,0,0,1,18.1,30.854c1.144.127,1.519.982.837,1.909" transform="translate(-6.439 -30.06)" fill="#f3ae00"/>
                  <path id="Path_7941" data-name="Path 7941" d="M18.885,32.877a3.5,3.5,0,0,1-2.9,1.269c-1-.111-1.33-.86-.733-1.672a3.5,3.5,0,0,1,2.9-1.269c1,.111,1.33.86.732,1.672" transform="translate(-6.64 -30.201)" fill="#f6d13a"/>
                  <path id="Path_7942" data-name="Path 7942" d="M11.655,34.737A4.917,4.917,0,0,1,7.417,36.05a1.608,1.608,0,0,1-1.235-.888.633.633,0,0,1-.023-.064l-.283-.915,5.989-1.855.251.81a1.5,1.5,0,0,1-.461,1.6" transform="translate(-3 -30.656)" fill="#9b1c2e"/>
                  <path id="Path_7943" data-name="Path 7943" d="M11.339,33.127A4.9,4.9,0,0,1,7.1,34.44a1.352,1.352,0,0,1-.758-2.447,4.9,4.9,0,0,1,4.237-1.312,1.352,1.352,0,0,1,.758,2.446" transform="translate(-2.969 -29.962)" fill="#d65265"/>
                  <path id="Path_7944" data-name="Path 7944" d="M11.253,33.266A3.99,3.99,0,0,1,7.8,34.334a1.1,1.1,0,0,1-.617-1.991,3.988,3.988,0,0,1,3.449-1.068,1.1,1.1,0,0,1,.617,1.991" transform="translate(-3.348 -30.207)" fill="#9b1c2e"/>
                  <path id="Path_7945" data-name="Path 7945" d="M11.206,33.342a3.5,3.5,0,0,1-3.02.936.964.964,0,0,1-.541-1.744,3.5,3.5,0,0,1,3.02-.936.964.964,0,0,1,.541,1.744" transform="translate(-3.553 -30.34)" fill="#d65265"/>
                  <path id="Path_7946" data-name="Path 7946" d="M11.7,38.4a4.917,4.917,0,0,1-4.339.924,1.608,1.608,0,0,1-1.149-1,.453.453,0,0,1-.017-.067l-.2-.937,6.132-1.306.177.83a1.5,1.5,0,0,1-.6,1.551" transform="translate(-3.047 -32.136)" fill="#f3ae00"/>
                  <path id="Path_7947" data-name="Path 7947" d="M11.484,36.637a4.9,4.9,0,0,1-4.339.924,1.352,1.352,0,0,1-.534-2.506,4.9,4.9,0,0,1,4.339-.923,1.352,1.352,0,0,1,.533,2.5" transform="translate(-3.032 -31.31)" fill="#f6d13a"/>
                  <path id="Path_7948" data-name="Path 7948" d="M11.415,36.725a3.99,3.99,0,0,1-3.531.752,1.1,1.1,0,0,1-.434-2.039,3.992,3.992,0,0,1,3.531-.751,1.1,1.1,0,0,1,.434,2.039" transform="translate(-3.417 -31.545)" fill="#f3ae00"/>
                  <path id="Path_7949" data-name="Path 7949" d="M11.377,36.773a3.5,3.5,0,0,1-3.093.659.964.964,0,0,1-.38-1.786A3.5,3.5,0,0,1,11,34.987a.964.964,0,0,1,.38,1.786" transform="translate(-3.626 -31.672)" fill="#f6d13a"/>
                  <path id="Path_7950" data-name="Path 7950" d="M4.486,38.258A4.917,4.917,0,0,1,1.2,35.281a1.608,1.608,0,0,1,.135-1.515.454.454,0,0,1,.044-.053L2.018,33l4.648,4.208L6.1,37.84a1.5,1.5,0,0,1-1.611.418" transform="translate(-1.077 -30.927)" fill="#9b1c2e"/>
                  <path id="Path_7951" data-name="Path 7951" d="M5.559,37.285A4.9,4.9,0,0,1,2.27,34.308c-.434-1.347.336-2.2,1.719-1.9a4.9,4.9,0,0,1,3.289,2.977c.434,1.347-.336,2.2-1.719,1.9" transform="translate(-1.507 -30.665)" fill="#d65265"/>
                  <path id="Path_7952" data-name="Path 7952" d="M5.739,37.142a3.989,3.989,0,0,1-2.676-2.423c-.353-1.1.273-1.788,1.4-1.545A3.99,3.99,0,0,1,7.138,35.6c.353,1.1-.273,1.788-1.4,1.545" transform="translate(-1.834 -30.976)" fill="#9b1c2e"/>
                  <path id="Path_7953" data-name="Path 7953" d="M5.838,37.064a3.5,3.5,0,0,1-2.344-2.122c-.309-.96.24-1.566,1.225-1.354a3.494,3.494,0,0,1,2.344,2.123c.309.959-.239,1.565-1.225,1.353" transform="translate(-2.011 -31.145)" fill="#d65265"/>
                  <path id="Path_7954" data-name="Path 7954" d="M12.335,31.617v.019a.856.856,0,1,1-1.711.043v-.061l.1-2.078a12.384,12.384,0,0,0,1.565.038Z" transform="translate(-4.903 -29.539)" fill="#d65265"/>
                </g>
              </g>
            </g>
            <path id="Path_7955" data-name="Path 7955" d="M14.319,4.507l-.014.028a18.666,18.666,0,0,0-1.089,4.091c-.024.141-.047.283-.066.424-.038.222-.071.448-.1.669-.151,1.046-.259,2.1-.335,3.157-.071.938-.113,1.876-.137,2.818a8.631,8.631,0,0,1-1.305-.024q.148-1.462.358-2.912.219-1.555.552-3.092c.047-.221.094-.443.15-.664.038-.179.08-.358.123-.538A18.846,18.846,0,0,1,13.895,4.3a.239.239,0,0,1,.321-.1.231.231,0,0,1,.1.3" transform="translate(-4.516 -1.674)" fill="#d65265"/>
            <path id="Path_7956" data-name="Path 7956" d="M20.68,3.381c-1.98,1.143-5.775.8-5.775.8A3.031,3.031,0,0,1,16.3.852c1.98-1.143,5.775-.8,5.775-.8A3.031,3.031,0,0,1,20.68,3.381" transform="translate(-5.94 0)" fill="#d65265"/>
            <path id="Path_7957" data-name="Path 7957" d="M18.754,2.269c-1.98,1.143-3.8,1.948-3.8,1.948a36.983,36.983,0,0,1,3.373-2.191c1.98-1.143,3.8-1.948,3.8-1.948a36.8,36.8,0,0,1-3.374,2.191" transform="translate(-5.994 -0.031)" fill="#9b1c2e"/>
            <path id="Path_7958" data-name="Path 7958" d="M6.605,15.192c-1.615-.769-3.08-3.367-3.08-3.367a2.373,2.373,0,0,1,2.768-.579c1.615.769,3.08,3.366,3.08,3.366a2.373,2.373,0,0,1-2.768.58" transform="translate(-1.413 -4.411)" fill="#d65265"/>
            <path id="Path_7959" data-name="Path 7959" d="M6.465,13.955c-1.615-.769-2.939-1.583-2.939-1.583a28.8,28.8,0,0,1,2.909,1.2c1.615.769,2.939,1.583,2.939,1.583a28.8,28.8,0,0,1-2.909-1.2" transform="translate(-1.413 -4.958)" fill="#9b1c2e"/>
            <g id="Group_8846" data-name="Group 8846" transform="translate(2.361 16.55)" opacity="0.4">
              <g id="Group_8845" data-name="Group 8845">
                <g id="Group_8844" data-name="Group 8844" clip-path="url(#clip-path-4)">
                  <path id="Path_7960" data-name="Path 7960" d="M8.54,28.8v12.48a10.627,10.627,0,0,1-4.6-1.172V27.617A10.465,10.465,0,0,0,8.54,28.8" transform="translate(-3.941 -27.617)" fill="#fff"/>
                </g>
              </g>
            </g>
          </g>
        </g>
      </g>
    </g>
  </g>
</svg>
