<svg xmlns="http://www.w3.org/2000/svg" xmlns:xlink="http://www.w3.org/1999/xlink" width="30" height="30" viewBox="0 0 30 30">
  <defs>
    <clipPath id="clip-path">
      <rect id="Rectangle_3616" data-name="Rectangle 3616" width="20.595" height="27.894" fill="none"/>
    </clipPath>
  </defs>
  <g id="Group_9236" data-name="Group 9236" transform="translate(-220 -3879)">
    <rect id="Rectangle_4397" data-name="Rectangle 4397" width="30" height="30" rx="15" transform="translate(220 3879)" fill="#f4f4f4"/>
    <g id="Group_9225" data-name="Group 9225" transform="translate(224.702 3879.053)">
      <path id="Path_7970" data-name="Path 7970" d="M2.5,14.156l.042,14.636,18.792-10.85L21.292,3.307Z" transform="translate(-2.008 -1.627)" fill="#d65265"/>
      <path id="Path_7971" data-name="Path 7971" d="M39.991,24.392l.042,14.636-.492-.286L39.5,24.107Z" transform="translate(-39.499 -11.863)" fill="#9b1c2e"/>
      <path id="Path_7972" data-name="Path 7972" d="M21.865,3.03,3.072,13.879l-.491-.285L21.373,2.744Z" transform="translate(-2.581 -1.35)" fill="#ba2a45"/>
      <path id="Path_7973" data-name="Path 7973" d="M29.5,41.576,29,41.29l-9.833,5.677.771.448Z" transform="translate(-18.638 -20.319)" fill="#ffe0e0"/>
      <path id="Path_7974" data-name="Path 7974" d="M17.365,9.463l-.492-.286-.885,2.634.492.286Z" transform="translate(-4.891 -4.516)" fill="#ba2a45"/>
      <path id="Path_7975" data-name="Path 7975" d="M8.167,0l.492.286L.586,4.946.094,4.661Z" transform="translate(11.889 0)" fill="#ba2a45"/>
      <path id="Path_7976" data-name="Path 7976" d="M18.838,17.319.042,28.171,0,13.535,9.833,7.858l.885-2.634L18.79.563Z" transform="translate(1.757 -0.277)" fill="#d65265"/>
      <path id="Path_7977" data-name="Path 7977" d="M28.055,14.649l-.492-.286L17.731,20.04l.492.286Z" transform="translate(-16.466 -7.068)" fill="#ba2a45"/>
      <path id="Path_7978" data-name="Path 7978" d="M37.5,25.827l.042,14.636-.492-.286-.042-14.636Z" transform="translate(-35.744 -12.569)" fill="#9b1c2e"/>
      <path id="Path_7979" data-name="Path 7979" d="M38.767,52.925v.514l-1.758-1.015V51.91Z" transform="translate(-36.968 -25.545)" fill="#9b1c2e"/>
      <g id="Group_8854" data-name="Group 8854" transform="translate(0 0)">
        <g id="Group_8853" data-name="Group 8853" clip-path="url(#clip-path)">
          <path id="Path_7980" data-name="Path 7980" d="M19.39,26.483l3.284,8.853a.406.406,0,0,0,.344.233,1.281,1.281,0,0,0,1.091-.4.406.406,0,0,0,.107-.4h0L20.934,25.91Z" transform="translate(-13.488 -12.751)" fill="#110202"/>
          <path id="Path_7981" data-name="Path 7981" d="M26.213,26.477a1.289,1.289,0,0,0,1.093-.405c.237-.286.133-.569-.234-.631a1.289,1.289,0,0,0-1.093.406c-.237.286-.132.568.234.631" transform="translate(-19.968 -12.514)" fill="#c99666"/>
          <path id="Path_7982" data-name="Path 7982" d="M27.957,7.206a1.569,1.569,0,0,1,.473.155c0-.008.006,0,.006,0a1.587,1.587,0,0,1,.25-.008,1.519,1.519,0,0,1,.249.024,1,1,0,0,0-.158-.025Z" transform="translate(-22.54 -3.546)" fill="#3b4951"/>
          <path id="Path_7983" data-name="Path 7983" d="M31.334,27.708l.979.17a.3.3,0,0,0,.087.007,1.118,1.118,0,0,1-.137-.02c-.065-.015-.134-.028-.2-.049s-.106-.039-.16-.064a.18.18,0,0,1-.062-.029l-.006,0a1.97,1.97,0,0,1-.5-.016" transform="translate(-27.719 -13.635)" fill="#3b4951"/>
          <path id="Path_7984" data-name="Path 7984" d="M27.957,8.353l.269.043.71.126c.054-.066.113-.133.169-.192A2.7,2.7,0,0,1,29.448,8a2.946,2.946,0,0,1,.889-.544,1.808,1.808,0,0,1,.252-.074,1.624,1.624,0,0,1,.251-.041c0-.008.006,0,.006,0a1.869,1.869,0,0,1,.5.016,1.063,1.063,0,0,0-.158-.026l-.82-.144a2.057,2.057,0,0,0-1.41.3,2.721,2.721,0,0,0-.427.3,3.937,3.937,0,0,0-.572.576" transform="translate(-24.95 -3.52)" fill="#d7daff"/>
          <path id="Path_7985" data-name="Path 7985" d="M31.464,5.5l-.978-.169a3.119,3.119,0,0,0-2.843,1.383l.979.169A3.118,3.118,0,0,1,31.464,5.5" transform="translate(-24.909 -2.61)" fill="#cfcccc"/>
          <path id="Path_7986" data-name="Path 7986" d="M31.89,16.881A3.657,3.657,0,0,0,32.527,18c0,.006,0,.006.01.009a2.026,2.026,0,0,0,1.217.744l.979.17a.192.192,0,0,1-.05-.014c-.064-.015-.134-.028-.2-.049a1.065,1.065,0,0,1-.16-.064.188.188,0,0,1-.062-.028l-.006,0a.737.737,0,0,1-.147-.082,2.11,2.11,0,0,1-.2-.128,1.88,1.88,0,0,1-.23-.2.259.259,0,0,1-.032-.034,2.084,2.084,0,0,1-.21-.234,2.226,2.226,0,0,1-.18-.258,2.431,2.431,0,0,1-.159-.272c-.039-.07-.072-.142-.107-.22-.042-.095-.084-.19-.122-.293a8.235,8.235,0,0,1,1.257-7.365l-.71-.126-.269-.043a8.235,8.235,0,0,0-1.257,7.365" transform="translate(-30.139 -4.683)" fill="#d7daff"/>
          <path id="Path_7987" data-name="Path 7987" d="M34.47,18.985l.978.169a3.1,3.1,0,0,1-2.2-2.211,9.713,9.713,0,0,1,1.474-8.686l-.978-.169a9.709,9.709,0,0,0-1.474,8.686,3.1,3.1,0,0,0,2.2,2.211" transform="translate(-31.013 -3.98)" fill="#cfcccc"/>
          <path id="Path_7988" data-name="Path 7988" d="M23.916,7.652a6.249,6.249,0,0,1,.435-.6,3.885,3.885,0,0,1,.3-.324A3.62,3.62,0,0,1,26,5.794a2.443,2.443,0,0,1,.286-.087.311.311,0,0,1,.073-.014,1.315,1.315,0,0,1,.226-.039.2.2,0,0,1,.057,0,.825.825,0,0,1,.171-.011.716.716,0,0,1,.172.008.218.218,0,0,1,.074.005,3.019,3.019,0,0,1,2.333,2.227,9.717,9.717,0,0,1-1.48,8.688,3.078,3.078,0,0,1-2.891,1.365,2.044,2.044,0,0,1-.237-.061,1.625,1.625,0,0,1-.234-.089,2.656,2.656,0,0,1-.44-.259s.006,0,0-.006c-.071-.051-.139-.111-.206-.17a1.816,1.816,0,0,1-.146-.147.68.68,0,0,1-.088-.1,2.291,2.291,0,0,1-.153-.184,3.006,3.006,0,0,1-.238-.36,1.565,1.565,0,0,1-.164-.3.787.787,0,0,1-.077-.153c-.008,0-.008,0-.01-.009-.048-.112-.1-.23-.145-.356a9.789,9.789,0,0,1,1.034-8.088m1.519,9.382a.7.7,0,0,0,.17,0,1.434,1.434,0,0,0,.179-.008.436.436,0,0,0,.09-.02,1.431,1.431,0,0,0,.157-.032,2.721,2.721,0,0,0,1.1-.6,4.626,4.626,0,0,0,.512-.528,5.422,5.422,0,0,0,.526-.754c.08-.134.156-.279.227-.422s.141-.286.2-.438a3.511,3.511,0,0,0,.133-.342c.041-.1.074-.2.108-.306.047-.135.087-.273.121-.409a7.564,7.564,0,0,0,.168-.738,7.913,7.913,0,0,0,.139-1.13c.01-.166.014-.33.016-.5a2.808,2.808,0,0,0-.01-.308,2.45,2.45,0,0,0-.012-.295c-.02-.246-.051-.488-.091-.719-.015-.092-.035-.182-.053-.266a1.743,1.743,0,0,0-.041-.18c-.017-.065-.035-.13-.053-.2-.041-.127-.08-.25-.124-.37-.038-.1-.08-.2-.122-.293-.035-.078-.069-.15-.105-.214a2.7,2.7,0,0,0-.162-.278,2.539,2.539,0,0,0-.18-.258,2.085,2.085,0,0,0-.21-.234.064.064,0,0,0-.032-.034,2.017,2.017,0,0,0-.417-.319c0-.006,0-.012-.016-.007a.682.682,0,0,0-.116-.068,1.535,1.535,0,0,0-.178-.077,1.761,1.761,0,0,0-.325-.087,1.07,1.07,0,0,0-.159-.025.534.534,0,0,0-.09,0,.993.993,0,0,0-.25.009s0-.006-.006,0a1.134,1.134,0,0,0-.251.041,1.829,1.829,0,0,0-.252.074,2.967,2.967,0,0,0-.889.544,2.769,2.769,0,0,0-.343.336c-.056.059-.115.127-.169.192a8.235,8.235,0,0,0-1.257,7.365c.038.1.08.2.121.293.036.078.069.15.108.22a2.4,2.4,0,0,0,.159.272,2.539,2.539,0,0,0,.18.258,3.083,3.083,0,0,0,.21.234.229.229,0,0,0,.032.034,1.844,1.844,0,0,0,.23.2,2.141,2.141,0,0,0,.2.128l.147.082.006,0a.18.18,0,0,0,.062.029c.055.025.108.045.16.064s.136.034.2.049a1.355,1.355,0,0,0,.137.02.391.391,0,0,0,.114.01" transform="translate(-20.64 -2.776)" fill="#878787"/>
          <path id="Path_7989" data-name="Path 7989" d="M23.533,17.772a.19.19,0,0,0,.062.029c.055.025.108.044.16.064s.136.034.2.049a1.23,1.23,0,0,0,.137.021.332.332,0,0,0,.114.01.728.728,0,0,0,.17,0,1.434,1.434,0,0,0,.179-.008.436.436,0,0,0,.09-.02,1.431,1.431,0,0,0,.157-.032,2.722,2.722,0,0,0,1.1-.6,4.62,4.62,0,0,0,.512-.528A5.422,5.422,0,0,0,26.942,16c.08-.134.156-.279.227-.422s.141-.286.2-.438A3.46,3.46,0,0,0,27.5,14.8c.039-.105.074-.2.108-.306.047-.135.087-.273.121-.409.067-.239.124-.488.168-.738a7.913,7.913,0,0,0,.139-1.13c.01-.166.014-.33.016-.5a2.794,2.794,0,0,0-.01-.308,2.449,2.449,0,0,0-.012-.295c-.02-.246-.051-.488-.091-.72-.012-.086-.033-.176-.053-.266a1.763,1.763,0,0,0-.041-.179c-.017-.065-.035-.13-.053-.2-.041-.128-.08-.25-.124-.37-.038-.1-.08-.2-.122-.293-.035-.078-.069-.15-.105-.214a2.649,2.649,0,0,0-.162-.278c-.059-.089-.118-.177-.18-.258a3.083,3.083,0,0,0-.21-.234.064.064,0,0,0-.032-.034,2.21,2.21,0,0,0-.417-.319c0-.006,0-.011-.016-.007a.714.714,0,0,0-.116-.067,1.535,1.535,0,0,0-.178-.077,1.761,1.761,0,0,0-.325-.087,1.519,1.519,0,0,0-.249-.024,1.535,1.535,0,0,0-.25.009,2.959,2.959,0,0,1,1.383,1.715,8.3,8.3,0,0,1-.3,5.754,6.577,6.577,0,0,1-.959,1.616,2.971,2.971,0,0,1-1.9,1.187" transform="translate(-19.412 -3.686)" fill="#fff"/>
          <path id="Path_7990" data-name="Path 7990" d="M26.3,8.329a2.052,2.052,0,0,0-.417-.319,2.208,2.208,0,0,1,.417.319" transform="translate(-18.856 -3.942)" fill="#d7daff"/>
          <path id="Path_7991" data-name="Path 7991" d="M27.957,7.489a1.519,1.519,0,0,1,.249.024,1.008,1.008,0,0,0-.159-.025.446.446,0,0,0-.09,0" transform="translate(-21.811 -3.684)" fill="#d7daff"/>
          <path id="Path_7992" data-name="Path 7992" d="M25.842,16.06c.038.1.08.2.121.293.036.078.069.15.108.22a2.356,2.356,0,0,0,.159.272,2.226,2.226,0,0,0,.18.258,2.085,2.085,0,0,0,.21.234.3.3,0,0,0,.032.034,1.882,1.882,0,0,0,.23.2,2.045,2.045,0,0,0,.2.128l.147.082.006,0a2.971,2.971,0,0,0,1.9-1.187,6.593,6.593,0,0,0,.959-1.616,8.3,8.3,0,0,0,.3-5.754,2.962,2.962,0,0,0-1.383-1.715s0-.006-.006,0a1.7,1.7,0,0,0-.251.042,1.825,1.825,0,0,0-.252.074,2.959,2.959,0,0,0-.889.544,2.8,2.8,0,0,0-.343.335c-.056.059-.115.127-.169.192a8.235,8.235,0,0,0-1.257,7.365" transform="translate(-23.113 -3.693)" fill="#cfcccc" opacity="0.509"/>
          <path id="Path_7993" data-name="Path 7993" d="M3.978,7.305c0,.27.189.379.423.244a.936.936,0,0,0,.423-.733c0-.27-.189-.379-.423-.244a.936.936,0,0,0-.423.733" transform="translate(13.75 -3.206)" fill="#f4f4f4"/>
          <path id="Path_7994" data-name="Path 7994" d="M6.726,8.892c0,.27.189.379.423.244A.936.936,0,0,0,7.572,8.4c0-.27-.189-.379-.423-.244a.936.936,0,0,0-.423.733" transform="translate(9.607 -3.987)" fill="#f4f4f4"/>
          <path id="Path_7995" data-name="Path 7995" d="M9.475,10.479c0,.27.189.379.423.244a.936.936,0,0,0,.423-.733c0-.27-.189-.379-.423-.244a.936.936,0,0,0-.423.733" transform="translate(5.461 -4.768)" fill="#f4f4f4"/>
        </g>
      </g>
    </g>
  </g>
</svg>
