<svg xmlns="http://www.w3.org/2000/svg" xmlns:xlink="http://www.w3.org/1999/xlink" width="115.857" height="89.793" viewBox="0 0 115.857 89.793">
  <defs>
    <clipPath id="clip-path">
      <rect id="Rectangle_3355" data-name="Rectangle 3355" width="65.857" height="56.528" fill="#9b1c2e"/>
    </clipPath>
  </defs>
  <g id="Group_9216" data-name="Group 9216" transform="translate(-900.91 -1935.524)">
    <g id="Group_8898" data-name="Group 8898" transform="translate(950.91 1942.735)">
      <g id="Group_8813" data-name="Group 8813" transform="translate(0 0)" clip-path="url(#clip-path)">
        <path id="Path_7808" data-name="Path 7808" d="M0,132.7l.128-.007a5.244,5.244,0,0,1,1.636.721c3.465,1.833,6.942,3.644,10.417,5.46,3.683,1.926,7.354,3.874,11.049,5.777.328.169.644.355.725.764a5.34,5.34,0,0,1,.045.962q0,10.141,0,20.281a1.6,1.6,0,0,1-.214,1.168c-1.824-.794-3.542-1.8-5.3-2.711Q9.231,160.306,0,155.464Z" transform="translate(0 -111.313)" fill="#ba2a45"/>
        <path id="Path_7809" data-name="Path 7809" d="M147.606,120.692q.006-10.132.012-20.264,0-1.186,0-2.373a2.577,2.577,0,0,1,1.045-.716c2.79-1.361,5.533-2.814,8.295-4.229q7.228-3.7,14.452-7.415,4.686-2.4,9.364-4.816c2.662-1.375,5.34-2.72,8-4.106.267-.139.532-.389.882-.2q.006,11.085.025,22.169c0,.458-.251.572-.561.731q-12.734,6.534-25.464,13.075-7.707,3.959-15.416,7.914c-.2.1-.369.3-.632.229" transform="translate(-123.823 -64.178)" fill="#9b1c2e"/>
        <path id="Path_7810" data-name="Path 7810" d="M66.5,12.4a20.03,20.03,0,0,0-2.766,1.335q-7.1,3.62-14.176,7.273-9.716,4.989-19.432,9.978-2.828,1.451-5.66,2.895c-1.089-.589-2.171-1.19-3.268-1.764q-6.36-3.324-12.727-6.635Q4.78,23.551,1.1,21.6a2.54,2.54,0,0,1-.3-.222c1.015-.547,2.021-1.111,3.047-1.637Q10.5,16.33,17.17,12.933q7.233-3.7,14.458-7.42L40.885.758A2.1,2.1,0,0,0,41.34.522c.934-.835,1.781-.547,2.76.021,1.887,1.095,3.848,2.063,5.783,3.073,4.251,2.219,8.517,4.41,12.75,6.662A30.721,30.721,0,0,1,66.5,12.4" transform="translate(-0.667 0)" fill="#ffe0e0"/>
        <path id="Path_7811" data-name="Path 7811" d="M251.662,53.765A7.281,7.281,0,0,1,247.7,52.5a1.691,1.691,0,0,1-.264-2.857,5.806,5.806,0,0,1,3.247-1.391,9.839,9.839,0,0,1,5.229.473,4.852,4.852,0,0,1,1.623,1.009c.914.834.631,2.151-.561,2.9a9.389,9.389,0,0,1-5.308,1.137" transform="translate(-207.004 -40.34)" fill="#ba2a45"/>
        <path id="Path_7812" data-name="Path 7812" d="M104.456,131.34a7.834,7.834,0,0,1-4.549-1.128c-1.467-.974-1.5-2.234-.1-3.295a6.2,6.2,0,0,1,2.851-1.077,9.975,9.975,0,0,1,5.585.6,3.771,3.771,0,0,1,1.222.805,1.7,1.7,0,0,1-.232,2.79,7.787,7.787,0,0,1-4.776,1.3" transform="translate(-82.864 -105.439)" fill="#ba2a45"/>
        <path id="Path_7813" data-name="Path 7813" d="M178.483,92.815a9.265,9.265,0,0,1-4.492-1.152c-1.566-1.029-1.55-2.521.062-3.48a7.7,7.7,0,0,1,3.659-1.033,9.339,9.339,0,0,1,4.978.9,3.628,3.628,0,0,1,1.15,1,1.657,1.657,0,0,1-.433,2.277,6.7,6.7,0,0,1-3.48,1.338c-.485.067-.975.1-1.444.14" transform="translate(-144.982 -73.093)" fill="#ba2a45"/>
      </g>
    </g>
    <g id="Group_8814" data-name="Group 8814" transform="translate(900.91 1968.789)">
      <g id="Group_8813-2" data-name="Group 8813" transform="translate(0 0)" clip-path="url(#clip-path)">
        <path id="Path_7808-2" data-name="Path 7808" d="M0,132.7l.128-.007a5.244,5.244,0,0,1,1.636.721c3.465,1.833,6.942,3.644,10.417,5.46,3.683,1.926,7.354,3.874,11.049,5.777.328.169.644.355.725.764a5.34,5.34,0,0,1,.045.962q0,10.141,0,20.281a1.6,1.6,0,0,1-.214,1.168c-1.824-.794-3.542-1.8-5.3-2.711Q9.231,160.306,0,155.464Z" transform="translate(0 -111.313)" fill="#ba2a45"/>
        <path id="Path_7809-2" data-name="Path 7809" d="M147.606,120.692q.006-10.132.012-20.264,0-1.186,0-2.373a2.577,2.577,0,0,1,1.045-.716c2.79-1.361,5.533-2.814,8.295-4.229q7.228-3.7,14.452-7.415,4.686-2.4,9.364-4.816c2.662-1.375,5.34-2.72,8-4.106.267-.139.532-.389.882-.2q.006,11.085.025,22.169c0,.458-.251.572-.561.731q-12.734,6.534-25.464,13.075-7.707,3.959-15.416,7.914c-.2.1-.369.3-.632.229" transform="translate(-123.823 -64.178)" fill="#9b1c2e"/>
        <path id="Path_7810-2" data-name="Path 7810" d="M66.5,12.4a20.03,20.03,0,0,0-2.766,1.335q-7.1,3.62-14.176,7.273-9.716,4.989-19.432,9.978-2.828,1.451-5.66,2.895c-1.089-.589-2.171-1.19-3.268-1.764q-6.36-3.324-12.727-6.635Q4.78,23.551,1.1,21.6a2.54,2.54,0,0,1-.3-.222c1.015-.547,2.021-1.111,3.047-1.637Q10.5,16.33,17.17,12.933q7.233-3.7,14.458-7.42L40.885.758A2.1,2.1,0,0,0,41.34.522c.934-.835,1.781-.547,2.76.021,1.887,1.095,3.848,2.063,5.783,3.073,4.251,2.219,8.517,4.41,12.75,6.662A30.721,30.721,0,0,1,66.5,12.4" transform="translate(-0.667 0)" fill="#ffe0e0"/>
        <path id="Path_7811-2" data-name="Path 7811" d="M251.662,53.765A7.281,7.281,0,0,1,247.7,52.5a1.691,1.691,0,0,1-.264-2.857,5.806,5.806,0,0,1,3.247-1.391,9.839,9.839,0,0,1,5.229.473,4.852,4.852,0,0,1,1.623,1.009c.914.834.631,2.151-.561,2.9a9.389,9.389,0,0,1-5.308,1.137" transform="translate(-207.004 -40.34)" fill="#ba2a45"/>
        <path id="Path_7812-2" data-name="Path 7812" d="M104.456,131.34a7.834,7.834,0,0,1-4.549-1.128c-1.467-.974-1.5-2.234-.1-3.295a6.2,6.2,0,0,1,2.851-1.077,9.975,9.975,0,0,1,5.585.6,3.771,3.771,0,0,1,1.222.805,1.7,1.7,0,0,1-.232,2.79,7.787,7.787,0,0,1-4.776,1.3" transform="translate(-82.864 -105.439)" fill="#ba2a45"/>
        <path id="Path_7813-2" data-name="Path 7813" d="M178.483,92.815a9.265,9.265,0,0,1-4.492-1.152c-1.566-1.029-1.55-2.521.062-3.48a7.7,7.7,0,0,1,3.659-1.033,9.339,9.339,0,0,1,4.978.9,3.628,3.628,0,0,1,1.15,1,1.657,1.657,0,0,1-.433,2.277,6.7,6.7,0,0,1-3.48,1.338c-.485.067-.975.1-1.444.14" transform="translate(-144.982 -73.093)" fill="#ba2a45"/>
      </g>
    </g>
    <g id="Group_8857" data-name="Group 8857" transform="translate(922.298 1935.524)">
      <g id="Group_8813-3" data-name="Group 8813" transform="translate(0 0)" clip-path="url(#clip-path)">
        <path id="Path_7808-3" data-name="Path 7808" d="M0,132.7l.128-.007a5.244,5.244,0,0,1,1.636.721c3.465,1.833,6.942,3.644,10.417,5.46,3.683,1.926,7.354,3.874,11.049,5.777.328.169.644.355.725.764a5.34,5.34,0,0,1,.045.962q0,10.141,0,20.281a1.6,1.6,0,0,1-.214,1.168c-1.824-.794-3.542-1.8-5.3-2.711Q9.231,160.306,0,155.464Z" transform="translate(0 -111.313)" fill="#ba2a45"/>
        <path id="Path_7809-3" data-name="Path 7809" d="M147.606,120.692q.006-10.132.012-20.264,0-1.186,0-2.373a2.577,2.577,0,0,1,1.045-.716c2.79-1.361,5.533-2.814,8.295-4.229q7.228-3.7,14.452-7.415,4.686-2.4,9.364-4.816c2.662-1.375,5.34-2.72,8-4.106.267-.139.532-.389.882-.2q.006,11.085.025,22.169c0,.458-.251.572-.561.731q-12.734,6.534-25.464,13.075-7.707,3.959-15.416,7.914c-.2.1-.369.3-.632.229" transform="translate(-123.823 -64.178)" fill="#9b1c2e"/>
        <path id="Path_7810-3" data-name="Path 7810" d="M66.5,12.4a20.03,20.03,0,0,0-2.766,1.335q-7.1,3.62-14.176,7.273-9.716,4.989-19.432,9.978-2.828,1.451-5.66,2.895c-1.089-.589-2.171-1.19-3.268-1.764q-6.36-3.324-12.727-6.635Q4.78,23.551,1.1,21.6a2.54,2.54,0,0,1-.3-.222c1.015-.547,2.021-1.111,3.047-1.637Q10.5,16.33,17.17,12.933q7.233-3.7,14.458-7.42L40.885.758A2.1,2.1,0,0,0,41.34.522c.934-.835,1.781-.547,2.76.021,1.887,1.095,3.848,2.063,5.783,3.073,4.251,2.219,8.517,4.41,12.75,6.662A30.721,30.721,0,0,1,66.5,12.4" transform="translate(-0.667 0)" fill="#ffe0e0"/>
        <path id="Path_7811-3" data-name="Path 7811" d="M251.662,53.765A7.281,7.281,0,0,1,247.7,52.5a1.691,1.691,0,0,1-.264-2.857,5.806,5.806,0,0,1,3.247-1.391,9.839,9.839,0,0,1,5.229.473,4.852,4.852,0,0,1,1.623,1.009c.914.834.631,2.151-.561,2.9a9.389,9.389,0,0,1-5.308,1.137" transform="translate(-207.004 -40.34)" fill="#ba2a45"/>
        <path id="Path_7812-3" data-name="Path 7812" d="M104.456,131.34a7.834,7.834,0,0,1-4.549-1.128c-1.467-.974-1.5-2.234-.1-3.295a6.2,6.2,0,0,1,2.851-1.077,9.975,9.975,0,0,1,5.585.6,3.771,3.771,0,0,1,1.222.805,1.7,1.7,0,0,1-.232,2.79,7.787,7.787,0,0,1-4.776,1.3" transform="translate(-82.864 -105.439)" fill="#ba2a45"/>
        <path id="Path_7813-3" data-name="Path 7813" d="M178.483,92.815a9.265,9.265,0,0,1-4.492-1.152c-1.566-1.029-1.55-2.521.062-3.48a7.7,7.7,0,0,1,3.659-1.033,9.339,9.339,0,0,1,4.978.9,3.628,3.628,0,0,1,1.15,1,1.657,1.657,0,0,1-.433,2.277,6.7,6.7,0,0,1-3.48,1.338c-.485.067-.975.1-1.444.14" transform="translate(-144.982 -73.093)" fill="#ba2a45"/>
      </g>
    </g>
  </g>
</svg>
