<svg id="Group_8583" data-name="Group 8583" xmlns="http://www.w3.org/2000/svg" xmlns:xlink="http://www.w3.org/1999/xlink" width="71" height="66.417" viewBox="0 0 71 66.417">
  <defs>
    <clipPath id="clip-path">
      <rect id="Rectangle_3092" data-name="Rectangle 3092" width="70.999" height="66.417" fill="#9b1c2e"/>
    </clipPath>
    <clipPath id="clip-path-2">
      <rect id="Rectangle_3088" data-name="Rectangle 3088" width="70.999" height="66.417" fill="none"/>
    </clipPath>
    <clipPath id="clip-path-3">
      <rect id="Rectangle_3086" data-name="Rectangle 3086" width="40.826" height="27.858" fill="none"/>
    </clipPath>
    <clipPath id="clip-path-4">
      <rect id="Rectangle_3087" data-name="Rectangle 3087" width="24.68" height="18.626" fill="none"/>
    </clipPath>
    <clipPath id="clip-path-6">
      <rect id="Rectangle_3089" data-name="Rectangle 3089" width="30.15" height="7.187" fill="none"/>
    </clipPath>
  </defs>
  <g id="Group_8582" data-name="Group 8582" transform="translate(0)" clip-path="url(#clip-path)">
    <path id="Path_4797" data-name="Path 4797" d="M86.891,175.85l8.021,4.631V165.549l-8.021-4.631Z" transform="translate(-67.262 -124.568)" fill="#110202"/>
    <path id="Path_4798" data-name="Path 4798" d="M91.47,180.476l.2-.116V174.7l-.2-.116Z" transform="translate(-70.807 -135.15)" fill="#110202"/>
    <path id="Path_4799" data-name="Path 4799" d="M92.361,202.554v5.655l5.751,3.32v-5.655Z" transform="translate(-71.497 -156.798)" fill="#adadad"/>
    <path id="Path_4800" data-name="Path 4800" d="M92.361,175.1v5.655l5.751,3.32v-5.655Z" transform="translate(-71.497 -135.548)" fill="#adadad"/>
    <path id="Path_4801" data-name="Path 4801" d="M98.112,186.844l-5.751,5.805v-6.913l2.91-3.283,2.84,1.66Z" transform="translate(-71.497 -141.238)" fill="#cfcccc"/>
    <path id="Path_4802" data-name="Path 4802" d="M91.469,200.979v-.327l5.952,3.437v.313Z" transform="translate(-70.807 -155.326)" fill="#110202"/>
    <path id="Path_4803" data-name="Path 4803" d="M91.671,200.138l-.2.116,5.952,3.437v-.233Z" transform="translate(-70.807 -154.927)" fill="#110202"/>
    <path id="Path_4804" data-name="Path 4804" d="M91.47,207.926l.2-.116v-5.655l-.2-.116Z" transform="translate(-70.807 -156.399)" fill="#110202"/>
    <path id="Path_4805" data-name="Path 4805" d="M91.671,227.588l-.2.116,5.952,3.437v-.233Z" transform="translate(-70.807 -176.177)" fill="#110202"/>
    <path id="Path_4806" data-name="Path 4806" d="M16.76,96.042l14.191,8.19V89.3l8.021,4.631v14.932l16.536,9.55V89.54L16.76,67.17Z" transform="translate(-12.974 -51.996)" fill="#f7f0f1"/>
    <path id="Path_4807" data-name="Path 4807" d="M188.288,117.372v28.873L212.968,132V103.124Z" transform="translate(-145.754 -79.828)" fill="#f0e6e6"/>
    <path id="Path_4808" data-name="Path 4808" d="M7.561,92.095v4.474L9.8,99.328l2.237-.176V94.678Z" transform="translate(-5.853 -71.291)" fill="#878787" fill-rule="evenodd"/>
    <path id="Path_4809" data-name="Path 4809" d="M27.367,103.53V108l2.237,2.759,2.237-.176v-4.474Z" transform="translate(-21.185 -80.143)" fill="#fff" fill-rule="evenodd"/>
    <path id="Path_4810" data-name="Path 4810" d="M47.173,114.965v4.474L49.41,122.2l2.237-.176v-4.474Z" transform="translate(-36.517 -88.995)" fill="#d93554" fill-rule="evenodd"/>
    <path id="Path_4811" data-name="Path 4811" d="M66.98,126.4v4.474l2.237,2.759,2.237-.176v-4.474Z" transform="translate(-51.849 -97.847)" fill="#878787" fill-rule="evenodd"/>
    <path id="Path_4812" data-name="Path 4812" d="M86.786,137.835v4.474l2.237,2.759,2.237-.176v-4.474Z" transform="translate(-67.181 -106.699)" fill="#fff" fill-rule="evenodd"/>
    <path id="Path_4813" data-name="Path 4813" d="M106.593,149.271v4.474l2.237,2.759,2.237-.176v-4.474Z" transform="translate(-82.514 -115.551)" fill="#d93554" fill-rule="evenodd"/>
    <path id="Path_4814" data-name="Path 4814" d="M126.4,160.706v4.474l2.237,2.759,2.237-.176v-4.474Z" transform="translate(-97.846 -124.403)" fill="#878787" fill-rule="evenodd"/>
    <path id="Path_4815" data-name="Path 4815" d="M146.205,172.141v4.474l2.237,2.759,2.237-.176v-4.474Z" transform="translate(-113.178 -133.255)" fill="#fff" fill-rule="evenodd"/>
    <path id="Path_4816" data-name="Path 4816" d="M166.012,183.576v4.474l2.237,2.759,2.237-.176V186.16Z" transform="translate(-128.51 -142.107)" fill="#d93554" fill-rule="evenodd"/>
    <g id="Group_8574" data-name="Group 8574">
      <g id="Group_8573" data-name="Group 8573" clip-path="url(#clip-path-2)">
        <g id="Group_8569" data-name="Group 8569" transform="translate(1.708 19.888)" opacity="0.7" style="mix-blend-mode: multiply;isolation: isolate">
          <g id="Group_8568" data-name="Group 8568">
            <g id="Group_8567" data-name="Group 8567" clip-path="url(#clip-path-3)">
              <path id="Path_4817" data-name="Path 4817" d="M48.386,115.9,7.561,92.317V88.039l40.826,23.58Z" transform="translate(-7.561 -88.039)" fill="#c7a4a9" fill-rule="evenodd"/>
            </g>
          </g>
        </g>
        <g id="Group_8572" data-name="Group 8572" transform="translate(42.534 29.119)" opacity="0.7" style="mix-blend-mode: multiply;isolation: isolate">
          <g id="Group_8571" data-name="Group 8571">
            <g id="Group_8570" data-name="Group 8570" clip-path="url(#clip-path-4)">
              <path id="Path_4818" data-name="Path 4818" d="M212.968,133.282l-24.68,14.249v-4.377l24.68-14.249Z" transform="translate(-188.288 -128.905)" fill="#c7a4a9" fill-rule="evenodd"/>
            </g>
          </g>
        </g>
      </g>
    </g>
    <path id="Path_4819" data-name="Path 4819" d="M41.44,0,16.759,14.249,55.507,36.62l24.68-14.249Z" transform="translate(-12.974 0)" fill="#ba2a45"/>
    <path id="Path_4820" data-name="Path 4820" d="M188.288,113.281v9.033l28.466-16.435-3.786-6.847Z" transform="translate(-145.754 -76.661)" fill="#711925"/>
    <path id="Path_4821" data-name="Path 4821" d="M0,69.925,42.534,94.482V85.448L3.786,63.078Z" transform="translate(0 -48.829)" fill="#9b1c2e"/>
    <path id="Path_4822" data-name="Path 4822" d="M79.581,165.139V180.07l1.651-.953V166.092Z" transform="translate(-61.604 -127.834)" fill="#878787"/>
    <path id="Path_4823" data-name="Path 4823" d="M25.6,139.127v10.041l.95-.548v-8.89Z" transform="translate(-19.816 -107.699)" fill="#878787"/>
    <path id="Path_4824" data-name="Path 4824" d="M26.549,181.151l-.95.548,10,5.807-.013-1.135Z" transform="translate(-19.816 -140.23)" fill="#cfcccc"/>
    <path id="Path_4825" data-name="Path 4825" d="M29.8,141.8v8.89l9.041,5.22v-8.89Z" transform="translate(-23.071 -109.765)" fill="#adadad"/>
    <path id="Path_4826" data-name="Path 4826" d="M37.461,155.136l-4.907,5.354L29.8,158.9v-2.947l2.91-3.546Z" transform="translate(-23.07 -117.98)" fill="#cfcccc"/>
    <path id="Path_4827" data-name="Path 4827" d="M129.116,193.481v10.041l.95-.548v-8.89Z" transform="translate(-99.949 -149.774)" fill="#878787"/>
    <path id="Path_4828" data-name="Path 4828" d="M130.066,235.5l-.95.548,10,5.807-.013-1.135Z" transform="translate(-99.95 -182.305)" fill="#cfcccc"/>
    <path id="Path_4829" data-name="Path 4829" d="M133.321,196.15v8.89l9.041,5.22v-8.89Z" transform="translate(-103.204 -151.84)" fill="#adadad"/>
    <path id="Path_4830" data-name="Path 4830" d="M140.98,209.487l-4.9,5.349-2.757-1.583v-2.947l2.91-3.546Z" transform="translate(-103.204 -160.054)" fill="#cfcccc"/>
    <g id="Group_8579" data-name="Group 8579">
      <g id="Group_8578" data-name="Group 8578" clip-path="url(#clip-path-2)">
        <g id="Group_8577" data-name="Group 8577" transform="translate(18.617 21.061)" opacity="0.7" style="mix-blend-mode: multiply;isolation: isolate">
          <g id="Group_8576" data-name="Group 8576">
            <g id="Group_8575" data-name="Group 8575" clip-path="url(#clip-path-6)">
              <path id="Path_4831" data-name="Path 4831" d="M94.86,100.422,82.412,93.235h21.8l8.347,4.819-.02,2.368Z" transform="translate(-82.412 -93.235)" fill="#93787c" fill-rule="evenodd"/>
            </g>
          </g>
        </g>
      </g>
    </g>
    <path id="Path_4832" data-name="Path 4832" d="M94.86,51.358,82.412,44.171V29.854L94.86,37.041Z" transform="translate(-63.795 -23.11)" fill="#da2f4f" fill-rule="evenodd"/>
    <path id="Path_4833" data-name="Path 4833" d="M141.53,65.735l-4.011,2.316V53.734l4.011-2.316Z" transform="translate(-106.453 -39.803)" fill="#9b1c2e" fill-rule="evenodd"/>
    <path id="Path_4834" data-name="Path 4834" d="M86.423,19.6l-4.011,2.316L94.86,29.1l4.011-2.316Z" transform="translate(-63.795 -15.174)" fill="#f54062" fill-rule="evenodd"/>
    <g id="Group_8581" data-name="Group 8581">
      <g id="Group_8580" data-name="Group 8580" clip-path="url(#clip-path-2)">
        <path id="Path_4835" data-name="Path 4835" d="M99.886,56.886a5.471,5.471,0,0,0-.134-1.167l-.769-.25c.3,1.382-.017,2.53-.959,2.928-1.426.6-3.747-.737-5.173-2.987s-1.426-4.571,0-5.173c1.069-.452,2.64.187,3.96,1.483l.3-.563a8.417,8.417,0,0,0-1.671-1.288,3.622,3.622,0,0,0-3.145-.513,2.376,2.376,0,0,0-1.3,2.393,7.575,7.575,0,0,0,1.3,3.9,9.476,9.476,0,0,0,3.145,3.119,3.622,3.622,0,0,0,3.145.513,2.376,2.376,0,0,0,1.3-2.393" transform="translate(-70.436 -38.07)" fill="#fff"/>
        <path id="Path_4836" data-name="Path 4836" d="M103.059,60.624l-3.008-.977,1.165-2.2c-1.12-1.1-2.451-1.641-3.359-1.257-1.211.512-1.211,2.477,0,4.388s3.176,3.045,4.388,2.533c.8-.338,1.072-1.311.815-2.484m-3.511-3.876c.166-.07.435.085.6.347s.166.53,0,.6-.435-.085-.6-.347-.166-.53,0-.6M98.1,58.562c-.166.07-.434-.085-.6-.347s-.166-.53,0-.6.435.085.6.347.166.53,0,.6m1.141,2.582c-.216.091-.567-.111-.783-.452s-.216-.691,0-.783.567.111.783.452.216.692,0,.783m.389-2.29c-.212.09-.557-.109-.769-.444s-.213-.68,0-.769.557.109.769.444.212.679,0,.769m.629,1.881c-.118.05-.309-.061-.426-.246s-.118-.376,0-.426.309.06.426.246.118.377,0,.426m.945,1.711c-.166.07-.435-.085-.6-.347s-.166-.53,0-.6.435.085.6.347.166.53,0,.6m1.308-.553c-.2.085-.529-.1-.732-.422s-.2-.646,0-.731.53.1.732.422.2.646,0,.732" transform="translate(-75.048 -43.399)" fill="#fff"/>
        <path id="Path_4837" data-name="Path 4837" d="M120.184,59.522a7.1,7.1,0,0,1,.959,2.245l.769.25a8.652,8.652,0,0,0-1.169-2.73,10.315,10.315,0,0,0-1.474-1.83l-.3.562a8.459,8.459,0,0,1,1.213,1.5" transform="translate(-92.096 -44.477)" fill="#fff"/>
        <path id="Path_4838" data-name="Path 4838" d="M115.084,62.965a7.19,7.19,0,0,0-1.029-1.276l-1.165,2.2,3.008.977a6.033,6.033,0,0,0-.815-1.9m-1.217.9c-.084.036-.222-.043-.306-.177s-.084-.271,0-.306.222.043.306.177.084.271,0,.306m.59-.555c-.129.054-.338-.066-.467-.269s-.129-.412,0-.467.338.066.467.269.129.412,0,.467m.946,1.2c-.1.042-.258-.051-.357-.206s-.1-.315,0-.357.258.051.357.206.1.315,0,.357" transform="translate(-87.389 -47.754)" fill="#fff"/>
        <path id="Path_4839" data-name="Path 4839" d="M88.974,83.9l.474.274a1.021,1.021,0,0,1,.623.848c0,.349-.25.369-.613.159l-.273-.158v.658l-.211-.122ZM89.432,85c.29.168.429.142.429-.094s-.147-.4-.439-.571l-.236-.136v.659Z" transform="translate(-68.875 -64.95)" fill="#fff"/>
        <path id="Path_4840" data-name="Path 4840" d="M95.312,87.563l.211.122v1.66l-.211-.122Z" transform="translate(-73.782 -67.783)" fill="#fff"/>
        <path id="Path_4841" data-name="Path 4841" d="M97.753,90.662l.874-.851-.8-.459v-.179l1.057.61v.126l-.874.851.882.51v.179l-1.144-.66Z" transform="translate(-75.671 -69.029)" fill="#fff"/>
        <path id="Path_4842" data-name="Path 4842" d="M103.609,94.044l.874-.851-.8-.459v-.179l1.057.61v.126l-.874.851.882.51v.179l-1.144-.66Z" transform="translate(-80.204 -71.647)" fill="#fff"/>
        <path id="Path_4843" data-name="Path 4843" d="M110.1,96.1l.957.553v.179l-.746-.431v.52l.629.363v.179l-.629-.363v.6l.771.445v.179l-.982-.567Z" transform="translate(-85.232 -74.394)" fill="#fff"/>
        <path id="Path_4844" data-name="Path 4844" d="M116,99.51l.52.3a.969.969,0,0,1,.581.8c0,.332-.243.351-.581.156l-.309-.178v.7L116,101.17Zm.49,1.07c.258.149.4.126.4-.089s-.142-.378-.4-.527l-.278-.161v.616Zm-.011.107.166-.014.506,1.161-.239-.138Z" transform="translate(-89.8 -77.031)" fill="#fff"/>
        <path id="Path_4845" data-name="Path 4845" d="M122.376,103.188l.211.122v1.66l-.211-.122Z" transform="translate(-94.732 -79.879)" fill="#fff"/>
        <path id="Path_4846" data-name="Path 4846" d="M124.908,105.761l.238.138.562,1.984-.224-.129-.29-1.094c-.06-.22-.113-.433-.166-.655l-.01-.006c-.052.163-.1.313-.164.464l-.293.758-.215-.124Zm-.266.832.764.441v.169l-.764-.441Z" transform="translate(-96.257 -81.87)" fill="#fff"/>
      </g>
    </g>
  </g>
</svg>
