<svg xmlns="http://www.w3.org/2000/svg" width="31.307" height="31.307" viewBox="0 0 31.307 31.307">
  <path id="Icon_awesome-youtube-square" data-name="Icon awesome-youtube-square" d="M13.054,14.137l6.653,3.781L13.054,21.7ZM31.307,5.6V30.2a3.355,3.355,0,0,1-3.354,3.354H3.354A3.355,3.355,0,0,1,0,30.2V5.6A3.355,3.355,0,0,1,3.354,2.25h24.6A3.355,3.355,0,0,1,31.307,5.6Zm-2.935,12.32a33.579,33.579,0,0,0-.531-6.164A3.19,3.19,0,0,0,25.591,9.5c-1.978-.538-9.937-.538-9.937-.538s-7.96,0-9.937.538a3.19,3.19,0,0,0-2.25,2.264,33.538,33.538,0,0,0-.531,6.164,33.579,33.579,0,0,0,.531,6.164,3.144,3.144,0,0,0,2.25,2.229c1.978.531,9.937.531,9.937.531s7.96,0,9.937-.538a3.144,3.144,0,0,0,2.25-2.229,33.476,33.476,0,0,0,.531-6.157Z" transform="translate(0 -2.25)" fill="#9b1c2e"/>
</svg>
