<svg xmlns="http://www.w3.org/2000/svg" width="28.97" height="33.109" viewBox="0 0 28.97 33.109">
  <path id="Icon_awesome-discord" data-name="Icon awesome-discord" d="M19.22,15.727a1.695,1.695,0,1,1-1.689-1.838A1.764,1.764,0,0,1,19.22,15.727Zm-7.731-1.838a1.844,1.844,0,0,0,0,3.675,1.764,1.764,0,0,0,1.689-1.838A1.753,1.753,0,0,0,11.489,13.889ZM28.97,3.41v29.7c-4.171-3.686-2.837-2.466-7.681-6.969l.877,3.063H3.394A3.4,3.4,0,0,1,0,25.792V3.41A3.4,3.4,0,0,1,3.394,0H25.576A3.4,3.4,0,0,1,28.97,3.41ZM24.252,19.1a22.169,22.169,0,0,0-2.384-9.651,8.186,8.186,0,0,0-4.652-1.738l-.232.265a11.017,11.017,0,0,1,4.122,2.1A14.066,14.066,0,0,0,8.741,9.6c-.613.281-.977.48-.977.48a11.168,11.168,0,0,1,4.354-2.169l-.166-.2A8.186,8.186,0,0,0,7.3,9.453,22.169,22.169,0,0,0,4.917,19.1,6,6,0,0,0,9.966,21.62s.613-.745,1.109-1.374a5.149,5.149,0,0,1-2.9-1.953c.244.17.645.391.679.414a12.067,12.067,0,0,0,10.33.579,9.473,9.473,0,0,0,1.9-.977,5.224,5.224,0,0,1-3,1.97c.5.629,1.093,1.341,1.093,1.341A6.051,6.051,0,0,0,24.252,19.1Z" fill="#9b1c2e"/>
</svg>
