<svg xmlns="http://www.w3.org/2000/svg" xmlns:xlink="http://www.w3.org/1999/xlink" width="61.351" height="74.462" viewBox="0 0 61.351 74.462">
  <defs>
    <clipPath id="clip-path">
      <rect id="Rectangle_3084" data-name="Rectangle 3084" width="61.351" height="74.462" fill="none"/>
    </clipPath>
  </defs>
  <g id="Group_8566" data-name="Group 8566" transform="translate(0)">
    <g id="Group_8565" data-name="Group 8565" transform="translate(0)" clip-path="url(#clip-path)">
      <path id="Path_4753" data-name="Path 4753" d="M101.311,263.005l1.984.32a10.089,10.089,0,0,1-1.984-.32" transform="translate(-73.674 -191.26)" fill="#5d4433"/>
      <path id="Path_4754" data-name="Path 4754" d="M101.363,1.908l-.268-.475a3.143,3.143,0,0,1,.268.475" transform="translate(-73.517 -1.042)" fill="#5d4433"/>
      <path id="Path_4755" data-name="Path 4755" d="M57.955,49.01l-1.7-.987-1.745,4.307L44.921,56,34.7,47.891l-12.113.288L21.9,46.76,20.42,43.71l.644-2.182,6.259-8.036L31.668,29s2.847-4.855,4.649-8.191l.478,1.349L37.806,25l1.587-2.518,5.22,3.992.661-3.88c2.923,6.073,9.55,20.047,12.681,26.413" transform="translate(-14.85 -15.13)" fill="#9b1c2e"/>
      <path id="Path_4756" data-name="Path 4756" d="M138.76,69.662l-5.23-3.433L119,56.407l-7.708-14.884-2.187-10.969.661-3.88.044-.261,1.415.837,4.948,11.965,5.122-6.692,11.49,19.563Z" transform="translate(-79.344 -19.208)" fill="#771725"/>
      <path id="Path_4757" data-name="Path 4757" d="M36.8,22.155a34.126,34.126,0,0,1-5.323,9.137c-.853.781-7.14,10.378-7.58,10.319A40.755,40.755,0,0,0,21.9,46.761l-1.479-3.05.643-2.182,6.259-8.036L30.2,28.874a54.481,54.481,0,0,0,6.117-8.067Z" transform="translate(-14.85 -15.131)" fill="#ba2a45"/>
      <path id="Path_4758" data-name="Path 4758" d="M45.233,149.687,43.969,154.1a34.343,34.343,0,0,1-13.507,2.29c-.078,0-.155-.005-.234-.009l-1.984-.32a18.211,18.211,0,0,1-2.794-1c-3.748-1.656-8.008-5.218-12.517-7.134-1.74-.74-3.224-.812-4.685-1.607-1.707-.93-3.209-1.86-4.472-2.706-.191-.129-.376-.253-.555-.377a6.008,6.008,0,0,1-2.385-3.317c1.8-4.462,4.377-17.122,6.821-23.975l.689,1.419,12.113-.288,10.22,8.107,9.587-3.669.742,10.689Z" transform="translate(-0.607 -84.318)" fill="#ba2a45"/>
      <path id="Path_4759" data-name="Path 4759" d="M149.084,157.436l1.264-4.416-4.226-17.48-.742-10.689,5.978,1.291,7.413,5.01.394-10.621,3.073,7.217,2.231,5.238,2.6,9.456s-13.811,13.35-17.989,14.994" transform="translate(-105.722 -87.651)" fill="#9b1c2e"/>
      <path id="Path_4760" data-name="Path 4760" d="M45.208,182.178c-3.748-1.656-7.417-4.069-12.272-7-1.62-.976-3.469-.95-4.931-1.745l3.661-20.2,8.509,1.311L44.722,166.7Z" transform="translate(-20.366 -111.434)" fill="#171414"/>
      <path id="Path_4761" data-name="Path 4761" d="M21.9,152.518l2.222-1.291,1.656.956-2.222,1.291Z" transform="translate(-15.926 -109.974)" fill="#d9d9d9"/>
      <path id="Path_4762" data-name="Path 4762" d="M42.179,155.049c0-.047.006-.094.01-.138,0-.026.006-.052.008-.077l.014-.114c0-.027.007-.055.013-.082s.011-.069.017-.1.012-.06.017-.09.013-.061.021-.091.018-.068.028-.1.014-.053.022-.08l.04-.118c.008-.025.017-.05.026-.074l.013-.036c.017-.04.034-.081.052-.119a2.248,2.248,0,0,1,.16-.3l.018-.025c.02-.032.041-.062.064-.092a.436.436,0,0,1,.027-.035c.02-.027.042-.054.064-.08a.257.257,0,0,0,.025-.029c.031-.034.061-.066.094-.1s.071-.065.1-.09l.032-.026c.025-.021.05-.039.077-.058l.032-.023c.037-.025.073-.049.112-.071l-2.222,1.291c-.038.023-.074.046-.112.071l-.032.024c-.027.017-.052.038-.077.059a.272.272,0,0,0-.032.026c-.03.025-.059.05-.086.077a1.335,1.335,0,0,0-.107.112c-.009.008-.017.018-.026.028-.022.026-.044.052-.064.079l-.027.035c-.022.03-.044.061-.064.092-.006.009-.012.017-.017.026a2.257,2.257,0,0,0-.147.264c-.008.017-.011.025-.014.033-.018.039-.035.079-.052.119-.005.011-.009.023-.013.035s-.008.018-.011.026-.011.031-.016.047c-.014.039-.027.079-.04.119,0,.011-.006.021-.01.032s-.008.032-.011.047c-.01.034-.019.068-.028.1,0,.014-.007.028-.01.041s-.007.032-.01.049-.012.059-.017.09c0,.015-.007.03-.01.046s0,.037-.008.056-.008.054-.012.081,0,.028-.006.042-.005.049-.008.072-.005.051-.008.078c0,.01,0,.02,0,.032,0,.035,0,.07-.007.106,0,.019,0,.037,0,.057,0,.073,0,.133,0,.2,0,.011-.019,6.89-.019,6.89l-.039,13.169,2.223-1.292.038-13.167.019-6.881c0-.07,0-.139.005-.206,0-.019,0-.038,0-.056" transform="translate(-29.008 -111.192)" fill="#878686"/>
      <path id="Path_4763" data-name="Path 4763" d="M35.789,137.995l.053-.024.084-.037.058-.023c.027-.012.055-.022.084-.031s.043-.017.066-.025l.053-.017.077-.024.053-.017.08-.021.051-.013.09-.02.045-.01.029-.005.154-.026.052-.008c.053-.007.1-.013.157-.018l.028,0c.056-.005.112-.009.169-.012h.041c.043,0,.086,0,.128,0h.07c.03,0,.059,0,.089,0h.073l.09.005.079,0,.075.007.082.009.078.008.085.013.073.011.088.014.071.013.1.021.053.011.138.032c.073.018.126.032.177.046l.05.015.1.03c.081.025.163.052.246.08l.051.018c.085.03.17.062.256.1s.168.07.253.106l.055.025c.082.037.166.075.249.116l.041.021c.077.038.153.077.231.119l.049.026c.069.037.138.075.207.115l2.222-1.292-.207-.115c-.028-.016-.039-.019-.049-.026-.077-.041-.154-.08-.231-.118l-.029-.015c-.1-.047-.179-.085-.262-.123l-.055-.025c-.172-.075-.34-.143-.509-.2l-.028-.011c-.1-.037-.186-.064-.268-.088l-.1-.03a.517.517,0,0,0-.05-.013c-.051-.014-.1-.029-.156-.041-.068-.017-.115-.028-.16-.038l-.052-.011-.077-.017-.1-.017c-.029-.006-.059-.011-.088-.015l-.073-.012-.05-.008-.035,0-.077-.009-.083-.009-.076-.006-.045,0a.242.242,0,0,1-.034,0l-.089,0-.073,0-.089,0h-.048l-.15,0-.042,0c-.056,0-.112.007-.167.012l-.029,0c-.052.005-.105.011-.157.019l-.053.007q-.077.011-.154.026l-.074.015-.09.02-.05.014-.081.022-.053.016-.078.023-.053.019-.037.011-.03.013c-.028.01-.056.02-.084.032l-.056.023c-.028.011-.056.023-.085.037l-.053.023-.09.045c-.014.007-.029.013-.043.022-.045.023-.088.047-.131.071l-2.222,1.291c.043-.025.087-.048.131-.071l.042-.022.09-.045" transform="translate(-25.834 -99.166)" fill="#d9d9d9"/>
      <path id="Path_4764" data-name="Path 4764" d="M79.789,185.941l2.223-1.291,1.655.956L81.444,186.9Z" transform="translate(-58.023 -134.279)" fill="#d9d9d9"/>
      <path id="Path_4765" data-name="Path 4765" d="M85.632,243.709v.165l-1.051.611v-.166Z" transform="translate(-61.508 -177.227)" fill="#3e2c21"/>
      <path id="Path_4766" data-name="Path 4766" d="M65.226,234.771v.166l-7.26-4.192v-.165Z" transform="translate(-42.153 -167.68)" fill="#5d4433"/>
      <path id="Path_4767" data-name="Path 4767" d="M66.276,232.531l-1.051.609-7.261-4.191,1.051-.612Z" transform="translate(-42.153 -166.049)" fill="#9b1c2e"/>
      <path id="Path_4768" data-name="Path 4768" d="M77.75,248.285v.165l-1.052.612V248.9Z" transform="translate(-55.775 -180.555)" fill="#3e2c21"/>
      <path id="Path_4769" data-name="Path 4769" d="M57.345,239.349v.167l-7.26-4.193v-.166Z" transform="translate(-36.422 -171.009)" fill="#5d4433"/>
      <path id="Path_4770" data-name="Path 4770" d="M58.4,237.11l-1.051.61-7.261-4.191,1.052-.611Z" transform="translate(-36.422 -169.38)" fill="#9b1c2e"/>
      <path id="Path_4771" data-name="Path 4771" d="M69.871,252.866v.166l-1.051.61v-.165Z" transform="translate(-50.047 -183.887)" fill="#3e2c21"/>
      <path id="Path_4772" data-name="Path 4772" d="M49.466,243.928v.165l-7.26-4.19v-.167Z" transform="translate(-30.692 -174.339)" fill="#5d4433"/>
      <path id="Path_4773" data-name="Path 4773" d="M50.516,241.691l-1.051.61-7.26-4.192,1.051-.61Z" transform="translate(-30.692 -172.712)" fill="#9b1c2e"/>
      <path id="Path_4774" data-name="Path 4774" d="M61.989,257.446v.165l-1.051.611v-.166Z" transform="translate(-44.314 -187.217)" fill="#3e2c21"/>
      <path id="Path_4775" data-name="Path 4775" d="M41.583,248.51v.166l-7.26-4.193v-.164Z" transform="translate(-24.96 -177.671)" fill="#5d4433"/>
      <path id="Path_4776" data-name="Path 4776" d="M42.634,246.269l-1.052.61-7.26-4.191,1.052-.612Z" transform="translate(-24.96 -176.039)" fill="#9b1c2e"/>
      <path id="Path_4777" data-name="Path 4777" d="M54.11,262.023v.165l-1.051.612v-.166Z" transform="translate(-38.585 -190.545)" fill="#3e2c21"/>
      <path id="Path_4778" data-name="Path 4778" d="M33.708,253.087v.166l-7.259-4.192v-.166Z" transform="translate(-19.234 -180.998)" fill="#5d4433"/>
      <path id="Path_4779" data-name="Path 4779" d="M34.759,250.848l-1.051.611-7.259-4.192,1.051-.611Z" transform="translate(-19.234 -179.371)" fill="#9b1c2e"/>
      <path id="Path_4780" data-name="Path 4780" d="M46.232,266.6v.166l-1.05.611v-.165Z" transform="translate(-32.856 -193.876)" fill="#3e2c21"/>
      <path id="Path_4781" data-name="Path 4781" d="M25.826,257.666v.165l-7.261-4.191v-.167Z" transform="translate(-13.5 -184.328)" fill="#5d4433"/>
      <path id="Path_4782" data-name="Path 4782" d="M26.877,255.43l-1.05.611-7.261-4.193,1.051-.61Z" transform="translate(-13.501 -182.703)" fill="#9b1c2e"/>
      <path id="Path_4783" data-name="Path 4783" d="M29.073,226.1l0,.5-15.31,8.9,0-.5Z" transform="translate(-10.008 -164.422)" fill="#848484"/>
      <path id="Path_4784" data-name="Path 4784" d="M12.612,258.05l0,.5-.432-.249v-.5Z" transform="translate(-8.856 -187.474)" fill="#a6a5a5"/>
      <path id="Path_4785" data-name="Path 4785" d="M27.923,225.434l-15.31,8.9-.433-.25,15.31-8.9Z" transform="translate(-8.857 -163.756)" fill="#d9d9d9"/>
      <path id="Path_4786" data-name="Path 4786" d="M50.689,238.525v.5l-15.31,8.9,0-.5Z" transform="translate(-25.727 -173.457)" fill="#848484"/>
      <path id="Path_4787" data-name="Path 4787" d="M34.227,270.475l0,.5-.433-.25,0-.5Z" transform="translate(-24.574 -196.51)" fill="#a6a5a5"/>
      <path id="Path_4788" data-name="Path 4788" d="M49.54,237.859l-15.308,8.9-.433-.25,15.31-8.9Z" transform="translate(-24.578 -172.792)" fill="#d9d9d9"/>
      <path id="Path_4789" data-name="Path 4789" d="M85.7,189.444l2.222-1.291L87.868,208.2l-2.222,1.292Z" transform="translate(-62.282 -136.827)" fill="#878686"/>
      <path id="Path_4790" data-name="Path 4790" d="M30.494,142.065a15.53,15.53,0,0,1,7.045,12.2l1.656.955-.058,20.049L34.171,172.4l.038-13.167.02-6.881a8.256,8.256,0,0,0-3.746-6.486c-2.075-1.2-3.763-.237-3.769,2.148l-.02,6.879-.038,13.169L21.69,165.2l.057-20.048,1.656.956c.011-4.486,3.186-6.295,7.091-4.041" transform="translate(-15.773 -102.606)" fill="#eee"/>
      <path id="Path_4791" data-name="Path 4791" d="M63.231,152.118c0-.094,0-.189,0-.284V151.8c0-.01,0-.021,0-.033,0-.1-.008-.2-.014-.3,0-.017,0-.026,0-.035-.005-.092-.013-.186-.021-.28,0-.012,0-.025,0-.037-.011-.123-.023-.224-.035-.324,0-.035-.005-.048-.007-.059-.013-.1-.028-.2-.044-.3-.02-.127-.038-.232-.058-.339,0-.011,0-.023-.005-.035s0-.019-.006-.03c-.02-.107-.042-.214-.065-.321-.007-.03-.01-.041-.011-.053-.024-.106-.049-.212-.074-.317-.034-.137-.062-.247-.094-.358,0-.012,0-.023-.009-.035s-.005-.018-.007-.028c-.031-.108-.062-.215-.1-.324-.01-.035-.014-.046-.018-.059-.033-.105-.067-.213-.1-.317-.04-.121-.077-.228-.115-.334,0-.013-.009-.024-.013-.037l-.011-.03c-.038-.1-.075-.2-.114-.3-.01-.025-.014-.037-.019-.048q-.054-.135-.109-.27l-.015-.038c-.05-.118-.092-.217-.134-.314-.016-.036-.022-.05-.027-.062-.042-.092-.084-.182-.125-.274-.005-.009-.008-.018-.013-.028-.057-.12-.11-.23-.165-.339a.228.228,0,0,1-.015-.034c-.076-.146-.139-.272-.206-.395a.146.146,0,0,0-.015-.029c0-.01-.01-.019-.015-.029-.049-.092-.1-.184-.149-.274-.008-.013-.015-.025-.022-.038l-.139-.243c-.008-.011-.015-.025-.023-.038-.087-.148-.162-.272-.24-.395-.008-.015-.019-.03-.028-.045q-.118-.188-.24-.37l-.016-.025c-.075-.111-.14-.2-.2-.3l-.039-.056c-.068-.095-.135-.19-.2-.283-.1-.137-.2-.27-.306-.4l-.027-.034c-.084-.106-.167-.209-.253-.311s-.173-.205-.256-.3l-.019-.022c-.089-.1-.169-.19-.252-.278-.008-.009-.015-.018-.023-.027-.1-.109-.184-.2-.27-.283l-.02-.02a.28.28,0,0,0-.024-.023c-.086-.088-.173-.173-.262-.258-.02-.02-.028-.027-.035-.033-.093-.09-.187-.177-.282-.263l-.022-.019c-.1-.087-.195-.173-.294-.256s-.2-.166-.3-.242c-.009-.007-.015-.014-.024-.019-.1-.081-.192-.149-.284-.216l-.026-.021-.023-.016c-.088-.065-.177-.128-.267-.19-.026-.019-.036-.025-.046-.032-.089-.06-.175-.118-.264-.175s-.186-.115-.276-.169a.286.286,0,0,0-.031-.018l-.069-.042-2.222,1.292.1.06c.089.053.179.107.266.163s.185.121.273.18c.015.011.032.021.047.033.09.061.179.124.267.188.017.013.034.025.05.038.091.067.181.136.272.208.012.008.023.018.035.027.1.077.193.156.29.236s.2.175.3.262c.007.007.015.013.022.02.095.086.188.174.282.262l.035.034c.089.084.175.171.262.259.016.014.03.029.044.044.084.087.168.173.25.263l.042.047c.083.088.163.178.243.267.009.012.019.022.027.033.084.1.167.193.249.291s.177.215.26.32c.008.012.017.022.026.034.1.132.205.266.3.4.071.094.137.189.205.283.012.019.027.038.039.056.064.094.129.187.191.28l.029.043c.081.122.161.245.24.371l.027.045q.116.184.227.373c.012.02.024.04.035.06.047.08.094.161.139.242a.418.418,0,0,0,.022.038c.05.091.1.182.15.275.01.019.02.038.03.055.065.125.13.249.194.375.008.019.017.038.027.056.054.11.108.22.16.331a.337.337,0,0,0,.017.038c.042.09.083.182.125.274.008.021.018.041.026.061.043.1.085.2.127.294.007.019.015.039.023.058.037.09.073.18.109.271.005.016.012.031.019.048.038.1.076.2.113.3.008.023.017.045.024.067.038.106.076.213.112.32s.074.226.106.332c.007.02.012.04.018.06q.05.161.095.323c.006.021.012.041.017.064.032.11.061.222.088.333.032.131.057.236.081.342,0,.018.008.035.011.052.023.108.045.215.066.321,0,.023.008.044.011.066.02.106.038.211.055.316.019.124.033.222.046.323,0,.02.006.041.008.062.013.1.023.2.034.3,0,.02,0,.04.005.06.008.093.016.187.022.28,0,.012,0,.024,0,.035.006.1.01.2.013.3,0,.022,0,.045,0,.068,0,.094,0,.188,0,.282l2.223-1.291" transform="translate(-39.242 -101.747)" fill="#c2c3c3"/>
      <path id="Path_4792" data-name="Path 4792" d="M7.049,107.817C4.6,114.67,2.026,127.33.228,131.792a6,6,0,0,1,.261-4.01L5.57,104.767Z" transform="translate(0 -76.187)" fill="#f1395b"/>
      <path id="Path_4793" data-name="Path 4793" d="M80.832,12.348A17.658,17.658,0,0,0,79.174,16L78.7,14.656c.674-1.245,1.4-2.156,2.136-2.308" transform="translate(-57.228 -8.98)" fill="#f7f0f1"/>
      <path id="Path_4794" data-name="Path 4794" d="M88.267,11.345l-5.22-3.992L81.461,9.871,80.45,7.024a17.662,17.662,0,0,1,1.657-3.656c1-.209,2.583-3.255,3.365-3.364.221-.032.425.124.609.387Z" transform="translate(-58.504 0.001)" fill="#ffe0e0"/>
      <path id="Path_4795" data-name="Path 4795" d="M105.4,9.086l-1.415-.837-.044.261-.66,3.88L101.095,1.434l.267.475L105.4,9.086" transform="translate(-73.517 -1.043)" fill="#d88192"/>
      <path id="Path_4796" data-name="Path 4796" d="M134.506,48.815,127.271,50.4l4.034,10.976.427-7.863Z" transform="translate(-92.553 -35.498)" fill="#9b1c2e"/>
    </g>
  </g>
</svg>
