<svg id="Group_9121" data-name="Group 9121" xmlns="http://www.w3.org/2000/svg" width="25.536" height="30.39" viewBox="0 0 25.536 30.39">
  <path id="Path_8139" data-name="Path 8139" d="M128.535,161.9H113.121a.618.618,0,0,0-.621.621V175.45a.618.618,0,0,0,.621.621h2.748v4.356a1.832,1.832,0,0,0,1.832,1.832h0a1.832,1.832,0,0,0,1.832-1.832v-4.356H122.1v4.356a1.832,1.832,0,0,0,1.832,1.832h0a1.832,1.832,0,0,0,1.832-1.832v-4.356h2.787a.618.618,0,0,0,.621-.621V162.521A.642.642,0,0,0,128.535,161.9Z" transform="translate(-108.06 -151.87)" fill="#9b1c2e"/>
  <path id="Path_8140" data-name="Path 8140" d="M45.032,161.9h0a1.832,1.832,0,0,0-1.832,1.832v7.432A1.832,1.832,0,0,0,45.032,173h0a1.832,1.832,0,0,0,1.832-1.832v-7.432A1.836,1.836,0,0,0,45.032,161.9Z" transform="translate(-43.2 -151.87)" fill="#9b1c2e"/>
  <path id="Path_8141" data-name="Path 8141" d="M386.432,161.9h0a1.832,1.832,0,0,0-1.832,1.832v7.432A1.832,1.832,0,0,0,386.432,173h0a1.832,1.832,0,0,0,1.832-1.832v-7.432A1.832,1.832,0,0,0,386.432,161.9Z" transform="translate(-362.729 -151.87)" fill="#9b1c2e"/>
  <path id="Path_8142" data-name="Path 8142" d="M115.1,14.466h15.126a.62.62,0,0,0,.609-.75,8.352,8.352,0,0,0-4.081-5.554l1.294-2.332a.325.325,0,0,0-.57-.314l-1.3,2.345a8.4,8.4,0,0,0-7.021,0l-1.3-2.351a.325.325,0,1,0-.57.314l1.294,2.332a8.352,8.352,0,0,0-4.081,5.554A.622.622,0,0,0,115.1,14.466Zm12.083-3.479a.7.7,0,1,1-.7-.7A.7.7,0,0,1,127.178,10.988Zm-8.328-.7a.7.7,0,1,1-.7.7A.711.711,0,0,1,118.849,10.283Z" transform="translate(-109.912 -5.34)" fill="#9b1c2e"/>
</svg>
