<svg xmlns="http://www.w3.org/2000/svg" width="25.953" height="30.389" viewBox="0 0 25.953 30.389">
  <g id="Group_9123" data-name="Group 9123" transform="translate(-1546.187 -393)">
    <g id="Group_8923" data-name="Group 8923" transform="translate(1558.679 393)">
      <g id="Group_8922" data-name="Group 8922" transform="translate(0 0)">
        <path id="Path_8135" data-name="Path 8135" d="M173.327,7.5a7.118,7.118,0,0,0-4.614,2.5,6.213,6.213,0,0,0-1.51,4.816,6.021,6.021,0,0,0,4.66-2.376A6.746,6.746,0,0,0,173.327,7.5Z" transform="translate(-167.133 -7.5)" fill="#9b1c2e"/>
      </g>
    </g>
    <g id="Group_8925" data-name="Group 8925" transform="translate(1546.187 400.109)">
      <g id="Group_8924" data-name="Group 8924" transform="translate(0)">
        <path id="Path_8136" data-name="Path 8136" d="M56.565,87.785A7.688,7.688,0,0,0,50.754,84.7c-2.726,0-3.877,1.308-5.774,1.308-1.952,0-3.435-1.3-5.792-1.3a7.905,7.905,0,0,0-6.345,3.831c-2.2,3.407-1.823,9.817,1.74,15.268,1.271,1.952,2.974,4.144,5.2,4.172,1.98.018,2.542-1.271,5.221-1.28s3.2,1.3,5.166,1.28c2.229-.018,4.024-2.45,5.3-4.4a22.283,22.283,0,0,0,1.961-3.684A6.708,6.708,0,0,1,56.565,87.785Z" transform="translate(-31.478 -84.7)" fill="#9b1c2e"/>
      </g>
    </g>
  </g>
</svg>
