<svg id="firo-logo" xmlns="http://www.w3.org/2000/svg" width="100.17" height="35.374" viewBox="0 0 100.17 35.374">
  <g id="Group_8834" data-name="Group 8834" transform="translate(44.53 4.328)">
    <path id="Path_7835" data-name="Path 7835" d="M452.587,106.5H449.1V102.7h3.487v-1.647c0-6.361,1.852-6.611,9.2-6.611v3.442c-3.976,0-4.476.216-4.476,2.386v2.42h4.476v3.794h-4.476v14.336h-4.726V106.5ZM465.14,94.4h4.873v4.192H465.14Zm.034,8.293h4.76v18.13h-4.76Z" transform="translate(-449.1 -94.4)" fill="#110202"/>
    <path id="Path_7836" data-name="Path 7836" d="M676.4,165.184h4.442l.136,3.135h.284c.965-2.692,2.885-3.419,5.8-3.419v4.521c-4.657,0-5.941,1.7-5.941,6.645v7.248H676.4v-18.13Z" transform="translate(-650.579 -156.891)" fill="#110202"/>
    <path id="Path_7837" data-name="Path 7837" d="M792.5,174.215c0-7.327.466-9.315,8.315-9.315s8.315,1.988,8.315,9.315-.466,9.383-8.315,9.383S792.5,181.531,792.5,174.215Zm11.871,0c0-4.987,0-5.509-3.556-5.509s-3.556.534-3.556,5.509,0,5.578,3.556,5.578S804.371,179.191,804.371,174.215Z" transform="translate(-753.491 -156.891)" fill="#110202"/>
  </g>
  <g id="Group_8835" data-name="Group 8835" transform="translate(0.022 0.034)">
    <circle id="Ellipse_39" data-name="Ellipse 39" cx="17.653" cy="17.653" r="17.653" transform="translate(0)" fill="#fefefe"/>
  </g>
  <g id="Group_8836" data-name="Group 8836">
    <path id="Path_7838" data-name="Path 7838" d="M67.483,81.735a1.094,1.094,0,0,0,.977-.591l2.6-4.942H67.04a1.1,1.1,0,0,1-1.1-1.1V72.885a1.1,1.1,0,0,1,1.1-1.1H73.4l4.941-9.36a1.107,1.107,0,0,1,.977-.591h8.327A17.7,17.7,0,0,0,58.883,81.746h8.6Z" transform="translate(-57.1 -56.3)" fill="#9b1c2e"/>
    <path id="Path_7839" data-name="Path 7839" d="M119.764,143.711a1.094,1.094,0,0,0-.977.591l-2.6,4.941h4.021a1.1,1.1,0,0,1,1.1,1.1v2.215a1.1,1.1,0,0,1-1.1,1.1h-6.361l-4.941,9.36a1.107,1.107,0,0,1-.977.591H99.6A17.7,17.7,0,0,0,128.363,143.7h-8.6Z" transform="translate(-94.772 -133.772)" fill="#9b1c2e"/>
  </g>
</svg>
