<svg xmlns="http://www.w3.org/2000/svg" width="145.49" height="51.378" viewBox="0 0 145.49 51.378">
  <g id="firo-logo" transform="translate(-57.1 -56.3)">
    <g id="Group_8834" data-name="Group 8834" transform="translate(121.777 62.586)">
      <path id="Path_7835" data-name="Path 7835" d="M454.165,111.972H449.1v-5.511h5.065v-2.392c0-9.24,2.689-9.6,13.364-9.6v5c-5.775,0-6.5.313-6.5,3.465v3.514h6.5v5.511h-6.5v20.822h-6.864V111.972ZM472.4,94.4h7.078v6.088H472.4Zm.049,12.044h6.913v26.333h-6.913Z" transform="translate(-449.1 -94.4)" fill="#fff"/>
      <path id="Path_7836" data-name="Path 7836" d="M676.4,165.312h6.451l.2,4.554h.413c1.4-3.91,4.191-4.966,8.431-4.966v6.567c-6.765,0-8.629,2.475-8.629,9.652v10.526H676.4V165.312Z" transform="translate(-638.897 -153.268)" fill="#fff"/>
      <path id="Path_7837" data-name="Path 7837" d="M792.5,178.429c0-10.642.677-13.529,12.077-13.529s12.077,2.887,12.077,13.529-.677,13.628-12.077,13.628C793.177,192.074,792.5,189.055,792.5,178.429Zm17.242,0c0-7.243,0-8-5.164-8s-5.164.775-5.164,8,0,8.1,5.164,8.1S809.742,185.656,809.742,178.429Z" transform="translate(-735.842 -153.268)" fill="#fff"/>
    </g>
    <g id="Group_8835" data-name="Group 8835" transform="translate(57.133 56.35)">
      <circle id="Ellipse_39" data-name="Ellipse 39" cx="25.64" cy="25.64" r="25.64" transform="translate(0)" fill="#fefefe"/>
    </g>
    <g id="Group_8836" data-name="Group 8836" transform="translate(57.1 56.3)">
      <path id="Path_7838" data-name="Path 7838" d="M72.18,93.242a1.589,1.589,0,0,0,1.419-.858l3.778-7.177H71.537a1.6,1.6,0,0,1-1.6-1.6V80.389a1.6,1.6,0,0,1,1.6-1.6h9.24l7.177-13.6a1.608,1.608,0,0,1,1.419-.858h12.094A25.7,25.7,0,0,0,59.69,93.258H72.18Z" transform="translate(-57.1 -56.3)" fill="#9b1c2e"/>
      <path id="Path_7839" data-name="Path 7839" d="M128.886,143.717a1.589,1.589,0,0,0-1.419.858l-3.778,7.177h5.841a1.6,1.6,0,0,1,1.6,1.6v3.217a1.6,1.6,0,0,1-1.6,1.6h-9.24l-7.177,13.6a1.608,1.608,0,0,1-1.419.858H99.6A25.7,25.7,0,0,0,141.376,143.7h-12.49Z" transform="translate(-92.588 -129.28)" fill="#9b1c2e"/>
    </g>
  </g>
</svg>