<svg xmlns="http://www.w3.org/2000/svg" width="23.71" height="23.71" viewBox="0 0 23.71 23.71">
  <g id="icons8-twitter-circled" transform="translate(0.134 -0.134)">
    <path id="Path_8813" data-name="Path 8813" d="M11.855,0A11.855,11.855,0,1,1,0,11.855,11.855,11.855,0,0,1,11.855,0Z" transform="translate(-0.134 0.134)" fill="#fff"/>
    <path id="Path_8812" data-name="Path 8812" d="M23.206,11.843a7.113,7.113,0,0,1-1.9.558,4.635,4.635,0,0,0,1.9-1.9,9.07,9.07,0,0,1-2.4.869,3.062,3.062,0,0,0-5.2,2.3v1.267c-2.534,0-5.005-1.931-6.543-3.8a3.05,3.05,0,0,0-.423,1.557,4.046,4.046,0,0,0,1.9,2.878,5.881,5.881,0,0,1-1.9-.634v.036a2.84,2.84,0,0,0,2.479,2.8,3.967,3.967,0,0,1-1.8.33c.4,1.226,2.391,1.874,3.756,1.9a8.006,8.006,0,0,1-4.435,1.267A4.669,4.669,0,0,1,8,21.256a9.853,9.853,0,0,0,5.069,1.282,8.511,8.511,0,0,0,8.87-8.471c0-.134,0-.584-.011-.716a4.814,4.814,0,0,0,1.279-1.508" transform="translate(-3.882 -4.53)" fill="#9b1c2e"/>
  </g>
</svg>
