<svg xmlns="http://www.w3.org/2000/svg" width="40.123" height="40.115" viewBox="0 0 40.123 40.115">
  <path id="Icon_awesome-instagram" data-name="Icon awesome-instagram" d="M20.061,12.01A10.285,10.285,0,1,0,30.346,22.3,10.269,10.269,0,0,0,20.061,12.01Zm0,16.972A6.687,6.687,0,1,1,26.747,22.3,6.7,6.7,0,0,1,20.061,28.982Zm13.1-17.392a2.4,2.4,0,1,1-2.4-2.4A2.393,2.393,0,0,1,33.165,11.59Zm6.812,2.435c-.152-3.214-.886-6.06-3.24-8.405s-5.192-3.079-8.405-3.24c-3.312-.188-13.239-.188-16.551,0-3.2.152-6.051.886-8.405,3.231S.3,10.8.136,14.015c-.188,3.312-.188,13.239,0,16.551.152,3.214.886,6.06,3.24,8.405s5.192,3.079,8.405,3.24c3.312.188,13.239.188,16.551,0,3.213-.152,6.06-.886,8.405-3.24s3.079-5.192,3.24-8.405c.188-3.312.188-13.23,0-16.542ZM35.7,34.12a6.77,6.77,0,0,1-3.813,3.813c-2.641,1.047-8.906.806-11.824.806s-9.193.233-11.824-.806A6.77,6.77,0,0,1,4.423,34.12c-1.047-2.641-.806-8.907-.806-11.825s-.233-9.193.806-11.825A6.77,6.77,0,0,1,8.236,6.657c2.641-1.047,8.906-.806,11.824-.806s9.193-.233,11.824.806A6.77,6.77,0,0,1,35.7,10.471c1.047,2.641.806,8.907.806,11.825S36.746,31.488,35.7,34.12Z" transform="translate(0.005 -2.238)" fill="#f4f4f4"/>
</svg>
