<svg xmlns="http://www.w3.org/2000/svg" width="17.27" height="20.149" viewBox="0 0 17.27 20.149">
  <path id="Icon_metro-language" data-name="Icon metro-language" d="M12.123,14.324q-.011.034-.141-.006t-.354-.129l-.225-.1a6.737,6.737,0,0,1-.978-.551q-.079-.056-.461-.354t-.427-.32A19.155,19.155,0,0,1,8.031,14.9,8.359,8.359,0,0,1,6.85,16.134a.891.891,0,0,1-.219.045.433.433,0,0,1-.208,0q.067-.045.922-1.034.236-.27.961-1.293a15.72,15.72,0,0,0,.883-1.327q.191-.337.573-1.108a8.764,8.764,0,0,0,.4-.871,9.24,9.24,0,0,0-1.237.371q-.09.022-.309.084l-.388.107a1.926,1.926,0,0,0-.191.056.191.191,0,0,0-.022.118.25.25,0,0,1-.011.107q-.056.112-.349.169a.907.907,0,0,1-.528,0,.474.474,0,0,1-.315-.236.572.572,0,0,1-.056-.259,2.173,2.173,0,0,1,.275-.056,3.357,3.357,0,0,0,.332-.067q.652-.18,1.181-.36,1.124-.394,1.147-.394a2.5,2.5,0,0,0,.483-.219,5.086,5.086,0,0,1,.495-.242q.1-.034.242-.09t.163-.062a.151.151,0,0,1,.067.006,1.279,1.279,0,0,1-.011.371,2.394,2.394,0,0,1-.141.3q-.141.281-.3.6t-.191.377a16.863,16.863,0,0,1-.866,1.473l.72.315q.135.067.838.36l.759.315q.045.011.118.287a.852.852,0,0,1,.051.343ZM9.818,8.86a.456.456,0,0,1-.045.315,1.019,1.019,0,0,1-.562.427,1.8,1.8,0,0,1-.675.135.931.931,0,0,1-.551-.292.846.846,0,0,1-.2-.461l.011-.034a.481.481,0,0,0,.219.056.978.978,0,0,0,.3,0q.112-.022.652-.18a3.21,3.21,0,0,1,.618-.157.222.222,0,0,1,.236.191Zm7.848,1.45.708,2.552-1.563-.472ZM5.208,19.305l7.8-2.609V5.093l-7.8,2.62V19.305Zm13.953-3.564,1.147.349L18.274,8.7l-1.124-.349L14.72,14.38l1.147.349.506-1.237,2.372.731ZM13.506,4.924l6.443,2.069V2.721ZM17,19.8l1.777.146-.607,1.8L17.723,21a8.335,8.335,0,0,1-3.1,1.214,5.389,5.389,0,0,1-1.023.135h-.944a7.6,7.6,0,0,1-2.243-.439,7.466,7.466,0,0,1-2.063-.956.234.234,0,0,1-.09-.18.217.217,0,0,1,.056-.152.188.188,0,0,1,.146-.062.633.633,0,0,1,.2.084L9,20.834q.186.1.23.124a9.962,9.962,0,0,0,1.793.691,6.552,6.552,0,0,0,1.771.275,9.6,9.6,0,0,0,1.878-.163,9.267,9.267,0,0,0,1.765-.568q.169-.079.343-.174t.382-.214q.208-.118.32-.186ZM22.04,7.668V19.8l-8.7-2.766q-.157.067-4.216,1.434T4.984,19.834a.2.2,0,0,1-.2-.146.086.086,0,0,0-.011-.034V7.533a.5.5,0,0,1,.045-.112A.506.506,0,0,1,5.04,7.3Q6.232,6.9,6.715,6.735V2.417l6.274,2.226q.022,0,1.8-.618T18.347,2.8q1.771-.6,1.816-.6.225,0,.225.236v4.7Z" transform="translate(-4.77 -2.203)" fill="#fefefe"/>
</svg>
