<svg xmlns="http://www.w3.org/2000/svg" width="45" height="45" viewBox="0 0 59 59">
  <g id="com_telegram" transform="translate(-6 -5.67)">
    <circle id="Ellipse_65" data-name="Ellipse 65" cx="29.5" cy="29.5" r="29.5" transform="translate(6 5.67)" fill="#f4f4f4"/>
    <path id="Path-3_1_" d="M102.728,167.9q12.861-5.61,17.148-7.386c8.163-3.4,9.868-3.987,10.974-4.011a1.989,1.989,0,0,1,1.141.341,1.31,1.31,0,0,1,.423.8,4.947,4.947,0,0,1,.047,1.153c-.447,4.646-2.352,15.937-3.329,21.136-.412,2.2-1.223,2.94-2.011,3.011-1.705.153-3-1.129-4.658-2.211-2.588-1.694-4.046-2.752-6.563-4.411-2.905-1.917-1.023-2.964.635-4.681.435-.447,7.951-7.292,8.1-7.916a.569.569,0,0,0-.141-.518.666.666,0,0,0-.612-.059q-.388.088-12.409,8.2a5.519,5.519,0,0,1-3.187,1.176,20.82,20.82,0,0,1-4.575-1.082c-1.847-.6-3.305-.917-3.176-1.929C100.6,168.991,101.328,168.45,102.728,167.9Z" transform="translate(-83.414 -133.024)" fill="#9b1c2e" fill-rule="evenodd"/>
  </g>
</svg>
