<svg xmlns="http://www.w3.org/2000/svg" width="44.279" height="35.963" viewBox="0 0 44.279 35.963">
  <path id="Icon_awesome-twitter" data-name="Icon awesome-twitter" d="M39.728,12.343c.028.393.028.787.028,1.18,0,12-9.131,25.82-25.82,25.82A25.645,25.645,0,0,1,0,35.27a18.774,18.774,0,0,0,2.191.112,18.175,18.175,0,0,0,11.267-3.877,9.091,9.091,0,0,1-8.485-6.294,11.444,11.444,0,0,0,1.714.14,9.6,9.6,0,0,0,2.388-.309A9.076,9.076,0,0,1,1.8,16.136v-.112a9.139,9.139,0,0,0,4.1,1.152A9.089,9.089,0,0,1,3.09,5.038a25.8,25.8,0,0,0,18.712,9.5,10.245,10.245,0,0,1-.225-2.079A9.084,9.084,0,0,1,37.283,6.247a17.867,17.867,0,0,0,5.76-2.191,9.051,9.051,0,0,1-3.99,5,18.193,18.193,0,0,0,5.226-1.4,19.508,19.508,0,0,1-4.551,4.692Z" transform="translate(0 -3.381)" fill="#f4f4f4"/>
</svg>
