<svg xmlns="http://www.w3.org/2000/svg" width="45" height="45" viewBox="0 0 59 59">
  <g id="com_twitter" transform="translate(-6 -6)">
    <circle id="Ellipse_66" data-name="Ellipse 66" cx="29.5" cy="29.5" r="29.5" transform="translate(6 6)" fill="#f4f4f4"/>
    <path id="Path_8107" data-name="Path 8107" d="M138.042,189.679c12.3,0,19.022-10.183,19.022-19.022,0-.295,0-.578-.024-.861a13.484,13.484,0,0,0,3.339-3.457,13.133,13.133,0,0,1-3.835,1.05,6.713,6.713,0,0,0,2.938-3.693,13.357,13.357,0,0,1-4.248,1.617,6.687,6.687,0,0,0-11.564,4.578,6.524,6.524,0,0,0,.177,1.51,18.966,18.966,0,0,1-13.771-6.986,6.725,6.725,0,0,0,2.065,8.921,6.681,6.681,0,0,1-3.033-.838v.083a6.7,6.7,0,0,0,5.357,6.549,6.7,6.7,0,0,1-3.021.118,6.689,6.689,0,0,0,6.242,4.637,13.4,13.4,0,0,1-8.3,2.867,14.422,14.422,0,0,1-1.593-.094,18.823,18.823,0,0,0,10.242,3.021" transform="translate(-107.428 -138.65)" fill="#9b1c2e"/>
  </g>
</svg>