<svg xmlns="http://www.w3.org/2000/svg" width="47.696" height="37.898" viewBox="0 0 47.696 37.898">
  <path id="Icon_awesome-weibo" data-name="Icon awesome-weibo" d="M37.915,15.556a2.984,2.984,0,0,0-3.484-3.811,1.535,1.535,0,1,1-.661-3A6.064,6.064,0,0,1,40.9,16.5a1.564,1.564,0,0,1-2.981-.941ZM20.01,40.15c-9.9,0-20.01-4.7-20.01-12.457,0-4.049,2.608-8.719,7.108-13.133,9.288-9.112,18.93-9.222,16.172-.521-.373,1.2,1.146.521,1.146.548,7.406-3.071,13.089-1.535,10.62,4.7-.345.859.1,1,.773,1.2C48.461,24.348,39.061,40.15,20.01,40.15ZM33.4,26.779c-.5-5.091-7.313-8.591-15.222-7.832-7.9.786-13.862,5.511-13.359,10.6s7.313,8.591,15.222,7.832C27.938,36.6,33.9,31.87,33.4,26.779ZM32.41,2.533a1.793,1.793,0,1,0,.773,3.5A8.866,8.866,0,0,1,43.589,17.366a1.827,1.827,0,0,0,3.484,1.1C50.045,9.341,41.94.559,32.41,2.533ZM25.1,30.956C23.5,34.5,18.874,36.44,14.933,35.188c-3.8-1.2-5.4-4.88-3.754-8.2a8.711,8.711,0,0,1,9.633-4.122C24.724,23.855,26.69,27.456,25.1,30.956Zm-8.04-2.742a3.041,3.041,0,0,0-3.54,1.179,2.046,2.046,0,0,0,.8,3.107,3.041,3.041,0,0,0,3.642-1.179A2.054,2.054,0,0,0,17.057,28.214Zm3.037-1.225a1.189,1.189,0,0,0-1.332.494.786.786,0,0,0,.345,1.179,1.154,1.154,0,0,0,1.36-.494A.793.793,0,0,0,20.094,26.99Z" transform="translate(0 -2.252)" fill="#f4f4f4"/>
</svg>
