<svg xmlns="http://www.w3.org/2000/svg" width="45" height="45" viewBox="0 0 59 59">
  <g id="com_youtube" transform="translate(-6 -6)">
    <circle id="Ellipse_108" data-name="Ellipse 108" cx="29.5" cy="29.5" r="29.5" transform="translate(6 6)" fill="#f4f4f4"/>
    <path id="Path_8668" data-name="Path 8668" d="M137.4,153.813a12.99,12.99,0,0,0-.791-3.847,4.347,4.347,0,0,0-2.726-2.561,9.779,9.779,0,0,0-2.915-.413c-3.186-.165-6.384-.248-9.57-.283-4.142-.047-8.284.047-12.414.212a23.6,23.6,0,0,0-3.646.283,4.376,4.376,0,0,0-3.292,2.313,8.25,8.25,0,0,0-.649,1.805,24.761,24.761,0,0,0-.507,4.838,74.143,74.143,0,0,0,.13,9.157,12.4,12.4,0,0,0,.956,4.307,3.836,3.836,0,0,0,1.758,1.829,8.618,8.618,0,0,0,3.717.814c3.929.212,7.871.271,11.812.248,1.569,0,3.162.012,4.732,0,2.679-.035,5.369-.13,8.048-.307a4.87,4.87,0,0,0,4.932-3.977,18.831,18.831,0,0,0,.484-3.611A75.08,75.08,0,0,0,137.4,153.813Zm-11.3,5.263c-3.6,1.971-7.127,3.894-10.7,5.853h0V153.2c3.564,1.971,7.092,3.894,10.7,5.876Z" transform="translate(-83.62 -124.095)" fill="#9b1c2e"/>
  </g>
</svg>
