<svg xmlns="http://www.w3.org/2000/svg" width="44.438" height="31.246" viewBox="0 0 44.438 31.246">
  <path id="Icon_awesome-youtube" data-name="Icon awesome-youtube" d="M44.559,9.389a5.584,5.584,0,0,0-3.929-3.954C37.165,4.5,23.269,4.5,23.269,4.5s-13.9,0-17.362.935A5.584,5.584,0,0,0,1.979,9.389C1.05,12.877,1.05,20.155,1.05,20.155s0,7.278.929,10.766a5.5,5.5,0,0,0,3.929,3.891c3.466.935,17.362.935,17.362.935s13.9,0,17.362-.935a5.5,5.5,0,0,0,3.929-3.891c.929-3.488.929-10.766.929-10.766s0-7.278-.929-10.766ZM18.724,26.762V13.547l11.614,6.608L18.724,26.762Z" transform="translate(-1.05 -4.5)" fill="#f4f4f4"/>
</svg>
